<svg width="69" height="70" viewBox="0 0 69 70" fill="none" xmlns="http://www.w3.org/2000/svg">
<path d="M18.8829 30.0412L19.7336 30.1627V30.1627L18.8829 30.0412ZM18.8369 30.3637L17.9862 30.2421V30.2421L18.8369 30.3637ZM50.271 30.0412L51.1217 29.9197V29.9197L50.271 30.0412ZM50.3171 30.3637L49.4664 30.4852V30.4852L50.3171 30.3637ZM43.7434 57.6786V58.5379C44.218 58.5379 44.6028 58.1532 44.6028 57.6786H43.7434ZM25.4107 57.6786H24.5513C24.5513 58.1532 24.9361 58.5379 25.4107 58.5379V57.6786ZM21.9984 42.3382L22.678 41.8122L21.9984 42.3382ZM47.1556 42.3381L46.476 41.8121L47.1556 42.3381ZM27.7023 67.7043H41.4518V65.9856H27.7023V67.7043ZM18.0322 29.9197L17.9862 30.2421L19.6876 30.4852L19.7336 30.1627L18.0322 29.9197ZM34.577 15.5705C26.2599 15.5705 19.2084 21.6862 18.0322 29.9197L19.7336 30.1627C20.7889 22.7759 27.1152 17.2892 34.577 17.2892V15.5705ZM51.1217 29.9197C49.9455 21.6862 42.8941 15.5705 34.577 15.5705V17.2892C42.0388 17.2892 48.3651 22.776 49.4203 30.1628L51.1217 29.9197ZM51.1678 30.2422L51.1217 29.9197L49.4203 30.1627L49.4664 30.4852L51.1678 30.2422ZM47.8352 42.8641C50.4949 39.4277 51.8402 34.949 51.1678 30.2421L49.4664 30.4852C50.0701 34.7109 48.8645 38.7263 46.476 41.8121L47.8352 42.8641ZM42.8841 50.3514V57.6786H44.6028V50.3514H42.8841ZM43.7434 56.8192H25.4107V58.5379H43.7434V56.8192ZM26.27 57.6786V50.3516H24.5513V57.6786H26.27ZM17.9862 30.2421C17.3137 34.9491 18.659 39.4278 21.3189 42.8642L22.678 41.8122C20.2895 38.7263 19.0839 34.711 19.6876 30.4852L17.9862 30.2421ZM26.27 50.3516C26.27 47.0763 24.5228 44.1956 22.678 41.8122L21.3189 42.8642C23.1158 45.1858 24.5513 47.6771 24.5513 50.3516H26.27ZM46.476 41.8121C44.6313 44.1955 42.8841 47.0762 42.8841 50.3514H44.6028C44.6028 47.677 46.0383 45.1857 47.8352 42.8641L46.476 41.8121ZM33.7177 0.388672V9.55505H35.4364V0.388672H33.7177ZM0.203125 35.6219H9.36951V33.9033H0.203125V35.6219ZM59.7846 35.6219H68.951V33.9033H59.7846V35.6219ZM14.5603 18.1138L7.68556 11.239L6.47026 12.4543L13.345 19.3291L14.5603 18.1138ZM55.8091 19.3291L62.6838 12.4543L61.4685 11.239L54.5938 18.1138L55.8091 19.3291Z" fill="white"/>
</svg>
