<svg width="232" height="211" viewBox="0 0 232 211" fill="none" xmlns="http://www.w3.org/2000/svg">
<rect width="232" height="50" fill="url(#paint0_linear_81_39390)"/>
<path d="M65.665 30V20.13H67.247L70.873 28.292H70.439L74.065 20.13H75.633V30H73.995V22.678H74.499L71.181 30H70.103L66.785 22.678H67.303V30H65.665ZM81.9487 30.14C80.5393 30.14 79.4893 29.79 78.7987 29.09C78.1173 28.3807 77.7767 27.3353 77.7767 25.954V20.13H79.5827V25.94C79.5827 26.8173 79.7693 27.48 80.1427 27.928C80.5253 28.376 81.1273 28.6 81.9487 28.6C82.7327 28.6 83.3207 28.376 83.7127 27.928C84.114 27.48 84.3147 26.8173 84.3147 25.94V20.13H86.0927V25.954C86.0927 27.3353 85.7427 28.3807 85.0427 29.09C84.352 29.79 83.3207 30.14 81.9487 30.14ZM91.64 30.14C90.8466 30.14 90.114 30.042 89.442 29.846C88.7793 29.6407 88.21 29.3607 87.734 29.006L88.294 27.592C88.6113 27.816 88.9426 28.0073 89.288 28.166C89.6333 28.3153 90.002 28.432 90.394 28.516C90.786 28.5907 91.2013 28.628 91.64 28.628C92.3773 28.628 92.9093 28.5067 93.236 28.264C93.5626 28.0213 93.726 27.704 93.726 27.312C93.726 26.9667 93.614 26.7053 93.39 26.528C93.166 26.3413 92.7646 26.1873 92.186 26.066L90.604 25.744C89.6986 25.5573 89.022 25.2447 88.574 24.806C88.126 24.3673 87.902 23.7793 87.902 23.042C87.902 22.426 88.0653 21.8893 88.392 21.432C88.7186 20.9747 89.176 20.62 89.764 20.368C90.352 20.116 91.038 19.99 91.822 19.99C92.522 19.99 93.1706 20.0927 93.768 20.298C94.3653 20.494 94.8646 20.7787 95.266 21.152L94.706 22.496C94.3046 22.16 93.866 21.9127 93.39 21.754C92.914 21.586 92.382 21.502 91.794 21.502C91.1313 21.502 90.6133 21.6327 90.24 21.894C89.876 22.146 89.694 22.496 89.694 22.944C89.694 23.2893 89.806 23.5647 90.03 23.77C90.2633 23.9753 90.6553 24.134 91.206 24.246L92.774 24.554C93.7073 24.7407 94.398 25.0487 94.846 25.478C95.294 25.898 95.518 26.4673 95.518 27.186C95.518 27.774 95.3593 28.292 95.042 28.74C94.7246 29.1787 94.2766 29.524 93.698 29.776C93.1193 30.0187 92.4333 30.14 91.64 30.14ZM97.2194 30V20.13H99.0254V30H97.2194ZM105.79 30.14C104.763 30.14 103.881 29.9347 103.144 29.524C102.416 29.104 101.856 28.516 101.464 27.76C101.072 26.9947 100.876 26.094 100.876 25.058C100.876 24.022 101.072 23.126 101.464 22.37C101.856 21.614 102.416 21.0307 103.144 20.62C103.881 20.2 104.763 19.99 105.79 19.99C106.481 19.99 107.101 20.088 107.652 20.284C108.212 20.48 108.693 20.7693 109.094 21.152L108.506 22.58C108.067 22.2253 107.643 21.9733 107.232 21.824C106.831 21.6653 106.369 21.586 105.846 21.586C104.847 21.586 104.082 21.8893 103.55 22.496C103.027 23.0933 102.766 23.9473 102.766 25.058C102.766 26.1687 103.027 27.0273 103.55 27.634C104.082 28.2407 104.847 28.544 105.846 28.544C106.369 28.544 106.831 28.4693 107.232 28.32C107.643 28.1613 108.067 27.9 108.506 27.536L109.094 28.964C108.693 29.3373 108.212 29.6267 107.652 29.832C107.101 30.0373 106.481 30.14 105.79 30.14ZM114.624 30V20.13H119.006C120.088 20.13 120.914 20.3913 121.484 20.914C122.053 21.4367 122.338 22.1553 122.338 23.07C122.338 23.9753 122.053 24.694 121.484 25.226C120.914 25.758 120.088 26.024 119.006 26.024H116.43V30H114.624ZM116.43 24.596H118.796C119.393 24.596 119.841 24.4653 120.14 24.204C120.438 23.9333 120.588 23.5553 120.588 23.07C120.588 22.5847 120.438 22.2113 120.14 21.95C119.841 21.6793 119.393 21.544 118.796 21.544H116.43V24.596ZM123.948 30V20.13H125.754V28.474H130.402V30H123.948ZM130.471 30L134.937 20.13H136.449L140.971 30H139.137L137.933 27.228L138.661 27.718H132.739L133.495 27.228L132.291 30H130.471ZM135.679 22.062L133.705 26.738L133.341 26.304H138.045L137.751 26.738L135.735 22.062H135.679ZM143.555 30V25.338L143.933 26.416L139.691 20.13H141.777L144.689 24.61H144.297L147.209 20.13H149.225L144.997 26.416L145.361 25.338V30H143.555ZM150.376 30V20.13H157.026V21.544H152.112V24.274H156.704V25.702H152.112V28.572H157.026V30H150.376ZM158.702 30V20.13H163.014C164.096 20.13 164.932 20.3867 165.52 20.9C166.117 21.4133 166.416 22.1273 166.416 23.042C166.416 23.6487 166.28 24.1667 166.01 24.596C165.748 25.0253 165.37 25.3567 164.876 25.59C164.381 25.814 163.798 25.926 163.126 25.926L163.322 25.66H163.798C164.19 25.66 164.54 25.7627 164.848 25.968C165.156 26.1733 165.408 26.486 165.604 26.906L167.046 30H165.058L163.602 26.794C163.471 26.4673 163.27 26.2527 163 26.15C162.738 26.0473 162.421 25.996 162.048 25.996H160.508V30H158.702ZM160.508 24.666H162.72C163.354 24.666 163.835 24.5353 164.162 24.274C164.498 24.0033 164.666 23.6113 164.666 23.098C164.666 22.5847 164.498 22.1973 164.162 21.936C163.835 21.6747 163.354 21.544 162.72 21.544H160.508V24.666Z" fill="white"/>
<rect width="232" height="161" transform="translate(0 50)" fill="white"/>
<path d="M98.2083 134.646C97.415 134.646 96.6963 134.548 96.0523 134.352C95.4083 134.146 94.8483 133.857 94.3723 133.484L94.8623 132.336C95.1796 132.578 95.5063 132.779 95.8423 132.938C96.1876 133.096 96.5516 133.218 96.9343 133.302C97.3263 133.376 97.751 133.414 98.2083 133.414C98.9923 133.414 99.5663 133.274 99.9303 132.994C100.304 132.714 100.49 132.345 100.49 131.888C100.49 131.496 100.36 131.192 100.098 130.978C99.8463 130.763 99.3983 130.59 98.7543 130.46L97.2283 130.152C96.323 129.965 95.6463 129.662 95.1983 129.242C94.7596 128.812 94.5403 128.229 94.5403 127.492C94.5403 126.894 94.699 126.372 95.0163 125.924C95.3336 125.476 95.7723 125.13 96.3323 124.888C96.9016 124.645 97.5643 124.524 98.3203 124.524C99.0203 124.524 99.6643 124.626 100.252 124.832C100.84 125.028 101.335 125.322 101.736 125.714L101.26 126.82C100.84 126.456 100.392 126.19 99.9163 126.022C99.4403 125.844 98.899 125.756 98.2923 125.756C97.5736 125.756 97.009 125.905 96.5983 126.204C96.197 126.502 95.9963 126.908 95.9963 127.422C95.9963 127.832 96.1223 128.154 96.3743 128.388C96.6356 128.621 97.065 128.798 97.6623 128.92L99.1883 129.214C100.131 129.41 100.826 129.713 101.274 130.124C101.722 130.525 101.946 131.08 101.946 131.79C101.946 132.359 101.792 132.858 101.484 133.288C101.186 133.717 100.756 134.053 100.196 134.296C99.6363 134.529 98.9736 134.646 98.2083 134.646ZM105.897 134.52V125.868H102.523V124.65H110.727V125.868H107.353V134.52H105.897ZM109.987 134.52L114.383 124.65H115.629L120.095 134.52H118.597L117.379 131.72L117.995 132.112H112.017L112.675 131.72L111.457 134.52H109.987ZM114.985 126.246L112.857 131.272L112.521 130.95H117.491L117.211 131.272L115.041 126.246H114.985ZM121.4 134.52V124.65H125.572C126.626 124.65 127.443 124.902 128.022 125.406C128.6 125.9 128.89 126.596 128.89 127.492C128.89 128.08 128.759 128.584 128.498 129.004C128.236 129.424 127.868 129.746 127.392 129.97C126.916 130.184 126.356 130.292 125.712 130.292L125.936 130.068H126.314C126.696 130.068 127.037 130.166 127.336 130.362C127.644 130.558 127.896 130.87 128.092 131.3L129.506 134.52H127.91L126.51 131.286C126.37 130.903 126.15 130.656 125.852 130.544C125.562 130.432 125.203 130.376 124.774 130.376H122.856V134.52H121.4ZM122.856 129.27H125.334C126.034 129.27 126.561 129.12 126.916 128.822C127.28 128.523 127.462 128.094 127.462 127.534C127.462 126.964 127.28 126.535 126.916 126.246C126.561 125.956 126.034 125.812 125.334 125.812H122.856V129.27ZM133.254 134.52V125.868H129.88V124.65H138.084V125.868H134.71V134.52H133.254Z" fill="white"/>
<line x1="13" y1="99.5" x2="219" y2="99.5" stroke="#89969F" stroke-dasharray="5 5"/>
<path d="M82.4383 84.126C81.645 84.126 80.9263 84.028 80.2823 83.832C79.6383 83.6267 79.0783 83.3373 78.6023 82.964L79.0923 81.816C79.4097 82.0587 79.7363 82.2593 80.0723 82.418C80.4177 82.5767 80.7817 82.698 81.1643 82.782C81.5563 82.8567 81.981 82.894 82.4383 82.894C83.2223 82.894 83.7963 82.754 84.1603 82.474C84.5337 82.194 84.7203 81.8253 84.7203 81.368C84.7203 80.976 84.5897 80.6727 84.3283 80.458C84.0763 80.2433 83.6283 80.0707 82.9843 79.94L81.4583 79.632C80.553 79.4453 79.8763 79.142 79.4283 78.722C78.9897 78.2927 78.7703 77.7093 78.7703 76.972C78.7703 76.3747 78.929 75.852 79.2463 75.404C79.5637 74.956 80.0023 74.6107 80.5623 74.368C81.1317 74.1253 81.7943 74.004 82.5503 74.004C83.2503 74.004 83.8943 74.1067 84.4823 74.312C85.0703 74.508 85.565 74.802 85.9663 75.194L85.4903 76.3C85.0703 75.936 84.6223 75.67 84.1463 75.502C83.6703 75.3247 83.129 75.236 82.5223 75.236C81.8037 75.236 81.239 75.3853 80.8283 75.684C80.427 75.9827 80.2263 76.3887 80.2263 76.902C80.2263 77.3127 80.3523 77.6347 80.6043 77.868C80.8657 78.1013 81.295 78.2787 81.8923 78.4L83.4183 78.694C84.361 78.89 85.0563 79.1933 85.5043 79.604C85.9523 80.0053 86.1763 80.5607 86.1763 81.27C86.1763 81.8393 86.0223 82.3387 85.7143 82.768C85.4157 83.1973 84.9863 83.5333 84.4263 83.776C83.8663 84.0093 83.2037 84.126 82.4383 84.126ZM87.8397 84V73.696H89.2537V78.442H89.0577C89.263 77.91 89.5944 77.5087 90.0517 77.238C90.509 76.958 91.0364 76.818 91.6337 76.818C92.4737 76.818 93.099 77.0513 93.5097 77.518C93.9204 77.9753 94.1257 78.6707 94.1257 79.604V84H92.7117V79.688C92.7117 79.0813 92.5904 78.6427 92.3477 78.372C92.1144 78.092 91.741 77.952 91.2277 77.952C90.6304 77.952 90.1497 78.1387 89.7857 78.512C89.431 78.876 89.2537 79.3613 89.2537 79.968V84H87.8397ZM98.8405 84.126C98.2152 84.126 97.6692 83.9813 97.2025 83.692C96.7359 83.4027 96.3719 82.9827 96.1105 82.432C95.8585 81.8813 95.7325 81.228 95.7325 80.472C95.7325 79.7067 95.8585 79.0533 96.1105 78.512C96.3719 77.9707 96.7359 77.5553 97.2025 77.266C97.6692 76.9673 98.2152 76.818 98.8405 76.818C99.4565 76.818 99.9932 76.972 100.451 77.28C100.908 77.588 101.211 78.008 101.361 78.54H101.207L101.347 76.944H102.719C102.691 77.2333 102.663 77.5227 102.635 77.812C102.616 78.092 102.607 78.3673 102.607 78.638V84H101.193V82.432H101.347C101.197 82.9547 100.889 83.37 100.423 83.678C99.9652 83.9767 99.4379 84.126 98.8405 84.126ZM99.1905 83.02C99.7972 83.02 100.283 82.8053 100.647 82.376C101.02 81.9467 101.207 81.312 101.207 80.472C101.207 79.632 101.02 79.002 100.647 78.582C100.283 78.1527 99.7972 77.938 99.1905 77.938C98.5745 77.938 98.0799 78.1527 97.7065 78.582C97.3425 79.002 97.1605 79.632 97.1605 80.472C97.1605 81.312 97.3425 81.9467 97.7065 82.376C98.0705 82.8053 98.5652 83.02 99.1905 83.02ZM104.642 84V78.694C104.642 78.4047 104.632 78.1153 104.614 77.826C104.604 77.5273 104.586 77.2333 104.558 76.944H105.93L106.084 78.764H105.86C105.953 78.3253 106.112 77.9613 106.336 77.672C106.56 77.3827 106.83 77.168 107.148 77.028C107.474 76.888 107.815 76.818 108.17 76.818C108.319 76.818 108.445 76.8273 108.548 76.846C108.65 76.8553 108.753 76.874 108.856 76.902L108.842 78.162C108.683 78.0967 108.543 78.0593 108.422 78.05C108.31 78.0313 108.17 78.022 108.002 78.022C107.591 78.022 107.241 78.1153 106.952 78.302C106.662 78.4793 106.443 78.722 106.294 79.03C106.144 79.338 106.07 79.6693 106.07 80.024V84H104.642ZM113.113 84.126C111.975 84.126 111.079 83.804 110.425 83.16C109.772 82.516 109.445 81.6247 109.445 80.486C109.445 79.7487 109.585 79.1047 109.865 78.554C110.155 78.0033 110.551 77.5787 111.055 77.28C111.569 76.972 112.161 76.818 112.833 76.818C113.496 76.818 114.051 76.958 114.499 77.238C114.947 77.518 115.288 77.9147 115.521 78.428C115.755 78.932 115.871 79.5293 115.871 80.22V80.668H110.551V79.856H114.905L114.667 80.038C114.667 79.338 114.509 78.7967 114.191 78.414C113.883 78.022 113.435 77.826 112.847 77.826C112.194 77.826 111.69 78.0547 111.335 78.512C110.981 78.96 110.803 79.5807 110.803 80.374V80.514C110.803 81.3447 111.004 81.97 111.405 82.39C111.816 82.81 112.395 83.02 113.141 83.02C113.552 83.02 113.935 82.964 114.289 82.852C114.653 82.7307 114.999 82.5347 115.325 82.264L115.787 83.23C115.461 83.5193 115.064 83.7433 114.597 83.902C114.131 84.0513 113.636 84.126 113.113 84.126ZM124.684 84.126C123.891 84.126 123.172 84.028 122.528 83.832C121.884 83.6267 121.324 83.3373 120.848 82.964L121.338 81.816C121.656 82.0587 121.982 82.2593 122.318 82.418C122.664 82.5767 123.028 82.698 123.41 82.782C123.802 82.8567 124.227 82.894 124.684 82.894C125.468 82.894 126.042 82.754 126.406 82.474C126.78 82.194 126.966 81.8253 126.966 81.368C126.966 80.976 126.836 80.6727 126.574 80.458C126.322 80.2433 125.874 80.0707 125.23 79.94L123.704 79.632C122.799 79.4453 122.122 79.142 121.674 78.722C121.236 78.2927 121.016 77.7093 121.016 76.972C121.016 76.3747 121.175 75.852 121.492 75.404C121.81 74.956 122.248 74.6107 122.808 74.368C123.378 74.1253 124.04 74.004 124.796 74.004C125.496 74.004 126.14 74.1067 126.728 74.312C127.316 74.508 127.811 74.802 128.212 75.194L127.736 76.3C127.316 75.936 126.868 75.67 126.392 75.502C125.916 75.3247 125.375 75.236 124.768 75.236C124.05 75.236 123.485 75.3853 123.074 75.684C122.673 75.9827 122.472 76.3887 122.472 76.902C122.472 77.3127 122.598 77.6347 122.85 77.868C123.112 78.1013 123.541 78.2787 124.138 78.4L125.664 78.694C126.607 78.89 127.302 79.1933 127.75 79.604C128.198 80.0053 128.422 80.5607 128.422 81.27C128.422 81.8393 128.268 82.3387 127.96 82.768C127.662 83.1973 127.232 83.5333 126.672 83.776C126.112 84.0093 125.45 84.126 124.684 84.126ZM133.11 84.126C132.41 84.126 131.803 83.9813 131.29 83.692C130.776 83.3933 130.38 82.9733 130.1 82.432C129.82 81.8813 129.68 81.228 129.68 80.472C129.68 79.716 129.82 79.0673 130.1 78.526C130.38 77.9753 130.776 77.5553 131.29 77.266C131.803 76.9673 132.41 76.818 133.11 76.818C133.81 76.818 134.416 76.9673 134.93 77.266C135.452 77.5553 135.854 77.9753 136.134 78.526C136.423 79.0673 136.568 79.716 136.568 80.472C136.568 81.228 136.423 81.8813 136.134 82.432C135.854 82.9733 135.452 83.3933 134.93 83.692C134.416 83.9813 133.81 84.126 133.11 84.126ZM133.11 83.02C133.726 83.02 134.216 82.8053 134.58 82.376C134.944 81.9467 135.126 81.312 135.126 80.472C135.126 79.632 134.944 79.002 134.58 78.582C134.216 78.1527 133.726 77.938 133.11 77.938C132.503 77.938 132.018 78.1527 131.654 78.582C131.29 79.002 131.108 79.632 131.108 80.472C131.108 81.312 131.285 81.9467 131.64 82.376C132.004 82.8053 132.494 83.02 133.11 83.02ZM138.221 84V78.638C138.221 78.3673 138.207 78.092 138.179 77.812C138.16 77.5227 138.137 77.2333 138.109 76.944H139.481L139.607 78.428H139.439C139.653 77.9053 139.985 77.5087 140.433 77.238C140.881 76.958 141.399 76.818 141.987 76.818C142.817 76.818 143.443 77.0467 143.863 77.504C144.292 77.9613 144.507 78.6707 144.507 79.632V84H143.093V79.716C143.093 79.0907 142.967 78.6427 142.715 78.372C142.472 78.092 142.099 77.952 141.595 77.952C140.997 77.952 140.521 78.1387 140.167 78.512C139.812 78.876 139.635 79.3707 139.635 79.996V84H138.221ZM149.697 87.136C149.063 87.136 148.484 87.0613 147.961 86.912C147.448 86.7627 146.986 86.5387 146.575 86.24L146.925 85.204C147.215 85.4 147.499 85.554 147.779 85.666C148.059 85.7873 148.353 85.876 148.661 85.932C148.969 85.988 149.287 86.016 149.613 86.016C150.285 86.016 150.789 85.8433 151.125 85.498C151.471 85.162 151.643 84.672 151.643 84.028V82.138H151.783C151.634 82.6607 151.326 83.076 150.859 83.384C150.402 83.6827 149.87 83.832 149.263 83.832C148.619 83.832 148.059 83.692 147.583 83.412C147.117 83.1227 146.753 82.7167 146.491 82.194C146.239 81.662 146.113 81.0367 146.113 80.318C146.113 79.5993 146.239 78.9787 146.491 78.456C146.753 77.9333 147.117 77.532 147.583 77.252C148.059 76.9627 148.619 76.818 149.263 76.818C149.879 76.818 150.411 76.972 150.859 77.28C151.317 77.5787 151.62 77.9893 151.769 78.512L151.643 78.4L151.769 76.944H153.141C153.104 77.2333 153.076 77.5227 153.057 77.812C153.039 78.092 153.029 78.3673 153.029 78.638V83.86C153.029 84.924 152.745 85.736 152.175 86.296C151.615 86.856 150.789 87.136 149.697 87.136ZM149.599 82.726C150.215 82.726 150.705 82.516 151.069 82.096C151.443 81.676 151.629 81.0833 151.629 80.318C151.629 79.5527 151.443 78.9647 151.069 78.554C150.705 78.1433 150.215 77.938 149.599 77.938C148.965 77.938 148.461 78.1433 148.087 78.554C147.723 78.9647 147.541 79.5527 147.541 80.318C147.541 81.0833 147.723 81.676 148.087 82.096C148.461 82.516 148.965 82.726 149.599 82.726Z" fill="#C4C4C4"/>
<line x1="13" y1="136.5" x2="219" y2="136.5" stroke="#89969F" stroke-dasharray="5 5"/>
<path d="M74.6595 121L79.0555 111.13H80.3015L84.7675 121H83.2695L82.0515 118.2L82.6675 118.592H76.6895L77.3475 118.2L76.1295 121H74.6595ZM79.6575 112.726L77.5295 117.752L77.1935 117.43H82.1635L81.8835 117.752L79.7135 112.726H79.6575ZM88.5798 121.126C87.9638 121.126 87.4178 120.981 86.9418 120.692C86.4751 120.403 86.1111 119.983 85.8498 119.432C85.5978 118.881 85.4718 118.228 85.4718 117.472C85.4718 116.707 85.5978 116.053 85.8498 115.512C86.1111 114.971 86.4751 114.555 86.9418 114.266C87.4178 113.967 87.9638 113.818 88.5798 113.818C89.1865 113.818 89.7185 113.972 90.1758 114.28C90.6425 114.579 90.9505 114.989 91.0998 115.512H90.9318V110.696H92.3458V121H90.9458V119.404H91.1138C90.9551 119.936 90.6471 120.356 90.1898 120.664C89.7325 120.972 89.1958 121.126 88.5798 121.126ZM88.9298 120.02C89.5365 120.02 90.0265 119.805 90.3998 119.376C90.7731 118.947 90.9598 118.312 90.9598 117.472C90.9598 116.632 90.7731 116.002 90.3998 115.582C90.0265 115.153 89.5365 114.938 88.9298 114.938C88.3138 114.938 87.8191 115.153 87.4458 115.582C87.0818 116.002 86.8998 116.632 86.8998 117.472C86.8998 118.312 87.0818 118.947 87.4458 119.376C87.8191 119.805 88.3138 120.02 88.9298 120.02ZM93.583 124.094C93.4337 124.094 93.261 124.08 93.065 124.052C92.8597 124.024 92.6824 123.977 92.533 123.912V122.764C92.6544 122.801 92.7897 122.834 92.939 122.862C93.079 122.899 93.2144 122.918 93.345 122.918C93.709 122.918 93.9844 122.801 94.171 122.568C94.367 122.344 94.465 121.971 94.465 121.448V113.944H95.879V121.546C95.879 122.386 95.6924 123.021 95.319 123.45C94.9457 123.879 94.367 124.094 93.583 124.094ZM94.339 112.474V111.004H95.991V112.474H94.339ZM100.401 121.126C99.552 121.126 98.9127 120.897 98.4834 120.44C98.0634 119.973 97.8534 119.259 97.8534 118.298V113.944H99.2674V118.27C99.2674 118.858 99.3887 119.292 99.6314 119.572C99.874 119.852 100.243 119.992 100.737 119.992C101.297 119.992 101.75 119.805 102.095 119.432C102.441 119.059 102.613 118.564 102.613 117.948V113.944H104.027V121H102.655V119.488H102.837C102.641 120.011 102.329 120.417 101.899 120.706C101.47 120.986 100.971 121.126 100.401 121.126ZM108.521 121.126C107.933 121.126 107.391 121.051 106.897 120.902C106.402 120.753 105.991 120.543 105.665 120.272L106.099 119.306C106.444 119.567 106.827 119.763 107.247 119.894C107.667 120.025 108.096 120.09 108.535 120.09C109.048 120.09 109.435 120.001 109.697 119.824C109.958 119.637 110.089 119.385 110.089 119.068C110.089 118.825 110.005 118.629 109.837 118.48C109.678 118.331 109.412 118.219 109.039 118.144L107.695 117.878C107.097 117.747 106.645 117.523 106.337 117.206C106.029 116.889 105.875 116.483 105.875 115.988C105.875 115.568 105.987 115.195 106.211 114.868C106.444 114.541 106.771 114.285 107.191 114.098C107.62 113.911 108.119 113.818 108.689 113.818C109.211 113.818 109.697 113.893 110.145 114.042C110.593 114.191 110.966 114.406 111.265 114.686L110.817 115.624C110.527 115.381 110.201 115.195 109.837 115.064C109.473 114.924 109.104 114.854 108.731 114.854C108.208 114.854 107.821 114.952 107.569 115.148C107.317 115.344 107.191 115.601 107.191 115.918C107.191 116.161 107.265 116.361 107.415 116.52C107.573 116.669 107.821 116.786 108.157 116.87L109.501 117.136C110.135 117.267 110.611 117.481 110.929 117.78C111.246 118.079 111.405 118.48 111.405 118.984C111.405 119.423 111.283 119.805 111.041 120.132C110.798 120.459 110.462 120.706 110.033 120.874C109.603 121.042 109.099 121.126 108.521 121.126ZM115.747 121.126C114.981 121.126 114.403 120.921 114.011 120.51C113.619 120.09 113.423 119.465 113.423 118.634V115.036H112.051V113.944H113.423V112.082L114.837 111.704V113.944H116.797V115.036H114.837V118.508C114.837 119.031 114.93 119.404 115.117 119.628C115.303 119.852 115.574 119.964 115.929 119.964C116.106 119.964 116.26 119.95 116.391 119.922C116.531 119.885 116.657 119.843 116.769 119.796V120.944C116.629 121 116.465 121.042 116.279 121.07C116.092 121.107 115.915 121.126 115.747 121.126ZM118.089 121V115.638C118.089 115.367 118.075 115.092 118.047 114.812C118.028 114.523 118.005 114.233 117.977 113.944H119.349L119.475 115.428H119.307C119.503 114.915 119.801 114.518 120.203 114.238C120.613 113.958 121.103 113.818 121.673 113.818C122.251 113.818 122.723 113.958 123.087 114.238C123.46 114.509 123.717 114.929 123.857 115.498H123.633C123.819 114.985 124.137 114.579 124.585 114.28C125.033 113.972 125.551 113.818 126.139 113.818C126.923 113.818 127.511 114.047 127.903 114.504C128.295 114.961 128.491 115.671 128.491 116.632V121H127.077V116.702C127.077 116.086 126.969 115.643 126.755 115.372C126.549 115.092 126.213 114.952 125.747 114.952C125.205 114.952 124.776 115.139 124.459 115.512C124.141 115.885 123.983 116.389 123.983 117.024V121H122.569V116.702C122.569 116.086 122.461 115.643 122.247 115.372C122.041 115.092 121.705 114.952 121.239 114.952C120.697 114.952 120.273 115.139 119.965 115.512C119.657 115.885 119.503 116.389 119.503 117.024V121H118.089ZM133.778 121.126C132.64 121.126 131.744 120.804 131.09 120.16C130.437 119.516 130.11 118.625 130.11 117.486C130.11 116.749 130.25 116.105 130.53 115.554C130.82 115.003 131.216 114.579 131.72 114.28C132.234 113.972 132.826 113.818 133.498 113.818C134.161 113.818 134.716 113.958 135.164 114.238C135.612 114.518 135.953 114.915 136.186 115.428C136.42 115.932 136.536 116.529 136.536 117.22V117.668H131.216V116.856H135.57L135.332 117.038C135.332 116.338 135.174 115.797 134.856 115.414C134.548 115.022 134.1 114.826 133.512 114.826C132.859 114.826 132.355 115.055 132 115.512C131.646 115.96 131.468 116.581 131.468 117.374V117.514C131.468 118.345 131.669 118.97 132.07 119.39C132.481 119.81 133.06 120.02 133.806 120.02C134.217 120.02 134.6 119.964 134.954 119.852C135.318 119.731 135.664 119.535 135.99 119.264L136.452 120.23C136.126 120.519 135.729 120.743 135.262 120.902C134.796 121.051 134.301 121.126 133.778 121.126ZM138.159 121V115.638C138.159 115.367 138.145 115.092 138.117 114.812C138.098 114.523 138.075 114.233 138.047 113.944H139.419L139.545 115.428H139.377C139.592 114.905 139.923 114.509 140.371 114.238C140.819 113.958 141.337 113.818 141.925 113.818C142.756 113.818 143.381 114.047 143.801 114.504C144.23 114.961 144.445 115.671 144.445 116.632V121H143.031V116.716C143.031 116.091 142.905 115.643 142.653 115.372C142.41 115.092 142.037 114.952 141.533 114.952C140.936 114.952 140.46 115.139 140.105 115.512C139.75 115.876 139.573 116.371 139.573 116.996V121H138.159ZM149.202 121.126C148.437 121.126 147.858 120.921 147.466 120.51C147.074 120.09 146.878 119.465 146.878 118.634V115.036H145.506V113.944H146.878V112.082L148.292 111.704V113.944H150.252V115.036H148.292V118.508C148.292 119.031 148.385 119.404 148.572 119.628C148.759 119.852 149.029 119.964 149.384 119.964C149.561 119.964 149.715 119.95 149.846 119.922C149.986 119.885 150.112 119.843 150.224 119.796V120.944C150.084 121 149.921 121.042 149.734 121.07C149.547 121.107 149.37 121.126 149.202 121.126ZM153.966 121.126C153.378 121.126 152.836 121.051 152.342 120.902C151.847 120.753 151.436 120.543 151.11 120.272L151.544 119.306C151.889 119.567 152.272 119.763 152.692 119.894C153.112 120.025 153.541 120.09 153.98 120.09C154.493 120.09 154.88 120.001 155.142 119.824C155.403 119.637 155.534 119.385 155.534 119.068C155.534 118.825 155.45 118.629 155.282 118.48C155.123 118.331 154.857 118.219 154.484 118.144L153.14 117.878C152.542 117.747 152.09 117.523 151.782 117.206C151.474 116.889 151.32 116.483 151.32 115.988C151.32 115.568 151.432 115.195 151.656 114.868C151.889 114.541 152.216 114.285 152.636 114.098C153.065 113.911 153.564 113.818 154.134 113.818C154.656 113.818 155.142 113.893 155.59 114.042C156.038 114.191 156.411 114.406 156.71 114.686L156.262 115.624C155.972 115.381 155.646 115.195 155.282 115.064C154.918 114.924 154.549 114.854 154.176 114.854C153.653 114.854 153.266 114.952 153.014 115.148C152.762 115.344 152.636 115.601 152.636 115.918C152.636 116.161 152.71 116.361 152.86 116.52C153.018 116.669 153.266 116.786 153.602 116.87L154.946 117.136C155.58 117.267 156.056 117.481 156.374 117.78C156.691 118.079 156.85 118.48 156.85 118.984C156.85 119.423 156.728 119.805 156.486 120.132C156.243 120.459 155.907 120.706 155.478 120.874C155.048 121.042 154.544 121.126 153.966 121.126Z" fill="#C4C4C4"/>
<line x1="13" y1="173.5" x2="219" y2="173.5" stroke="#89969F" stroke-dasharray="5 5"/>
<path d="M50.7014 158V148.13H55.0274C56.1007 148.13 56.9267 148.359 57.5054 148.816C58.084 149.264 58.3734 149.889 58.3734 150.692C58.3734 151.289 58.196 151.793 57.8414 152.204C57.4867 152.615 56.9967 152.89 56.3714 153.03V152.82C57.09 152.923 57.6454 153.184 58.0374 153.604C58.4387 154.015 58.6394 154.561 58.6394 155.242C58.6394 156.119 58.336 156.801 57.7294 157.286C57.1227 157.762 56.278 158 55.1954 158H50.7014ZM52.4374 156.628H54.9854C55.592 156.628 56.0634 156.516 56.3994 156.292C56.7354 156.059 56.9034 155.681 56.9034 155.158C56.9034 154.626 56.7354 154.248 56.3994 154.024C56.0634 153.791 55.592 153.674 54.9854 153.674H52.4374V156.628ZM52.4374 152.316H54.7194C55.3634 152.316 55.8394 152.199 56.1474 151.966C56.4647 151.723 56.6234 151.369 56.6234 150.902C56.6234 150.435 56.4647 150.085 56.1474 149.852C55.8394 149.609 55.3634 149.488 54.7194 149.488H52.4374V152.316ZM60.2134 158V152.736C60.2134 152.437 60.2041 152.134 60.1854 151.826C60.1761 151.518 60.1527 151.219 60.1154 150.93H61.8094L62.0054 152.862H61.7254C61.8187 152.395 61.9727 152.008 62.1874 151.7C62.4114 151.392 62.6821 151.163 62.9994 151.014C63.3167 150.865 63.6621 150.79 64.0354 150.79C64.2034 150.79 64.3387 150.799 64.4414 150.818C64.5441 150.827 64.6467 150.851 64.7494 150.888L64.7354 152.428C64.5581 152.353 64.4041 152.307 64.2734 152.288C64.1521 152.269 63.9981 152.26 63.8114 152.26C63.4101 152.26 63.0694 152.344 62.7894 152.512C62.5187 152.68 62.3134 152.913 62.1734 153.212C62.0427 153.511 61.9774 153.851 61.9774 154.234V158H60.2134ZM68.8061 158.14C68.0781 158.14 67.4481 157.991 66.9161 157.692C66.3841 157.393 65.9688 156.969 65.6701 156.418C65.3808 155.867 65.2361 155.214 65.2361 154.458C65.2361 153.702 65.3808 153.053 65.6701 152.512C65.9688 151.961 66.3841 151.537 66.9161 151.238C67.4481 150.939 68.0781 150.79 68.8061 150.79C69.5341 150.79 70.1641 150.939 70.6961 151.238C71.2374 151.537 71.6528 151.961 71.9421 152.512C72.2408 153.053 72.3901 153.702 72.3901 154.458C72.3901 155.214 72.2408 155.867 71.9421 156.418C71.6528 156.969 71.2374 157.393 70.6961 157.692C70.1641 157.991 69.5341 158.14 68.8061 158.14ZM68.8061 156.796C69.3568 156.796 69.7954 156.605 70.1221 156.222C70.4488 155.83 70.6121 155.242 70.6121 154.458C70.6121 153.674 70.4488 153.091 70.1221 152.708C69.7954 152.325 69.3568 152.134 68.8061 152.134C68.2554 152.134 67.8168 152.325 67.4901 152.708C67.1634 153.091 67.0001 153.674 67.0001 154.458C67.0001 155.242 67.1634 155.83 67.4901 156.222C67.8168 156.605 68.2554 156.796 68.8061 156.796ZM75.7225 158L72.9645 150.93H74.7705L76.7585 156.432H76.3945L78.4105 150.93H79.6565L81.6585 156.432H81.3365L83.3105 150.93H85.0185L82.2605 158H80.7205L78.6065 152.372H79.3485L77.2765 158H75.7225ZM88.5052 158.14C87.8985 158.14 87.3385 158.07 86.8252 157.93C86.3212 157.781 85.8965 157.575 85.5512 157.314L86.0412 156.138C86.3959 156.381 86.7879 156.567 87.2172 156.698C87.6465 156.829 88.0805 156.894 88.5192 156.894C88.9859 156.894 89.3312 156.815 89.5552 156.656C89.7885 156.497 89.9052 156.283 89.9052 156.012C89.9052 155.797 89.8305 155.629 89.6812 155.508C89.5412 155.377 89.3125 155.279 88.9952 155.214L87.5952 154.948C86.9979 154.817 86.5405 154.593 86.2232 154.276C85.9152 153.959 85.7612 153.543 85.7612 153.03C85.7612 152.591 85.8779 152.204 86.1112 151.868C86.3539 151.532 86.6945 151.271 87.1332 151.084C87.5812 150.888 88.1039 150.79 88.7012 150.79C89.2239 150.79 89.7139 150.86 90.1712 151C90.6379 151.14 91.0299 151.35 91.3472 151.63L90.8432 152.764C90.5539 152.531 90.2225 152.349 89.8492 152.218C89.4759 152.087 89.1119 152.022 88.7572 152.022C88.2719 152.022 87.9172 152.111 87.6932 152.288C87.4692 152.456 87.3572 152.675 87.3572 152.946C87.3572 153.151 87.4225 153.324 87.5532 153.464C87.6932 153.595 87.9079 153.693 88.1972 153.758L89.5972 154.024C90.2225 154.145 90.6939 154.36 91.0112 154.668C91.3379 154.967 91.5012 155.377 91.5012 155.9C91.5012 156.367 91.3752 156.768 91.1232 157.104C90.8712 157.44 90.5212 157.697 90.0732 157.874C89.6252 158.051 89.1025 158.14 88.5052 158.14ZM96.4149 158.14C95.2295 158.14 94.3009 157.813 93.6289 157.16C92.9569 156.507 92.6209 155.611 92.6209 154.472C92.6209 153.735 92.7655 153.091 93.0549 152.54C93.3442 151.989 93.7455 151.56 94.2589 151.252C94.7815 150.944 95.3882 150.79 96.0789 150.79C96.7602 150.79 97.3295 150.935 97.7869 151.224C98.2442 151.513 98.5895 151.919 98.8229 152.442C99.0655 152.965 99.1869 153.576 99.1869 154.276V154.738H94.0349V153.814H97.9409L97.7029 154.01C97.7029 153.357 97.5629 152.857 97.2829 152.512C97.0122 152.167 96.6155 151.994 96.0929 151.994C95.5142 151.994 95.0662 152.199 94.7489 152.61C94.4409 153.021 94.2869 153.595 94.2869 154.332V154.514C94.2869 155.279 94.4735 155.853 94.8469 156.236C95.2295 156.609 95.7662 156.796 96.4569 156.796C96.8582 156.796 97.2315 156.745 97.5769 156.642C97.9315 156.53 98.2675 156.353 98.5849 156.11L99.1029 157.286C98.7669 157.557 98.3655 157.767 97.8989 157.916C97.4322 158.065 96.9375 158.14 96.4149 158.14ZM104.665 158V148.13H106.247L109.873 156.292H109.439L113.065 148.13H114.633V158H112.995V150.678H113.499L110.181 158H109.103L105.785 150.678H106.303V158H104.665ZM119.884 158.14C119.156 158.14 118.526 157.991 117.994 157.692C117.462 157.393 117.047 156.969 116.748 156.418C116.459 155.867 116.314 155.214 116.314 154.458C116.314 153.702 116.459 153.053 116.748 152.512C117.047 151.961 117.462 151.537 117.994 151.238C118.526 150.939 119.156 150.79 119.884 150.79C120.612 150.79 121.242 150.939 121.774 151.238C122.316 151.537 122.731 151.961 123.02 152.512C123.319 153.053 123.468 153.702 123.468 154.458C123.468 155.214 123.319 155.867 123.02 156.418C122.731 156.969 122.316 157.393 121.774 157.692C121.242 157.991 120.612 158.14 119.884 158.14ZM119.884 156.796C120.435 156.796 120.874 156.605 121.2 156.222C121.527 155.83 121.69 155.242 121.69 154.458C121.69 153.674 121.527 153.091 121.2 152.708C120.874 152.325 120.435 152.134 119.884 152.134C119.334 152.134 118.895 152.325 118.568 152.708C118.242 153.091 118.078 153.674 118.078 154.458C118.078 155.242 118.242 155.83 118.568 156.222C118.895 156.605 119.334 156.796 119.884 156.796ZM124.963 158V152.736C124.963 152.437 124.954 152.134 124.935 151.826C124.926 151.518 124.903 151.219 124.865 150.93H126.559L126.755 152.862H126.475C126.569 152.395 126.723 152.008 126.937 151.7C127.161 151.392 127.432 151.163 127.749 151.014C128.067 150.865 128.412 150.79 128.785 150.79C128.953 150.79 129.089 150.799 129.191 150.818C129.294 150.827 129.397 150.851 129.499 150.888L129.485 152.428C129.308 152.353 129.154 152.307 129.023 152.288C128.902 152.269 128.748 152.26 128.561 152.26C128.16 152.26 127.819 152.344 127.539 152.512C127.269 152.68 127.063 152.913 126.923 153.212C126.793 153.511 126.727 153.851 126.727 154.234V158H124.963ZM133.78 158.14C132.595 158.14 131.666 157.813 130.994 157.16C130.322 156.507 129.986 155.611 129.986 154.472C129.986 153.735 130.131 153.091 130.42 152.54C130.709 151.989 131.111 151.56 131.624 151.252C132.147 150.944 132.753 150.79 133.444 150.79C134.125 150.79 134.695 150.935 135.152 151.224C135.609 151.513 135.955 151.919 136.188 152.442C136.431 152.965 136.552 153.576 136.552 154.276V154.738H131.4V153.814H135.306L135.068 154.01C135.068 153.357 134.928 152.857 134.648 152.512C134.377 152.167 133.981 151.994 133.458 151.994C132.879 151.994 132.431 152.199 132.114 152.61C131.806 153.021 131.652 153.595 131.652 154.332V154.514C131.652 155.279 131.839 155.853 132.212 156.236C132.595 156.609 133.131 156.796 133.822 156.796C134.223 156.796 134.597 156.745 134.942 156.642C135.297 156.53 135.633 156.353 135.95 156.11L136.468 157.286C136.132 157.557 135.731 157.767 135.264 157.916C134.797 158.065 134.303 158.14 133.78 158.14ZM145.46 158.14C144.666 158.14 143.934 158.042 143.262 157.846C142.599 157.641 142.03 157.361 141.554 157.006L142.114 155.592C142.431 155.816 142.762 156.007 143.108 156.166C143.453 156.315 143.822 156.432 144.214 156.516C144.606 156.591 145.021 156.628 145.46 156.628C146.197 156.628 146.729 156.507 147.056 156.264C147.382 156.021 147.546 155.704 147.546 155.312C147.546 154.967 147.434 154.705 147.21 154.528C146.986 154.341 146.584 154.187 146.006 154.066L144.424 153.744C143.518 153.557 142.842 153.245 142.394 152.806C141.946 152.367 141.722 151.779 141.722 151.042C141.722 150.426 141.885 149.889 142.212 149.432C142.538 148.975 142.996 148.62 143.584 148.368C144.172 148.116 144.858 147.99 145.642 147.99C146.342 147.99 146.99 148.093 147.588 148.298C148.185 148.494 148.684 148.779 149.086 149.152L148.526 150.496C148.124 150.16 147.686 149.913 147.21 149.754C146.734 149.586 146.202 149.502 145.614 149.502C144.951 149.502 144.433 149.633 144.06 149.894C143.696 150.146 143.514 150.496 143.514 150.944C143.514 151.289 143.626 151.565 143.85 151.77C144.083 151.975 144.475 152.134 145.026 152.246L146.594 152.554C147.527 152.741 148.218 153.049 148.666 153.478C149.114 153.898 149.338 154.467 149.338 155.186C149.338 155.774 149.179 156.292 148.862 156.74C148.544 157.179 148.096 157.524 147.518 157.776C146.939 158.019 146.253 158.14 145.46 158.14ZM154.091 158.14C153.363 158.14 152.733 157.991 152.201 157.692C151.669 157.393 151.254 156.969 150.955 156.418C150.666 155.867 150.521 155.214 150.521 154.458C150.521 153.702 150.666 153.053 150.955 152.512C151.254 151.961 151.669 151.537 152.201 151.238C152.733 150.939 153.363 150.79 154.091 150.79C154.819 150.79 155.449 150.939 155.981 151.238C156.523 151.537 156.938 151.961 157.227 152.512C157.526 153.053 157.675 153.702 157.675 154.458C157.675 155.214 157.526 155.867 157.227 156.418C156.938 156.969 156.523 157.393 155.981 157.692C155.449 157.991 154.819 158.14 154.091 158.14ZM154.091 156.796C154.642 156.796 155.081 156.605 155.407 156.222C155.734 155.83 155.897 155.242 155.897 154.458C155.897 153.674 155.734 153.091 155.407 152.708C155.081 152.325 154.642 152.134 154.091 152.134C153.541 152.134 153.102 152.325 152.775 152.708C152.449 153.091 152.285 153.674 152.285 154.458C152.285 155.242 152.449 155.83 152.775 156.222C153.102 156.605 153.541 156.796 154.091 156.796ZM159.184 158V152.694C159.184 152.405 159.175 152.111 159.156 151.812C159.138 151.513 159.11 151.219 159.072 150.93H160.766L160.906 152.33H160.738C160.962 151.835 161.294 151.457 161.732 151.196C162.171 150.925 162.68 150.79 163.258 150.79C164.089 150.79 164.714 151.023 165.134 151.49C165.554 151.957 165.764 152.685 165.764 153.674V158H164.014V153.758C164.014 153.189 163.902 152.783 163.678 152.54C163.464 152.288 163.137 152.162 162.698 152.162C162.157 152.162 161.728 152.33 161.41 152.666C161.093 153.002 160.934 153.45 160.934 154.01V158H159.184ZM170.896 161.136C170.243 161.136 169.65 161.066 169.118 160.926C168.595 160.786 168.129 160.571 167.718 160.282L168.096 159.022C168.367 159.199 168.647 159.344 168.936 159.456C169.225 159.568 169.524 159.652 169.832 159.708C170.14 159.764 170.453 159.792 170.77 159.792C171.423 159.792 171.909 159.629 172.226 159.302C172.553 158.985 172.716 158.527 172.716 157.93V156.236H172.856C172.707 156.721 172.403 157.109 171.946 157.398C171.498 157.687 170.98 157.832 170.392 157.832C169.757 157.832 169.202 157.692 168.726 157.412C168.259 157.123 167.895 156.712 167.634 156.18C167.373 155.648 167.242 155.023 167.242 154.304C167.242 153.585 167.373 152.965 167.634 152.442C167.895 151.91 168.259 151.504 168.726 151.224C169.202 150.935 169.757 150.79 170.392 150.79C170.989 150.79 171.507 150.935 171.946 151.224C172.394 151.504 172.693 151.887 172.842 152.372L172.716 152.288L172.856 150.93H174.55C174.513 151.219 174.485 151.513 174.466 151.812C174.447 152.111 174.438 152.405 174.438 152.694V157.72C174.438 158.831 174.135 159.675 173.528 160.254C172.931 160.842 172.053 161.136 170.896 161.136ZM170.868 156.488C171.428 156.488 171.871 156.301 172.198 155.928C172.534 155.545 172.702 155.004 172.702 154.304C172.702 153.604 172.534 153.067 172.198 152.694C171.871 152.321 171.428 152.134 170.868 152.134C170.299 152.134 169.846 152.321 169.51 152.694C169.174 153.067 169.006 153.604 169.006 154.304C169.006 155.004 169.174 155.545 169.51 155.928C169.846 156.301 170.299 156.488 170.868 156.488ZM178.849 158.14C178.242 158.14 177.682 158.07 177.169 157.93C176.665 157.781 176.24 157.575 175.895 157.314L176.385 156.138C176.74 156.381 177.132 156.567 177.561 156.698C177.99 156.829 178.424 156.894 178.863 156.894C179.33 156.894 179.675 156.815 179.899 156.656C180.132 156.497 180.249 156.283 180.249 156.012C180.249 155.797 180.174 155.629 180.025 155.508C179.885 155.377 179.656 155.279 179.339 155.214L177.939 154.948C177.342 154.817 176.884 154.593 176.567 154.276C176.259 153.959 176.105 153.543 176.105 153.03C176.105 152.591 176.222 152.204 176.455 151.868C176.698 151.532 177.038 151.271 177.477 151.084C177.925 150.888 178.448 150.79 179.045 150.79C179.568 150.79 180.058 150.86 180.515 151C180.982 151.14 181.374 151.35 181.691 151.63L181.187 152.764C180.898 152.531 180.566 152.349 180.193 152.218C179.82 152.087 179.456 152.022 179.101 152.022C178.616 152.022 178.261 152.111 178.037 152.288C177.813 152.456 177.701 152.675 177.701 152.946C177.701 153.151 177.766 153.324 177.897 153.464C178.037 153.595 178.252 153.693 178.541 153.758L179.941 154.024C180.566 154.145 181.038 154.36 181.355 154.668C181.682 154.967 181.845 155.377 181.845 155.9C181.845 156.367 181.719 156.768 181.467 157.104C181.215 157.44 180.865 157.697 180.417 157.874C179.969 158.051 179.446 158.14 178.849 158.14Z" fill="#303030"/>
<defs>
<linearGradient id="paint0_linear_81_39390" x1="135.949" y1="83.1395" x2="134.116" y2="49.938" gradientUnits="userSpaceOnUse">
<stop offset="0.21875" stop-color="#969BFF"/>
<stop offset="1" stop-color="#656CEE"/>
</linearGradient>
</defs>
</svg>
