<svg width="232" height="247" viewBox="0 0 232 247" fill="none" xmlns="http://www.w3.org/2000/svg">
<rect width="232" height="50" fill="url(#paint0_linear_81_39388)"/>
<path d="M80.219 30V20.13H84.601C85.6836 20.13 86.5096 20.3913 87.079 20.914C87.6483 21.4367 87.933 22.1553 87.933 23.07C87.933 23.9753 87.6483 24.694 87.079 25.226C86.5096 25.758 85.6836 26.024 84.601 26.024H82.025V30H80.219ZM82.025 24.596H84.391C84.9883 24.596 85.4363 24.4653 85.735 24.204C86.0336 23.9333 86.183 23.5553 86.183 23.07C86.183 22.5847 86.0336 22.2113 85.735 21.95C85.4363 21.6793 84.9883 21.544 84.391 21.544H82.025V24.596ZM89.5432 30V20.13H91.3492V28.474H95.9972V30H89.5432ZM96.0664 30L100.532 20.13H102.044L106.566 30H104.732L103.528 27.228L104.256 27.718H98.3344L99.0904 27.228L97.8864 30H96.0664ZM101.274 22.062L99.3004 26.738L98.9364 26.304H103.64L103.346 26.738L101.33 22.062H101.274ZM109.15 30V25.338L109.528 26.416L105.286 20.13H107.372L110.284 24.61H109.892L112.804 20.13H114.82L110.592 26.416L110.956 25.338V30H109.15ZM115.971 30V20.13H117.777V28.474H122.425V30H115.971ZM123.805 30V20.13H125.611V30H123.805ZM131.227 30.14C130.434 30.14 129.701 30.042 129.029 29.846C128.367 29.6407 127.797 29.3607 127.321 29.006L127.881 27.592C128.199 27.816 128.53 28.0073 128.875 28.166C129.221 28.3153 129.589 28.432 129.981 28.516C130.373 28.5907 130.789 28.628 131.227 28.628C131.965 28.628 132.497 28.5067 132.823 28.264C133.15 28.0213 133.313 27.704 133.313 27.312C133.313 26.9667 133.201 26.7053 132.977 26.528C132.753 26.3413 132.352 26.1873 131.773 26.066L130.191 25.744C129.286 25.5573 128.609 25.2447 128.161 24.806C127.713 24.3673 127.489 23.7793 127.489 23.042C127.489 22.426 127.653 21.8893 127.979 21.432C128.306 20.9747 128.763 20.62 129.351 20.368C129.939 20.116 130.625 19.99 131.409 19.99C132.109 19.99 132.758 20.0927 133.355 20.298C133.953 20.494 134.452 20.7787 134.853 21.152L134.293 22.496C133.892 22.16 133.453 21.9127 132.977 21.754C132.501 21.586 131.969 21.502 131.381 21.502C130.719 21.502 130.201 21.6327 129.827 21.894C129.463 22.146 129.281 22.496 129.281 22.944C129.281 23.2893 129.393 23.5647 129.617 23.77C129.851 23.9753 130.243 24.134 130.793 24.246L132.361 24.554C133.295 24.7407 133.985 25.0487 134.433 25.478C134.881 25.898 135.105 26.4673 135.105 27.186C135.105 27.774 134.947 28.292 134.629 28.74C134.312 29.1787 133.864 29.524 133.285 29.776C132.707 30.0187 132.021 30.14 131.227 30.14ZM138.926 30V21.614H135.664V20.13H143.994V21.614H140.732V30H138.926ZM148.386 30.14C147.592 30.14 146.86 30.042 146.188 29.846C145.525 29.6407 144.956 29.3607 144.48 29.006L145.04 27.592C145.357 27.816 145.688 28.0073 146.034 28.166C146.379 28.3153 146.748 28.432 147.14 28.516C147.532 28.5907 147.947 28.628 148.386 28.628C149.123 28.628 149.655 28.5067 149.982 28.264C150.308 28.0213 150.472 27.704 150.472 27.312C150.472 26.9667 150.36 26.7053 150.136 26.528C149.912 26.3413 149.51 26.1873 148.932 26.066L147.35 25.744C146.444 25.5573 145.768 25.2447 145.32 24.806C144.872 24.3673 144.648 23.7793 144.648 23.042C144.648 22.426 144.811 21.8893 145.138 21.432C145.464 20.9747 145.922 20.62 146.51 20.368C147.098 20.116 147.784 19.99 148.568 19.99C149.268 19.99 149.916 20.0927 150.514 20.298C151.111 20.494 151.61 20.7787 152.012 21.152L151.452 22.496C151.05 22.16 150.612 21.9127 150.136 21.754C149.66 21.586 149.128 21.502 148.54 21.502C147.877 21.502 147.359 21.6327 146.986 21.894C146.622 22.146 146.44 22.496 146.44 22.944C146.44 23.2893 146.552 23.5647 146.776 23.77C147.009 23.9753 147.401 24.134 147.952 24.246L149.52 24.554C150.453 24.7407 151.144 25.0487 151.592 25.478C152.04 25.898 152.264 26.4673 152.264 27.186C152.264 27.774 152.105 28.292 151.788 28.74C151.47 29.1787 151.022 29.524 150.444 29.776C149.865 30.0187 149.179 30.14 148.386 30.14Z" fill="white"/>
<rect width="232" height="197" transform="translate(0 50)" fill="white"/>
<path d="M98.2083 152.166C97.415 152.166 96.6963 152.068 96.0523 151.872C95.4083 151.667 94.8483 151.377 94.3723 151.004L94.8623 149.856C95.1796 150.099 95.5063 150.299 95.8423 150.458C96.1876 150.617 96.5516 150.738 96.9343 150.822C97.3263 150.897 97.751 150.934 98.2083 150.934C98.9923 150.934 99.5663 150.794 99.9303 150.514C100.304 150.234 100.49 149.865 100.49 149.408C100.49 149.016 100.36 148.713 100.098 148.498C99.8463 148.283 99.3983 148.111 98.7543 147.98L97.2283 147.672C96.323 147.485 95.6463 147.182 95.1983 146.762C94.7596 146.333 94.5403 145.749 94.5403 145.012C94.5403 144.415 94.699 143.892 95.0163 143.444C95.3336 142.996 95.7723 142.651 96.3323 142.408C96.9016 142.165 97.5643 142.044 98.3203 142.044C99.0203 142.044 99.6643 142.147 100.252 142.352C100.84 142.548 101.335 142.842 101.736 143.234L101.26 144.34C100.84 143.976 100.392 143.71 99.9163 143.542C99.4403 143.365 98.899 143.276 98.2923 143.276C97.5736 143.276 97.009 143.425 96.5983 143.724C96.197 144.023 95.9963 144.429 95.9963 144.942C95.9963 145.353 96.1223 145.675 96.3743 145.908C96.6356 146.141 97.065 146.319 97.6623 146.44L99.1883 146.734C100.131 146.93 100.826 147.233 101.274 147.644C101.722 148.045 101.946 148.601 101.946 149.31C101.946 149.879 101.792 150.379 101.484 150.808C101.186 151.237 100.756 151.573 100.196 151.816C99.6363 152.049 98.9736 152.166 98.2083 152.166ZM105.897 152.04V143.388H102.523V142.17H110.727V143.388H107.353V152.04H105.897ZM109.987 152.04L114.383 142.17H115.629L120.095 152.04H118.597L117.379 149.24L117.995 149.632H112.017L112.675 149.24L111.457 152.04H109.987ZM114.985 143.766L112.857 148.792L112.521 148.47H117.491L117.211 148.792L115.041 143.766H114.985ZM121.4 152.04V142.17H125.572C126.626 142.17 127.443 142.422 128.022 142.926C128.6 143.421 128.89 144.116 128.89 145.012C128.89 145.6 128.759 146.104 128.498 146.524C128.236 146.944 127.868 147.266 127.392 147.49C126.916 147.705 126.356 147.812 125.712 147.812L125.936 147.588H126.314C126.696 147.588 127.037 147.686 127.336 147.882C127.644 148.078 127.896 148.391 128.092 148.82L129.506 152.04H127.91L126.51 148.806C126.37 148.423 126.15 148.176 125.852 148.064C125.562 147.952 125.203 147.896 124.774 147.896H122.856V152.04H121.4ZM122.856 146.79H125.334C126.034 146.79 126.561 146.641 126.916 146.342C127.28 146.043 127.462 145.614 127.462 145.054C127.462 144.485 127.28 144.055 126.916 143.766C126.561 143.477 126.034 143.332 125.334 143.332H122.856V146.79ZM133.254 152.04V143.388H129.88V142.17H138.084V143.388H134.71V152.04H133.254Z" fill="white"/>
<line x1="13" y1="99.5" x2="219" y2="99.5" stroke="#89969F" stroke-dasharray="5 5"/>
<path d="M58.2186 84.126C57.4253 84.126 56.7066 84.028 56.0626 83.832C55.4186 83.6267 54.8586 83.3373 54.3826 82.964L54.8726 81.816C55.1899 82.0587 55.5166 82.2593 55.8526 82.418C56.1979 82.5767 56.5619 82.698 56.9446 82.782C57.3366 82.8567 57.7613 82.894 58.2186 82.894C59.0026 82.894 59.5766 82.754 59.9406 82.474C60.3139 82.194 60.5006 81.8253 60.5006 81.368C60.5006 80.976 60.3699 80.6727 60.1086 80.458C59.8566 80.2433 59.4086 80.0707 58.7646 79.94L57.2386 79.632C56.3333 79.4453 55.6566 79.142 55.2086 78.722C54.7699 78.2927 54.5506 77.7093 54.5506 76.972C54.5506 76.3747 54.7093 75.852 55.0266 75.404C55.3439 74.956 55.7826 74.6107 56.3426 74.368C56.9119 74.1253 57.5746 74.004 58.3306 74.004C59.0306 74.004 59.6746 74.1067 60.2626 74.312C60.8506 74.508 61.3453 74.802 61.7466 75.194L61.2706 76.3C60.8506 75.936 60.4026 75.67 59.9266 75.502C59.4506 75.3247 58.9093 75.236 58.3026 75.236C57.5839 75.236 57.0193 75.3853 56.6086 75.684C56.2073 75.9827 56.0066 76.3887 56.0066 76.902C56.0066 77.3127 56.1326 77.6347 56.3846 77.868C56.6459 78.1013 57.0753 78.2787 57.6726 78.4L59.1986 78.694C60.1413 78.89 60.8366 79.1933 61.2846 79.604C61.7326 80.0053 61.9566 80.5607 61.9566 81.27C61.9566 81.8393 61.8026 82.3387 61.4946 82.768C61.1959 83.1973 60.7666 83.5333 60.2066 83.776C59.6466 84.0093 58.9839 84.126 58.2186 84.126ZM66.882 84.126C65.7433 84.126 64.8473 83.804 64.194 83.16C63.5407 82.516 63.214 81.6247 63.214 80.486C63.214 79.7487 63.354 79.1047 63.634 78.554C63.9233 78.0033 64.32 77.5787 64.824 77.28C65.3373 76.972 65.93 76.818 66.602 76.818C67.2647 76.818 67.82 76.958 68.268 77.238C68.716 77.518 69.0567 77.9147 69.29 78.428C69.5233 78.932 69.64 79.5293 69.64 80.22V80.668H64.32V79.856H68.674L68.436 80.038C68.436 79.338 68.2773 78.7967 67.96 78.414C67.652 78.022 67.204 77.826 66.616 77.826C65.9627 77.826 65.4587 78.0547 65.104 78.512C64.7493 78.96 64.572 79.5807 64.572 80.374V80.514C64.572 81.3447 64.7727 81.97 65.174 82.39C65.5847 82.81 66.1633 83.02 66.91 83.02C67.3207 83.02 67.7033 82.964 68.058 82.852C68.422 82.7307 68.7673 82.5347 69.094 82.264L69.556 83.23C69.2293 83.5193 68.8327 83.7433 68.366 83.902C67.8993 84.0513 67.4047 84.126 66.882 84.126ZM71.2626 84V73.696H72.6766V84H71.2626ZM78.0109 84.126C76.8722 84.126 75.9762 83.804 75.3229 83.16C74.6696 82.516 74.3429 81.6247 74.3429 80.486C74.3429 79.7487 74.4829 79.1047 74.7629 78.554C75.0522 78.0033 75.4489 77.5787 75.9529 77.28C76.4662 76.972 77.0589 76.818 77.7309 76.818C78.3936 76.818 78.9489 76.958 79.3969 77.238C79.8449 77.518 80.1856 77.9147 80.4189 78.428C80.6522 78.932 80.7689 79.5293 80.7689 80.22V80.668H75.4489V79.856H79.8029L79.5649 80.038C79.5649 79.338 79.4062 78.7967 79.0889 78.414C78.7809 78.022 78.3329 77.826 77.7449 77.826C77.0916 77.826 76.5876 78.0547 76.2329 78.512C75.8782 78.96 75.7009 79.5807 75.7009 80.374V80.514C75.7009 81.3447 75.9016 81.97 76.3029 82.39C76.7136 82.81 77.2922 83.02 78.0389 83.02C78.4496 83.02 78.8322 82.964 79.1869 82.852C79.5509 82.7307 79.8962 82.5347 80.2229 82.264L80.6849 83.23C80.3582 83.5193 79.9616 83.7433 79.4949 83.902C79.0282 84.0513 78.5336 84.126 78.0109 84.126ZM85.4855 84.126C84.7761 84.126 84.1555 83.9813 83.6235 83.692C83.1008 83.3933 82.6948 82.9687 82.4055 82.418C82.1255 81.858 81.9855 81.1953 81.9855 80.43C81.9855 79.674 82.1301 79.0253 82.4195 78.484C82.7088 77.9427 83.1148 77.532 83.6375 77.252C84.1601 76.9627 84.7761 76.818 85.4855 76.818C85.9428 76.818 86.3861 76.8973 86.8155 77.056C87.2448 77.2053 87.5995 77.42 87.8795 77.7L87.4175 78.694C87.1561 78.442 86.8621 78.2553 86.5355 78.134C86.2088 78.0033 85.8915 77.938 85.5835 77.938C84.9115 77.938 84.3841 78.1527 84.0015 78.582C83.6188 79.0113 83.4275 79.632 83.4275 80.444C83.4275 81.2653 83.6188 81.8953 84.0015 82.334C84.3841 82.7727 84.9115 82.992 85.5835 82.992C85.8821 82.992 86.1948 82.936 86.5215 82.824C86.8481 82.7027 87.1468 82.5113 87.4175 82.25L87.8795 83.244C87.5901 83.524 87.2261 83.7433 86.7875 83.902C86.3581 84.0513 85.9241 84.126 85.4855 84.126ZM92.1355 84.126C91.3701 84.126 90.7915 83.9207 90.3995 83.51C90.0075 83.09 89.8115 82.4647 89.8115 81.634V78.036H88.4395V76.944H89.8115V75.082L91.2255 74.704V76.944H93.1855V78.036H91.2255V81.508C91.2255 82.0307 91.3188 82.404 91.5055 82.628C91.6921 82.852 91.9628 82.964 92.3175 82.964C92.4948 82.964 92.6488 82.95 92.7795 82.922C92.9195 82.8847 93.0455 82.8427 93.1575 82.796V83.944C93.0175 84 92.8541 84.042 92.6675 84.07C92.4808 84.1073 92.3035 84.126 92.1355 84.126ZM97.3138 84L101.71 74.13H102.956L107.422 84H105.924L104.706 81.2L105.322 81.592H99.3438L100.002 81.2L98.7838 84H97.3138ZM102.312 75.726L100.184 80.752L99.8478 80.43H104.818L104.538 80.752L102.368 75.726H102.312ZM108.6 84V73.696H110.014V84H108.6ZM115.853 84.126C115.237 84.126 114.7 83.972 114.243 83.664C113.785 83.356 113.482 82.936 113.333 82.404H113.487V84H112.087V73.696H113.501V78.512H113.333C113.491 77.9893 113.795 77.5787 114.243 77.28C114.7 76.972 115.237 76.818 115.853 76.818C116.478 76.818 117.024 76.9673 117.491 77.266C117.957 77.5553 118.317 77.9753 118.569 78.526C118.83 79.0673 118.961 79.7207 118.961 80.486C118.961 81.242 118.83 81.8953 118.569 82.446C118.317 82.9873 117.953 83.4027 117.477 83.692C117.01 83.9813 116.469 84.126 115.853 84.126ZM115.503 83.02C116.109 83.02 116.599 82.81 116.973 82.39C117.346 81.9607 117.533 81.326 117.533 80.486C117.533 79.6367 117.346 79.002 116.973 78.582C116.599 78.1527 116.109 77.938 115.503 77.938C114.887 77.938 114.392 78.1527 114.019 78.582C113.655 79.002 113.473 79.632 113.473 80.472C113.473 81.312 113.655 81.9467 114.019 82.376C114.392 82.8053 114.887 83.02 115.503 83.02ZM123.124 84.126C122.275 84.126 121.635 83.8973 121.206 83.44C120.786 82.9733 120.576 82.2593 120.576 81.298V76.944H121.99V81.27C121.99 81.858 122.111 82.292 122.354 82.572C122.597 82.852 122.965 82.992 123.46 82.992C124.02 82.992 124.473 82.8053 124.818 82.432C125.163 82.0587 125.336 81.564 125.336 80.948V76.944H126.75V84H125.378V82.488H125.56C125.364 83.0107 125.051 83.4167 124.622 83.706C124.193 83.986 123.693 84.126 123.124 84.126ZM128.821 84V78.638C128.821 78.3673 128.807 78.092 128.779 77.812C128.76 77.5227 128.737 77.2333 128.709 76.944H130.081L130.207 78.428H130.039C130.235 77.9147 130.534 77.518 130.935 77.238C131.346 76.958 131.836 76.818 132.405 76.818C132.984 76.818 133.455 76.958 133.819 77.238C134.192 77.5087 134.449 77.9287 134.589 78.498H134.365C134.552 77.9847 134.869 77.5787 135.317 77.28C135.765 76.972 136.283 76.818 136.871 76.818C137.655 76.818 138.243 77.0467 138.635 77.504C139.027 77.9613 139.223 78.6707 139.223 79.632V84H137.809V79.702C137.809 79.086 137.702 78.6427 137.487 78.372C137.282 78.092 136.946 77.952 136.479 77.952C135.938 77.952 135.508 78.1387 135.191 78.512C134.874 78.8853 134.715 79.3893 134.715 80.024V84H133.301V79.702C133.301 79.086 133.194 78.6427 132.979 78.372C132.774 78.092 132.438 77.952 131.971 77.952C131.43 77.952 131.005 78.1387 130.697 78.512C130.389 78.8853 130.235 79.3893 130.235 80.024V84H128.821ZM141.067 84.798H139.877L143.545 73.5H144.735L141.067 84.798ZM148.904 84.126C148.111 84.126 147.392 84.028 146.748 83.832C146.104 83.6267 145.544 83.3373 145.068 82.964L145.558 81.816C145.875 82.0587 146.202 82.2593 146.538 82.418C146.883 82.5767 147.247 82.698 147.63 82.782C148.022 82.8567 148.447 82.894 148.904 82.894C149.688 82.894 150.262 82.754 150.626 82.474C150.999 82.194 151.186 81.8253 151.186 81.368C151.186 80.976 151.055 80.6727 150.794 80.458C150.542 80.2433 150.094 80.0707 149.45 79.94L147.924 79.632C147.019 79.4453 146.342 79.142 145.894 78.722C145.455 78.2927 145.236 77.7093 145.236 76.972C145.236 76.3747 145.395 75.852 145.712 75.404C146.029 74.956 146.468 74.6107 147.028 74.368C147.597 74.1253 148.26 74.004 149.016 74.004C149.716 74.004 150.36 74.1067 150.948 74.312C151.536 74.508 152.031 74.802 152.432 75.194L151.956 76.3C151.536 75.936 151.088 75.67 150.612 75.502C150.136 75.3247 149.595 75.236 148.988 75.236C148.269 75.236 147.705 75.3853 147.294 75.684C146.893 75.9827 146.692 76.3887 146.692 76.902C146.692 77.3127 146.818 77.6347 147.07 77.868C147.331 78.1013 147.761 78.2787 148.358 78.4L149.884 78.694C150.827 78.89 151.522 79.1933 151.97 79.604C152.418 80.0053 152.642 80.5607 152.642 81.27C152.642 81.8393 152.488 82.3387 152.18 82.768C151.881 83.1973 151.452 83.5333 150.892 83.776C150.332 84.0093 149.669 84.126 148.904 84.126ZM157.33 84.126C156.63 84.126 156.023 83.9813 155.51 83.692C154.996 83.3933 154.6 82.9733 154.32 82.432C154.04 81.8813 153.9 81.228 153.9 80.472C153.9 79.716 154.04 79.0673 154.32 78.526C154.6 77.9753 154.996 77.5553 155.51 77.266C156.023 76.9673 156.63 76.818 157.33 76.818C158.03 76.818 158.636 76.9673 159.15 77.266C159.672 77.5553 160.074 77.9753 160.354 78.526C160.643 79.0673 160.788 79.716 160.788 80.472C160.788 81.228 160.643 81.8813 160.354 82.432C160.074 82.9733 159.672 83.3933 159.15 83.692C158.636 83.9813 158.03 84.126 157.33 84.126ZM157.33 83.02C157.946 83.02 158.436 82.8053 158.8 82.376C159.164 81.9467 159.346 81.312 159.346 80.472C159.346 79.632 159.164 79.002 158.8 78.582C158.436 78.1527 157.946 77.938 157.33 77.938C156.723 77.938 156.238 78.1527 155.874 78.582C155.51 79.002 155.328 79.632 155.328 80.472C155.328 81.312 155.505 81.9467 155.86 82.376C156.224 82.8053 156.714 83.02 157.33 83.02ZM162.44 84V78.638C162.44 78.3673 162.426 78.092 162.398 77.812C162.38 77.5227 162.356 77.2333 162.328 76.944H163.7L163.826 78.428H163.658C163.873 77.9053 164.204 77.5087 164.652 77.238C165.1 76.958 165.618 76.818 166.206 76.818C167.037 76.818 167.662 77.0467 168.082 77.504C168.512 77.9613 168.726 78.6707 168.726 79.632V84H167.312V79.716C167.312 79.0907 167.186 78.6427 166.934 78.372C166.692 78.092 166.318 77.952 165.814 77.952C165.217 77.952 164.741 78.1387 164.386 78.512C164.032 78.876 163.854 79.3707 163.854 79.996V84H162.44ZM173.917 87.136C173.282 87.136 172.704 87.0613 172.181 86.912C171.668 86.7627 171.206 86.5387 170.795 86.24L171.145 85.204C171.434 85.4 171.719 85.554 171.999 85.666C172.279 85.7873 172.573 85.876 172.881 85.932C173.189 85.988 173.506 86.016 173.833 86.016C174.505 86.016 175.009 85.8433 175.345 85.498C175.69 85.162 175.863 84.672 175.863 84.028V82.138H176.003C175.854 82.6607 175.546 83.076 175.079 83.384C174.622 83.6827 174.09 83.832 173.483 83.832C172.839 83.832 172.279 83.692 171.803 83.412C171.336 83.1227 170.972 82.7167 170.711 82.194C170.459 81.662 170.333 81.0367 170.333 80.318C170.333 79.5993 170.459 78.9787 170.711 78.456C170.972 77.9333 171.336 77.532 171.803 77.252C172.279 76.9627 172.839 76.818 173.483 76.818C174.099 76.818 174.631 76.972 175.079 77.28C175.536 77.5787 175.84 77.9893 175.989 78.512L175.863 78.4L175.989 76.944H177.361C177.324 77.2333 177.296 77.5227 177.277 77.812C177.258 78.092 177.249 78.3673 177.249 78.638V83.86C177.249 84.924 176.964 85.736 176.395 86.296C175.835 86.856 175.009 87.136 173.917 87.136ZM173.819 82.726C174.435 82.726 174.925 82.516 175.289 82.096C175.662 81.676 175.849 81.0833 175.849 80.318C175.849 79.5527 175.662 78.9647 175.289 78.554C174.925 78.1433 174.435 77.938 173.819 77.938C173.184 77.938 172.68 78.1433 172.307 78.554C171.943 78.9647 171.761 79.5527 171.761 80.318C171.761 81.0833 171.943 81.676 172.307 82.096C172.68 82.516 173.184 82.726 173.819 82.726Z" fill="#C4C4C4"/>
<line x1="13" y1="136.5" x2="219" y2="136.5" stroke="#89969F" stroke-dasharray="5 5"/>
<path d="M57.204 121V111.13H61.376C62.4307 111.13 63.2473 111.382 63.826 111.886C64.4047 112.381 64.694 113.076 64.694 113.972C64.694 114.56 64.5633 115.064 64.302 115.484C64.0407 115.904 63.672 116.226 63.196 116.45C62.72 116.665 62.16 116.772 61.516 116.772L61.74 116.548H62.118C62.5007 116.548 62.8413 116.646 63.14 116.842C63.448 117.038 63.7 117.351 63.896 117.78L65.31 121H63.714L62.314 117.766C62.174 117.383 61.9547 117.136 61.656 117.024C61.3667 116.912 61.0073 116.856 60.578 116.856H58.66V121H57.204ZM58.66 115.75H61.138C61.838 115.75 62.3653 115.601 62.72 115.302C63.084 115.003 63.266 114.574 63.266 114.014C63.266 113.445 63.084 113.015 62.72 112.726C62.3653 112.437 61.838 112.292 61.138 112.292H58.66V115.75ZM69.9376 121.126C68.799 121.126 67.903 120.804 67.2496 120.16C66.5963 119.516 66.2696 118.625 66.2696 117.486C66.2696 116.749 66.4096 116.105 66.6896 115.554C66.979 115.003 67.3756 114.579 67.8796 114.28C68.393 113.972 68.9856 113.818 69.6576 113.818C70.3203 113.818 70.8756 113.958 71.3236 114.238C71.7716 114.518 72.1123 114.915 72.3456 115.428C72.579 115.932 72.6956 116.529 72.6956 117.22V117.668H67.3756V116.856H71.7296L71.4916 117.038C71.4916 116.338 71.333 115.797 71.0156 115.414C70.7076 115.022 70.2596 114.826 69.6716 114.826C69.0183 114.826 68.5143 115.055 68.1596 115.512C67.805 115.96 67.6276 116.581 67.6276 117.374V117.514C67.6276 118.345 67.8283 118.97 68.2296 119.39C68.6403 119.81 69.219 120.02 69.9656 120.02C70.3763 120.02 70.759 119.964 71.1136 119.852C71.4776 119.731 71.823 119.535 72.1496 119.264L72.6116 120.23C72.285 120.519 71.8883 120.743 71.4216 120.902C70.955 121.051 70.4603 121.126 69.9376 121.126ZM74.3182 121V115.638C74.3182 115.367 74.3042 115.092 74.2762 114.812C74.2576 114.523 74.2342 114.233 74.2062 113.944H75.5782L75.7042 115.428H75.5362C75.7322 114.915 76.0309 114.518 76.4322 114.238C76.8429 113.958 77.3329 113.818 77.9022 113.818C78.4809 113.818 78.9522 113.958 79.3162 114.238C79.6896 114.509 79.9462 114.929 80.0862 115.498H79.8622C80.0489 114.985 80.3662 114.579 80.8142 114.28C81.2622 113.972 81.7802 113.818 82.3682 113.818C83.1522 113.818 83.7402 114.047 84.1322 114.504C84.5242 114.961 84.7202 115.671 84.7202 116.632V121H83.3062V116.702C83.3062 116.086 83.1989 115.643 82.9842 115.372C82.7789 115.092 82.4429 114.952 81.9762 114.952C81.4349 114.952 81.0056 115.139 80.6882 115.512C80.3709 115.885 80.2122 116.389 80.2122 117.024V121H78.7982V116.702C78.7982 116.086 78.6909 115.643 78.4762 115.372C78.2709 115.092 77.9349 114.952 77.4682 114.952C76.9269 114.952 76.5022 115.139 76.1942 115.512C75.8862 115.885 75.7322 116.389 75.7322 117.024V121H74.3182ZM89.77 121.126C89.07 121.126 88.4633 120.981 87.95 120.692C87.4366 120.393 87.04 119.973 86.76 119.432C86.48 118.881 86.34 118.228 86.34 117.472C86.34 116.716 86.48 116.067 86.76 115.526C87.04 114.975 87.4366 114.555 87.95 114.266C88.4633 113.967 89.07 113.818 89.77 113.818C90.47 113.818 91.0766 113.967 91.59 114.266C92.1126 114.555 92.514 114.975 92.794 115.526C93.0833 116.067 93.228 116.716 93.228 117.472C93.228 118.228 93.0833 118.881 92.794 119.432C92.514 119.973 92.1126 120.393 91.59 120.692C91.0766 120.981 90.47 121.126 89.77 121.126ZM89.77 120.02C90.386 120.02 90.876 119.805 91.24 119.376C91.604 118.947 91.786 118.312 91.786 117.472C91.786 116.632 91.604 116.002 91.24 115.582C90.876 115.153 90.386 114.938 89.77 114.938C89.1633 114.938 88.678 115.153 88.314 115.582C87.95 116.002 87.768 116.632 87.768 117.472C87.768 118.312 87.9453 118.947 88.3 119.376C88.664 119.805 89.154 120.02 89.77 120.02ZM96.8297 121L93.8057 113.944H95.3177L97.6977 119.838H97.2917L99.7137 113.944H101.156L98.1177 121H96.8297ZM105.416 121.126C104.277 121.126 103.381 120.804 102.728 120.16C102.075 119.516 101.748 118.625 101.748 117.486C101.748 116.749 101.888 116.105 102.168 115.554C102.457 115.003 102.854 114.579 103.358 114.28C103.871 113.972 104.464 113.818 105.136 113.818C105.799 113.818 106.354 113.958 106.802 114.238C107.25 114.518 107.591 114.915 107.824 115.428C108.057 115.932 108.174 116.529 108.174 117.22V117.668H102.854V116.856H107.208L106.97 117.038C106.97 116.338 106.811 115.797 106.494 115.414C106.186 115.022 105.738 114.826 105.15 114.826C104.497 114.826 103.993 115.055 103.638 115.512C103.283 115.96 103.106 116.581 103.106 117.374V117.514C103.106 118.345 103.307 118.97 103.708 119.39C104.119 119.81 104.697 120.02 105.444 120.02C105.855 120.02 106.237 119.964 106.592 119.852C106.956 119.731 107.301 119.535 107.628 119.264L108.09 120.23C107.763 120.519 107.367 120.743 106.9 120.902C106.433 121.051 105.939 121.126 105.416 121.126ZM109.697 121.798H108.507L112.175 110.5H113.365L109.697 121.798ZM114.202 121V111.13H120.67V112.292H115.616V115.4H120.348V116.576H115.616V119.824H120.67V121H114.202ZM124.995 121.126C124.379 121.126 123.833 120.981 123.357 120.692C122.89 120.403 122.526 119.983 122.265 119.432C122.013 118.881 121.887 118.228 121.887 117.472C121.887 116.707 122.013 116.053 122.265 115.512C122.526 114.971 122.89 114.555 123.357 114.266C123.833 113.967 124.379 113.818 124.995 113.818C125.602 113.818 126.134 113.972 126.591 114.28C127.058 114.579 127.366 114.989 127.515 115.512H127.347V110.696H128.761V121H127.361V119.404H127.529C127.37 119.936 127.062 120.356 126.605 120.664C126.148 120.972 125.611 121.126 124.995 121.126ZM125.345 120.02C125.952 120.02 126.442 119.805 126.815 119.376C127.188 118.947 127.375 118.312 127.375 117.472C127.375 116.632 127.188 116.002 126.815 115.582C126.442 115.153 125.952 114.938 125.345 114.938C124.729 114.938 124.234 115.153 123.861 115.582C123.497 116.002 123.315 116.632 123.315 117.472C123.315 118.312 123.497 118.947 123.861 119.376C124.234 119.805 124.729 120.02 125.345 120.02ZM130.824 121V113.944H132.238V121H130.824ZM130.712 112.474V111.004H132.35V112.474H130.712ZM137.054 121.126C136.289 121.126 135.71 120.921 135.318 120.51C134.926 120.09 134.73 119.465 134.73 118.634V115.036H133.358V113.944H134.73V112.082L136.144 111.704V113.944H138.104V115.036H136.144V118.508C136.144 119.031 136.238 119.404 136.424 119.628C136.611 119.852 136.882 119.964 137.236 119.964C137.414 119.964 137.568 119.95 137.698 119.922C137.838 119.885 137.964 119.843 138.076 119.796V120.944C137.936 121 137.773 121.042 137.586 121.07C137.4 121.107 137.222 121.126 137.054 121.126ZM146.587 121.126C145.793 121.126 145.075 121.028 144.431 120.832C143.787 120.627 143.227 120.337 142.751 119.964L143.241 118.816C143.558 119.059 143.885 119.259 144.221 119.418C144.566 119.577 144.93 119.698 145.313 119.782C145.705 119.857 146.129 119.894 146.587 119.894C147.371 119.894 147.945 119.754 148.309 119.474C148.682 119.194 148.869 118.825 148.869 118.368C148.869 117.976 148.738 117.673 148.477 117.458C148.225 117.243 147.777 117.071 147.133 116.94L145.607 116.632C144.701 116.445 144.025 116.142 143.577 115.722C143.138 115.293 142.919 114.709 142.919 113.972C142.919 113.375 143.077 112.852 143.395 112.404C143.712 111.956 144.151 111.611 144.711 111.368C145.28 111.125 145.943 111.004 146.699 111.004C147.399 111.004 148.043 111.107 148.631 111.312C149.219 111.508 149.713 111.802 150.115 112.194L149.639 113.3C149.219 112.936 148.771 112.67 148.295 112.502C147.819 112.325 147.277 112.236 146.671 112.236C145.952 112.236 145.387 112.385 144.977 112.684C144.575 112.983 144.375 113.389 144.375 113.902C144.375 114.313 144.501 114.635 144.753 114.868C145.014 115.101 145.443 115.279 146.041 115.4L147.567 115.694C148.509 115.89 149.205 116.193 149.653 116.604C150.101 117.005 150.325 117.561 150.325 118.27C150.325 118.839 150.171 119.339 149.863 119.768C149.564 120.197 149.135 120.533 148.575 120.776C148.015 121.009 147.352 121.126 146.587 121.126ZM155.012 121.126C154.312 121.126 153.705 120.981 153.192 120.692C152.679 120.393 152.282 119.973 152.002 119.432C151.722 118.881 151.582 118.228 151.582 117.472C151.582 116.716 151.722 116.067 152.002 115.526C152.282 114.975 152.679 114.555 153.192 114.266C153.705 113.967 154.312 113.818 155.012 113.818C155.712 113.818 156.319 113.967 156.832 114.266C157.355 114.555 157.756 114.975 158.036 115.526C158.325 116.067 158.47 116.716 158.47 117.472C158.47 118.228 158.325 118.881 158.036 119.432C157.756 119.973 157.355 120.393 156.832 120.692C156.319 120.981 155.712 121.126 155.012 121.126ZM155.012 120.02C155.628 120.02 156.118 119.805 156.482 119.376C156.846 118.947 157.028 118.312 157.028 117.472C157.028 116.632 156.846 116.002 156.482 115.582C156.118 115.153 155.628 114.938 155.012 114.938C154.405 114.938 153.92 115.153 153.556 115.582C153.192 116.002 153.01 116.632 153.01 117.472C153.01 118.312 153.187 118.947 153.542 119.376C153.906 119.805 154.396 120.02 155.012 120.02ZM160.123 121V115.638C160.123 115.367 160.109 115.092 160.081 114.812C160.062 114.523 160.039 114.233 160.011 113.944H161.383L161.509 115.428H161.341C161.556 114.905 161.887 114.509 162.335 114.238C162.783 113.958 163.301 113.818 163.889 113.818C164.72 113.818 165.345 114.047 165.765 114.504C166.194 114.961 166.409 115.671 166.409 116.632V121H164.995V116.716C164.995 116.091 164.869 115.643 164.617 115.372C164.374 115.092 164.001 114.952 163.497 114.952C162.9 114.952 162.424 115.139 162.069 115.512C161.714 115.876 161.537 116.371 161.537 116.996V121H160.123ZM171.6 124.136C170.965 124.136 170.386 124.061 169.864 123.912C169.35 123.763 168.888 123.539 168.478 123.24L168.828 122.204C169.117 122.4 169.402 122.554 169.682 122.666C169.962 122.787 170.256 122.876 170.564 122.932C170.872 122.988 171.189 123.016 171.516 123.016C172.188 123.016 172.692 122.843 173.028 122.498C173.373 122.162 173.546 121.672 173.546 121.028V119.138H173.686C173.536 119.661 173.228 120.076 172.762 120.384C172.304 120.683 171.772 120.832 171.166 120.832C170.522 120.832 169.962 120.692 169.486 120.412C169.019 120.123 168.655 119.717 168.394 119.194C168.142 118.662 168.016 118.037 168.016 117.318C168.016 116.599 168.142 115.979 168.394 115.456C168.655 114.933 169.019 114.532 169.486 114.252C169.962 113.963 170.522 113.818 171.166 113.818C171.782 113.818 172.314 113.972 172.762 114.28C173.219 114.579 173.522 114.989 173.672 115.512L173.546 115.4L173.672 113.944H175.044C175.006 114.233 174.978 114.523 174.96 114.812C174.941 115.092 174.932 115.367 174.932 115.638V120.86C174.932 121.924 174.647 122.736 174.078 123.296C173.518 123.856 172.692 124.136 171.6 124.136ZM171.502 119.726C172.118 119.726 172.608 119.516 172.972 119.096C173.345 118.676 173.532 118.083 173.532 117.318C173.532 116.553 173.345 115.965 172.972 115.554C172.608 115.143 172.118 114.938 171.502 114.938C170.867 114.938 170.363 115.143 169.99 115.554C169.626 115.965 169.444 116.553 169.444 117.318C169.444 118.083 169.626 118.676 169.99 119.096C170.363 119.516 170.867 119.726 171.502 119.726Z" fill="#C4C4C4"/>
<line x1="13" y1="173.5" x2="219" y2="173.5" stroke="#89969F" stroke-dasharray="5 5"/>
<path d="M51.2186 158.126C50.4253 158.126 49.7066 158.028 49.0626 157.832C48.4186 157.627 47.8586 157.337 47.3826 156.964L47.8726 155.816C48.1899 156.059 48.5166 156.259 48.8526 156.418C49.1979 156.577 49.5619 156.698 49.9446 156.782C50.3366 156.857 50.7613 156.894 51.2186 156.894C52.0026 156.894 52.5766 156.754 52.9406 156.474C53.3139 156.194 53.5006 155.825 53.5006 155.368C53.5006 154.976 53.3699 154.673 53.1086 154.458C52.8566 154.243 52.4086 154.071 51.7646 153.94L50.2386 153.632C49.3333 153.445 48.6566 153.142 48.2086 152.722C47.7699 152.293 47.5506 151.709 47.5506 150.972C47.5506 150.375 47.7093 149.852 48.0266 149.404C48.3439 148.956 48.7826 148.611 49.3426 148.368C49.9119 148.125 50.5746 148.004 51.3306 148.004C52.0306 148.004 52.6746 148.107 53.2626 148.312C53.8506 148.508 54.3453 148.802 54.7466 149.194L54.2706 150.3C53.8506 149.936 53.4026 149.67 52.9266 149.502C52.4506 149.325 51.9093 149.236 51.3026 149.236C50.5839 149.236 50.0193 149.385 49.6086 149.684C49.2073 149.983 49.0066 150.389 49.0066 150.902C49.0066 151.313 49.1326 151.635 49.3846 151.868C49.6459 152.101 50.0753 152.279 50.6726 152.4L52.1986 152.694C53.1413 152.89 53.8366 153.193 54.2846 153.604C54.7326 154.005 54.9566 154.561 54.9566 155.27C54.9566 155.839 54.8026 156.339 54.4946 156.768C54.1959 157.197 53.7666 157.533 53.2066 157.776C52.6466 158.009 51.9839 158.126 51.2186 158.126ZM56.62 158V147.696H58.034V152.442H57.838C58.0433 151.91 58.3747 151.509 58.832 151.238C59.2893 150.958 59.8167 150.818 60.414 150.818C61.254 150.818 61.8793 151.051 62.29 151.518C62.7007 151.975 62.906 152.671 62.906 153.604V158H61.492V153.688C61.492 153.081 61.3707 152.643 61.128 152.372C60.8947 152.092 60.5213 151.952 60.008 151.952C59.4107 151.952 58.93 152.139 58.566 152.512C58.2113 152.876 58.034 153.361 58.034 153.968V158H56.62ZM67.6208 158.126C66.9955 158.126 66.4495 157.981 65.9828 157.692C65.5161 157.403 65.1521 156.983 64.8908 156.432C64.6388 155.881 64.5128 155.228 64.5128 154.472C64.5128 153.707 64.6388 153.053 64.8908 152.512C65.1521 151.971 65.5161 151.555 65.9828 151.266C66.4495 150.967 66.9955 150.818 67.6208 150.818C68.2368 150.818 68.7735 150.972 69.2308 151.28C69.6881 151.588 69.9915 152.008 70.1408 152.54H69.9868L70.1268 150.944H71.4988C71.4708 151.233 71.4428 151.523 71.4148 151.812C71.3961 152.092 71.3868 152.367 71.3868 152.638V158H69.9728V156.432H70.1268C69.9775 156.955 69.6695 157.37 69.2028 157.678C68.7455 157.977 68.2181 158.126 67.6208 158.126ZM67.9708 157.02C68.5775 157.02 69.0628 156.805 69.4268 156.376C69.8001 155.947 69.9868 155.312 69.9868 154.472C69.9868 153.632 69.8001 153.002 69.4268 152.582C69.0628 152.153 68.5775 151.938 67.9708 151.938C67.3548 151.938 66.8601 152.153 66.4868 152.582C66.1228 153.002 65.9408 153.632 65.9408 154.472C65.9408 155.312 66.1228 155.947 66.4868 156.376C66.8508 156.805 67.3455 157.02 67.9708 157.02ZM73.4221 158V152.694C73.4221 152.405 73.4127 152.115 73.3941 151.826C73.3847 151.527 73.3661 151.233 73.3381 150.944H74.7101L74.8641 152.764H74.6401C74.7334 152.325 74.8921 151.961 75.1161 151.672C75.3401 151.383 75.6107 151.168 75.9281 151.028C76.2547 150.888 76.5954 150.818 76.9501 150.818C77.0994 150.818 77.2254 150.827 77.3281 150.846C77.4307 150.855 77.5334 150.874 77.6361 150.902L77.6221 152.162C77.4634 152.097 77.3234 152.059 77.2021 152.05C77.0901 152.031 76.9501 152.022 76.7821 152.022C76.3714 152.022 76.0214 152.115 75.7321 152.302C75.4427 152.479 75.2234 152.722 75.0741 153.03C74.9247 153.338 74.8501 153.669 74.8501 154.024V158H73.4221ZM81.8937 158.126C80.755 158.126 79.859 157.804 79.2057 157.16C78.5524 156.516 78.2257 155.625 78.2257 154.486C78.2257 153.749 78.3657 153.105 78.6457 152.554C78.935 152.003 79.3317 151.579 79.8357 151.28C80.349 150.972 80.9417 150.818 81.6137 150.818C82.2764 150.818 82.8317 150.958 83.2797 151.238C83.7277 151.518 84.0684 151.915 84.3017 152.428C84.535 152.932 84.6517 153.529 84.6517 154.22V154.668H79.3317V153.856H83.6857L83.4477 154.038C83.4477 153.338 83.289 152.797 82.9717 152.414C82.6637 152.022 82.2157 151.826 81.6277 151.826C80.9744 151.826 80.4704 152.055 80.1157 152.512C79.761 152.96 79.5837 153.581 79.5837 154.374V154.514C79.5837 155.345 79.7844 155.97 80.1857 156.39C80.5964 156.81 81.175 157.02 81.9217 157.02C82.3324 157.02 82.715 156.964 83.0697 156.852C83.4337 156.731 83.779 156.535 84.1057 156.264L84.5677 157.23C84.241 157.519 83.8444 157.743 83.3777 157.902C82.911 158.051 82.4164 158.126 81.8937 158.126ZM90.1327 158V148.13H96.6007V149.292H91.5467V152.4H96.2787V153.576H91.5467V156.824H96.6007V158H90.1327ZM98.2782 158V152.638C98.2782 152.367 98.2642 152.092 98.2362 151.812C98.2175 151.523 98.1942 151.233 98.1662 150.944H99.5382L99.6642 152.428H99.4962C99.7109 151.905 100.042 151.509 100.49 151.238C100.938 150.958 101.456 150.818 102.044 150.818C102.875 150.818 103.5 151.047 103.92 151.504C104.35 151.961 104.564 152.671 104.564 153.632V158H103.15V153.716C103.15 153.091 103.024 152.643 102.772 152.372C102.53 152.092 102.156 151.952 101.652 151.952C101.055 151.952 100.579 152.139 100.224 152.512C99.8695 152.876 99.6922 153.371 99.6922 153.996V158H98.2782ZM109.321 158.126C108.556 158.126 107.977 157.921 107.585 157.51C107.193 157.09 106.997 156.465 106.997 155.634V152.036H105.625V150.944H106.997V149.082L108.411 148.704V150.944H110.371V152.036H108.411V155.508C108.411 156.031 108.504 156.404 108.691 156.628C108.878 156.852 109.148 156.964 109.503 156.964C109.68 156.964 109.834 156.95 109.965 156.922C110.105 156.885 110.231 156.843 110.343 156.796V157.944C110.203 158 110.04 158.042 109.853 158.07C109.666 158.107 109.489 158.126 109.321 158.126ZM111.663 158V150.944H113.077V158H111.663ZM111.551 149.474V148.004H113.189V149.474H111.551ZM115.121 158V152.694C115.121 152.405 115.112 152.115 115.093 151.826C115.084 151.527 115.065 151.233 115.037 150.944H116.409L116.563 152.764H116.339C116.433 152.325 116.591 151.961 116.815 151.672C117.039 151.383 117.31 151.168 117.627 151.028C117.954 150.888 118.295 150.818 118.649 150.818C118.799 150.818 118.925 150.827 119.027 150.846C119.13 150.855 119.233 150.874 119.335 150.902L119.321 152.162C119.163 152.097 119.023 152.059 118.901 152.05C118.789 152.031 118.649 152.022 118.481 152.022C118.071 152.022 117.721 152.115 117.431 152.302C117.142 152.479 116.923 152.722 116.773 153.03C116.624 153.338 116.549 153.669 116.549 154.024V158H115.121ZM123.593 158.126C122.454 158.126 121.558 157.804 120.905 157.16C120.252 156.516 119.925 155.625 119.925 154.486C119.925 153.749 120.065 153.105 120.345 152.554C120.634 152.003 121.031 151.579 121.535 151.28C122.048 150.972 122.641 150.818 123.313 150.818C123.976 150.818 124.531 150.958 124.979 151.238C125.427 151.518 125.768 151.915 126.001 152.428C126.234 152.932 126.351 153.529 126.351 154.22V154.668H121.031V153.856H125.385L125.147 154.038C125.147 153.338 124.988 152.797 124.671 152.414C124.363 152.022 123.915 151.826 123.327 151.826C122.674 151.826 122.17 152.055 121.815 152.512C121.46 152.96 121.283 153.581 121.283 154.374V154.514C121.283 155.345 121.484 155.97 121.885 156.39C122.296 156.81 122.874 157.02 123.621 157.02C124.032 157.02 124.414 156.964 124.769 156.852C125.133 156.731 125.478 156.535 125.805 156.264L126.267 157.23C125.94 157.519 125.544 157.743 125.077 157.902C124.61 158.051 124.116 158.126 123.593 158.126ZM131.832 158V148.13H136.018C137.073 148.13 137.88 148.387 138.44 148.9C139.009 149.404 139.294 150.104 139.294 151C139.294 151.896 139.009 152.601 138.44 153.114C137.88 153.627 137.073 153.884 136.018 153.884H133.288V158H131.832ZM133.288 152.722H135.864C136.527 152.722 137.026 152.573 137.362 152.274C137.698 151.975 137.866 151.551 137.866 151C137.866 150.459 137.698 150.039 137.362 149.74C137.026 149.441 136.527 149.292 135.864 149.292H133.288V152.722ZM140.921 158V147.696H142.335V158H140.921ZM147.109 158.126C146.484 158.126 145.938 157.981 145.471 157.692C145.004 157.403 144.64 156.983 144.379 156.432C144.127 155.881 144.001 155.228 144.001 154.472C144.001 153.707 144.127 153.053 144.379 152.512C144.64 151.971 145.004 151.555 145.471 151.266C145.938 150.967 146.484 150.818 147.109 150.818C147.725 150.818 148.262 150.972 148.719 151.28C149.176 151.588 149.48 152.008 149.629 152.54H149.475L149.615 150.944H150.987C150.959 151.233 150.931 151.523 150.903 151.812C150.884 152.092 150.875 152.367 150.875 152.638V158H149.461V156.432H149.615C149.466 156.955 149.158 157.37 148.691 157.678C148.234 157.977 147.706 158.126 147.109 158.126ZM147.459 157.02C148.066 157.02 148.551 156.805 148.915 156.376C149.288 155.947 149.475 155.312 149.475 154.472C149.475 153.632 149.288 153.002 148.915 152.582C148.551 152.153 148.066 151.938 147.459 151.938C146.843 151.938 146.348 152.153 145.975 152.582C145.611 153.002 145.429 153.632 145.429 154.472C145.429 155.312 145.611 155.947 145.975 156.376C146.339 156.805 146.834 157.02 147.459 157.02ZM152.66 161.178L152.324 160.03C152.763 159.937 153.127 159.825 153.416 159.694C153.715 159.563 153.962 159.391 154.158 159.176C154.354 158.971 154.522 158.705 154.662 158.378L155.012 157.552L154.984 158.126L151.918 150.944H153.43L155.81 156.824H155.432L157.812 150.944H159.268L156.034 158.504C155.829 158.971 155.609 159.363 155.376 159.68C155.143 159.997 154.891 160.254 154.62 160.45C154.349 160.646 154.051 160.8 153.724 160.912C153.397 161.024 153.043 161.113 152.66 161.178ZM160.376 158V147.696H161.79V158H160.376ZM163.862 158V150.944H165.276V158H163.862ZM163.75 149.474V148.004H165.388V149.474H163.75ZM169.771 158.126C169.183 158.126 168.641 158.051 168.147 157.902C167.652 157.753 167.241 157.543 166.915 157.272L167.349 156.306C167.694 156.567 168.077 156.763 168.497 156.894C168.917 157.025 169.346 157.09 169.785 157.09C170.298 157.09 170.685 157.001 170.947 156.824C171.208 156.637 171.339 156.385 171.339 156.068C171.339 155.825 171.255 155.629 171.087 155.48C170.928 155.331 170.662 155.219 170.289 155.144L168.945 154.878C168.347 154.747 167.895 154.523 167.587 154.206C167.279 153.889 167.125 153.483 167.125 152.988C167.125 152.568 167.237 152.195 167.461 151.868C167.694 151.541 168.021 151.285 168.441 151.098C168.87 150.911 169.369 150.818 169.939 150.818C170.461 150.818 170.947 150.893 171.395 151.042C171.843 151.191 172.216 151.406 172.515 151.686L172.067 152.624C171.777 152.381 171.451 152.195 171.087 152.064C170.723 151.924 170.354 151.854 169.981 151.854C169.458 151.854 169.071 151.952 168.819 152.148C168.567 152.344 168.441 152.601 168.441 152.918C168.441 153.161 168.515 153.361 168.665 153.52C168.823 153.669 169.071 153.786 169.407 153.87L170.751 154.136C171.385 154.267 171.861 154.481 172.179 154.78C172.496 155.079 172.655 155.48 172.655 155.984C172.655 156.423 172.533 156.805 172.291 157.132C172.048 157.459 171.712 157.706 171.283 157.874C170.853 158.042 170.349 158.126 169.771 158.126ZM176.997 158.126C176.231 158.126 175.653 157.921 175.261 157.51C174.869 157.09 174.673 156.465 174.673 155.634V152.036H173.301V150.944H174.673V149.082L176.087 148.704V150.944H178.047V152.036H176.087V155.508C176.087 156.031 176.18 156.404 176.367 156.628C176.553 156.852 176.824 156.964 177.179 156.964C177.356 156.964 177.51 156.95 177.641 156.922C177.781 156.885 177.907 156.843 178.019 156.796V157.944C177.879 158 177.715 158.042 177.529 158.07C177.342 158.107 177.165 158.126 176.997 158.126ZM181.761 158.126C181.173 158.126 180.631 158.051 180.137 157.902C179.642 157.753 179.231 157.543 178.905 157.272L179.339 156.306C179.684 156.567 180.067 156.763 180.487 156.894C180.907 157.025 181.336 157.09 181.775 157.09C182.288 157.09 182.675 157.001 182.937 156.824C183.198 156.637 183.329 156.385 183.329 156.068C183.329 155.825 183.245 155.629 183.077 155.48C182.918 155.331 182.652 155.219 182.279 155.144L180.935 154.878C180.337 154.747 179.885 154.523 179.577 154.206C179.269 153.889 179.115 153.483 179.115 152.988C179.115 152.568 179.227 152.195 179.451 151.868C179.684 151.541 180.011 151.285 180.431 151.098C180.86 150.911 181.359 150.818 181.929 150.818C182.451 150.818 182.937 150.893 183.385 151.042C183.833 151.191 184.206 151.406 184.505 151.686L184.057 152.624C183.767 152.381 183.441 152.195 183.077 152.064C182.713 151.924 182.344 151.854 181.971 151.854C181.448 151.854 181.061 151.952 180.809 152.148C180.557 152.344 180.431 152.601 180.431 152.918C180.431 153.161 180.505 153.361 180.655 153.52C180.813 153.669 181.061 153.786 181.397 153.87L182.741 154.136C183.375 154.267 183.851 154.481 184.169 154.78C184.486 155.079 184.645 155.48 184.645 155.984C184.645 156.423 184.523 156.805 184.281 157.132C184.038 157.459 183.702 157.706 183.273 157.874C182.843 158.042 182.339 158.126 181.761 158.126Z" fill="#C4C4C4"/>
<line x1="13" y1="210.5" x2="219" y2="210.5" stroke="#89969F" stroke-dasharray="5 5"/>
<path d="M71.2626 195.14C70.4692 195.14 69.7366 195.042 69.0646 194.846C68.4019 194.641 67.8326 194.361 67.3566 194.006L67.9166 192.592C68.2339 192.816 68.5652 193.007 68.9106 193.166C69.2559 193.315 69.6246 193.432 70.0166 193.516C70.4086 193.591 70.8239 193.628 71.2626 193.628C71.9999 193.628 72.5319 193.507 72.8586 193.264C73.1852 193.021 73.3486 192.704 73.3486 192.312C73.3486 191.967 73.2366 191.705 73.0126 191.528C72.7886 191.341 72.3872 191.187 71.8086 191.066L70.2266 190.744C69.3212 190.557 68.6446 190.245 68.1966 189.806C67.7486 189.367 67.5246 188.779 67.5246 188.042C67.5246 187.426 67.6879 186.889 68.0146 186.432C68.3412 185.975 68.7986 185.62 69.3866 185.368C69.9746 185.116 70.6606 184.99 71.4446 184.99C72.1446 184.99 72.7932 185.093 73.3906 185.298C73.9879 185.494 74.4872 185.779 74.8886 186.152L74.3286 187.496C73.9272 187.16 73.4886 186.913 73.0126 186.754C72.5366 186.586 72.0046 186.502 71.4166 186.502C70.7539 186.502 70.2359 186.633 69.8626 186.894C69.4986 187.146 69.3166 187.496 69.3166 187.944C69.3166 188.289 69.4286 188.565 69.6526 188.77C69.8859 188.975 70.2779 189.134 70.8286 189.246L72.3966 189.554C73.3299 189.741 74.0206 190.049 74.4686 190.478C74.9166 190.898 75.1406 191.467 75.1406 192.186C75.1406 192.774 74.9819 193.292 74.6646 193.74C74.3472 194.179 73.8992 194.524 73.3206 194.776C72.7419 195.019 72.0559 195.14 71.2626 195.14ZM79.6576 195.14C78.8176 195.14 78.183 194.921 77.7536 194.482C77.3243 194.043 77.1096 193.385 77.1096 192.508V189.246H75.7516V187.93H77.1096V186.124L78.8596 185.676V187.93H80.7496V189.246H78.8596V192.396C78.8596 192.881 78.953 193.222 79.1396 193.418C79.3263 193.614 79.583 193.712 79.9096 193.712C80.087 193.712 80.2363 193.698 80.3576 193.67C80.4883 193.642 80.6143 193.605 80.7356 193.558V194.944C80.577 195.009 80.3996 195.056 80.2036 195.084C80.017 195.121 79.835 195.14 79.6576 195.14ZM84.6683 195.14C84.0523 195.14 83.511 194.995 83.0443 194.706C82.5777 194.407 82.2137 193.983 81.9523 193.432C81.691 192.881 81.5603 192.223 81.5603 191.458C81.5603 190.693 81.691 190.039 81.9523 189.498C82.2137 188.947 82.5777 188.527 83.0443 188.238C83.511 187.939 84.0523 187.79 84.6683 187.79C85.2657 187.79 85.7883 187.939 86.2363 188.238C86.6937 188.527 86.997 188.919 87.1463 189.414H86.9923L87.1463 187.93H88.8263C88.7983 188.219 88.7703 188.513 88.7423 188.812C88.7237 189.111 88.7143 189.405 88.7143 189.694V195H86.9783L86.9643 193.544H87.1323C86.983 194.029 86.6797 194.417 86.2223 194.706C85.765 194.995 85.247 195.14 84.6683 195.14ZM85.1583 193.796C85.709 193.796 86.1523 193.605 86.4883 193.222C86.8243 192.83 86.9923 192.242 86.9923 191.458C86.9923 190.674 86.8243 190.091 86.4883 189.708C86.1523 189.325 85.709 189.134 85.1583 189.134C84.6077 189.134 84.1643 189.325 83.8283 189.708C83.4923 190.091 83.3243 190.674 83.3243 191.458C83.3243 192.242 83.4877 192.83 83.8143 193.222C84.1503 193.605 84.5983 193.796 85.1583 193.796ZM90.606 195V189.736C90.606 189.437 90.5966 189.134 90.578 188.826C90.5686 188.518 90.5453 188.219 90.508 187.93H92.202L92.398 189.862H92.118C92.2113 189.395 92.3653 189.008 92.58 188.7C92.804 188.392 93.0746 188.163 93.392 188.014C93.7093 187.865 94.0546 187.79 94.428 187.79C94.596 187.79 94.7313 187.799 94.834 187.818C94.9366 187.827 95.0393 187.851 95.142 187.888L95.128 189.428C94.9506 189.353 94.7966 189.307 94.666 189.288C94.5446 189.269 94.3906 189.26 94.204 189.26C93.8026 189.26 93.462 189.344 93.182 189.512C92.9113 189.68 92.706 189.913 92.566 190.212C92.4353 190.511 92.37 190.851 92.37 191.234V195H90.606ZM99.5365 195.14C98.6965 195.14 98.0619 194.921 97.6325 194.482C97.2032 194.043 96.9885 193.385 96.9885 192.508V189.246H95.6305V187.93H96.9885V186.124L98.7385 185.676V187.93H100.629V189.246H98.7385V192.396C98.7385 192.881 98.8319 193.222 99.0185 193.418C99.2052 193.614 99.4619 193.712 99.7885 193.712C99.9659 193.712 100.115 193.698 100.237 193.67C100.367 193.642 100.493 193.605 100.615 193.558V194.944C100.456 195.009 100.279 195.056 100.083 195.084C99.8959 195.121 99.7139 195.14 99.5365 195.14ZM105.799 195V185.13H107.605V193.474H112.253V195H105.799ZM113.493 195V187.93H115.243V195H113.493ZM113.395 186.6V184.892H115.341V186.6H113.395ZM119.663 195.14C119.057 195.14 118.497 195.07 117.983 194.93C117.479 194.781 117.055 194.575 116.709 194.314L117.199 193.138C117.554 193.381 117.946 193.567 118.375 193.698C118.805 193.829 119.239 193.894 119.677 193.894C120.144 193.894 120.489 193.815 120.713 193.656C120.947 193.497 121.063 193.283 121.063 193.012C121.063 192.797 120.989 192.629 120.839 192.508C120.699 192.377 120.471 192.279 120.153 192.214L118.753 191.948C118.156 191.817 117.699 191.593 117.381 191.276C117.073 190.959 116.919 190.543 116.919 190.03C116.919 189.591 117.036 189.204 117.269 188.868C117.512 188.532 117.853 188.271 118.291 188.084C118.739 187.888 119.262 187.79 119.859 187.79C120.382 187.79 120.872 187.86 121.329 188C121.796 188.14 122.188 188.35 122.505 188.63L122.001 189.764C121.712 189.531 121.381 189.349 121.007 189.218C120.634 189.087 120.27 189.022 119.915 189.022C119.43 189.022 119.075 189.111 118.851 189.288C118.627 189.456 118.515 189.675 118.515 189.946C118.515 190.151 118.581 190.324 118.711 190.464C118.851 190.595 119.066 190.693 119.355 190.758L120.755 191.024C121.381 191.145 121.852 191.36 122.169 191.668C122.496 191.967 122.659 192.377 122.659 192.9C122.659 193.367 122.533 193.768 122.281 194.104C122.029 194.44 121.679 194.697 121.231 194.874C120.783 195.051 120.261 195.14 119.663 195.14ZM127.113 195.14C126.273 195.14 125.638 194.921 125.209 194.482C124.779 194.043 124.565 193.385 124.565 192.508V189.246H123.207V187.93H124.565V186.124L126.315 185.676V187.93H128.205V189.246H126.315V192.396C126.315 192.881 126.408 193.222 126.595 193.418C126.781 193.614 127.038 193.712 127.365 193.712C127.542 193.712 127.691 193.698 127.813 193.67C127.943 193.642 128.069 193.605 128.191 193.558V194.944C128.032 195.009 127.855 195.056 127.659 195.084C127.472 195.121 127.29 195.14 127.113 195.14ZM132.741 195.14C131.556 195.14 130.627 194.813 129.955 194.16C129.283 193.507 128.947 192.611 128.947 191.472C128.947 190.735 129.092 190.091 129.381 189.54C129.67 188.989 130.072 188.56 130.585 188.252C131.108 187.944 131.714 187.79 132.405 187.79C133.086 187.79 133.656 187.935 134.113 188.224C134.57 188.513 134.916 188.919 135.149 189.442C135.392 189.965 135.513 190.576 135.513 191.276V191.738H130.361V190.814H134.267L134.029 191.01C134.029 190.357 133.889 189.857 133.609 189.512C133.338 189.167 132.942 188.994 132.419 188.994C131.84 188.994 131.392 189.199 131.075 189.61C130.767 190.021 130.613 190.595 130.613 191.332V191.514C130.613 192.279 130.8 192.853 131.173 193.236C131.556 193.609 132.092 193.796 132.783 193.796C133.184 193.796 133.558 193.745 133.903 193.642C134.258 193.53 134.594 193.353 134.911 193.11L135.429 194.286C135.093 194.557 134.692 194.767 134.225 194.916C133.758 195.065 133.264 195.14 132.741 195.14ZM136.995 195V189.694C136.995 189.405 136.986 189.111 136.967 188.812C136.948 188.513 136.92 188.219 136.883 187.93H138.577L138.717 189.33H138.549C138.773 188.835 139.104 188.457 139.543 188.196C139.982 187.925 140.49 187.79 141.069 187.79C141.9 187.79 142.525 188.023 142.945 188.49C143.365 188.957 143.575 189.685 143.575 190.674V195H141.825V190.758C141.825 190.189 141.713 189.783 141.489 189.54C141.274 189.288 140.948 189.162 140.509 189.162C139.968 189.162 139.538 189.33 139.221 189.666C138.904 190.002 138.745 190.45 138.745 191.01V195H136.995ZM145.431 195V187.93H147.181V195H145.431ZM145.333 186.6V184.892H147.279V186.6H145.333ZM149.081 195V189.694C149.081 189.405 149.072 189.111 149.053 188.812C149.034 188.513 149.006 188.219 148.969 187.93H150.663L150.803 189.33H150.635C150.859 188.835 151.19 188.457 151.629 188.196C152.068 187.925 152.576 187.79 153.155 187.79C153.986 187.79 154.611 188.023 155.031 188.49C155.451 188.957 155.661 189.685 155.661 190.674V195H153.911V190.758C153.911 190.189 153.799 189.783 153.575 189.54C153.36 189.288 153.034 189.162 152.595 189.162C152.054 189.162 151.624 189.33 151.307 189.666C150.99 190.002 150.831 190.45 150.831 191.01V195H149.081ZM160.792 198.136C160.139 198.136 159.546 198.066 159.014 197.926C158.492 197.786 158.025 197.571 157.614 197.282L157.992 196.022C158.263 196.199 158.543 196.344 158.832 196.456C159.122 196.568 159.42 196.652 159.728 196.708C160.036 196.764 160.349 196.792 160.666 196.792C161.32 196.792 161.805 196.629 162.122 196.302C162.449 195.985 162.612 195.527 162.612 194.93V193.236H162.752C162.603 193.721 162.3 194.109 161.842 194.398C161.394 194.687 160.876 194.832 160.288 194.832C159.654 194.832 159.098 194.692 158.622 194.412C158.156 194.123 157.792 193.712 157.53 193.18C157.269 192.648 157.138 192.023 157.138 191.304C157.138 190.585 157.269 189.965 157.53 189.442C157.792 188.91 158.156 188.504 158.622 188.224C159.098 187.935 159.654 187.79 160.288 187.79C160.886 187.79 161.404 187.935 161.842 188.224C162.29 188.504 162.589 188.887 162.738 189.372L162.612 189.288L162.752 187.93H164.446C164.409 188.219 164.381 188.513 164.362 188.812C164.344 189.111 164.334 189.405 164.334 189.694V194.72C164.334 195.831 164.031 196.675 163.424 197.254C162.827 197.842 161.95 198.136 160.792 198.136ZM160.764 193.488C161.324 193.488 161.768 193.301 162.094 192.928C162.43 192.545 162.598 192.004 162.598 191.304C162.598 190.604 162.43 190.067 162.094 189.694C161.768 189.321 161.324 189.134 160.764 189.134C160.195 189.134 159.742 189.321 159.406 189.694C159.07 190.067 158.902 190.604 158.902 191.304C158.902 192.004 159.07 192.545 159.406 192.928C159.742 193.301 160.195 193.488 160.764 193.488Z" fill="#303030"/>
<defs>
<linearGradient id="paint0_linear_81_39388" x1="135.949" y1="83.1395" x2="134.116" y2="49.938" gradientUnits="userSpaceOnUse">
<stop offset="0.21875" stop-color="#969BFF"/>
<stop offset="1" stop-color="#656CEE"/>
</linearGradient>
</defs>
</svg>
