<svg width="232" height="247" viewBox="0 0 232 247" fill="none" xmlns="http://www.w3.org/2000/svg">
<rect width="232" height="50" fill="url(#paint0_linear_81_39389)"/>
<path d="M56.6281 30V20.13H60.2121C61.3415 20.13 62.2935 20.326 63.0681 20.718C63.8521 21.1007 64.4448 21.6607 64.8461 22.398C65.2475 23.126 65.4481 24.0127 65.4481 25.058C65.4481 26.094 65.2475 26.9807 64.8461 27.718C64.4448 28.4553 63.8521 29.02 63.0681 29.412C62.2935 29.804 61.3415 30 60.2121 30H56.6281ZM58.4341 28.502H60.1001C61.2948 28.502 62.1815 28.2173 62.7601 27.648C63.3388 27.0787 63.6281 26.2153 63.6281 25.058C63.6281 23.8913 63.3388 23.028 62.7601 22.468C62.1815 21.8987 61.2948 21.614 60.1001 21.614H58.4341V28.502ZM67.2922 30V20.13H69.0982V30H67.2922ZM74.7147 30.14C73.9214 30.14 73.1887 30.042 72.5167 29.846C71.854 29.6407 71.2847 29.3607 70.8087 29.006L71.3687 27.592C71.686 27.816 72.0174 28.0073 72.3627 28.166C72.708 28.3153 73.0767 28.432 73.4687 28.516C73.8607 28.5907 74.276 28.628 74.7147 28.628C75.452 28.628 75.984 28.5067 76.3107 28.264C76.6374 28.0213 76.8007 27.704 76.8007 27.312C76.8007 26.9667 76.6887 26.7053 76.4647 26.528C76.2407 26.3413 75.8394 26.1873 75.2607 26.066L73.6787 25.744C72.7734 25.5573 72.0967 25.2447 71.6487 24.806C71.2007 24.3673 70.9767 23.7793 70.9767 23.042C70.9767 22.426 71.14 21.8893 71.4667 21.432C71.7934 20.9747 72.2507 20.62 72.8387 20.368C73.4267 20.116 74.1127 19.99 74.8967 19.99C75.5967 19.99 76.2454 20.0927 76.8427 20.298C77.44 20.494 77.9394 20.7787 78.3407 21.152L77.7807 22.496C77.3794 22.16 76.9407 21.9127 76.4647 21.754C75.9887 21.586 75.4567 21.502 74.8687 21.502C74.206 21.502 73.688 21.6327 73.3147 21.894C72.9507 22.146 72.7687 22.496 72.7687 22.944C72.7687 23.2893 72.8807 23.5647 73.1047 23.77C73.338 23.9753 73.73 24.134 74.2807 24.246L75.8487 24.554C76.782 24.7407 77.4727 25.0487 77.9207 25.478C78.3687 25.898 78.5927 26.4673 78.5927 27.186C78.5927 27.774 78.434 28.292 78.1167 28.74C77.7994 29.1787 77.3514 29.524 76.7727 29.776C76.194 30.0187 75.508 30.14 74.7147 30.14ZM84.8861 30.14C83.8595 30.14 82.9775 29.9347 82.2401 29.524C81.5121 29.104 80.9521 28.516 80.5601 27.76C80.1681 26.9947 79.9721 26.094 79.9721 25.058C79.9721 24.022 80.1681 23.126 80.5601 22.37C80.9521 21.614 81.5121 21.0307 82.2401 20.62C82.9775 20.2 83.8595 19.99 84.8861 19.99C85.5768 19.99 86.1975 20.088 86.7481 20.284C87.3081 20.48 87.7888 20.7693 88.1901 21.152L87.6021 22.58C87.1635 22.2253 86.7388 21.9733 86.3281 21.824C85.9268 21.6653 85.4648 21.586 84.9421 21.586C83.9435 21.586 83.1781 21.8893 82.6461 22.496C82.1235 23.0933 81.8621 23.9473 81.8621 25.058C81.8621 26.1687 82.1235 27.0273 82.6461 27.634C83.1781 28.2407 83.9435 28.544 84.9421 28.544C85.4648 28.544 85.9268 28.4693 86.3281 28.32C86.7388 28.1613 87.1635 27.9 87.6021 27.536L88.1901 28.964C87.7888 29.3373 87.3081 29.6267 86.7481 29.832C86.1975 30.0373 85.5768 30.14 84.8861 30.14ZM89.2417 25.058C89.2417 24.022 89.4283 23.126 89.8017 22.37C90.1843 21.614 90.7303 21.0307 91.4397 20.62C92.149 20.2 92.9937 19.99 93.9737 19.99C94.9443 19.99 95.7843 20.2 96.4937 20.62C97.203 21.0307 97.749 21.614 98.1317 22.37C98.5237 23.126 98.7197 24.0173 98.7197 25.044C98.7197 26.08 98.5237 26.9807 98.1317 27.746C97.749 28.502 97.203 29.09 96.4937 29.51C95.7843 29.93 94.9443 30.14 93.9737 30.14C92.9937 30.14 92.149 29.93 91.4397 29.51C90.7397 29.09 90.1983 28.502 89.8157 27.746C89.433 26.9807 89.2417 26.0847 89.2417 25.058ZM91.1317 25.058C91.1317 26.1687 91.3697 27.0367 91.8457 27.662C92.3217 28.2873 93.031 28.6 93.9737 28.6C94.8883 28.6 95.593 28.2873 96.0877 27.662C96.5823 27.0367 96.8297 26.1687 96.8297 25.058C96.8297 23.938 96.5823 23.07 96.0877 22.454C95.6023 21.838 94.8977 21.53 93.9737 21.53C93.031 21.53 92.3217 21.838 91.8457 22.454C91.3697 23.07 91.1317 23.938 91.1317 25.058ZM103.529 30L99.1331 20.13H101.079L104.621 28.418H104.033L107.575 20.13H109.451L105.055 30H103.529ZM110.427 30V20.13H117.077V21.544H112.163V24.274H116.755V25.702H112.163V28.572H117.077V30H110.427ZM118.753 30V20.13H123.065C124.148 20.13 124.983 20.3867 125.571 20.9C126.168 21.4133 126.467 22.1273 126.467 23.042C126.467 23.6487 126.332 24.1667 126.061 24.596C125.8 25.0253 125.422 25.3567 124.927 25.59C124.432 25.814 123.849 25.926 123.177 25.926L123.373 25.66H123.849C124.241 25.66 124.591 25.7627 124.899 25.968C125.207 26.1733 125.459 26.486 125.655 26.906L127.097 30H125.109L123.653 26.794C123.522 26.4673 123.322 26.2527 123.051 26.15C122.79 26.0473 122.472 25.996 122.099 25.996H120.559V30H118.753ZM120.559 24.666H122.771C123.406 24.666 123.886 24.5353 124.213 24.274C124.549 24.0033 124.717 23.6113 124.717 23.098C124.717 22.5847 124.549 22.1973 124.213 21.936C123.886 21.6747 123.406 21.544 122.771 21.544H120.559V24.666ZM132.439 30V20.13H134.021L137.647 28.292H137.213L140.839 20.13H142.407V30H140.769V22.678H141.273L137.955 30H136.877L133.559 22.678H134.077V30H132.439ZM148.723 30.14C147.313 30.14 146.263 29.79 145.573 29.09C144.891 28.3807 144.551 27.3353 144.551 25.954V20.13H146.357V25.94C146.357 26.8173 146.543 27.48 146.917 27.928C147.299 28.376 147.901 28.6 148.723 28.6C149.507 28.6 150.095 28.376 150.487 27.928C150.888 27.48 151.089 26.8173 151.089 25.94V20.13H152.867V25.954C152.867 27.3353 152.517 28.3807 151.817 29.09C151.126 29.79 150.095 30.14 148.723 30.14ZM158.414 30.14C157.621 30.14 156.888 30.042 156.216 29.846C155.553 29.6407 154.984 29.3607 154.508 29.006L155.068 27.592C155.385 27.816 155.717 28.0073 156.062 28.166C156.407 28.3153 156.776 28.432 157.168 28.516C157.56 28.5907 157.975 28.628 158.414 28.628C159.151 28.628 159.683 28.5067 160.01 28.264C160.337 28.0213 160.5 27.704 160.5 27.312C160.5 26.9667 160.388 26.7053 160.164 26.528C159.94 26.3413 159.539 26.1873 158.96 26.066L157.378 25.744C156.473 25.5573 155.796 25.2447 155.348 24.806C154.9 24.3673 154.676 23.7793 154.676 23.042C154.676 22.426 154.839 21.8893 155.166 21.432C155.493 20.9747 155.95 20.62 156.538 20.368C157.126 20.116 157.812 19.99 158.596 19.99C159.296 19.99 159.945 20.0927 160.542 20.298C161.139 20.494 161.639 20.7787 162.04 21.152L161.48 22.496C161.079 22.16 160.64 21.9127 160.164 21.754C159.688 21.586 159.156 21.502 158.568 21.502C157.905 21.502 157.387 21.6327 157.014 21.894C156.65 22.146 156.468 22.496 156.468 22.944C156.468 23.2893 156.58 23.5647 156.804 23.77C157.037 23.9753 157.429 24.134 157.98 24.246L159.548 24.554C160.481 24.7407 161.172 25.0487 161.62 25.478C162.068 25.898 162.292 26.4673 162.292 27.186C162.292 27.774 162.133 28.292 161.816 28.74C161.499 29.1787 161.051 29.524 160.472 29.776C159.893 30.0187 159.207 30.14 158.414 30.14ZM163.993 30V20.13H165.799V30H163.993ZM172.564 30.14C171.537 30.14 170.655 29.9347 169.918 29.524C169.19 29.104 168.63 28.516 168.238 27.76C167.846 26.9947 167.65 26.094 167.65 25.058C167.65 24.022 167.846 23.126 168.238 22.37C168.63 21.614 169.19 21.0307 169.918 20.62C170.655 20.2 171.537 19.99 172.564 19.99C173.255 19.99 173.875 20.088 174.426 20.284C174.986 20.48 175.467 20.7693 175.868 21.152L175.28 22.58C174.841 22.2253 174.417 21.9733 174.006 21.824C173.605 21.6653 173.143 21.586 172.62 21.586C171.621 21.586 170.856 21.8893 170.324 22.496C169.801 23.0933 169.54 23.9473 169.54 25.058C169.54 26.1687 169.801 27.0273 170.324 27.634C170.856 28.2407 171.621 28.544 172.62 28.544C173.143 28.544 173.605 28.4693 174.006 28.32C174.417 28.1613 174.841 27.9 175.28 27.536L175.868 28.964C175.467 29.3373 174.986 29.6267 174.426 29.832C173.875 30.0373 173.255 30.14 172.564 30.14Z" fill="white"/>
<rect width="232" height="197" transform="translate(0 50)" fill="white"/>
<path d="M98.2083 152.166C97.415 152.166 96.6963 152.068 96.0523 151.872C95.4083 151.667 94.8483 151.377 94.3723 151.004L94.8623 149.856C95.1796 150.099 95.5063 150.299 95.8423 150.458C96.1876 150.617 96.5516 150.738 96.9343 150.822C97.3263 150.897 97.751 150.934 98.2083 150.934C98.9923 150.934 99.5663 150.794 99.9303 150.514C100.304 150.234 100.49 149.865 100.49 149.408C100.49 149.016 100.36 148.713 100.098 148.498C99.8463 148.283 99.3983 148.111 98.7543 147.98L97.2283 147.672C96.323 147.485 95.6463 147.182 95.1983 146.762C94.7596 146.333 94.5403 145.749 94.5403 145.012C94.5403 144.415 94.699 143.892 95.0163 143.444C95.3336 142.996 95.7723 142.651 96.3323 142.408C96.9016 142.165 97.5643 142.044 98.3203 142.044C99.0203 142.044 99.6643 142.147 100.252 142.352C100.84 142.548 101.335 142.842 101.736 143.234L101.26 144.34C100.84 143.976 100.392 143.71 99.9163 143.542C99.4403 143.365 98.899 143.276 98.2923 143.276C97.5736 143.276 97.009 143.425 96.5983 143.724C96.197 144.023 95.9963 144.429 95.9963 144.942C95.9963 145.353 96.1223 145.675 96.3743 145.908C96.6356 146.141 97.065 146.319 97.6623 146.44L99.1883 146.734C100.131 146.93 100.826 147.233 101.274 147.644C101.722 148.045 101.946 148.601 101.946 149.31C101.946 149.879 101.792 150.379 101.484 150.808C101.186 151.237 100.756 151.573 100.196 151.816C99.6363 152.049 98.9736 152.166 98.2083 152.166ZM105.897 152.04V143.388H102.523V142.17H110.727V143.388H107.353V152.04H105.897ZM109.987 152.04L114.383 142.17H115.629L120.095 152.04H118.597L117.379 149.24L117.995 149.632H112.017L112.675 149.24L111.457 152.04H109.987ZM114.985 143.766L112.857 148.792L112.521 148.47H117.491L117.211 148.792L115.041 143.766H114.985ZM121.4 152.04V142.17H125.572C126.626 142.17 127.443 142.422 128.022 142.926C128.6 143.421 128.89 144.116 128.89 145.012C128.89 145.6 128.759 146.104 128.498 146.524C128.236 146.944 127.868 147.266 127.392 147.49C126.916 147.705 126.356 147.812 125.712 147.812L125.936 147.588H126.314C126.696 147.588 127.037 147.686 127.336 147.882C127.644 148.078 127.896 148.391 128.092 148.82L129.506 152.04H127.91L126.51 148.806C126.37 148.423 126.15 148.176 125.852 148.064C125.562 147.952 125.203 147.896 124.774 147.896H122.856V152.04H121.4ZM122.856 146.79H125.334C126.034 146.79 126.561 146.641 126.916 146.342C127.28 146.043 127.462 145.614 127.462 145.054C127.462 144.485 127.28 144.055 126.916 143.766C126.561 143.477 126.034 143.332 125.334 143.332H122.856V146.79ZM133.254 152.04V143.388H129.88V142.17H138.084V143.388H134.71V152.04H133.254Z" fill="white"/>
<line x1="13" y1="99.5" x2="219" y2="99.5" stroke="#89969F" stroke-dasharray="5 5"/>
<path d="M55.4979 84.126C54.7046 84.126 53.9859 84.028 53.3419 83.832C52.6979 83.6267 52.1379 83.3373 51.6619 82.964L52.1519 81.816C52.4692 82.0587 52.7959 82.2593 53.1319 82.418C53.4772 82.5767 53.8412 82.698 54.2239 82.782C54.6159 82.8567 55.0406 82.894 55.4979 82.894C56.2819 82.894 56.8559 82.754 57.2199 82.474C57.5932 82.194 57.7799 81.8253 57.7799 81.368C57.7799 80.976 57.6492 80.6727 57.3879 80.458C57.1359 80.2433 56.6879 80.0707 56.0439 79.94L54.5179 79.632C53.6126 79.4453 52.9359 79.142 52.4879 78.722C52.0492 78.2927 51.8299 77.7093 51.8299 76.972C51.8299 76.3747 51.9886 75.852 52.3059 75.404C52.6232 74.956 53.0619 74.6107 53.6219 74.368C54.1912 74.1253 54.8539 74.004 55.6099 74.004C56.3099 74.004 56.9539 74.1067 57.5419 74.312C58.1299 74.508 58.6246 74.802 59.0259 75.194L58.5499 76.3C58.1299 75.936 57.6819 75.67 57.2059 75.502C56.7299 75.3247 56.1886 75.236 55.5819 75.236C54.8632 75.236 54.2986 75.3853 53.8879 75.684C53.4866 75.9827 53.2859 76.3887 53.2859 76.902C53.2859 77.3127 53.4119 77.6347 53.6639 77.868C53.9252 78.1013 54.3546 78.2787 54.9519 78.4L56.4779 78.694C57.4206 78.89 58.1159 79.1933 58.5639 79.604C59.0119 80.0053 59.2359 80.5607 59.2359 81.27C59.2359 81.8393 59.0819 82.3387 58.7739 82.768C58.4752 83.1973 58.0459 83.5333 57.4859 83.776C56.9259 84.0093 56.2632 84.126 55.4979 84.126ZM64.1613 84.126C63.0226 84.126 62.1266 83.804 61.4733 83.16C60.8199 82.516 60.4933 81.6247 60.4933 80.486C60.4933 79.7487 60.6333 79.1047 60.9133 78.554C61.2026 78.0033 61.5993 77.5787 62.1033 77.28C62.6166 76.972 63.2093 76.818 63.8813 76.818C64.5439 76.818 65.0993 76.958 65.5473 77.238C65.9953 77.518 66.3359 77.9147 66.5693 78.428C66.8026 78.932 66.9193 79.5293 66.9193 80.22V80.668H61.5993V79.856H65.9533L65.7153 80.038C65.7153 79.338 65.5566 78.7967 65.2393 78.414C64.9313 78.022 64.4833 77.826 63.8953 77.826C63.2419 77.826 62.7379 78.0547 62.3833 78.512C62.0286 78.96 61.8513 79.5807 61.8513 80.374V80.514C61.8513 81.3447 62.0519 81.97 62.4533 82.39C62.8639 82.81 63.4426 83.02 64.1893 83.02C64.5999 83.02 64.9826 82.964 65.3373 82.852C65.7013 82.7307 66.0466 82.5347 66.3733 82.264L66.8353 83.23C66.5086 83.5193 66.1119 83.7433 65.6453 83.902C65.1786 84.0513 64.6839 84.126 64.1613 84.126ZM71.2439 84.126C70.6185 84.126 70.0725 83.9813 69.6059 83.692C69.1392 83.4027 68.7752 82.9827 68.5139 82.432C68.2619 81.8813 68.1359 81.228 68.1359 80.472C68.1359 79.7067 68.2619 79.0533 68.5139 78.512C68.7752 77.9707 69.1392 77.5553 69.6059 77.266C70.0725 76.9673 70.6185 76.818 71.2439 76.818C71.8599 76.818 72.3965 76.972 72.8539 77.28C73.3112 77.588 73.6145 78.008 73.7639 78.54H73.6099L73.7499 76.944H75.1219C75.0939 77.2333 75.0659 77.5227 75.0379 77.812C75.0192 78.092 75.0099 78.3673 75.0099 78.638V84H73.5959V82.432H73.7499C73.6005 82.9547 73.2925 83.37 72.8259 83.678C72.3685 83.9767 71.8412 84.126 71.2439 84.126ZM71.5939 83.02C72.2005 83.02 72.6859 82.8053 73.0499 82.376C73.4232 81.9467 73.6099 81.312 73.6099 80.472C73.6099 79.632 73.4232 79.002 73.0499 78.582C72.6859 78.1527 72.2005 77.938 71.5939 77.938C70.9779 77.938 70.4832 78.1527 70.1099 78.582C69.7459 79.002 69.5639 79.632 69.5639 80.472C69.5639 81.312 69.7459 81.9467 70.1099 82.376C70.4739 82.8053 70.9685 83.02 71.5939 83.02ZM77.0451 84V78.694C77.0451 78.4047 77.0358 78.1153 77.0171 77.826C77.0078 77.5273 76.9891 77.2333 76.9611 76.944H78.3331L78.4871 78.764H78.2631C78.3564 78.3253 78.5151 77.9613 78.7391 77.672C78.9631 77.3827 79.2338 77.168 79.5511 77.028C79.8778 76.888 80.2184 76.818 80.5731 76.818C80.7224 76.818 80.8484 76.8273 80.9511 76.846C81.0538 76.8553 81.1564 76.874 81.2591 76.902L81.2451 78.162C81.0864 78.0967 80.9464 78.0593 80.8251 78.05C80.7131 78.0313 80.5731 78.022 80.4051 78.022C79.9944 78.022 79.6444 78.1153 79.3551 78.302C79.0658 78.4793 78.8464 78.722 78.6971 79.03C78.5478 79.338 78.4731 79.6693 78.4731 80.024V84H77.0451ZM85.3488 84.126C84.6394 84.126 84.0188 83.9813 83.4868 83.692C82.9641 83.3933 82.5581 82.9687 82.2688 82.418C81.9888 81.858 81.8488 81.1953 81.8488 80.43C81.8488 79.674 81.9934 79.0253 82.2828 78.484C82.5721 77.9427 82.9781 77.532 83.5008 77.252C84.0234 76.9627 84.6394 76.818 85.3488 76.818C85.8061 76.818 86.2494 76.8973 86.6788 77.056C87.1081 77.2053 87.4628 77.42 87.7428 77.7L87.2808 78.694C87.0194 78.442 86.7254 78.2553 86.3988 78.134C86.0721 78.0033 85.7548 77.938 85.4468 77.938C84.7748 77.938 84.2474 78.1527 83.8648 78.582C83.4821 79.0113 83.2908 79.632 83.2908 80.444C83.2908 81.2653 83.4821 81.8953 83.8648 82.334C84.2474 82.7727 84.7748 82.992 85.4468 82.992C85.7454 82.992 86.0581 82.936 86.3848 82.824C86.7114 82.7027 87.0101 82.5113 87.2808 82.25L87.7428 83.244C87.4534 83.524 87.0894 83.7433 86.6508 83.902C86.2214 84.0513 85.7874 84.126 85.3488 84.126ZM89.2411 84V73.696H90.6551V78.442H90.4591C90.6644 77.91 90.9957 77.5087 91.4531 77.238C91.9104 76.958 92.4377 76.818 93.0351 76.818C93.8751 76.818 94.5004 77.0513 94.9111 77.518C95.3217 77.9753 95.5271 78.6707 95.5271 79.604V84H94.1131V79.688C94.1131 79.0813 93.9917 78.6427 93.7491 78.372C93.5157 78.092 93.1424 77.952 92.6291 77.952C92.0317 77.952 91.5511 78.1387 91.1871 78.512C90.8324 78.876 90.6551 79.3613 90.6551 79.968V84H89.2411ZM103.694 84.126C103.106 84.126 102.565 84.0513 102.07 83.902C101.576 83.7527 101.165 83.5427 100.838 83.272L101.272 82.306C101.618 82.5673 102 82.7633 102.42 82.894C102.84 83.0247 103.27 83.09 103.708 83.09C104.222 83.09 104.609 83.0013 104.87 82.824C105.132 82.6373 105.262 82.3853 105.262 82.068C105.262 81.8253 105.178 81.6293 105.01 81.48C104.852 81.3307 104.586 81.2187 104.212 81.144L102.868 80.878C102.271 80.7473 101.818 80.5233 101.51 80.206C101.202 79.8887 101.048 79.4827 101.048 78.988C101.048 78.568 101.16 78.1947 101.384 77.868C101.618 77.5413 101.944 77.2847 102.364 77.098C102.794 76.9113 103.293 76.818 103.862 76.818C104.385 76.818 104.87 76.8927 105.318 77.042C105.766 77.1913 106.14 77.406 106.438 77.686L105.99 78.624C105.701 78.3813 105.374 78.1947 105.01 78.064C104.646 77.924 104.278 77.854 103.904 77.854C103.382 77.854 102.994 77.952 102.742 78.148C102.49 78.344 102.364 78.6007 102.364 78.918C102.364 79.1607 102.439 79.3613 102.588 79.52C102.747 79.6693 102.994 79.786 103.33 79.87L104.674 80.136C105.309 80.2667 105.785 80.4813 106.102 80.78C106.42 81.0787 106.578 81.48 106.578 81.984C106.578 82.4227 106.457 82.8053 106.214 83.132C105.972 83.4587 105.636 83.706 105.206 83.874C104.777 84.042 104.273 84.126 103.694 84.126ZM111.269 84.126C110.569 84.126 109.962 83.9813 109.449 83.692C108.936 83.3933 108.539 82.9733 108.259 82.432C107.979 81.8813 107.839 81.228 107.839 80.472C107.839 79.716 107.979 79.0673 108.259 78.526C108.539 77.9753 108.936 77.5553 109.449 77.266C109.962 76.9673 110.569 76.818 111.269 76.818C111.969 76.818 112.576 76.9673 113.089 77.266C113.612 77.5553 114.013 77.9753 114.293 78.526C114.582 79.0673 114.727 79.716 114.727 80.472C114.727 81.228 114.582 81.8813 114.293 82.432C114.013 82.9733 113.612 83.3933 113.089 83.692C112.576 83.9813 111.969 84.126 111.269 84.126ZM111.269 83.02C111.885 83.02 112.375 82.8053 112.739 82.376C113.103 81.9467 113.285 81.312 113.285 80.472C113.285 79.632 113.103 79.002 112.739 78.582C112.375 78.1527 111.885 77.938 111.269 77.938C110.662 77.938 110.177 78.1527 109.813 78.582C109.449 79.002 109.267 79.632 109.267 80.472C109.267 81.312 109.444 81.9467 109.799 82.376C110.163 82.8053 110.653 83.02 111.269 83.02ZM116.38 84V78.638C116.38 78.3673 116.366 78.092 116.338 77.812C116.319 77.5227 116.296 77.2333 116.268 76.944H117.64L117.766 78.428H117.598C117.812 77.9053 118.144 77.5087 118.592 77.238C119.04 76.958 119.558 76.818 120.146 76.818C120.976 76.818 121.602 77.0467 122.022 77.504C122.451 77.9613 122.666 78.6707 122.666 79.632V84H121.252V79.716C121.252 79.0907 121.126 78.6427 120.874 78.372C120.631 78.092 120.258 77.952 119.754 77.952C119.156 77.952 118.68 78.1387 118.326 78.512C117.971 78.876 117.794 79.3707 117.794 79.996V84H116.38ZM127.857 87.136C127.222 87.136 126.643 87.0613 126.121 86.912C125.607 86.7627 125.145 86.5387 124.735 86.24L125.085 85.204C125.374 85.4 125.659 85.554 125.939 85.666C126.219 85.7873 126.513 85.876 126.821 85.932C127.129 85.988 127.446 86.016 127.773 86.016C128.445 86.016 128.949 85.8433 129.285 85.498C129.63 85.162 129.803 84.672 129.803 84.028V82.138H129.943C129.793 82.6607 129.485 83.076 129.019 83.384C128.561 83.6827 128.029 83.832 127.423 83.832C126.779 83.832 126.219 83.692 125.743 83.412C125.276 83.1227 124.912 82.7167 124.651 82.194C124.399 81.662 124.273 81.0367 124.273 80.318C124.273 79.5993 124.399 78.9787 124.651 78.456C124.912 77.9333 125.276 77.532 125.743 77.252C126.219 76.9627 126.779 76.818 127.423 76.818C128.039 76.818 128.571 76.972 129.019 77.28C129.476 77.5787 129.779 77.9893 129.929 78.512L129.803 78.4L129.929 76.944H131.301C131.263 77.2333 131.235 77.5227 131.217 77.812C131.198 78.092 131.189 78.3673 131.189 78.638V83.86C131.189 84.924 130.904 85.736 130.335 86.296C129.775 86.856 128.949 87.136 127.857 87.136ZM127.759 82.726C128.375 82.726 128.865 82.516 129.229 82.096C129.602 81.676 129.789 81.0833 129.789 80.318C129.789 79.5527 129.602 78.9647 129.229 78.554C128.865 78.1433 128.375 77.938 127.759 77.938C127.124 77.938 126.62 78.1433 126.247 78.554C125.883 78.9647 125.701 79.5527 125.701 80.318C125.701 81.0833 125.883 81.676 126.247 82.096C126.62 82.516 127.124 82.726 127.759 82.726ZM133.755 85.722L133.139 85.246C133.41 84.9567 133.592 84.6907 133.685 84.448C133.788 84.2053 133.839 83.9533 133.839 83.692L134.147 84H133.041V82.334H134.707V83.468C134.707 83.888 134.637 84.2753 134.497 84.63C134.357 84.994 134.11 85.358 133.755 85.722ZM143.008 84.126C142.382 84.126 141.836 83.9813 141.37 83.692C140.903 83.4027 140.539 82.9827 140.278 82.432C140.026 81.8813 139.9 81.228 139.9 80.472C139.9 79.7067 140.026 79.0533 140.278 78.512C140.539 77.9707 140.903 77.5553 141.37 77.266C141.836 76.9673 142.382 76.818 143.008 76.818C143.624 76.818 144.16 76.972 144.618 77.28C145.075 77.588 145.378 78.008 145.528 78.54H145.374L145.514 76.944H146.886C146.858 77.2333 146.83 77.5227 146.802 77.812C146.783 78.092 146.774 78.3673 146.774 78.638V84H145.36V82.432H145.514C145.364 82.9547 145.056 83.37 144.59 83.678C144.132 83.9767 143.605 84.126 143.008 84.126ZM143.358 83.02C143.964 83.02 144.45 82.8053 144.814 82.376C145.187 81.9467 145.374 81.312 145.374 80.472C145.374 79.632 145.187 79.002 144.814 78.582C144.45 78.1527 143.964 77.938 143.358 77.938C142.742 77.938 142.247 78.1527 141.874 78.582C141.51 79.002 141.328 79.632 141.328 80.472C141.328 81.312 141.51 81.9467 141.874 82.376C142.238 82.8053 142.732 83.02 143.358 83.02ZM148.809 84V78.694C148.809 78.4047 148.799 78.1153 148.781 77.826C148.771 77.5273 148.753 77.2333 148.725 76.944H150.097L150.251 78.764H150.027C150.12 78.3253 150.279 77.9613 150.503 77.672C150.727 77.3827 150.997 77.168 151.315 77.028C151.641 76.888 151.982 76.818 152.337 76.818C152.486 76.818 152.612 76.8273 152.715 76.846C152.817 76.8553 152.92 76.874 153.023 76.902L153.009 78.162C152.85 78.0967 152.71 78.0593 152.589 78.05C152.477 78.0313 152.337 78.022 152.169 78.022C151.758 78.022 151.408 78.1153 151.119 78.302C150.829 78.4793 150.61 78.722 150.461 79.03C150.311 79.338 150.237 79.6693 150.237 80.024V84H148.809ZM157.241 84.126C156.476 84.126 155.897 83.9207 155.505 83.51C155.113 83.09 154.917 82.4647 154.917 81.634V78.036H153.545V76.944H154.917V75.082L156.331 74.704V76.944H158.291V78.036H156.331V81.508C156.331 82.0307 156.424 82.404 156.611 82.628C156.798 82.852 157.068 82.964 157.423 82.964C157.6 82.964 157.754 82.95 157.885 82.922C158.025 82.8847 158.151 82.8427 158.263 82.796V83.944C158.123 84 157.96 84.042 157.773 84.07C157.586 84.1073 157.409 84.126 157.241 84.126ZM159.583 84V76.944H160.997V84H159.583ZM159.471 75.474V74.004H161.109V75.474H159.471ZM165.491 84.126C164.903 84.126 164.362 84.0513 163.867 83.902C163.373 83.7527 162.962 83.5427 162.635 83.272L163.069 82.306C163.415 82.5673 163.797 82.7633 164.217 82.894C164.637 83.0247 165.067 83.09 165.505 83.09C166.019 83.09 166.406 83.0013 166.667 82.824C166.929 82.6373 167.059 82.3853 167.059 82.068C167.059 81.8253 166.975 81.6293 166.807 81.48C166.649 81.3307 166.383 81.2187 166.009 81.144L164.665 80.878C164.068 80.7473 163.615 80.5233 163.307 80.206C162.999 79.8887 162.845 79.4827 162.845 78.988C162.845 78.568 162.957 78.1947 163.181 77.868C163.415 77.5413 163.741 77.2847 164.161 77.098C164.591 76.9113 165.09 76.818 165.659 76.818C166.182 76.818 166.667 76.8927 167.115 77.042C167.563 77.1913 167.937 77.406 168.235 77.686L167.787 78.624C167.498 78.3813 167.171 78.1947 166.807 78.064C166.443 77.924 166.075 77.854 165.701 77.854C165.179 77.854 164.791 77.952 164.539 78.148C164.287 78.344 164.161 78.6007 164.161 78.918C164.161 79.1607 164.236 79.3613 164.385 79.52C164.544 79.6693 164.791 79.786 165.127 79.87L166.471 80.136C167.106 80.2667 167.582 80.4813 167.899 80.78C168.217 81.0787 168.375 81.48 168.375 81.984C168.375 82.4227 168.254 82.8053 168.011 83.132C167.769 83.4587 167.433 83.706 167.003 83.874C166.574 84.042 166.07 84.126 165.491 84.126ZM172.718 84.126C171.952 84.126 171.374 83.9207 170.982 83.51C170.59 83.09 170.394 82.4647 170.394 81.634V78.036H169.022V76.944H170.394V75.082L171.808 74.704V76.944H173.768V78.036H171.808V81.508C171.808 82.0307 171.901 82.404 172.088 82.628C172.274 82.852 172.545 82.964 172.9 82.964C173.077 82.964 173.231 82.95 173.362 82.922C173.502 82.8847 173.628 82.8427 173.74 82.796V83.944C173.6 84 173.436 84.042 173.25 84.07C173.063 84.1073 172.886 84.126 172.718 84.126ZM177.481 84.126C176.893 84.126 176.352 84.0513 175.857 83.902C175.363 83.7527 174.952 83.5427 174.625 83.272L175.059 82.306C175.405 82.5673 175.787 82.7633 176.207 82.894C176.627 83.0247 177.057 83.09 177.495 83.09C178.009 83.09 178.396 83.0013 178.657 82.824C178.919 82.6373 179.049 82.3853 179.049 82.068C179.049 81.8253 178.965 81.6293 178.797 81.48C178.639 81.3307 178.373 81.2187 177.999 81.144L176.655 80.878C176.058 80.7473 175.605 80.5233 175.297 80.206C174.989 79.8887 174.835 79.4827 174.835 78.988C174.835 78.568 174.947 78.1947 175.171 77.868C175.405 77.5413 175.731 77.2847 176.151 77.098C176.581 76.9113 177.08 76.818 177.649 76.818C178.172 76.818 178.657 76.8927 179.105 77.042C179.553 77.1913 179.927 77.406 180.225 77.686L179.777 78.624C179.488 78.3813 179.161 78.1947 178.797 78.064C178.433 77.924 178.065 77.854 177.691 77.854C177.169 77.854 176.781 77.952 176.529 78.148C176.277 78.344 176.151 78.6007 176.151 78.918C176.151 79.1607 176.226 79.3613 176.375 79.52C176.534 79.6693 176.781 79.786 177.117 79.87L178.461 80.136C179.096 80.2667 179.572 80.4813 179.889 80.78C180.207 81.0787 180.365 81.48 180.365 81.984C180.365 82.4227 180.244 82.8053 180.001 83.132C179.759 83.4587 179.423 83.706 178.993 83.874C178.564 84.042 178.06 84.126 177.481 84.126Z" fill="#C4C4C4"/>
<line x1="13" y1="136.5" x2="219" y2="136.5" stroke="#89969F" stroke-dasharray="5 5"/>
<path d="M49.66 121.126C48.8667 121.126 48.148 121.028 47.504 120.832C46.86 120.627 46.3 120.337 45.824 119.964L46.314 118.816C46.6313 119.059 46.958 119.259 47.294 119.418C47.6393 119.577 48.0033 119.698 48.386 119.782C48.778 119.857 49.2027 119.894 49.66 119.894C50.444 119.894 51.018 119.754 51.382 119.474C51.7553 119.194 51.942 118.825 51.942 118.368C51.942 117.976 51.8113 117.673 51.55 117.458C51.298 117.243 50.85 117.071 50.206 116.94L48.68 116.632C47.7747 116.445 47.098 116.142 46.65 115.722C46.2113 115.293 45.992 114.709 45.992 113.972C45.992 113.375 46.1507 112.852 46.468 112.404C46.7853 111.956 47.224 111.611 47.784 111.368C48.3533 111.125 49.016 111.004 49.772 111.004C50.472 111.004 51.116 111.107 51.704 111.312C52.292 111.508 52.7867 111.802 53.188 112.194L52.712 113.3C52.292 112.936 51.844 112.67 51.368 112.502C50.892 112.325 50.3507 112.236 49.744 112.236C49.0253 112.236 48.4607 112.385 48.05 112.684C47.6487 112.983 47.448 113.389 47.448 113.902C47.448 114.313 47.574 114.635 47.826 114.868C48.0873 115.101 48.5167 115.279 49.114 115.4L50.64 115.694C51.5827 115.89 52.278 116.193 52.726 116.604C53.174 117.005 53.398 117.561 53.398 118.27C53.398 118.839 53.244 119.339 52.936 119.768C52.6373 120.197 52.208 120.533 51.648 120.776C51.088 121.009 50.4253 121.126 49.66 121.126ZM58.3234 121.126C57.1847 121.126 56.2887 120.804 55.6354 120.16C54.9821 119.516 54.6554 118.625 54.6554 117.486C54.6554 116.749 54.7954 116.105 55.0754 115.554C55.3647 115.003 55.7614 114.579 56.2654 114.28C56.7787 113.972 57.3714 113.818 58.0434 113.818C58.7061 113.818 59.2614 113.958 59.7094 114.238C60.1574 114.518 60.4981 114.915 60.7314 115.428C60.9647 115.932 61.0814 116.529 61.0814 117.22V117.668H55.7614V116.856H60.1154L59.8774 117.038C59.8774 116.338 59.7187 115.797 59.4014 115.414C59.0934 115.022 58.6454 114.826 58.0574 114.826C57.4041 114.826 56.9001 115.055 56.5454 115.512C56.1907 115.96 56.0134 116.581 56.0134 117.374V117.514C56.0134 118.345 56.2141 118.97 56.6154 119.39C57.0261 119.81 57.6047 120.02 58.3514 120.02C58.7621 120.02 59.1447 119.964 59.4994 119.852C59.8634 119.731 60.2087 119.535 60.5354 119.264L60.9974 120.23C60.6707 120.519 60.2741 120.743 59.8074 120.902C59.3407 121.051 58.8461 121.126 58.3234 121.126ZM65.406 121.126C64.7806 121.126 64.2346 120.981 63.768 120.692C63.3013 120.403 62.9373 119.983 62.676 119.432C62.424 118.881 62.298 118.228 62.298 117.472C62.298 116.707 62.424 116.053 62.676 115.512C62.9373 114.971 63.3013 114.555 63.768 114.266C64.2346 113.967 64.7806 113.818 65.406 113.818C66.022 113.818 66.5586 113.972 67.016 114.28C67.4733 114.588 67.7766 115.008 67.926 115.54H67.772L67.912 113.944H69.284C69.256 114.233 69.228 114.523 69.2 114.812C69.1813 115.092 69.172 115.367 69.172 115.638V121H67.758V119.432H67.912C67.7626 119.955 67.4546 120.37 66.988 120.678C66.5306 120.977 66.0033 121.126 65.406 121.126ZM65.756 120.02C66.3626 120.02 66.848 119.805 67.212 119.376C67.5853 118.947 67.772 118.312 67.772 117.472C67.772 116.632 67.5853 116.002 67.212 115.582C66.848 115.153 66.3626 114.938 65.756 114.938C65.14 114.938 64.6453 115.153 64.272 115.582C63.908 116.002 63.726 116.632 63.726 117.472C63.726 118.312 63.908 118.947 64.272 119.376C64.636 119.805 65.1306 120.02 65.756 120.02ZM71.2072 121V115.694C71.2072 115.405 71.1979 115.115 71.1792 114.826C71.1699 114.527 71.1512 114.233 71.1232 113.944H72.4952L72.6492 115.764H72.4252C72.5186 115.325 72.6772 114.961 72.9012 114.672C73.1252 114.383 73.3959 114.168 73.7132 114.028C74.0399 113.888 74.3806 113.818 74.7352 113.818C74.8846 113.818 75.0106 113.827 75.1132 113.846C75.2159 113.855 75.3186 113.874 75.4212 113.902L75.4072 115.162C75.2486 115.097 75.1086 115.059 74.9872 115.05C74.8752 115.031 74.7352 115.022 74.5672 115.022C74.1566 115.022 73.8066 115.115 73.5172 115.302C73.2279 115.479 73.0086 115.722 72.8592 116.03C72.7099 116.338 72.6352 116.669 72.6352 117.024V121H71.2072ZM79.5109 121.126C78.8015 121.126 78.1809 120.981 77.6489 120.692C77.1262 120.393 76.7202 119.969 76.4309 119.418C76.1509 118.858 76.0109 118.195 76.0109 117.43C76.0109 116.674 76.1555 116.025 76.4449 115.484C76.7342 114.943 77.1402 114.532 77.6629 114.252C78.1855 113.963 78.8015 113.818 79.5109 113.818C79.9682 113.818 80.4115 113.897 80.8409 114.056C81.2702 114.205 81.6249 114.42 81.9049 114.7L81.4429 115.694C81.1815 115.442 80.8875 115.255 80.5609 115.134C80.2342 115.003 79.9169 114.938 79.6089 114.938C78.9369 114.938 78.4095 115.153 78.0269 115.582C77.6442 116.011 77.4529 116.632 77.4529 117.444C77.4529 118.265 77.6442 118.895 78.0269 119.334C78.4095 119.773 78.9369 119.992 79.6089 119.992C79.9075 119.992 80.2202 119.936 80.5469 119.824C80.8735 119.703 81.1722 119.511 81.4429 119.25L81.9049 120.244C81.6155 120.524 81.2515 120.743 80.8129 120.902C80.3835 121.051 79.9495 121.126 79.5109 121.126ZM83.4032 121V110.696H84.8172V115.442H84.6212C84.8265 114.91 85.1579 114.509 85.6152 114.238C86.0725 113.958 86.5999 113.818 87.1972 113.818C88.0372 113.818 88.6625 114.051 89.0732 114.518C89.4839 114.975 89.6892 115.671 89.6892 116.604V121H88.2752V116.688C88.2752 116.081 88.1539 115.643 87.9112 115.372C87.6779 115.092 87.3045 114.952 86.7912 114.952C86.1939 114.952 85.7132 115.139 85.3492 115.512C84.9945 115.876 84.8172 116.361 84.8172 116.968V121H83.4032ZM95.8544 121V115.036H94.4824V113.944H96.2464L95.8544 114.308V113.188C95.8544 112.357 96.0644 111.727 96.4844 111.298C96.9044 110.859 97.5204 110.64 98.3324 110.64C98.5284 110.64 98.7338 110.654 98.9484 110.682C99.1631 110.71 99.3404 110.757 99.4804 110.822V111.97C99.3684 111.923 99.2284 111.886 99.0604 111.858C98.9018 111.821 98.7384 111.802 98.5704 111.802C98.2998 111.802 98.0664 111.858 97.8704 111.97C97.6744 112.073 97.5204 112.231 97.4084 112.446C97.3058 112.661 97.2544 112.936 97.2544 113.272V114.224L97.0444 113.944H99.1724V115.036H97.2684V121H95.8544ZM100.328 121V115.694C100.328 115.405 100.319 115.115 100.3 114.826C100.291 114.527 100.272 114.233 100.244 113.944H101.616L101.77 115.764H101.546C101.64 115.325 101.798 114.961 102.022 114.672C102.246 114.383 102.517 114.168 102.834 114.028C103.161 113.888 103.502 113.818 103.856 113.818C104.006 113.818 104.132 113.827 104.234 113.846C104.337 113.855 104.44 113.874 104.542 113.902L104.528 115.162C104.37 115.097 104.23 115.059 104.108 115.05C103.996 115.031 103.856 115.022 103.688 115.022C103.278 115.022 102.928 115.115 102.638 115.302C102.349 115.479 102.13 115.722 101.98 116.03C101.831 116.338 101.756 116.669 101.756 117.024V121H100.328ZM108.562 121.126C107.862 121.126 107.255 120.981 106.742 120.692C106.229 120.393 105.832 119.973 105.552 119.432C105.272 118.881 105.132 118.228 105.132 117.472C105.132 116.716 105.272 116.067 105.552 115.526C105.832 114.975 106.229 114.555 106.742 114.266C107.255 113.967 107.862 113.818 108.562 113.818C109.262 113.818 109.869 113.967 110.382 114.266C110.905 114.555 111.306 114.975 111.586 115.526C111.875 116.067 112.02 116.716 112.02 117.472C112.02 118.228 111.875 118.881 111.586 119.432C111.306 119.973 110.905 120.393 110.382 120.692C109.869 120.981 109.262 121.126 108.562 121.126ZM108.562 120.02C109.178 120.02 109.668 119.805 110.032 119.376C110.396 118.947 110.578 118.312 110.578 117.472C110.578 116.632 110.396 116.002 110.032 115.582C109.668 115.153 109.178 114.938 108.562 114.938C107.955 114.938 107.47 115.153 107.106 115.582C106.742 116.002 106.56 116.632 106.56 117.472C106.56 118.312 106.737 118.947 107.092 119.376C107.456 119.805 107.946 120.02 108.562 120.02ZM113.673 121V115.638C113.673 115.367 113.659 115.092 113.631 114.812C113.612 114.523 113.589 114.233 113.561 113.944H114.933L115.059 115.428H114.891C115.087 114.915 115.385 114.518 115.787 114.238C116.197 113.958 116.687 113.818 117.257 113.818C117.835 113.818 118.307 113.958 118.671 114.238C119.044 114.509 119.301 114.929 119.441 115.498H119.217C119.403 114.985 119.721 114.579 120.169 114.28C120.617 113.972 121.135 113.818 121.723 113.818C122.507 113.818 123.095 114.047 123.487 114.504C123.879 114.961 124.075 115.671 124.075 116.632V121H122.661V116.702C122.661 116.086 122.553 115.643 122.339 115.372C122.133 115.092 121.797 114.952 121.331 114.952C120.789 114.952 120.36 115.139 120.043 115.512C119.725 115.885 119.567 116.389 119.567 117.024V121H118.153V116.702C118.153 116.086 118.045 115.643 117.831 115.372C117.625 115.092 117.289 114.952 116.823 114.952C116.281 114.952 115.857 115.139 115.549 115.512C115.241 115.885 115.087 116.389 115.087 117.024V121H113.673ZM132.927 121.126C132.218 121.126 131.597 120.981 131.065 120.692C130.542 120.393 130.136 119.969 129.847 119.418C129.567 118.858 129.427 118.195 129.427 117.43C129.427 116.674 129.572 116.025 129.861 115.484C130.15 114.943 130.556 114.532 131.079 114.252C131.602 113.963 132.218 113.818 132.927 113.818C133.384 113.818 133.828 113.897 134.257 114.056C134.686 114.205 135.041 114.42 135.321 114.7L134.859 115.694C134.598 115.442 134.304 115.255 133.977 115.134C133.65 115.003 133.333 114.938 133.025 114.938C132.353 114.938 131.826 115.153 131.443 115.582C131.06 116.011 130.869 116.632 130.869 117.444C130.869 118.265 131.06 118.895 131.443 119.334C131.826 119.773 132.353 119.992 133.025 119.992C133.324 119.992 133.636 119.936 133.963 119.824C134.29 119.703 134.588 119.511 134.859 119.25L135.321 120.244C135.032 120.524 134.668 120.743 134.229 120.902C133.8 121.051 133.366 121.126 132.927 121.126ZM139.467 121.126C138.841 121.126 138.295 120.981 137.829 120.692C137.362 120.403 136.998 119.983 136.737 119.432C136.485 118.881 136.359 118.228 136.359 117.472C136.359 116.707 136.485 116.053 136.737 115.512C136.998 114.971 137.362 114.555 137.829 114.266C138.295 113.967 138.841 113.818 139.467 113.818C140.083 113.818 140.619 113.972 141.077 114.28C141.534 114.588 141.837 115.008 141.987 115.54H141.833L141.973 113.944H143.345C143.317 114.233 143.289 114.523 143.261 114.812C143.242 115.092 143.233 115.367 143.233 115.638V121H141.819V119.432H141.973C141.823 119.955 141.515 120.37 141.049 120.678C140.591 120.977 140.064 121.126 139.467 121.126ZM139.817 120.02C140.423 120.02 140.909 119.805 141.273 119.376C141.646 118.947 141.833 118.312 141.833 117.472C141.833 116.632 141.646 116.002 141.273 115.582C140.909 115.153 140.423 114.938 139.817 114.938C139.201 114.938 138.706 115.153 138.333 115.582C137.969 116.002 137.787 116.632 137.787 117.472C137.787 118.312 137.969 118.947 138.333 119.376C138.697 119.805 139.191 120.02 139.817 120.02ZM148.04 121.126C147.274 121.126 146.696 120.921 146.304 120.51C145.912 120.09 145.716 119.465 145.716 118.634V115.036H144.344V113.944H145.716V112.082L147.13 111.704V113.944H149.09V115.036H147.13V118.508C147.13 119.031 147.223 119.404 147.41 119.628C147.596 119.852 147.867 119.964 148.222 119.964C148.399 119.964 148.553 119.95 148.684 119.922C148.824 119.885 148.95 119.843 149.062 119.796V120.944C148.922 121 148.758 121.042 148.572 121.07C148.385 121.107 148.208 121.126 148.04 121.126ZM153.575 121.126C152.437 121.126 151.541 120.804 150.887 120.16C150.234 119.516 149.907 118.625 149.907 117.486C149.907 116.749 150.047 116.105 150.327 115.554C150.617 115.003 151.013 114.579 151.517 114.28C152.031 113.972 152.623 113.818 153.295 113.818C153.958 113.818 154.513 113.958 154.961 114.238C155.409 114.518 155.75 114.915 155.983 115.428C156.217 115.932 156.333 116.529 156.333 117.22V117.668H151.013V116.856H155.367L155.129 117.038C155.129 116.338 154.971 115.797 154.653 115.414C154.345 115.022 153.897 114.826 153.309 114.826C152.656 114.826 152.152 115.055 151.797 115.512C151.443 115.96 151.265 116.581 151.265 117.374V117.514C151.265 118.345 151.466 118.97 151.867 119.39C152.278 119.81 152.857 120.02 153.603 120.02C154.014 120.02 154.397 119.964 154.751 119.852C155.115 119.731 155.461 119.535 155.787 119.264L156.249 120.23C155.923 120.519 155.526 120.743 155.059 120.902C154.593 121.051 154.098 121.126 153.575 121.126ZM161.134 124.136C160.499 124.136 159.921 124.061 159.398 123.912C158.885 123.763 158.423 123.539 158.012 123.24L158.362 122.204C158.651 122.4 158.936 122.554 159.216 122.666C159.496 122.787 159.79 122.876 160.098 122.932C160.406 122.988 160.723 123.016 161.05 123.016C161.722 123.016 162.226 122.843 162.562 122.498C162.907 122.162 163.08 121.672 163.08 121.028V119.138H163.22C163.071 119.661 162.763 120.076 162.296 120.384C161.839 120.683 161.307 120.832 160.7 120.832C160.056 120.832 159.496 120.692 159.02 120.412C158.553 120.123 158.189 119.717 157.928 119.194C157.676 118.662 157.55 118.037 157.55 117.318C157.55 116.599 157.676 115.979 157.928 115.456C158.189 114.933 158.553 114.532 159.02 114.252C159.496 113.963 160.056 113.818 160.7 113.818C161.316 113.818 161.848 113.972 162.296 114.28C162.753 114.579 163.057 114.989 163.206 115.512L163.08 115.4L163.206 113.944H164.578C164.541 114.233 164.513 114.523 164.494 114.812C164.475 115.092 164.466 115.367 164.466 115.638V120.86C164.466 121.924 164.181 122.736 163.612 123.296C163.052 123.856 162.226 124.136 161.134 124.136ZM161.036 119.726C161.652 119.726 162.142 119.516 162.506 119.096C162.879 118.676 163.066 118.083 163.066 117.318C163.066 116.553 162.879 115.965 162.506 115.554C162.142 115.143 161.652 114.938 161.036 114.938C160.401 114.938 159.897 115.143 159.524 115.554C159.16 115.965 158.978 116.553 158.978 117.318C158.978 118.083 159.16 118.676 159.524 119.096C159.897 119.516 160.401 119.726 161.036 119.726ZM169.552 121.126C168.852 121.126 168.246 120.981 167.732 120.692C167.219 120.393 166.822 119.973 166.542 119.432C166.262 118.881 166.122 118.228 166.122 117.472C166.122 116.716 166.262 116.067 166.542 115.526C166.822 114.975 167.219 114.555 167.732 114.266C168.246 113.967 168.852 113.818 169.552 113.818C170.252 113.818 170.859 113.967 171.372 114.266C171.895 114.555 172.296 114.975 172.576 115.526C172.866 116.067 173.01 116.716 173.01 117.472C173.01 118.228 172.866 118.881 172.576 119.432C172.296 119.973 171.895 120.393 171.372 120.692C170.859 120.981 170.252 121.126 169.552 121.126ZM169.552 120.02C170.168 120.02 170.658 119.805 171.022 119.376C171.386 118.947 171.568 118.312 171.568 117.472C171.568 116.632 171.386 116.002 171.022 115.582C170.658 115.153 170.168 114.938 169.552 114.938C168.946 114.938 168.46 115.153 168.096 115.582C167.732 116.002 167.55 116.632 167.55 117.472C167.55 118.312 167.728 118.947 168.082 119.376C168.446 119.805 168.936 120.02 169.552 120.02ZM174.635 121V115.694C174.635 115.405 174.626 115.115 174.607 114.826C174.598 114.527 174.579 114.233 174.551 113.944H175.923L176.077 115.764H175.853C175.946 115.325 176.105 114.961 176.329 114.672C176.553 114.383 176.824 114.168 177.141 114.028C177.468 113.888 177.808 113.818 178.163 113.818C178.312 113.818 178.438 113.827 178.541 113.846C178.644 113.855 178.746 113.874 178.849 113.902L178.835 115.162C178.676 115.097 178.536 115.059 178.415 115.05C178.303 115.031 178.163 115.022 177.995 115.022C177.584 115.022 177.234 115.115 176.945 115.302C176.656 115.479 176.436 115.722 176.287 116.03C176.138 116.338 176.063 116.669 176.063 117.024V121H174.635ZM180.154 124.178L179.818 123.03C180.257 122.937 180.621 122.825 180.91 122.694C181.209 122.563 181.456 122.391 181.652 122.176C181.848 121.971 182.016 121.705 182.156 121.378L182.506 120.552L182.478 121.126L179.412 113.944H180.924L183.304 119.824H182.926L185.306 113.944H186.762L183.528 121.504C183.323 121.971 183.103 122.363 182.87 122.68C182.637 122.997 182.385 123.254 182.114 123.45C181.843 123.646 181.545 123.8 181.218 123.912C180.891 124.024 180.537 124.113 180.154 124.178Z" fill="#C4C4C4"/>
<line x1="13" y1="173.5" x2="219" y2="173.5" stroke="#89969F" stroke-dasharray="5 5"/>
<path d="M31.1073 158.126C30.3139 158.126 29.5953 158.028 28.9513 157.832C28.3073 157.627 27.7473 157.337 27.2713 156.964L27.7613 155.816C28.0786 156.059 28.4053 156.259 28.7413 156.418C29.0866 156.577 29.4506 156.698 29.8333 156.782C30.2253 156.857 30.6499 156.894 31.1073 156.894C31.8913 156.894 32.4653 156.754 32.8293 156.474C33.2026 156.194 33.3893 155.825 33.3893 155.368C33.3893 154.976 33.2586 154.673 32.9973 154.458C32.7453 154.243 32.2973 154.071 31.6533 153.94L30.1273 153.632C29.2219 153.445 28.5453 153.142 28.0973 152.722C27.6586 152.293 27.4393 151.709 27.4393 150.972C27.4393 150.375 27.5979 149.852 27.9153 149.404C28.2326 148.956 28.6713 148.611 29.2313 148.368C29.8006 148.125 30.4633 148.004 31.2193 148.004C31.9193 148.004 32.5633 148.107 33.1513 148.312C33.7393 148.508 34.2339 148.802 34.6353 149.194L34.1593 150.3C33.7393 149.936 33.2913 149.67 32.8153 149.502C32.3393 149.325 31.7979 149.236 31.1913 149.236C30.4726 149.236 29.9079 149.385 29.4973 149.684C29.0959 149.983 28.8953 150.389 28.8953 150.902C28.8953 151.313 29.0213 151.635 29.2733 151.868C29.5346 152.101 29.9639 152.279 30.5613 152.4L32.0873 152.694C33.0299 152.89 33.7253 153.193 34.1733 153.604C34.6213 154.005 34.8453 154.561 34.8453 155.27C34.8453 155.839 34.6913 156.339 34.3833 156.768C34.0846 157.197 33.6553 157.533 33.0953 157.776C32.5353 158.009 31.8726 158.126 31.1073 158.126ZM39.7707 158.126C38.632 158.126 37.736 157.804 37.0827 157.16C36.4293 156.516 36.1027 155.625 36.1027 154.486C36.1027 153.749 36.2427 153.105 36.5227 152.554C36.812 152.003 37.2087 151.579 37.7127 151.28C38.226 150.972 38.8187 150.818 39.4907 150.818C40.1533 150.818 40.7087 150.958 41.1567 151.238C41.6047 151.518 41.9453 151.915 42.1787 152.428C42.412 152.932 42.5287 153.529 42.5287 154.22V154.668H37.2087V153.856H41.5627L41.3247 154.038C41.3247 153.338 41.166 152.797 40.8487 152.414C40.5407 152.022 40.0927 151.826 39.5047 151.826C38.8513 151.826 38.3473 152.055 37.9927 152.512C37.638 152.96 37.4607 153.581 37.4607 154.374V154.514C37.4607 155.345 37.6613 155.97 38.0627 156.39C38.4733 156.81 39.052 157.02 39.7987 157.02C40.2093 157.02 40.592 156.964 40.9467 156.852C41.3107 156.731 41.656 156.535 41.9827 156.264L42.4447 157.23C42.118 157.519 41.7213 157.743 41.2547 157.902C40.788 158.051 40.2933 158.126 39.7707 158.126ZM44.1512 158V147.696H45.5652V158H44.1512ZM50.8996 158.126C49.7609 158.126 48.8649 157.804 48.2116 157.16C47.5582 156.516 47.2316 155.625 47.2316 154.486C47.2316 153.749 47.3716 153.105 47.6516 152.554C47.9409 152.003 48.3376 151.579 48.8416 151.28C49.3549 150.972 49.9476 150.818 50.6196 150.818C51.2822 150.818 51.8376 150.958 52.2856 151.238C52.7336 151.518 53.0742 151.915 53.3076 152.428C53.5409 152.932 53.6576 153.529 53.6576 154.22V154.668H48.3376V153.856H52.6916L52.4536 154.038C52.4536 153.338 52.2949 152.797 51.9776 152.414C51.6696 152.022 51.2216 151.826 50.6336 151.826C49.9802 151.826 49.4762 152.055 49.1216 152.512C48.7669 152.96 48.5896 153.581 48.5896 154.374V154.514C48.5896 155.345 48.7902 155.97 49.1916 156.39C49.6022 156.81 50.1809 157.02 50.9276 157.02C51.3382 157.02 51.7209 156.964 52.0756 156.852C52.4396 156.731 52.7849 156.535 53.1116 156.264L53.5736 157.23C53.2469 157.519 52.8502 157.743 52.3836 157.902C51.9169 158.051 51.4222 158.126 50.8996 158.126ZM58.3741 158.126C57.6648 158.126 57.0441 157.981 56.5121 157.692C55.9895 157.393 55.5835 156.969 55.2941 156.418C55.0141 155.858 54.8741 155.195 54.8741 154.43C54.8741 153.674 55.0188 153.025 55.3081 152.484C55.5975 151.943 56.0035 151.532 56.5261 151.252C57.0488 150.963 57.6648 150.818 58.3741 150.818C58.8315 150.818 59.2748 150.897 59.7041 151.056C60.1335 151.205 60.4881 151.42 60.7681 151.7L60.3061 152.694C60.0448 152.442 59.7508 152.255 59.4241 152.134C59.0975 152.003 58.7801 151.938 58.4721 151.938C57.8001 151.938 57.2728 152.153 56.8901 152.582C56.5075 153.011 56.3161 153.632 56.3161 154.444C56.3161 155.265 56.5075 155.895 56.8901 156.334C57.2728 156.773 57.8001 156.992 58.4721 156.992C58.7708 156.992 59.0835 156.936 59.4101 156.824C59.7368 156.703 60.0355 156.511 60.3061 156.25L60.7681 157.244C60.4788 157.524 60.1148 157.743 59.6761 157.902C59.2468 158.051 58.8128 158.126 58.3741 158.126ZM65.0241 158.126C64.2588 158.126 63.6801 157.921 63.2881 157.51C62.8961 157.09 62.7001 156.465 62.7001 155.634V152.036H61.3281V150.944H62.7001V149.082L64.1141 148.704V150.944H66.0741V152.036H64.1141V155.508C64.1141 156.031 64.2075 156.404 64.3941 156.628C64.5808 156.852 64.8515 156.964 65.2061 156.964C65.3835 156.964 65.5375 156.95 65.6681 156.922C65.8081 156.885 65.9341 156.843 66.0461 156.796V157.944C65.9061 158 65.7428 158.042 65.5561 158.07C65.3695 158.107 65.1921 158.126 65.0241 158.126ZM71.2245 158V148.13H75.3965C76.4512 148.13 77.2678 148.382 77.8465 148.886C78.4252 149.381 78.7145 150.076 78.7145 150.972C78.7145 151.56 78.5838 152.064 78.3225 152.484C78.0612 152.904 77.6925 153.226 77.2165 153.45C76.7405 153.665 76.1805 153.772 75.5365 153.772L75.7605 153.548H76.1385C76.5212 153.548 76.8618 153.646 77.1605 153.842C77.4685 154.038 77.7205 154.351 77.9165 154.78L79.3305 158H77.7345L76.3345 154.766C76.1945 154.383 75.9752 154.136 75.6765 154.024C75.3872 153.912 75.0278 153.856 74.5985 153.856H72.6805V158H71.2245ZM72.6805 152.75H75.1585C75.8585 152.75 76.3858 152.601 76.7405 152.302C77.1045 152.003 77.2865 151.574 77.2865 151.014C77.2865 150.445 77.1045 150.015 76.7405 149.726C76.3858 149.437 75.8585 149.292 75.1585 149.292H72.6805V152.75ZM83.9582 158.126C82.8195 158.126 81.9235 157.804 81.2702 157.16C80.6168 156.516 80.2902 155.625 80.2902 154.486C80.2902 153.749 80.4302 153.105 80.7102 152.554C80.9995 152.003 81.3962 151.579 81.9002 151.28C82.4135 150.972 83.0062 150.818 83.6782 150.818C84.3408 150.818 84.8962 150.958 85.3442 151.238C85.7922 151.518 86.1328 151.915 86.3662 152.428C86.5995 152.932 86.7162 153.529 86.7162 154.22V154.668H81.3962V153.856H85.7502L85.5122 154.038C85.5122 153.338 85.3535 152.797 85.0362 152.414C84.7282 152.022 84.2802 151.826 83.6922 151.826C83.0388 151.826 82.5348 152.055 82.1802 152.512C81.8255 152.96 81.6482 153.581 81.6482 154.374V154.514C81.6482 155.345 81.8488 155.97 82.2502 156.39C82.6608 156.81 83.2395 157.02 83.9862 157.02C84.3968 157.02 84.7795 156.964 85.1342 156.852C85.4982 156.731 85.8435 156.535 86.1702 156.264L86.6322 157.23C86.3055 157.519 85.9088 157.743 85.4422 157.902C84.9755 158.051 84.4808 158.126 83.9582 158.126ZM91.4327 158.126C90.7234 158.126 90.1027 157.981 89.5707 157.692C89.0481 157.393 88.6421 156.969 88.3527 156.418C88.0727 155.858 87.9327 155.195 87.9327 154.43C87.9327 153.674 88.0774 153.025 88.3667 152.484C88.6561 151.943 89.0621 151.532 89.5847 151.252C90.1074 150.963 90.7234 150.818 91.4327 150.818C91.8901 150.818 92.3334 150.897 92.7627 151.056C93.1921 151.205 93.5467 151.42 93.8267 151.7L93.3647 152.694C93.1034 152.442 92.8094 152.255 92.4827 152.134C92.1561 152.003 91.8387 151.938 91.5307 151.938C90.8587 151.938 90.3314 152.153 89.9487 152.582C89.5661 153.011 89.3747 153.632 89.3747 154.444C89.3747 155.265 89.5661 155.895 89.9487 156.334C90.3314 156.773 90.8587 156.992 91.5307 156.992C91.8294 156.992 92.1421 156.936 92.4687 156.824C92.7954 156.703 93.0941 156.511 93.3647 156.25L93.8267 157.244C93.5374 157.524 93.1734 157.743 92.7347 157.902C92.3054 158.051 91.8714 158.126 91.4327 158.126ZM98.2123 158.126C97.5123 158.126 96.9057 157.981 96.3923 157.692C95.879 157.393 95.4823 156.973 95.2023 156.432C94.9223 155.881 94.7823 155.228 94.7823 154.472C94.7823 153.716 94.9223 153.067 95.2023 152.526C95.4823 151.975 95.879 151.555 96.3923 151.266C96.9057 150.967 97.5123 150.818 98.2123 150.818C98.9123 150.818 99.519 150.967 100.032 151.266C100.555 151.555 100.956 151.975 101.236 152.526C101.526 153.067 101.67 153.716 101.67 154.472C101.67 155.228 101.526 155.881 101.236 156.432C100.956 156.973 100.555 157.393 100.032 157.692C99.519 157.981 98.9123 158.126 98.2123 158.126ZM98.2123 157.02C98.8283 157.02 99.3183 156.805 99.6823 156.376C100.046 155.947 100.228 155.312 100.228 154.472C100.228 153.632 100.046 153.002 99.6823 152.582C99.3183 152.153 98.8283 151.938 98.2123 151.938C97.6057 151.938 97.1203 152.153 96.7563 152.582C96.3923 153.002 96.2103 153.632 96.2103 154.472C96.2103 155.312 96.3877 155.947 96.7423 156.376C97.1063 156.805 97.5963 157.02 98.2123 157.02ZM103.323 158V152.638C103.323 152.367 103.309 152.092 103.281 151.812C103.262 151.523 103.239 151.233 103.211 150.944H104.583L104.709 152.428H104.541C104.737 151.915 105.036 151.518 105.437 151.238C105.848 150.958 106.338 150.818 106.907 150.818C107.486 150.818 107.957 150.958 108.321 151.238C108.694 151.509 108.951 151.929 109.091 152.498H108.867C109.054 151.985 109.371 151.579 109.819 151.28C110.267 150.972 110.785 150.818 111.373 150.818C112.157 150.818 112.745 151.047 113.137 151.504C113.529 151.961 113.725 152.671 113.725 153.632V158H112.311V153.702C112.311 153.086 112.204 152.643 111.989 152.372C111.784 152.092 111.448 151.952 110.981 151.952C110.44 151.952 110.01 152.139 109.693 152.512C109.376 152.885 109.217 153.389 109.217 154.024V158H107.803V153.702C107.803 153.086 107.696 152.643 107.481 152.372C107.276 152.092 106.94 151.952 106.473 151.952C105.932 151.952 105.507 152.139 105.199 152.512C104.891 152.885 104.737 153.389 104.737 154.024V158H103.323ZM115.751 158V152.638C115.751 152.367 115.737 152.092 115.709 151.812C115.69 151.523 115.667 151.233 115.639 150.944H117.011L117.137 152.428H116.969C117.165 151.915 117.464 151.518 117.865 151.238C118.276 150.958 118.766 150.818 119.335 150.818C119.914 150.818 120.385 150.958 120.749 151.238C121.122 151.509 121.379 151.929 121.519 152.498H121.295C121.482 151.985 121.799 151.579 122.247 151.28C122.695 150.972 123.213 150.818 123.801 150.818C124.585 150.818 125.173 151.047 125.565 151.504C125.957 151.961 126.153 152.671 126.153 153.632V158H124.739V153.702C124.739 153.086 124.632 152.643 124.417 152.372C124.212 152.092 123.876 151.952 123.409 151.952C122.868 151.952 122.438 152.139 122.121 152.512C121.804 152.885 121.645 153.389 121.645 154.024V158H120.231V153.702C120.231 153.086 120.124 152.643 119.909 152.372C119.704 152.092 119.368 151.952 118.901 151.952C118.36 151.952 117.935 152.139 117.627 152.512C117.319 152.885 117.165 153.389 117.165 154.024V158H115.751ZM131.441 158.126C130.302 158.126 129.406 157.804 128.753 157.16C128.099 156.516 127.773 155.625 127.773 154.486C127.773 153.749 127.913 153.105 128.193 152.554C128.482 152.003 128.879 151.579 129.383 151.28C129.896 150.972 130.489 150.818 131.161 150.818C131.823 150.818 132.379 150.958 132.827 151.238C133.275 151.518 133.615 151.915 133.849 152.428C134.082 152.932 134.199 153.529 134.199 154.22V154.668H128.879V153.856H133.233L132.995 154.038C132.995 153.338 132.836 152.797 132.519 152.414C132.211 152.022 131.763 151.826 131.175 151.826C130.521 151.826 130.017 152.055 129.663 152.512C129.308 152.96 129.131 153.581 129.131 154.374V154.514C129.131 155.345 129.331 155.97 129.733 156.39C130.143 156.81 130.722 157.02 131.469 157.02C131.879 157.02 132.262 156.964 132.617 156.852C132.981 156.731 133.326 156.535 133.653 156.264L134.115 157.23C133.788 157.519 133.391 157.743 132.925 157.902C132.458 158.051 131.963 158.126 131.441 158.126ZM135.821 158V152.638C135.821 152.367 135.807 152.092 135.779 151.812C135.76 151.523 135.737 151.233 135.709 150.944H137.081L137.207 152.428H137.039C137.254 151.905 137.585 151.509 138.033 151.238C138.481 150.958 138.999 150.818 139.587 150.818C140.418 150.818 141.043 151.047 141.463 151.504C141.892 151.961 142.107 152.671 142.107 153.632V158H140.693V153.716C140.693 153.091 140.567 152.643 140.315 152.372C140.072 152.092 139.699 151.952 139.195 151.952C138.598 151.952 138.122 152.139 137.767 152.512C137.412 152.876 137.235 153.371 137.235 153.996V158H135.821ZM146.822 158.126C146.206 158.126 145.66 157.981 145.184 157.692C144.717 157.403 144.353 156.983 144.092 156.432C143.84 155.881 143.714 155.228 143.714 154.472C143.714 153.707 143.84 153.053 144.092 152.512C144.353 151.971 144.717 151.555 145.184 151.266C145.66 150.967 146.206 150.818 146.822 150.818C147.429 150.818 147.961 150.972 148.418 151.28C148.885 151.579 149.193 151.989 149.342 152.512H149.174V147.696H150.588V158H149.188V156.404H149.356C149.197 156.936 148.889 157.356 148.432 157.664C147.975 157.972 147.438 158.126 146.822 158.126ZM147.172 157.02C147.779 157.02 148.269 156.805 148.642 156.376C149.015 155.947 149.202 155.312 149.202 154.472C149.202 153.632 149.015 153.002 148.642 152.582C148.269 152.153 147.779 151.938 147.172 151.938C146.556 151.938 146.061 152.153 145.688 152.582C145.324 153.002 145.142 153.632 145.142 154.472C145.142 155.312 145.324 155.947 145.688 156.376C146.061 156.805 146.556 157.02 147.172 157.02ZM155.913 158.126C154.775 158.126 153.879 157.804 153.225 157.16C152.572 156.516 152.245 155.625 152.245 154.486C152.245 153.749 152.385 153.105 152.665 152.554C152.955 152.003 153.351 151.579 153.855 151.28C154.369 150.972 154.961 150.818 155.633 150.818C156.296 150.818 156.851 150.958 157.299 151.238C157.747 151.518 158.088 151.915 158.321 152.428C158.555 152.932 158.671 153.529 158.671 154.22V154.668H153.351V153.856H157.705L157.467 154.038C157.467 153.338 157.309 152.797 156.991 152.414C156.683 152.022 156.235 151.826 155.647 151.826C154.994 151.826 154.49 152.055 154.135 152.512C153.781 152.96 153.603 153.581 153.603 154.374V154.514C153.603 155.345 153.804 155.97 154.205 156.39C154.616 156.81 155.195 157.02 155.941 157.02C156.352 157.02 156.735 156.964 157.089 156.852C157.453 156.731 157.799 156.535 158.125 156.264L158.587 157.23C158.261 157.519 157.864 157.743 157.397 157.902C156.931 158.051 156.436 158.126 155.913 158.126ZM162.996 158.126C162.38 158.126 161.834 157.981 161.358 157.692C160.891 157.403 160.527 156.983 160.266 156.432C160.014 155.881 159.888 155.228 159.888 154.472C159.888 153.707 160.014 153.053 160.266 152.512C160.527 151.971 160.891 151.555 161.358 151.266C161.834 150.967 162.38 150.818 162.996 150.818C163.602 150.818 164.134 150.972 164.592 151.28C165.058 151.579 165.366 151.989 165.516 152.512H165.348V147.696H166.762V158H165.362V156.404H165.53C165.371 156.936 165.063 157.356 164.606 157.664C164.148 157.972 163.612 158.126 162.996 158.126ZM163.346 157.02C163.952 157.02 164.442 156.805 164.816 156.376C165.189 155.947 165.376 155.312 165.376 154.472C165.376 153.632 165.189 153.002 164.816 152.582C164.442 152.153 163.952 151.938 163.346 151.938C162.73 151.938 162.235 152.153 161.862 152.582C161.498 153.002 161.316 153.632 161.316 154.472C161.316 155.312 161.498 155.947 161.862 156.376C162.235 156.805 162.73 157.02 163.346 157.02ZM176.015 158.126C175.222 158.126 174.503 158.028 173.859 157.832C173.215 157.627 172.655 157.337 172.179 156.964L172.669 155.816C172.987 156.059 173.313 156.259 173.649 156.418C173.995 156.577 174.359 156.698 174.741 156.782C175.133 156.857 175.558 156.894 176.015 156.894C176.799 156.894 177.373 156.754 177.737 156.474C178.111 156.194 178.297 155.825 178.297 155.368C178.297 154.976 178.167 154.673 177.905 154.458C177.653 154.243 177.205 154.071 176.561 153.94L175.035 153.632C174.13 153.445 173.453 153.142 173.005 152.722C172.567 152.293 172.347 151.709 172.347 150.972C172.347 150.375 172.506 149.852 172.823 149.404C173.141 148.956 173.579 148.611 174.139 148.368C174.709 148.125 175.371 148.004 176.127 148.004C176.827 148.004 177.471 148.107 178.059 148.312C178.647 148.508 179.142 148.802 179.543 149.194L179.067 150.3C178.647 149.936 178.199 149.67 177.723 149.502C177.247 149.325 176.706 149.236 176.099 149.236C175.381 149.236 174.816 149.385 174.405 149.684C174.004 149.983 173.803 150.389 173.803 150.902C173.803 151.313 173.929 151.635 174.181 151.868C174.443 152.101 174.872 152.279 175.469 152.4L176.995 152.694C177.938 152.89 178.633 153.193 179.081 153.604C179.529 154.005 179.753 154.561 179.753 155.27C179.753 155.839 179.599 156.339 179.291 156.768C178.993 157.197 178.563 157.533 178.003 157.776C177.443 158.009 176.781 158.126 176.015 158.126ZM184.441 158.126C183.741 158.126 183.134 157.981 182.621 157.692C182.108 157.393 181.711 156.973 181.431 156.432C181.151 155.881 181.011 155.228 181.011 154.472C181.011 153.716 181.151 153.067 181.431 152.526C181.711 151.975 182.108 151.555 182.621 151.266C183.134 150.967 183.741 150.818 184.441 150.818C185.141 150.818 185.748 150.967 186.261 151.266C186.784 151.555 187.185 151.975 187.465 152.526C187.754 153.067 187.899 153.716 187.899 154.472C187.899 155.228 187.754 155.881 187.465 156.432C187.185 156.973 186.784 157.393 186.261 157.692C185.748 157.981 185.141 158.126 184.441 158.126ZM184.441 157.02C185.057 157.02 185.547 156.805 185.911 156.376C186.275 155.947 186.457 155.312 186.457 154.472C186.457 153.632 186.275 153.002 185.911 152.582C185.547 152.153 185.057 151.938 184.441 151.938C183.834 151.938 183.349 152.153 182.985 152.582C182.621 153.002 182.439 153.632 182.439 154.472C182.439 155.312 182.616 155.947 182.971 156.376C183.335 156.805 183.825 157.02 184.441 157.02ZM189.552 158V152.638C189.552 152.367 189.538 152.092 189.51 151.812C189.491 151.523 189.468 151.233 189.44 150.944H190.812L190.938 152.428H190.77C190.984 151.905 191.316 151.509 191.764 151.238C192.212 150.958 192.73 150.818 193.318 150.818C194.148 150.818 194.774 151.047 195.194 151.504C195.623 151.961 195.838 152.671 195.838 153.632V158H194.424V153.716C194.424 153.091 194.298 152.643 194.046 152.372C193.803 152.092 193.43 151.952 192.926 151.952C192.328 151.952 191.852 152.139 191.498 152.512C191.143 152.876 190.966 153.371 190.966 153.996V158H189.552ZM201.028 161.136C200.394 161.136 199.815 161.061 199.292 160.912C198.779 160.763 198.317 160.539 197.906 160.24L198.256 159.204C198.546 159.4 198.83 159.554 199.11 159.666C199.39 159.787 199.684 159.876 199.992 159.932C200.3 159.988 200.618 160.016 200.944 160.016C201.616 160.016 202.12 159.843 202.456 159.498C202.802 159.162 202.974 158.672 202.974 158.028V156.138H203.114C202.965 156.661 202.657 157.076 202.19 157.384C201.733 157.683 201.201 157.832 200.594 157.832C199.95 157.832 199.39 157.692 198.914 157.412C198.448 157.123 198.084 156.717 197.822 156.194C197.57 155.662 197.444 155.037 197.444 154.318C197.444 153.599 197.57 152.979 197.822 152.456C198.084 151.933 198.448 151.532 198.914 151.252C199.39 150.963 199.95 150.818 200.594 150.818C201.21 150.818 201.742 150.972 202.19 151.28C202.648 151.579 202.951 151.989 203.1 152.512L202.974 152.4L203.1 150.944H204.472C204.435 151.233 204.407 151.523 204.388 151.812C204.37 152.092 204.36 152.367 204.36 152.638V157.86C204.36 158.924 204.076 159.736 203.506 160.296C202.946 160.856 202.12 161.136 201.028 161.136ZM200.93 156.726C201.546 156.726 202.036 156.516 202.4 156.096C202.774 155.676 202.96 155.083 202.96 154.318C202.96 153.553 202.774 152.965 202.4 152.554C202.036 152.143 201.546 151.938 200.93 151.938C200.296 151.938 199.792 152.143 199.418 152.554C199.054 152.965 198.872 153.553 198.872 154.318C198.872 155.083 199.054 155.676 199.418 156.096C199.792 156.516 200.296 156.726 200.93 156.726Z" fill="#C4C4C4"/>
<line x1="13" y1="210.5" x2="219" y2="210.5" stroke="#89969F" stroke-dasharray="5 5"/>
<path d="M71.2626 195.14C70.4692 195.14 69.7366 195.042 69.0646 194.846C68.4019 194.641 67.8326 194.361 67.3566 194.006L67.9166 192.592C68.2339 192.816 68.5652 193.007 68.9106 193.166C69.2559 193.315 69.6246 193.432 70.0166 193.516C70.4086 193.591 70.8239 193.628 71.2626 193.628C71.9999 193.628 72.5319 193.507 72.8586 193.264C73.1852 193.021 73.3486 192.704 73.3486 192.312C73.3486 191.967 73.2366 191.705 73.0126 191.528C72.7886 191.341 72.3872 191.187 71.8086 191.066L70.2266 190.744C69.3212 190.557 68.6446 190.245 68.1966 189.806C67.7486 189.367 67.5246 188.779 67.5246 188.042C67.5246 187.426 67.6879 186.889 68.0146 186.432C68.3412 185.975 68.7986 185.62 69.3866 185.368C69.9746 185.116 70.6606 184.99 71.4446 184.99C72.1446 184.99 72.7932 185.093 73.3906 185.298C73.9879 185.494 74.4872 185.779 74.8886 186.152L74.3286 187.496C73.9272 187.16 73.4886 186.913 73.0126 186.754C72.5366 186.586 72.0046 186.502 71.4166 186.502C70.7539 186.502 70.2359 186.633 69.8626 186.894C69.4986 187.146 69.3166 187.496 69.3166 187.944C69.3166 188.289 69.4286 188.565 69.6526 188.77C69.8859 188.975 70.2779 189.134 70.8286 189.246L72.3966 189.554C73.3299 189.741 74.0206 190.049 74.4686 190.478C74.9166 190.898 75.1406 191.467 75.1406 192.186C75.1406 192.774 74.9819 193.292 74.6646 193.74C74.3472 194.179 73.8992 194.524 73.3206 194.776C72.7419 195.019 72.0559 195.14 71.2626 195.14ZM79.6576 195.14C78.8176 195.14 78.183 194.921 77.7536 194.482C77.3243 194.043 77.1096 193.385 77.1096 192.508V189.246H75.7516V187.93H77.1096V186.124L78.8596 185.676V187.93H80.7496V189.246H78.8596V192.396C78.8596 192.881 78.953 193.222 79.1396 193.418C79.3263 193.614 79.583 193.712 79.9096 193.712C80.087 193.712 80.2363 193.698 80.3576 193.67C80.4883 193.642 80.6143 193.605 80.7356 193.558V194.944C80.577 195.009 80.3996 195.056 80.2036 195.084C80.017 195.121 79.835 195.14 79.6576 195.14ZM84.6683 195.14C84.0523 195.14 83.511 194.995 83.0443 194.706C82.5777 194.407 82.2137 193.983 81.9523 193.432C81.691 192.881 81.5603 192.223 81.5603 191.458C81.5603 190.693 81.691 190.039 81.9523 189.498C82.2137 188.947 82.5777 188.527 83.0443 188.238C83.511 187.939 84.0523 187.79 84.6683 187.79C85.2657 187.79 85.7883 187.939 86.2363 188.238C86.6937 188.527 86.997 188.919 87.1463 189.414H86.9923L87.1463 187.93H88.8263C88.7983 188.219 88.7703 188.513 88.7423 188.812C88.7237 189.111 88.7143 189.405 88.7143 189.694V195H86.9783L86.9643 193.544H87.1323C86.983 194.029 86.6797 194.417 86.2223 194.706C85.765 194.995 85.247 195.14 84.6683 195.14ZM85.1583 193.796C85.709 193.796 86.1523 193.605 86.4883 193.222C86.8243 192.83 86.9923 192.242 86.9923 191.458C86.9923 190.674 86.8243 190.091 86.4883 189.708C86.1523 189.325 85.709 189.134 85.1583 189.134C84.6077 189.134 84.1643 189.325 83.8283 189.708C83.4923 190.091 83.3243 190.674 83.3243 191.458C83.3243 192.242 83.4877 192.83 83.8143 193.222C84.1503 193.605 84.5983 193.796 85.1583 193.796ZM90.606 195V189.736C90.606 189.437 90.5966 189.134 90.578 188.826C90.5686 188.518 90.5453 188.219 90.508 187.93H92.202L92.398 189.862H92.118C92.2113 189.395 92.3653 189.008 92.58 188.7C92.804 188.392 93.0746 188.163 93.392 188.014C93.7093 187.865 94.0546 187.79 94.428 187.79C94.596 187.79 94.7313 187.799 94.834 187.818C94.9366 187.827 95.0393 187.851 95.142 187.888L95.128 189.428C94.9506 189.353 94.7966 189.307 94.666 189.288C94.5446 189.269 94.3906 189.26 94.204 189.26C93.8026 189.26 93.462 189.344 93.182 189.512C92.9113 189.68 92.706 189.913 92.566 190.212C92.4353 190.511 92.37 190.851 92.37 191.234V195H90.606ZM99.5365 195.14C98.6965 195.14 98.0619 194.921 97.6325 194.482C97.2032 194.043 96.9885 193.385 96.9885 192.508V189.246H95.6305V187.93H96.9885V186.124L98.7385 185.676V187.93H100.629V189.246H98.7385V192.396C98.7385 192.881 98.8319 193.222 99.0185 193.418C99.2052 193.614 99.4619 193.712 99.7885 193.712C99.9659 193.712 100.115 193.698 100.237 193.67C100.367 193.642 100.493 193.605 100.615 193.558V194.944C100.456 195.009 100.279 195.056 100.083 195.084C99.8959 195.121 99.7139 195.14 99.5365 195.14ZM105.799 195V185.13H107.605V193.474H112.253V195H105.799ZM113.493 195V187.93H115.243V195H113.493ZM113.395 186.6V184.892H115.341V186.6H113.395ZM119.663 195.14C119.057 195.14 118.497 195.07 117.983 194.93C117.479 194.781 117.055 194.575 116.709 194.314L117.199 193.138C117.554 193.381 117.946 193.567 118.375 193.698C118.805 193.829 119.239 193.894 119.677 193.894C120.144 193.894 120.489 193.815 120.713 193.656C120.947 193.497 121.063 193.283 121.063 193.012C121.063 192.797 120.989 192.629 120.839 192.508C120.699 192.377 120.471 192.279 120.153 192.214L118.753 191.948C118.156 191.817 117.699 191.593 117.381 191.276C117.073 190.959 116.919 190.543 116.919 190.03C116.919 189.591 117.036 189.204 117.269 188.868C117.512 188.532 117.853 188.271 118.291 188.084C118.739 187.888 119.262 187.79 119.859 187.79C120.382 187.79 120.872 187.86 121.329 188C121.796 188.14 122.188 188.35 122.505 188.63L122.001 189.764C121.712 189.531 121.381 189.349 121.007 189.218C120.634 189.087 120.27 189.022 119.915 189.022C119.43 189.022 119.075 189.111 118.851 189.288C118.627 189.456 118.515 189.675 118.515 189.946C118.515 190.151 118.581 190.324 118.711 190.464C118.851 190.595 119.066 190.693 119.355 190.758L120.755 191.024C121.381 191.145 121.852 191.36 122.169 191.668C122.496 191.967 122.659 192.377 122.659 192.9C122.659 193.367 122.533 193.768 122.281 194.104C122.029 194.44 121.679 194.697 121.231 194.874C120.783 195.051 120.261 195.14 119.663 195.14ZM127.113 195.14C126.273 195.14 125.638 194.921 125.209 194.482C124.779 194.043 124.565 193.385 124.565 192.508V189.246H123.207V187.93H124.565V186.124L126.315 185.676V187.93H128.205V189.246H126.315V192.396C126.315 192.881 126.408 193.222 126.595 193.418C126.781 193.614 127.038 193.712 127.365 193.712C127.542 193.712 127.691 193.698 127.813 193.67C127.943 193.642 128.069 193.605 128.191 193.558V194.944C128.032 195.009 127.855 195.056 127.659 195.084C127.472 195.121 127.29 195.14 127.113 195.14ZM132.741 195.14C131.556 195.14 130.627 194.813 129.955 194.16C129.283 193.507 128.947 192.611 128.947 191.472C128.947 190.735 129.092 190.091 129.381 189.54C129.67 188.989 130.072 188.56 130.585 188.252C131.108 187.944 131.714 187.79 132.405 187.79C133.086 187.79 133.656 187.935 134.113 188.224C134.57 188.513 134.916 188.919 135.149 189.442C135.392 189.965 135.513 190.576 135.513 191.276V191.738H130.361V190.814H134.267L134.029 191.01C134.029 190.357 133.889 189.857 133.609 189.512C133.338 189.167 132.942 188.994 132.419 188.994C131.84 188.994 131.392 189.199 131.075 189.61C130.767 190.021 130.613 190.595 130.613 191.332V191.514C130.613 192.279 130.8 192.853 131.173 193.236C131.556 193.609 132.092 193.796 132.783 193.796C133.184 193.796 133.558 193.745 133.903 193.642C134.258 193.53 134.594 193.353 134.911 193.11L135.429 194.286C135.093 194.557 134.692 194.767 134.225 194.916C133.758 195.065 133.264 195.14 132.741 195.14ZM136.995 195V189.694C136.995 189.405 136.986 189.111 136.967 188.812C136.948 188.513 136.92 188.219 136.883 187.93H138.577L138.717 189.33H138.549C138.773 188.835 139.104 188.457 139.543 188.196C139.982 187.925 140.49 187.79 141.069 187.79C141.9 187.79 142.525 188.023 142.945 188.49C143.365 188.957 143.575 189.685 143.575 190.674V195H141.825V190.758C141.825 190.189 141.713 189.783 141.489 189.54C141.274 189.288 140.948 189.162 140.509 189.162C139.968 189.162 139.538 189.33 139.221 189.666C138.904 190.002 138.745 190.45 138.745 191.01V195H136.995ZM145.431 195V187.93H147.181V195H145.431ZM145.333 186.6V184.892H147.279V186.6H145.333ZM149.081 195V189.694C149.081 189.405 149.072 189.111 149.053 188.812C149.034 188.513 149.006 188.219 148.969 187.93H150.663L150.803 189.33H150.635C150.859 188.835 151.19 188.457 151.629 188.196C152.068 187.925 152.576 187.79 153.155 187.79C153.986 187.79 154.611 188.023 155.031 188.49C155.451 188.957 155.661 189.685 155.661 190.674V195H153.911V190.758C153.911 190.189 153.799 189.783 153.575 189.54C153.36 189.288 153.034 189.162 152.595 189.162C152.054 189.162 151.624 189.33 151.307 189.666C150.99 190.002 150.831 190.45 150.831 191.01V195H149.081ZM160.792 198.136C160.139 198.136 159.546 198.066 159.014 197.926C158.492 197.786 158.025 197.571 157.614 197.282L157.992 196.022C158.263 196.199 158.543 196.344 158.832 196.456C159.122 196.568 159.42 196.652 159.728 196.708C160.036 196.764 160.349 196.792 160.666 196.792C161.32 196.792 161.805 196.629 162.122 196.302C162.449 195.985 162.612 195.527 162.612 194.93V193.236H162.752C162.603 193.721 162.3 194.109 161.842 194.398C161.394 194.687 160.876 194.832 160.288 194.832C159.654 194.832 159.098 194.692 158.622 194.412C158.156 194.123 157.792 193.712 157.53 193.18C157.269 192.648 157.138 192.023 157.138 191.304C157.138 190.585 157.269 189.965 157.53 189.442C157.792 188.91 158.156 188.504 158.622 188.224C159.098 187.935 159.654 187.79 160.288 187.79C160.886 187.79 161.404 187.935 161.842 188.224C162.29 188.504 162.589 188.887 162.738 189.372L162.612 189.288L162.752 187.93H164.446C164.409 188.219 164.381 188.513 164.362 188.812C164.344 189.111 164.334 189.405 164.334 189.694V194.72C164.334 195.831 164.031 196.675 163.424 197.254C162.827 197.842 161.95 198.136 160.792 198.136ZM160.764 193.488C161.324 193.488 161.768 193.301 162.094 192.928C162.43 192.545 162.598 192.004 162.598 191.304C162.598 190.604 162.43 190.067 162.094 189.694C161.768 189.321 161.324 189.134 160.764 189.134C160.195 189.134 159.742 189.321 159.406 189.694C159.07 190.067 158.902 190.604 158.902 191.304C158.902 192.004 159.07 192.545 159.406 192.928C159.742 193.301 160.195 193.488 160.764 193.488Z" fill="#303030"/>
<defs>
<linearGradient id="paint0_linear_81_39389" x1="135.949" y1="83.1395" x2="134.116" y2="49.938" gradientUnits="userSpaceOnUse">
<stop offset="0.21875" stop-color="#969BFF"/>
<stop offset="1" stop-color="#656CEE"/>
</linearGradient>
</defs>
</svg>
