<svg width="232" height="247" viewBox="0 0 232 247" fill="none" xmlns="http://www.w3.org/2000/svg">
<rect width="232" height="50" fill="url(#paint0_linear_81_39387)"/>
<path d="M97.9774 30.14C97.1841 30.14 96.4514 30.042 95.7794 29.846C95.1167 29.6407 94.5474 29.3607 94.0714 29.006L94.6314 27.592C94.9487 27.816 95.2801 28.0073 95.6254 28.166C95.9707 28.3153 96.3394 28.432 96.7314 28.516C97.1234 28.5907 97.5387 28.628 97.9774 28.628C98.7147 28.628 99.2467 28.5067 99.5734 28.264C99.9001 28.0213 100.063 27.704 100.063 27.312C100.063 26.9667 99.9514 26.7053 99.7274 26.528C99.5034 26.3413 99.1021 26.1873 98.5234 26.066L96.9414 25.744C96.0361 25.5573 95.3594 25.2447 94.9114 24.806C94.4634 24.3673 94.2394 23.7793 94.2394 23.042C94.2394 22.426 94.4027 21.8893 94.7294 21.432C95.0561 20.9747 95.5134 20.62 96.1014 20.368C96.6894 20.116 97.3754 19.99 98.1594 19.99C98.8594 19.99 99.5081 20.0927 100.105 20.298C100.703 20.494 101.202 20.7787 101.603 21.152L101.043 22.496C100.642 22.16 100.203 21.9127 99.7274 21.754C99.2514 21.586 98.7194 21.502 98.1314 21.502C97.4687 21.502 96.9507 21.6327 96.5774 21.894C96.2134 22.146 96.0314 22.496 96.0314 22.944C96.0314 23.2893 96.1434 23.5647 96.3674 23.77C96.6007 23.9753 96.9927 24.134 97.5434 24.246L99.1114 24.554C100.045 24.7407 100.735 25.0487 101.183 25.478C101.631 25.898 101.855 26.4673 101.855 27.186C101.855 27.774 101.697 28.292 101.379 28.74C101.062 29.1787 100.614 29.524 100.035 29.776C99.4567 30.0187 98.7707 30.14 97.9774 30.14ZM105.676 30V21.614H102.414V20.13H110.744V21.614H107.482V30H105.676ZM109.834 30L114.3 20.13H115.812L120.334 30H118.5L117.296 27.228L118.024 27.718H112.102L112.858 27.228L111.654 30H109.834ZM115.042 22.062L113.068 26.738L112.704 26.304H117.408L117.114 26.738L115.098 22.062H115.042ZM121.426 30V20.13H125.738C126.821 20.13 127.656 20.3867 128.244 20.9C128.841 21.4133 129.14 22.1273 129.14 23.042C129.14 23.6487 129.005 24.1667 128.734 24.596C128.473 25.0253 128.095 25.3567 127.6 25.59C127.105 25.814 126.522 25.926 125.85 25.926L126.046 25.66H126.522C126.914 25.66 127.264 25.7627 127.572 25.968C127.88 26.1733 128.132 26.486 128.328 26.906L129.77 30H127.782L126.326 26.794C126.195 26.4673 125.995 26.2527 125.724 26.15C125.463 26.0473 125.145 25.996 124.772 25.996H123.232V30H121.426ZM123.232 24.666H125.444C126.079 24.666 126.559 24.5353 126.886 24.274C127.222 24.0033 127.39 23.6113 127.39 23.098C127.39 22.5847 127.222 22.1973 126.886 21.936C126.559 21.6747 126.079 21.544 125.444 21.544H123.232V24.666ZM133.307 30V21.614H130.045V20.13H138.375V21.614H135.113V30H133.307Z" fill="white"/>
<rect width="232" height="197" transform="translate(0 50)" fill="white"/>
<path d="M98.2083 152.166C97.415 152.166 96.6963 152.068 96.0523 151.872C95.4083 151.667 94.8483 151.377 94.3723 151.004L94.8623 149.856C95.1796 150.099 95.5063 150.299 95.8423 150.458C96.1876 150.617 96.5516 150.738 96.9343 150.822C97.3263 150.897 97.751 150.934 98.2083 150.934C98.9923 150.934 99.5663 150.794 99.9303 150.514C100.304 150.234 100.49 149.865 100.49 149.408C100.49 149.016 100.36 148.713 100.098 148.498C99.8463 148.283 99.3983 148.111 98.7543 147.98L97.2283 147.672C96.323 147.485 95.6463 147.182 95.1983 146.762C94.7596 146.333 94.5403 145.749 94.5403 145.012C94.5403 144.415 94.699 143.892 95.0163 143.444C95.3336 142.996 95.7723 142.651 96.3323 142.408C96.9016 142.165 97.5643 142.044 98.3203 142.044C99.0203 142.044 99.6643 142.147 100.252 142.352C100.84 142.548 101.335 142.842 101.736 143.234L101.26 144.34C100.84 143.976 100.392 143.71 99.9163 143.542C99.4403 143.365 98.899 143.276 98.2923 143.276C97.5736 143.276 97.009 143.425 96.5983 143.724C96.197 144.023 95.9963 144.429 95.9963 144.942C95.9963 145.353 96.1223 145.675 96.3743 145.908C96.6356 146.141 97.065 146.319 97.6623 146.44L99.1883 146.734C100.131 146.93 100.826 147.233 101.274 147.644C101.722 148.045 101.946 148.601 101.946 149.31C101.946 149.879 101.792 150.379 101.484 150.808C101.186 151.237 100.756 151.573 100.196 151.816C99.6363 152.049 98.9736 152.166 98.2083 152.166ZM105.897 152.04V143.388H102.523V142.17H110.727V143.388H107.353V152.04H105.897ZM109.987 152.04L114.383 142.17H115.629L120.095 152.04H118.597L117.379 149.24L117.995 149.632H112.017L112.675 149.24L111.457 152.04H109.987ZM114.985 143.766L112.857 148.792L112.521 148.47H117.491L117.211 148.792L115.041 143.766H114.985ZM121.4 152.04V142.17H125.572C126.626 142.17 127.443 142.422 128.022 142.926C128.6 143.421 128.89 144.116 128.89 145.012C128.89 145.6 128.759 146.104 128.498 146.524C128.236 146.944 127.868 147.266 127.392 147.49C126.916 147.705 126.356 147.812 125.712 147.812L125.936 147.588H126.314C126.696 147.588 127.037 147.686 127.336 147.882C127.644 148.078 127.896 148.391 128.092 148.82L129.506 152.04H127.91L126.51 148.806C126.37 148.423 126.15 148.176 125.852 148.064C125.562 147.952 125.203 147.896 124.774 147.896H122.856V152.04H121.4ZM122.856 146.79H125.334C126.034 146.79 126.561 146.641 126.916 146.342C127.28 146.043 127.462 145.614 127.462 145.054C127.462 144.485 127.28 144.055 126.916 143.766C126.561 143.477 126.034 143.332 125.334 143.332H122.856V146.79ZM133.254 152.04V143.388H129.88V142.17H138.084V143.388H134.71V152.04H133.254Z" fill="white"/>
<line x1="13" y1="99.5" x2="219" y2="99.5" stroke="#89969F" stroke-dasharray="5 5"/>
<path d="M49.7665 84V74.13H53.1825C54.2932 74.13 55.2312 74.3213 55.9965 74.704C56.7712 75.0867 57.3545 75.6467 57.7465 76.384C58.1478 77.112 58.3485 78.0033 58.3485 79.058C58.3485 80.1033 58.1478 80.9947 57.7465 81.732C57.3545 82.4693 56.7712 83.034 55.9965 83.426C55.2312 83.8087 54.2932 84 53.1825 84H49.7665ZM51.2225 82.782H53.0985C54.3678 82.782 55.3105 82.474 55.9265 81.858C56.5518 81.242 56.8645 80.3087 56.8645 79.058C56.8645 77.8073 56.5518 76.8787 55.9265 76.272C55.3105 75.656 54.3678 75.348 53.0985 75.348H51.2225V82.782ZM60.1952 84V76.944H61.6092V84H60.1952ZM60.0832 75.474V74.004H61.7212V75.474H60.0832ZM66.1035 84.126C65.5155 84.126 64.9742 84.0513 64.4795 83.902C63.9848 83.7527 63.5742 83.5427 63.2475 83.272L63.6815 82.306C64.0268 82.5673 64.4095 82.7633 64.8295 82.894C65.2495 83.0247 65.6788 83.09 66.1175 83.09C66.6308 83.09 67.0182 83.0013 67.2795 82.824C67.5408 82.6373 67.6715 82.3853 67.6715 82.068C67.6715 81.8253 67.5875 81.6293 67.4195 81.48C67.2608 81.3307 66.9948 81.2187 66.6215 81.144L65.2775 80.878C64.6802 80.7473 64.2275 80.5233 63.9195 80.206C63.6115 79.8887 63.4575 79.4827 63.4575 78.988C63.4575 78.568 63.5695 78.1947 63.7935 77.868C64.0268 77.5413 64.3535 77.2847 64.7735 77.098C65.2028 76.9113 65.7022 76.818 66.2715 76.818C66.7942 76.818 67.2795 76.8927 67.7275 77.042C68.1755 77.1913 68.5488 77.406 68.8475 77.686L68.3995 78.624C68.1102 78.3813 67.7835 78.1947 67.4195 78.064C67.0555 77.924 66.6868 77.854 66.3135 77.854C65.7908 77.854 65.4035 77.952 65.1515 78.148C64.8995 78.344 64.7735 78.6007 64.7735 78.918C64.7735 79.1607 64.8482 79.3613 64.9975 79.52C65.1562 79.6693 65.4035 79.786 65.7395 79.87L67.0835 80.136C67.7182 80.2667 68.1942 80.4813 68.5115 80.78C68.8288 81.0787 68.9875 81.48 68.9875 81.984C68.9875 82.4227 68.8662 82.8053 68.6235 83.132C68.3808 83.4587 68.0448 83.706 67.6155 83.874C67.1862 84.042 66.6822 84.126 66.1035 84.126ZM73.7482 84.126C73.0388 84.126 72.4182 83.9813 71.8862 83.692C71.3635 83.3933 70.9575 82.9687 70.6682 82.418C70.3882 81.858 70.2482 81.1953 70.2482 80.43C70.2482 79.674 70.3928 79.0253 70.6822 78.484C70.9715 77.9427 71.3775 77.532 71.9002 77.252C72.4228 76.9627 73.0388 76.818 73.7482 76.818C74.2055 76.818 74.6488 76.8973 75.0782 77.056C75.5075 77.2053 75.8622 77.42 76.1422 77.7L75.6802 78.694C75.4188 78.442 75.1248 78.2553 74.7982 78.134C74.4715 78.0033 74.1542 77.938 73.8462 77.938C73.1742 77.938 72.6468 78.1527 72.2642 78.582C71.8815 79.0113 71.6902 79.632 71.6902 80.444C71.6902 81.2653 71.8815 81.8953 72.2642 82.334C72.6468 82.7727 73.1742 82.992 73.8462 82.992C74.1448 82.992 74.4575 82.936 74.7842 82.824C75.1108 82.7027 75.4095 82.5113 75.6802 82.25L76.1422 83.244C75.8528 83.524 75.4888 83.7433 75.0502 83.902C74.6208 84.0513 74.1868 84.126 73.7482 84.126ZM80.5278 84.126C79.8278 84.126 79.2211 83.9813 78.7078 83.692C78.1944 83.3933 77.7978 82.9733 77.5178 82.432C77.2378 81.8813 77.0978 81.228 77.0978 80.472C77.0978 79.716 77.2378 79.0673 77.5178 78.526C77.7978 77.9753 78.1944 77.5553 78.7078 77.266C79.2211 76.9673 79.8278 76.818 80.5278 76.818C81.2278 76.818 81.8344 76.9673 82.3478 77.266C82.8704 77.5553 83.2718 77.9753 83.5518 78.526C83.8411 79.0673 83.9858 79.716 83.9858 80.472C83.9858 81.228 83.8411 81.8813 83.5518 82.432C83.2718 82.9733 82.8704 83.3933 82.3478 83.692C81.8344 83.9813 81.2278 84.126 80.5278 84.126ZM80.5278 83.02C81.1438 83.02 81.6338 82.8053 81.9978 82.376C82.3618 81.9467 82.5438 81.312 82.5438 80.472C82.5438 79.632 82.3618 79.002 81.9978 78.582C81.6338 78.1527 81.1438 77.938 80.5278 77.938C79.9211 77.938 79.4358 78.1527 79.0718 78.582C78.7078 79.002 78.5258 79.632 78.5258 80.472C78.5258 81.312 78.7031 81.9467 79.0578 82.376C79.4218 82.8053 79.9118 83.02 80.5278 83.02ZM87.5875 84L84.5635 76.944H86.0755L88.4555 82.838H88.0495L90.4715 76.944H91.9135L88.8755 84H87.5875ZM96.174 84.126C95.0353 84.126 94.1393 83.804 93.486 83.16C92.8326 82.516 92.506 81.6247 92.506 80.486C92.506 79.7487 92.646 79.1047 92.926 78.554C93.2153 78.0033 93.612 77.5787 94.116 77.28C94.6293 76.972 95.222 76.818 95.894 76.818C96.5566 76.818 97.112 76.958 97.56 77.238C98.008 77.518 98.3486 77.9147 98.582 78.428C98.8153 78.932 98.932 79.5293 98.932 80.22V80.668H93.612V79.856H97.966L97.728 80.038C97.728 79.338 97.5693 78.7967 97.252 78.414C96.944 78.022 96.496 77.826 95.908 77.826C95.2546 77.826 94.7506 78.0547 94.396 78.512C94.0413 78.96 93.864 79.5807 93.864 80.374V80.514C93.864 81.3447 94.0646 81.97 94.466 82.39C94.8766 82.81 95.4553 83.02 96.202 83.02C96.6126 83.02 96.9953 82.964 97.35 82.852C97.714 82.7307 98.0593 82.5347 98.386 82.264L98.848 83.23C98.5213 83.5193 98.1246 83.7433 97.658 83.902C97.1913 84.0513 96.6966 84.126 96.174 84.126ZM100.527 84V78.694C100.527 78.4047 100.517 78.1153 100.499 77.826C100.489 77.5273 100.471 77.2333 100.443 76.944H101.815L101.969 78.764H101.745C101.838 78.3253 101.997 77.9613 102.221 77.672C102.445 77.3827 102.715 77.168 103.033 77.028C103.359 76.888 103.7 76.818 104.055 76.818C104.204 76.818 104.33 76.8273 104.433 76.846C104.535 76.8553 104.638 76.874 104.741 76.902L104.727 78.162C104.568 78.0967 104.428 78.0593 104.307 78.05C104.195 78.0313 104.055 78.022 103.887 78.022C103.476 78.022 103.126 78.1153 102.837 78.302C102.547 78.4793 102.328 78.722 102.179 79.03C102.029 79.338 101.955 79.6693 101.955 80.024V84H100.527ZM109.69 84V74.13H110.81L116.872 82.082H116.522V74.13H117.88V84H116.774L110.726 76.048H111.048V84H109.69ZM123.326 84.126C122.188 84.126 121.292 83.804 120.638 83.16C119.985 82.516 119.658 81.6247 119.658 80.486C119.658 79.7487 119.798 79.1047 120.078 78.554C120.368 78.0033 120.764 77.5787 121.268 77.28C121.782 76.972 122.374 76.818 123.046 76.818C123.709 76.818 124.264 76.958 124.712 77.238C125.16 77.518 125.501 77.9147 125.734 78.428C125.968 78.932 126.084 79.5293 126.084 80.22V80.668H120.764V79.856H125.118L124.88 80.038C124.88 79.338 124.722 78.7967 124.404 78.414C124.096 78.022 123.648 77.826 123.06 77.826C122.407 77.826 121.903 78.0547 121.548 78.512C121.194 78.96 121.016 79.5807 121.016 80.374V80.514C121.016 81.3447 121.217 81.97 121.618 82.39C122.029 82.81 122.608 83.02 123.354 83.02C123.765 83.02 124.148 82.964 124.502 82.852C124.866 82.7307 125.212 82.5347 125.538 82.264L126 83.23C125.674 83.5193 125.277 83.7433 124.81 83.902C124.344 84.0513 123.849 84.126 123.326 84.126ZM129.529 84L126.855 76.944H128.325L130.411 82.824H130.047L132.189 76.944H133.281L135.409 82.824H135.059L137.145 76.944H138.559L135.871 84H134.583L132.371 78.008H133.029L130.845 84H129.529ZM147.052 84.126C146.258 84.126 145.54 84.028 144.896 83.832C144.252 83.6267 143.692 83.3373 143.216 82.964L143.706 81.816C144.023 82.0587 144.35 82.2593 144.686 82.418C145.031 82.5767 145.395 82.698 145.778 82.782C146.17 82.8567 146.594 82.894 147.052 82.894C147.836 82.894 148.41 82.754 148.774 82.474C149.147 82.194 149.334 81.8253 149.334 81.368C149.334 80.976 149.203 80.6727 148.942 80.458C148.69 80.2433 148.242 80.0707 147.598 79.94L146.072 79.632C145.166 79.4453 144.49 79.142 144.042 78.722C143.603 78.2927 143.384 77.7093 143.384 76.972C143.384 76.3747 143.542 75.852 143.86 75.404C144.177 74.956 144.616 74.6107 145.176 74.368C145.745 74.1253 146.408 74.004 147.164 74.004C147.864 74.004 148.508 74.1067 149.096 74.312C149.684 74.508 150.178 74.802 150.58 75.194L150.104 76.3C149.684 75.936 149.236 75.67 148.76 75.502C148.284 75.3247 147.742 75.236 147.136 75.236C146.417 75.236 145.852 75.3853 145.442 75.684C145.04 75.9827 144.84 76.3887 144.84 76.902C144.84 77.3127 144.966 77.6347 145.218 77.868C145.479 78.1013 145.908 78.2787 146.506 78.4L148.032 78.694C148.974 78.89 149.67 79.1933 150.118 79.604C150.566 80.0053 150.79 80.5607 150.79 81.27C150.79 81.8393 150.636 82.3387 150.328 82.768C150.029 83.1973 149.6 83.5333 149.04 83.776C148.48 84.0093 147.817 84.126 147.052 84.126ZM155.477 84.126C154.777 84.126 154.17 83.9813 153.657 83.692C153.144 83.3933 152.747 82.9733 152.467 82.432C152.187 81.8813 152.047 81.228 152.047 80.472C152.047 79.716 152.187 79.0673 152.467 78.526C152.747 77.9753 153.144 77.5553 153.657 77.266C154.17 76.9673 154.777 76.818 155.477 76.818C156.177 76.818 156.784 76.9673 157.297 77.266C157.82 77.5553 158.221 77.9753 158.501 78.526C158.79 79.0673 158.935 79.716 158.935 80.472C158.935 81.228 158.79 81.8813 158.501 82.432C158.221 82.9733 157.82 83.3933 157.297 83.692C156.784 83.9813 156.177 84.126 155.477 84.126ZM155.477 83.02C156.093 83.02 156.583 82.8053 156.947 82.376C157.311 81.9467 157.493 81.312 157.493 80.472C157.493 79.632 157.311 79.002 156.947 78.582C156.583 78.1527 156.093 77.938 155.477 77.938C154.87 77.938 154.385 78.1527 154.021 78.582C153.657 79.002 153.475 79.632 153.475 80.472C153.475 81.312 153.652 81.9467 154.007 82.376C154.371 82.8053 154.861 83.02 155.477 83.02ZM160.588 84V78.638C160.588 78.3673 160.574 78.092 160.546 77.812C160.527 77.5227 160.504 77.2333 160.476 76.944H161.848L161.974 78.428H161.806C162.02 77.9053 162.352 77.5087 162.8 77.238C163.248 76.958 163.766 76.818 164.354 76.818C165.184 76.818 165.81 77.0467 166.23 77.504C166.659 77.9613 166.874 78.6707 166.874 79.632V84H165.46V79.716C165.46 79.0907 165.334 78.6427 165.082 78.372C164.839 78.092 164.466 77.952 163.962 77.952C163.364 77.952 162.888 78.1387 162.534 78.512C162.179 78.876 162.002 79.3707 162.002 79.996V84H160.588ZM172.065 87.136C171.43 87.136 170.851 87.0613 170.329 86.912C169.815 86.7627 169.353 86.5387 168.943 86.24L169.293 85.204C169.582 85.4 169.867 85.554 170.147 85.666C170.427 85.7873 170.721 85.876 171.029 85.932C171.337 85.988 171.654 86.016 171.981 86.016C172.653 86.016 173.157 85.8433 173.493 85.498C173.838 85.162 174.011 84.672 174.011 84.028V82.138H174.151C174.001 82.6607 173.693 83.076 173.227 83.384C172.769 83.6827 172.237 83.832 171.631 83.832C170.987 83.832 170.427 83.692 169.951 83.412C169.484 83.1227 169.12 82.7167 168.859 82.194C168.607 81.662 168.481 81.0367 168.481 80.318C168.481 79.5993 168.607 78.9787 168.859 78.456C169.12 77.9333 169.484 77.532 169.951 77.252C170.427 76.9627 170.987 76.818 171.631 76.818C172.247 76.818 172.779 76.972 173.227 77.28C173.684 77.5787 173.987 77.9893 174.137 78.512L174.011 78.4L174.137 76.944H175.509C175.471 77.2333 175.443 77.5227 175.425 77.812C175.406 78.092 175.397 78.3673 175.397 78.638V83.86C175.397 84.924 175.112 85.736 174.543 86.296C173.983 86.856 173.157 87.136 172.065 87.136ZM171.967 82.726C172.583 82.726 173.073 82.516 173.437 82.096C173.81 81.676 173.997 81.0833 173.997 80.318C173.997 79.5527 173.81 78.9647 173.437 78.554C173.073 78.1433 172.583 77.938 171.967 77.938C171.332 77.938 170.828 78.1433 170.455 78.554C170.091 78.9647 169.909 79.5527 169.909 80.318C169.909 81.0833 170.091 81.676 170.455 82.096C170.828 82.516 171.332 82.726 171.967 82.726ZM179.881 84.126C179.293 84.126 178.752 84.0513 178.257 83.902C177.762 83.7527 177.352 83.5427 177.025 83.272L177.459 82.306C177.804 82.5673 178.187 82.7633 178.607 82.894C179.027 83.0247 179.456 83.09 179.895 83.09C180.408 83.09 180.796 83.0013 181.057 82.824C181.318 82.6373 181.449 82.3853 181.449 82.068C181.449 81.8253 181.365 81.6293 181.197 81.48C181.038 81.3307 180.772 81.2187 180.399 81.144L179.055 80.878C178.458 80.7473 178.005 80.5233 177.697 80.206C177.389 79.8887 177.235 79.4827 177.235 78.988C177.235 78.568 177.347 78.1947 177.571 77.868C177.804 77.5413 178.131 77.2847 178.551 77.098C178.98 76.9113 179.48 76.818 180.049 76.818C180.572 76.818 181.057 76.8927 181.505 77.042C181.953 77.1913 182.326 77.406 182.625 77.686L182.177 78.624C181.888 78.3813 181.561 78.1947 181.197 78.064C180.833 77.924 180.464 77.854 180.091 77.854C179.568 77.854 179.181 77.952 178.929 78.148C178.677 78.344 178.551 78.6007 178.551 78.918C178.551 79.1607 178.626 79.3613 178.775 79.52C178.934 79.6693 179.181 79.786 179.517 79.87L180.861 80.136C181.496 80.2667 181.972 80.4813 182.289 80.78C182.606 81.0787 182.765 81.48 182.765 81.984C182.765 82.4227 182.644 82.8053 182.401 83.132C182.158 83.4587 181.822 83.706 181.393 83.874C180.964 84.042 180.46 84.126 179.881 84.126Z" fill="#C4C4C4"/>
<line x1="13" y1="136.5" x2="219" y2="136.5" stroke="#89969F" stroke-dasharray="5 5"/>
<path d="M29.58 121V111.13H32.996C34.1066 111.13 35.0446 111.321 35.81 111.704C36.5846 112.087 37.168 112.647 37.56 113.384C37.9613 114.112 38.162 115.003 38.162 116.058C38.162 117.103 37.9613 117.995 37.56 118.732C37.168 119.469 36.5846 120.034 35.81 120.426C35.0446 120.809 34.1066 121 32.996 121H29.58ZM31.036 119.782H32.912C34.1813 119.782 35.124 119.474 35.74 118.858C36.3653 118.242 36.678 117.309 36.678 116.058C36.678 114.807 36.3653 113.879 35.74 113.272C35.124 112.656 34.1813 112.348 32.912 112.348H31.036V119.782ZM40.0087 121V113.944H41.4227V121H40.0087ZM39.8967 112.474V111.004H41.5347V112.474H39.8967ZM45.917 121.126C45.329 121.126 44.7877 121.051 44.293 120.902C43.7983 120.753 43.3877 120.543 43.061 120.272L43.495 119.306C43.8403 119.567 44.223 119.763 44.643 119.894C45.063 120.025 45.4923 120.09 45.931 120.09C46.4443 120.09 46.8317 120.001 47.093 119.824C47.3543 119.637 47.485 119.385 47.485 119.068C47.485 118.825 47.401 118.629 47.233 118.48C47.0743 118.331 46.8083 118.219 46.435 118.144L45.091 117.878C44.4937 117.747 44.041 117.523 43.733 117.206C43.425 116.889 43.271 116.483 43.271 115.988C43.271 115.568 43.383 115.195 43.607 114.868C43.8403 114.541 44.167 114.285 44.587 114.098C45.0163 113.911 45.5157 113.818 46.085 113.818C46.6077 113.818 47.093 113.893 47.541 114.042C47.989 114.191 48.3623 114.406 48.661 114.686L48.213 115.624C47.9237 115.381 47.597 115.195 47.233 115.064C46.869 114.924 46.5003 114.854 46.127 114.854C45.6043 114.854 45.217 114.952 44.965 115.148C44.713 115.344 44.587 115.601 44.587 115.918C44.587 116.161 44.6617 116.361 44.811 116.52C44.9697 116.669 45.217 116.786 45.553 116.87L46.897 117.136C47.5317 117.267 48.0077 117.481 48.325 117.78C48.6423 118.079 48.801 118.48 48.801 118.984C48.801 119.423 48.6797 119.805 48.437 120.132C48.1943 120.459 47.8583 120.706 47.429 120.874C46.9997 121.042 46.4957 121.126 45.917 121.126ZM53.5616 121.126C52.8523 121.126 52.2316 120.981 51.6996 120.692C51.177 120.393 50.771 119.969 50.4816 119.418C50.2016 118.858 50.0616 118.195 50.0616 117.43C50.0616 116.674 50.2063 116.025 50.4956 115.484C50.785 114.943 51.191 114.532 51.7136 114.252C52.2363 113.963 52.8523 113.818 53.5616 113.818C54.019 113.818 54.4623 113.897 54.8916 114.056C55.321 114.205 55.6756 114.42 55.9556 114.7L55.4936 115.694C55.2323 115.442 54.9383 115.255 54.6116 115.134C54.285 115.003 53.9676 114.938 53.6596 114.938C52.9876 114.938 52.4603 115.153 52.0776 115.582C51.695 116.011 51.5036 116.632 51.5036 117.444C51.5036 118.265 51.695 118.895 52.0776 119.334C52.4603 119.773 52.9876 119.992 53.6596 119.992C53.9583 119.992 54.271 119.936 54.5976 119.824C54.9243 119.703 55.223 119.511 55.4936 119.25L55.9556 120.244C55.6663 120.524 55.3023 120.743 54.8636 120.902C54.4343 121.051 54.0003 121.126 53.5616 121.126ZM60.3413 121.126C59.6413 121.126 59.0346 120.981 58.5213 120.692C58.0079 120.393 57.6113 119.973 57.3313 119.432C57.0513 118.881 56.9113 118.228 56.9113 117.472C56.9113 116.716 57.0513 116.067 57.3313 115.526C57.6113 114.975 58.0079 114.555 58.5213 114.266C59.0346 113.967 59.6413 113.818 60.3413 113.818C61.0413 113.818 61.6479 113.967 62.1613 114.266C62.6839 114.555 63.0853 114.975 63.3653 115.526C63.6546 116.067 63.7993 116.716 63.7993 117.472C63.7993 118.228 63.6546 118.881 63.3653 119.432C63.0853 119.973 62.6839 120.393 62.1613 120.692C61.6479 120.981 61.0413 121.126 60.3413 121.126ZM60.3413 120.02C60.9573 120.02 61.4473 119.805 61.8113 119.376C62.1753 118.947 62.3573 118.312 62.3573 117.472C62.3573 116.632 62.1753 116.002 61.8113 115.582C61.4473 115.153 60.9573 114.938 60.3413 114.938C59.7346 114.938 59.2493 115.153 58.8853 115.582C58.5213 116.002 58.3392 116.632 58.3392 117.472C58.3392 118.312 58.5166 118.947 58.8713 119.376C59.2353 119.805 59.7253 120.02 60.3413 120.02ZM67.401 121L64.377 113.944H65.889L68.269 119.838H67.863L70.285 113.944H71.727L68.689 121H67.401ZM75.9875 121.126C74.8488 121.126 73.9528 120.804 73.2995 120.16C72.6461 119.516 72.3195 118.625 72.3195 117.486C72.3195 116.749 72.4595 116.105 72.7395 115.554C73.0288 115.003 73.4255 114.579 73.9295 114.28C74.4428 113.972 75.0355 113.818 75.7075 113.818C76.3701 113.818 76.9255 113.958 77.3735 114.238C77.8215 114.518 78.1621 114.915 78.3955 115.428C78.6288 115.932 78.7455 116.529 78.7455 117.22V117.668H73.4255V116.856H77.7795L77.5415 117.038C77.5415 116.338 77.3828 115.797 77.0655 115.414C76.7575 115.022 76.3095 114.826 75.7215 114.826C75.0681 114.826 74.5641 115.055 74.2095 115.512C73.8548 115.96 73.6775 116.581 73.6775 117.374V117.514C73.6775 118.345 73.8781 118.97 74.2795 119.39C74.6901 119.81 75.2688 120.02 76.0155 120.02C76.4261 120.02 76.8088 119.964 77.1635 119.852C77.5275 119.731 77.8728 119.535 78.1995 119.264L78.6615 120.23C78.3348 120.519 77.9381 120.743 77.4715 120.902C77.0048 121.051 76.5101 121.126 75.9875 121.126ZM80.34 121V115.694C80.34 115.405 80.3307 115.115 80.312 114.826C80.3027 114.527 80.284 114.233 80.256 113.944H81.628L81.782 115.764H81.558C81.6514 115.325 81.81 114.961 82.034 114.672C82.258 114.383 82.5287 114.168 82.846 114.028C83.1727 113.888 83.5134 113.818 83.868 113.818C84.0174 113.818 84.1434 113.827 84.246 113.846C84.3487 113.855 84.4514 113.874 84.554 113.902L84.54 115.162C84.3814 115.097 84.2414 115.059 84.12 115.05C84.008 115.031 83.868 115.022 83.7 115.022C83.2894 115.022 82.9394 115.115 82.65 115.302C82.3607 115.479 82.1414 115.722 81.992 116.03C81.8427 116.338 81.768 116.669 81.768 117.024V121H80.34ZM89.5038 121V111.13H93.6898C94.7445 111.13 95.5518 111.387 96.1118 111.9C96.6811 112.404 96.9658 113.104 96.9658 114C96.9658 114.896 96.6811 115.601 96.1118 116.114C95.5518 116.627 94.7445 116.884 93.6898 116.884H90.9598V121H89.5038ZM90.9598 115.722H93.5358C94.1985 115.722 94.6978 115.573 95.0338 115.274C95.3698 114.975 95.5378 114.551 95.5378 114C95.5378 113.459 95.3698 113.039 95.0338 112.74C94.6978 112.441 94.1985 112.292 93.5358 112.292H90.9598V115.722ZM101.289 121.126C100.589 121.126 99.9818 120.981 99.4685 120.692C98.9552 120.393 98.5585 119.973 98.2785 119.432C97.9985 118.881 97.8585 118.228 97.8585 117.472C97.8585 116.716 97.9985 116.067 98.2785 115.526C98.5585 114.975 98.9552 114.555 99.4685 114.266C99.9818 113.967 100.589 113.818 101.289 113.818C101.989 113.818 102.595 113.967 103.109 114.266C103.631 114.555 104.033 114.975 104.313 115.526C104.602 116.067 104.747 116.716 104.747 117.472C104.747 118.228 104.602 118.881 104.313 119.432C104.033 119.973 103.631 120.393 103.109 120.692C102.595 120.981 101.989 121.126 101.289 121.126ZM101.289 120.02C101.905 120.02 102.395 119.805 102.759 119.376C103.123 118.947 103.305 118.312 103.305 117.472C103.305 116.632 103.123 116.002 102.759 115.582C102.395 115.153 101.905 114.938 101.289 114.938C100.682 114.938 100.197 115.153 99.8325 115.582C99.4685 116.002 99.2865 116.632 99.2865 117.472C99.2865 118.312 99.4638 118.947 99.8185 119.376C100.183 119.805 100.673 120.02 101.289 120.02ZM106.399 124.024V115.638C106.399 115.367 106.385 115.092 106.357 114.812C106.339 114.523 106.315 114.233 106.287 113.944H107.659L107.799 115.54H107.645C107.795 115.008 108.093 114.588 108.541 114.28C108.999 113.972 109.54 113.818 110.165 113.818C110.791 113.818 111.337 113.967 111.803 114.266C112.27 114.555 112.629 114.971 112.881 115.512C113.143 116.053 113.273 116.707 113.273 117.472C113.273 118.228 113.143 118.881 112.881 119.432C112.629 119.983 112.27 120.403 111.803 120.692C111.337 120.981 110.791 121.126 110.165 121.126C109.549 121.126 109.013 120.977 108.555 120.678C108.107 120.37 107.809 119.955 107.659 119.432H107.813V124.024H106.399ZM109.815 120.02C110.431 120.02 110.921 119.805 111.285 119.376C111.659 118.947 111.845 118.312 111.845 117.472C111.845 116.632 111.659 116.002 111.285 115.582C110.921 115.153 110.431 114.938 109.815 114.938C109.199 114.938 108.705 115.153 108.331 115.582C107.967 116.002 107.785 116.632 107.785 117.472C107.785 118.312 107.967 118.947 108.331 119.376C108.705 119.805 109.199 120.02 109.815 120.02ZM117.437 121.126C116.587 121.126 115.948 120.897 115.519 120.44C115.099 119.973 114.889 119.259 114.889 118.298V113.944H116.303V118.27C116.303 118.858 116.424 119.292 116.667 119.572C116.909 119.852 117.278 119.992 117.773 119.992C118.333 119.992 118.785 119.805 119.131 119.432C119.476 119.059 119.649 118.564 119.649 117.948V113.944H121.063V121H119.691V119.488H119.873C119.677 120.011 119.364 120.417 118.935 120.706C118.505 120.986 118.006 121.126 117.437 121.126ZM123.134 121V110.696H124.548V121H123.134ZM129.322 121.126C128.697 121.126 128.151 120.981 127.684 120.692C127.217 120.403 126.853 119.983 126.592 119.432C126.34 118.881 126.214 118.228 126.214 117.472C126.214 116.707 126.34 116.053 126.592 115.512C126.853 114.971 127.217 114.555 127.684 114.266C128.151 113.967 128.697 113.818 129.322 113.818C129.938 113.818 130.475 113.972 130.932 114.28C131.389 114.588 131.693 115.008 131.842 115.54H131.688L131.828 113.944H133.2C133.172 114.233 133.144 114.523 133.116 114.812C133.097 115.092 133.088 115.367 133.088 115.638V121H131.674V119.432H131.828C131.679 119.955 131.371 120.37 130.904 120.678C130.447 120.977 129.919 121.126 129.322 121.126ZM129.672 120.02C130.279 120.02 130.764 119.805 131.128 119.376C131.501 118.947 131.688 118.312 131.688 117.472C131.688 116.632 131.501 116.002 131.128 115.582C130.764 115.153 130.279 114.938 129.672 114.938C129.056 114.938 128.561 115.153 128.188 115.582C127.824 116.002 127.642 116.632 127.642 117.472C127.642 118.312 127.824 118.947 128.188 119.376C128.552 119.805 129.047 120.02 129.672 120.02ZM135.123 121V115.694C135.123 115.405 135.114 115.115 135.095 114.826C135.086 114.527 135.067 114.233 135.039 113.944H136.411L136.565 115.764H136.341C136.435 115.325 136.593 114.961 136.817 114.672C137.041 114.383 137.312 114.168 137.629 114.028C137.956 113.888 138.297 113.818 138.651 113.818C138.801 113.818 138.927 113.827 139.029 113.846C139.132 113.855 139.235 113.874 139.337 113.902L139.323 115.162C139.165 115.097 139.025 115.059 138.903 115.05C138.791 115.031 138.651 115.022 138.483 115.022C138.073 115.022 137.723 115.115 137.433 115.302C137.144 115.479 136.925 115.722 136.775 116.03C136.626 116.338 136.551 116.669 136.551 117.024V121H135.123ZM148.725 121.126C147.717 121.126 146.858 120.921 146.149 120.51C145.44 120.099 144.894 119.516 144.511 118.76C144.138 117.995 143.951 117.094 143.951 116.058C143.951 115.022 144.138 114.126 144.511 113.37C144.894 112.614 145.44 112.031 146.149 111.62C146.858 111.209 147.717 111.004 148.725 111.004C149.425 111.004 150.05 111.107 150.601 111.312C151.152 111.517 151.632 111.816 152.043 112.208L151.539 113.37C151.091 112.987 150.652 112.712 150.223 112.544C149.803 112.376 149.313 112.292 148.753 112.292C147.689 112.292 146.877 112.619 146.317 113.272C145.757 113.925 145.477 114.854 145.477 116.058C145.477 117.262 145.757 118.195 146.317 118.858C146.877 119.511 147.689 119.838 148.753 119.838C149.313 119.838 149.803 119.754 150.223 119.586C150.652 119.418 151.091 119.138 151.539 118.746L152.043 119.908C151.632 120.3 151.152 120.603 150.601 120.818C150.05 121.023 149.425 121.126 148.725 121.126ZM156.215 121.126C155.589 121.126 155.043 120.981 154.577 120.692C154.11 120.403 153.746 119.983 153.485 119.432C153.233 118.881 153.107 118.228 153.107 117.472C153.107 116.707 153.233 116.053 153.485 115.512C153.746 114.971 154.11 114.555 154.577 114.266C155.043 113.967 155.589 113.818 156.215 113.818C156.831 113.818 157.367 113.972 157.825 114.28C158.282 114.588 158.585 115.008 158.735 115.54H158.581L158.721 113.944H160.093C160.065 114.233 160.037 114.523 160.009 114.812C159.99 115.092 159.981 115.367 159.981 115.638V121H158.567V119.432H158.721C158.571 119.955 158.263 120.37 157.797 120.678C157.339 120.977 156.812 121.126 156.215 121.126ZM156.565 120.02C157.171 120.02 157.657 119.805 158.021 119.376C158.394 118.947 158.581 118.312 158.581 117.472C158.581 116.632 158.394 116.002 158.021 115.582C157.657 115.153 157.171 114.938 156.565 114.938C155.949 114.938 155.454 115.153 155.081 115.582C154.717 116.002 154.535 116.632 154.535 117.472C154.535 118.312 154.717 118.947 155.081 119.376C155.445 119.805 155.939 120.02 156.565 120.02ZM164.788 121.126C164.022 121.126 163.444 120.921 163.052 120.51C162.66 120.09 162.464 119.465 162.464 118.634V115.036H161.092V113.944H162.464V112.082L163.878 111.704V113.944H165.838V115.036H163.878V118.508C163.878 119.031 163.971 119.404 164.158 119.628C164.344 119.852 164.615 119.964 164.97 119.964C165.147 119.964 165.301 119.95 165.432 119.922C165.572 119.885 165.698 119.843 165.81 119.796V120.944C165.67 121 165.506 121.042 165.32 121.07C165.133 121.107 164.956 121.126 164.788 121.126ZM170.323 121.126C169.185 121.126 168.289 120.804 167.635 120.16C166.982 119.516 166.655 118.625 166.655 117.486C166.655 116.749 166.795 116.105 167.075 115.554C167.365 115.003 167.761 114.579 168.265 114.28C168.779 113.972 169.371 113.818 170.043 113.818C170.706 113.818 171.261 113.958 171.709 114.238C172.157 114.518 172.498 114.915 172.731 115.428C172.965 115.932 173.081 116.529 173.081 117.22V117.668H167.761V116.856H172.115L171.877 117.038C171.877 116.338 171.719 115.797 171.401 115.414C171.093 115.022 170.645 114.826 170.057 114.826C169.404 114.826 168.9 115.055 168.545 115.512C168.191 115.96 168.013 116.581 168.013 117.374V117.514C168.013 118.345 168.214 118.97 168.615 119.39C169.026 119.81 169.605 120.02 170.351 120.02C170.762 120.02 171.145 119.964 171.499 119.852C171.863 119.731 172.209 119.535 172.535 119.264L172.997 120.23C172.671 120.519 172.274 120.743 171.807 120.902C171.341 121.051 170.846 121.126 170.323 121.126ZM177.882 124.136C177.247 124.136 176.669 124.061 176.146 123.912C175.633 123.763 175.171 123.539 174.76 123.24L175.11 122.204C175.399 122.4 175.684 122.554 175.964 122.666C176.244 122.787 176.538 122.876 176.846 122.932C177.154 122.988 177.471 123.016 177.798 123.016C178.47 123.016 178.974 122.843 179.31 122.498C179.655 122.162 179.828 121.672 179.828 121.028V119.138H179.968C179.819 119.661 179.511 120.076 179.044 120.384C178.587 120.683 178.055 120.832 177.448 120.832C176.804 120.832 176.244 120.692 175.768 120.412C175.301 120.123 174.937 119.717 174.676 119.194C174.424 118.662 174.298 118.037 174.298 117.318C174.298 116.599 174.424 115.979 174.676 115.456C174.937 114.933 175.301 114.532 175.768 114.252C176.244 113.963 176.804 113.818 177.448 113.818C178.064 113.818 178.596 113.972 179.044 114.28C179.501 114.579 179.805 114.989 179.954 115.512L179.828 115.4L179.954 113.944H181.326C181.289 114.233 181.261 114.523 181.242 114.812C181.223 115.092 181.214 115.367 181.214 115.638V120.86C181.214 121.924 180.929 122.736 180.36 123.296C179.8 123.856 178.974 124.136 177.882 124.136ZM177.784 119.726C178.4 119.726 178.89 119.516 179.254 119.096C179.627 118.676 179.814 118.083 179.814 117.318C179.814 116.553 179.627 115.965 179.254 115.554C178.89 115.143 178.4 114.938 177.784 114.938C177.149 114.938 176.645 115.143 176.272 115.554C175.908 115.965 175.726 116.553 175.726 117.318C175.726 118.083 175.908 118.676 176.272 119.096C176.645 119.516 177.149 119.726 177.784 119.726ZM186.3 121.126C185.6 121.126 184.994 120.981 184.48 120.692C183.967 120.393 183.57 119.973 183.29 119.432C183.01 118.881 182.87 118.228 182.87 117.472C182.87 116.716 183.01 116.067 183.29 115.526C183.57 114.975 183.967 114.555 184.48 114.266C184.994 113.967 185.6 113.818 186.3 113.818C187 113.818 187.607 113.967 188.12 114.266C188.643 114.555 189.044 114.975 189.324 115.526C189.614 116.067 189.758 116.716 189.758 117.472C189.758 118.228 189.614 118.881 189.324 119.432C189.044 119.973 188.643 120.393 188.12 120.692C187.607 120.981 187 121.126 186.3 121.126ZM186.3 120.02C186.916 120.02 187.406 119.805 187.77 119.376C188.134 118.947 188.316 118.312 188.316 117.472C188.316 116.632 188.134 116.002 187.77 115.582C187.406 115.153 186.916 114.938 186.3 114.938C185.694 114.938 185.208 115.153 184.844 115.582C184.48 116.002 184.298 116.632 184.298 117.472C184.298 118.312 184.476 118.947 184.83 119.376C185.194 119.805 185.684 120.02 186.3 120.02ZM191.383 121V115.694C191.383 115.405 191.374 115.115 191.355 114.826C191.346 114.527 191.327 114.233 191.299 113.944H192.671L192.825 115.764H192.601C192.694 115.325 192.853 114.961 193.077 114.672C193.301 114.383 193.572 114.168 193.889 114.028C194.216 113.888 194.556 113.818 194.911 113.818C195.06 113.818 195.186 113.827 195.289 113.846C195.392 113.855 195.494 113.874 195.597 113.902L195.583 115.162C195.424 115.097 195.284 115.059 195.163 115.05C195.051 115.031 194.911 115.022 194.743 115.022C194.332 115.022 193.982 115.115 193.693 115.302C193.404 115.479 193.184 115.722 193.035 116.03C192.886 116.338 192.811 116.669 192.811 117.024V121H191.383ZM196.902 124.178L196.566 123.03C197.005 122.937 197.369 122.825 197.658 122.694C197.957 122.563 198.204 122.391 198.4 122.176C198.596 121.971 198.764 121.705 198.904 121.378L199.254 120.552L199.226 121.126L196.16 113.944H197.672L200.052 119.824H199.674L202.054 113.944H203.51L200.276 121.504C200.071 121.971 199.852 122.363 199.618 122.68C199.385 122.997 199.133 123.254 198.862 123.45C198.592 123.646 198.293 123.8 197.966 123.912C197.64 124.024 197.285 124.113 196.902 124.178Z" fill="#C4C4C4"/>
<line x1="13" y1="173.5" x2="219" y2="173.5" stroke="#89969F" stroke-dasharray="5 5"/>
<path d="M62.409 158.126C61.6157 158.126 60.897 158.028 60.253 157.832C59.609 157.627 59.049 157.337 58.573 156.964L59.063 155.816C59.3804 156.059 59.707 156.259 60.043 156.418C60.3884 156.577 60.7524 156.698 61.135 156.782C61.527 156.857 61.9517 156.894 62.409 156.894C63.193 156.894 63.767 156.754 64.131 156.474C64.5044 156.194 64.691 155.825 64.691 155.368C64.691 154.976 64.5604 154.673 64.299 154.458C64.047 154.243 63.599 154.071 62.955 153.94L61.429 153.632C60.5237 153.445 59.847 153.142 59.399 152.722C58.9604 152.293 58.741 151.709 58.741 150.972C58.741 150.375 58.8997 149.852 59.217 149.404C59.5344 148.956 59.973 148.611 60.533 148.368C61.1024 148.125 61.765 148.004 62.521 148.004C63.221 148.004 63.865 148.107 64.453 148.312C65.041 148.508 65.5357 148.802 65.937 149.194L65.461 150.3C65.041 149.936 64.593 149.67 64.117 149.502C63.641 149.325 63.0997 149.236 62.493 149.236C61.7744 149.236 61.2097 149.385 60.799 149.684C60.3977 149.983 60.197 150.389 60.197 150.902C60.197 151.313 60.323 151.635 60.575 151.868C60.8364 152.101 61.2657 152.279 61.863 152.4L63.389 152.694C64.3317 152.89 65.027 153.193 65.475 153.604C65.923 154.005 66.147 154.561 66.147 155.27C66.147 155.839 65.993 156.339 65.685 156.768C65.3864 157.197 64.957 157.533 64.397 157.776C63.837 158.009 63.1744 158.126 62.409 158.126ZM71.0724 158.126C69.9337 158.126 69.0377 157.804 68.3844 157.16C67.7311 156.516 67.4044 155.625 67.4044 154.486C67.4044 153.749 67.5444 153.105 67.8244 152.554C68.1137 152.003 68.5104 151.579 69.0144 151.28C69.5277 150.972 70.1204 150.818 70.7924 150.818C71.4551 150.818 72.0104 150.958 72.4584 151.238C72.9064 151.518 73.2471 151.915 73.4804 152.428C73.7137 152.932 73.8304 153.529 73.8304 154.22V154.668H68.5104V153.856H72.8644L72.6264 154.038C72.6264 153.338 72.4677 152.797 72.1504 152.414C71.8424 152.022 71.3944 151.826 70.8064 151.826C70.1531 151.826 69.6491 152.055 69.2944 152.512C68.9397 152.96 68.7624 153.581 68.7624 154.374V154.514C68.7624 155.345 68.9631 155.97 69.3644 156.39C69.7751 156.81 70.3537 157.02 71.1004 157.02C71.5111 157.02 71.8937 156.964 72.2484 156.852C72.6124 156.731 72.9577 156.535 73.2844 156.264L73.7464 157.23C73.4197 157.519 73.0231 157.743 72.5564 157.902C72.0897 158.051 71.5951 158.126 71.0724 158.126ZM75.453 158V147.696H76.867V158H75.453ZM82.2013 158.126C81.0627 158.126 80.1667 157.804 79.5133 157.16C78.86 156.516 78.5333 155.625 78.5333 154.486C78.5333 153.749 78.6733 153.105 78.9533 152.554C79.2427 152.003 79.6393 151.579 80.1433 151.28C80.6567 150.972 81.2493 150.818 81.9213 150.818C82.584 150.818 83.1393 150.958 83.5873 151.238C84.0353 151.518 84.376 151.915 84.6093 152.428C84.8427 152.932 84.9593 153.529 84.9593 154.22V154.668H79.6393V153.856H83.9933L83.7553 154.038C83.7553 153.338 83.5967 152.797 83.2793 152.414C82.9713 152.022 82.5233 151.826 81.9353 151.826C81.282 151.826 80.778 152.055 80.4233 152.512C80.0687 152.96 79.8913 153.581 79.8913 154.374V154.514C79.8913 155.345 80.092 155.97 80.4933 156.39C80.904 156.81 81.4827 157.02 82.2293 157.02C82.64 157.02 83.0227 156.964 83.3773 156.852C83.7413 156.731 84.0867 156.535 84.4133 156.264L84.8753 157.23C84.5487 157.519 84.152 157.743 83.6853 157.902C83.2187 158.051 82.724 158.126 82.2013 158.126ZM89.6759 158.126C88.9666 158.126 88.3459 157.981 87.8139 157.692C87.2912 157.393 86.8852 156.969 86.5959 156.418C86.3159 155.858 86.1759 155.195 86.1759 154.43C86.1759 153.674 86.3206 153.025 86.6099 152.484C86.8992 151.943 87.3052 151.532 87.8279 151.252C88.3506 150.963 88.9666 150.818 89.6759 150.818C90.1332 150.818 90.5766 150.897 91.0059 151.056C91.4352 151.205 91.7899 151.42 92.0699 151.7L91.6079 152.694C91.3466 152.442 91.0526 152.255 90.7259 152.134C90.3992 152.003 90.0819 151.938 89.7739 151.938C89.1019 151.938 88.5746 152.153 88.1919 152.582C87.8092 153.011 87.6179 153.632 87.6179 154.444C87.6179 155.265 87.8092 155.895 88.1919 156.334C88.5746 156.773 89.1019 156.992 89.7739 156.992C90.0726 156.992 90.3852 156.936 90.7119 156.824C91.0386 156.703 91.3372 156.511 91.6079 156.25L92.0699 157.244C91.7806 157.524 91.4166 157.743 90.9779 157.902C90.5486 158.051 90.1146 158.126 89.6759 158.126ZM96.3259 158.126C95.5606 158.126 94.9819 157.921 94.5899 157.51C94.1979 157.09 94.0019 156.465 94.0019 155.634V152.036H92.6299V150.944H94.0019V149.082L95.4159 148.704V150.944H97.3759V152.036H95.4159V155.508C95.4159 156.031 95.5092 156.404 95.6959 156.628C95.8826 156.852 96.1532 156.964 96.5079 156.964C96.6852 156.964 96.8392 156.95 96.9699 156.922C97.1099 156.885 97.2359 156.843 97.3479 156.796V157.944C97.2079 158 97.0446 158.042 96.8579 158.07C96.6712 158.107 96.4939 158.126 96.3259 158.126ZM105.102 158.126C104.477 158.126 103.931 157.981 103.464 157.692C102.998 157.403 102.634 156.983 102.372 156.432C102.12 155.881 101.994 155.228 101.994 154.472C101.994 153.707 102.12 153.053 102.372 152.512C102.634 151.971 102.998 151.555 103.464 151.266C103.931 150.967 104.477 150.818 105.102 150.818C105.718 150.818 106.255 150.972 106.712 151.28C107.17 151.588 107.473 152.008 107.622 152.54H107.468L107.608 150.944H108.98C108.952 151.233 108.924 151.523 108.896 151.812C108.878 152.092 108.868 152.367 108.868 152.638V158H107.454V156.432H107.608C107.459 156.955 107.151 157.37 106.684 157.678C106.227 157.977 105.7 158.126 105.102 158.126ZM105.452 157.02C106.059 157.02 106.544 156.805 106.908 156.376C107.282 155.947 107.468 155.312 107.468 154.472C107.468 153.632 107.282 153.002 106.908 152.582C106.544 152.153 106.059 151.938 105.452 151.938C104.836 151.938 104.342 152.153 103.968 152.582C103.604 153.002 103.422 153.632 103.422 154.472C103.422 155.312 103.604 155.947 103.968 156.376C104.332 156.805 104.827 157.02 105.452 157.02ZM119.228 158.126C118.22 158.126 117.361 157.921 116.652 157.51C115.943 157.099 115.397 156.516 115.014 155.76C114.641 154.995 114.454 154.094 114.454 153.058C114.454 152.022 114.641 151.126 115.014 150.37C115.397 149.614 115.943 149.031 116.652 148.62C117.361 148.209 118.22 148.004 119.228 148.004C119.928 148.004 120.553 148.107 121.104 148.312C121.655 148.517 122.135 148.816 122.546 149.208L122.042 150.37C121.594 149.987 121.155 149.712 120.726 149.544C120.306 149.376 119.816 149.292 119.256 149.292C118.192 149.292 117.38 149.619 116.82 150.272C116.26 150.925 115.98 151.854 115.98 153.058C115.98 154.262 116.26 155.195 116.82 155.858C117.38 156.511 118.192 156.838 119.256 156.838C119.816 156.838 120.306 156.754 120.726 156.586C121.155 156.418 121.594 156.138 122.042 155.746L122.546 156.908C122.135 157.3 121.655 157.603 121.104 157.818C120.553 158.023 119.928 158.126 119.228 158.126ZM126.717 158.126C126.092 158.126 125.546 157.981 125.079 157.692C124.613 157.403 124.249 156.983 123.987 156.432C123.735 155.881 123.609 155.228 123.609 154.472C123.609 153.707 123.735 153.053 123.987 152.512C124.249 151.971 124.613 151.555 125.079 151.266C125.546 150.967 126.092 150.818 126.717 150.818C127.333 150.818 127.87 150.972 128.327 151.28C128.785 151.588 129.088 152.008 129.237 152.54H129.083L129.223 150.944H130.595C130.567 151.233 130.539 151.523 130.511 151.812C130.493 152.092 130.483 152.367 130.483 152.638V158H129.069V156.432H129.223C129.074 156.955 128.766 157.37 128.299 157.678C127.842 157.977 127.315 158.126 126.717 158.126ZM127.067 157.02C127.674 157.02 128.159 156.805 128.523 156.376C128.897 155.947 129.083 155.312 129.083 154.472C129.083 153.632 128.897 153.002 128.523 152.582C128.159 152.153 127.674 151.938 127.067 151.938C126.451 151.938 125.957 152.153 125.583 152.582C125.219 153.002 125.037 153.632 125.037 154.472C125.037 155.312 125.219 155.947 125.583 156.376C125.947 156.805 126.442 157.02 127.067 157.02ZM135.291 158.126C134.525 158.126 133.947 157.921 133.555 157.51C133.163 157.09 132.967 156.465 132.967 155.634V152.036H131.595V150.944H132.967V149.082L134.381 148.704V150.944H136.341V152.036H134.381V155.508C134.381 156.031 134.474 156.404 134.661 156.628C134.847 156.852 135.118 156.964 135.473 156.964C135.65 156.964 135.804 156.95 135.935 156.922C136.075 156.885 136.201 156.843 136.313 156.796V157.944C136.173 158 136.009 158.042 135.823 158.07C135.636 158.107 135.459 158.126 135.291 158.126ZM140.826 158.126C139.688 158.126 138.792 157.804 138.138 157.16C137.485 156.516 137.158 155.625 137.158 154.486C137.158 153.749 137.298 153.105 137.578 152.554C137.868 152.003 138.264 151.579 138.768 151.28C139.282 150.972 139.874 150.818 140.546 150.818C141.209 150.818 141.764 150.958 142.212 151.238C142.66 151.518 143.001 151.915 143.234 152.428C143.468 152.932 143.584 153.529 143.584 154.22V154.668H138.264V153.856H142.618L142.38 154.038C142.38 153.338 142.222 152.797 141.904 152.414C141.596 152.022 141.148 151.826 140.56 151.826C139.907 151.826 139.403 152.055 139.048 152.512C138.694 152.96 138.516 153.581 138.516 154.374V154.514C138.516 155.345 138.717 155.97 139.118 156.39C139.529 156.81 140.108 157.02 140.854 157.02C141.265 157.02 141.648 156.964 142.002 156.852C142.366 156.731 142.712 156.535 143.038 156.264L143.5 157.23C143.174 157.519 142.777 157.743 142.31 157.902C141.844 158.051 141.349 158.126 140.826 158.126ZM148.385 161.136C147.75 161.136 147.172 161.061 146.649 160.912C146.136 160.763 145.674 160.539 145.263 160.24L145.613 159.204C145.902 159.4 146.187 159.554 146.467 159.666C146.747 159.787 147.041 159.876 147.349 159.932C147.657 159.988 147.974 160.016 148.301 160.016C148.973 160.016 149.477 159.843 149.813 159.498C150.158 159.162 150.331 158.672 150.331 158.028V156.138H150.471C150.322 156.661 150.014 157.076 149.547 157.384C149.09 157.683 148.558 157.832 147.951 157.832C147.307 157.832 146.747 157.692 146.271 157.412C145.804 157.123 145.44 156.717 145.179 156.194C144.927 155.662 144.801 155.037 144.801 154.318C144.801 153.599 144.927 152.979 145.179 152.456C145.44 151.933 145.804 151.532 146.271 151.252C146.747 150.963 147.307 150.818 147.951 150.818C148.567 150.818 149.099 150.972 149.547 151.28C150.004 151.579 150.308 151.989 150.457 152.512L150.331 152.4L150.457 150.944H151.829C151.792 151.233 151.764 151.523 151.745 151.812C151.726 152.092 151.717 152.367 151.717 152.638V157.86C151.717 158.924 151.432 159.736 150.863 160.296C150.303 160.856 149.477 161.136 148.385 161.136ZM148.287 156.726C148.903 156.726 149.393 156.516 149.757 156.096C150.13 155.676 150.317 155.083 150.317 154.318C150.317 153.553 150.13 152.965 149.757 152.554C149.393 152.143 148.903 151.938 148.287 151.938C147.652 151.938 147.148 152.143 146.775 152.554C146.411 152.965 146.229 153.553 146.229 154.318C146.229 155.083 146.411 155.676 146.775 156.096C147.148 156.516 147.652 156.726 148.287 156.726ZM156.803 158.126C156.103 158.126 155.496 157.981 154.983 157.692C154.47 157.393 154.073 156.973 153.793 156.432C153.513 155.881 153.373 155.228 153.373 154.472C153.373 153.716 153.513 153.067 153.793 152.526C154.073 151.975 154.47 151.555 154.983 151.266C155.496 150.967 156.103 150.818 156.803 150.818C157.503 150.818 158.11 150.967 158.623 151.266C159.146 151.555 159.547 151.975 159.827 152.526C160.116 153.067 160.261 153.716 160.261 154.472C160.261 155.228 160.116 155.881 159.827 156.432C159.547 156.973 159.146 157.393 158.623 157.692C158.11 157.981 157.503 158.126 156.803 158.126ZM156.803 157.02C157.419 157.02 157.909 156.805 158.273 156.376C158.637 155.947 158.819 155.312 158.819 154.472C158.819 153.632 158.637 153.002 158.273 152.582C157.909 152.153 157.419 151.938 156.803 151.938C156.196 151.938 155.711 152.153 155.347 152.582C154.983 153.002 154.801 153.632 154.801 154.472C154.801 155.312 154.978 155.947 155.333 156.376C155.697 156.805 156.187 157.02 156.803 157.02ZM161.886 158V152.694C161.886 152.405 161.877 152.115 161.858 151.826C161.849 151.527 161.83 151.233 161.802 150.944H163.174L163.328 152.764H163.104C163.197 152.325 163.356 151.961 163.58 151.672C163.804 151.383 164.075 151.168 164.392 151.028C164.719 150.888 165.059 150.818 165.414 150.818C165.563 150.818 165.689 150.827 165.792 150.846C165.895 150.855 165.997 150.874 166.1 150.902L166.086 152.162C165.927 152.097 165.787 152.059 165.666 152.05C165.554 152.031 165.414 152.022 165.246 152.022C164.835 152.022 164.485 152.115 164.196 152.302C163.907 152.479 163.687 152.722 163.538 153.03C163.389 153.338 163.314 153.669 163.314 154.024V158H161.886ZM167.405 161.178L167.069 160.03C167.508 159.937 167.872 159.825 168.161 159.694C168.46 159.563 168.707 159.391 168.903 159.176C169.099 158.971 169.267 158.705 169.407 158.378L169.757 157.552L169.729 158.126L166.663 150.944H168.175L170.555 156.824H170.177L172.557 150.944H174.013L170.779 158.504C170.574 158.971 170.354 159.363 170.121 159.68C169.888 159.997 169.636 160.254 169.365 160.45C169.094 160.646 168.796 160.8 168.469 160.912C168.142 161.024 167.788 161.113 167.405 161.178Z" fill="#C4C4C4"/>
<line x1="13" y1="210.5" x2="219" y2="210.5" stroke="#89969F" stroke-dasharray="5 5"/>
<path d="M67.7831 195.14C66.9897 195.14 66.2571 195.042 65.5851 194.846C64.9224 194.641 64.3531 194.361 63.8771 194.006L64.4371 192.592C64.7544 192.816 65.0857 193.007 65.4311 193.166C65.7764 193.315 66.1451 193.432 66.5371 193.516C66.9291 193.591 67.3444 193.628 67.7831 193.628C68.5204 193.628 69.0524 193.507 69.3791 193.264C69.7057 193.021 69.8691 192.704 69.8691 192.312C69.8691 191.967 69.7571 191.705 69.5331 191.528C69.3091 191.341 68.9077 191.187 68.3291 191.066L66.7471 190.744C65.8417 190.557 65.1651 190.245 64.7171 189.806C64.2691 189.367 64.0451 188.779 64.0451 188.042C64.0451 187.426 64.2084 186.889 64.5351 186.432C64.8617 185.975 65.3191 185.62 65.9071 185.368C66.4951 185.116 67.1811 184.99 67.9651 184.99C68.6651 184.99 69.3137 185.093 69.9111 185.298C70.5084 185.494 71.0077 185.779 71.4091 186.152L70.8491 187.496C70.4477 187.16 70.0091 186.913 69.5331 186.754C69.0571 186.586 68.5251 186.502 67.9371 186.502C67.2744 186.502 66.7564 186.633 66.3831 186.894C66.0191 187.146 65.8371 187.496 65.8371 187.944C65.8371 188.289 65.9491 188.565 66.1731 188.77C66.4064 188.975 66.7984 189.134 67.3491 189.246L68.9171 189.554C69.8504 189.741 70.5411 190.049 70.9891 190.478C71.4371 190.898 71.6611 191.467 71.6611 192.186C71.6611 192.774 71.5024 193.292 71.1851 193.74C70.8677 194.179 70.4197 194.524 69.8411 194.776C69.2624 195.019 68.5764 195.14 67.7831 195.14ZM76.6385 195.14C75.4532 195.14 74.5245 194.813 73.8525 194.16C73.1805 193.507 72.8445 192.611 72.8445 191.472C72.8445 190.735 72.9892 190.091 73.2785 189.54C73.5678 188.989 73.9692 188.56 74.4825 188.252C75.0052 187.944 75.6118 187.79 76.3025 187.79C76.9838 187.79 77.5532 187.935 78.0105 188.224C78.4678 188.513 78.8132 188.919 79.0465 189.442C79.2892 189.965 79.4105 190.576 79.4105 191.276V191.738H74.2585V190.814H78.1645L77.9265 191.01C77.9265 190.357 77.7865 189.857 77.5065 189.512C77.2358 189.167 76.8392 188.994 76.3165 188.994C75.7378 188.994 75.2898 189.199 74.9725 189.61C74.6645 190.021 74.5105 190.595 74.5105 191.332V191.514C74.5105 192.279 74.6972 192.853 75.0705 193.236C75.4532 193.609 75.9898 193.796 76.6805 193.796C77.0818 193.796 77.4552 193.745 77.8005 193.642C78.1552 193.53 78.4912 193.353 78.8085 193.11L79.3265 194.286C78.9905 194.557 78.5892 194.767 78.1225 194.916C77.6558 195.065 77.1612 195.14 76.6385 195.14ZM80.8924 195V184.696H82.6424V195H80.8924ZM87.9588 195.14C86.7735 195.14 85.8448 194.813 85.1728 194.16C84.5008 193.507 84.1648 192.611 84.1648 191.472C84.1648 190.735 84.3095 190.091 84.5988 189.54C84.8882 188.989 85.2895 188.56 85.8028 188.252C86.3255 187.944 86.9322 187.79 87.6228 187.79C88.3042 187.79 88.8735 187.935 89.3308 188.224C89.7882 188.513 90.1335 188.919 90.3668 189.442C90.6095 189.965 90.7308 190.576 90.7308 191.276V191.738H85.5788V190.814H89.4848L89.2468 191.01C89.2468 190.357 89.1068 189.857 88.8268 189.512C88.5562 189.167 88.1595 188.994 87.6368 188.994C87.0582 188.994 86.6102 189.199 86.2928 189.61C85.9848 190.021 85.8308 190.595 85.8308 191.332V191.514C85.8308 192.279 86.0175 192.853 86.3908 193.236C86.7735 193.609 87.3102 193.796 88.0008 193.796C88.4022 193.796 88.7755 193.745 89.1208 193.642C89.4755 193.53 89.8115 193.353 90.1288 193.11L90.6468 194.286C90.3108 194.557 89.9095 194.767 89.4428 194.916C88.9762 195.065 88.4815 195.14 87.9588 195.14ZM95.4607 195.14C94.7327 195.14 94.0934 194.991 93.5427 194.692C93.0014 194.393 92.5814 193.969 92.2827 193.418C91.9841 192.858 91.8347 192.195 91.8347 191.43C91.8347 190.665 91.9841 190.011 92.2827 189.47C92.5907 188.929 93.0154 188.513 93.5567 188.224C94.0981 187.935 94.7327 187.79 95.4607 187.79C95.9274 187.79 96.3801 187.865 96.8187 188.014C97.2667 188.154 97.6307 188.359 97.9107 188.63L97.3787 189.848C97.1267 189.615 96.8421 189.442 96.5247 189.33C96.2167 189.209 95.9134 189.148 95.6147 189.148C94.9894 189.148 94.4994 189.344 94.1447 189.736C93.7994 190.128 93.6267 190.697 93.6267 191.444C93.6267 192.191 93.7994 192.765 94.1447 193.166C94.4994 193.567 94.9894 193.768 95.6147 193.768C95.9041 193.768 96.2027 193.712 96.5107 193.6C96.8281 193.488 97.1174 193.315 97.3787 193.082L97.9107 194.286C97.6214 194.557 97.2527 194.767 96.8047 194.916C96.3661 195.065 95.9181 195.14 95.4607 195.14ZM102.319 195.14C101.479 195.14 100.844 194.921 100.415 194.482C99.9854 194.043 99.7708 193.385 99.7708 192.508V189.246H98.4128V187.93H99.7708V186.124L101.521 185.676V187.93H103.411V189.246H101.521V192.396C101.521 192.881 101.614 193.222 101.801 193.418C101.987 193.614 102.244 193.712 102.571 193.712C102.748 193.712 102.897 193.698 103.019 193.67C103.149 193.642 103.275 193.605 103.397 193.558V194.944C103.238 195.009 103.061 195.056 102.865 195.084C102.678 195.121 102.496 195.14 102.319 195.14ZM111.171 195.14C110.555 195.14 110.014 194.995 109.547 194.706C109.081 194.407 108.717 193.983 108.455 193.432C108.194 192.881 108.063 192.223 108.063 191.458C108.063 190.693 108.194 190.039 108.455 189.498C108.717 188.947 109.081 188.527 109.547 188.238C110.014 187.939 110.555 187.79 111.171 187.79C111.769 187.79 112.291 187.939 112.739 188.238C113.197 188.527 113.5 188.919 113.649 189.414H113.495L113.649 187.93H115.329C115.301 188.219 115.273 188.513 115.245 188.812C115.227 189.111 115.217 189.405 115.217 189.694V195H113.481L113.467 193.544H113.635C113.486 194.029 113.183 194.417 112.725 194.706C112.268 194.995 111.75 195.14 111.171 195.14ZM111.661 193.796C112.212 193.796 112.655 193.605 112.991 193.222C113.327 192.83 113.495 192.242 113.495 191.458C113.495 190.674 113.327 190.091 112.991 189.708C112.655 189.325 112.212 189.134 111.661 189.134C111.111 189.134 110.667 189.325 110.331 189.708C109.995 190.091 109.827 190.674 109.827 191.458C109.827 192.242 109.991 192.83 110.317 193.222C110.653 193.605 111.101 193.796 111.661 193.796ZM121.105 195V185.13H125.487C126.569 185.13 127.395 185.391 127.965 185.914C128.534 186.437 128.819 187.155 128.819 188.07C128.819 188.975 128.534 189.694 127.965 190.226C127.395 190.758 126.569 191.024 125.487 191.024H122.911V195H121.105ZM122.911 189.596H125.277C125.874 189.596 126.322 189.465 126.621 189.204C126.919 188.933 127.069 188.555 127.069 188.07C127.069 187.585 126.919 187.211 126.621 186.95C126.322 186.679 125.874 186.544 125.277 186.544H122.911V189.596ZM130.289 195V184.696H132.039V195H130.289ZM136.669 195.14C136.053 195.14 135.512 194.995 135.045 194.706C134.579 194.407 134.215 193.983 133.953 193.432C133.692 192.881 133.561 192.223 133.561 191.458C133.561 190.693 133.692 190.039 133.953 189.498C134.215 188.947 134.579 188.527 135.045 188.238C135.512 187.939 136.053 187.79 136.669 187.79C137.267 187.79 137.789 187.939 138.237 188.238C138.695 188.527 138.998 188.919 139.147 189.414H138.993L139.147 187.93H140.827C140.799 188.219 140.771 188.513 140.743 188.812C140.725 189.111 140.715 189.405 140.715 189.694V195H138.979L138.965 193.544H139.133C138.984 194.029 138.681 194.417 138.223 194.706C137.766 194.995 137.248 195.14 136.669 195.14ZM137.159 193.796C137.71 193.796 138.153 193.605 138.489 193.222C138.825 192.83 138.993 192.242 138.993 191.458C138.993 190.674 138.825 190.091 138.489 189.708C138.153 189.325 137.71 189.134 137.159 189.134C136.609 189.134 136.165 189.325 135.829 189.708C135.493 190.091 135.325 190.674 135.325 191.458C135.325 192.242 135.489 192.83 135.815 193.222C136.151 193.605 136.599 193.796 137.159 193.796ZM142.413 198.178L142.007 196.792C142.445 196.699 142.814 196.591 143.113 196.47C143.411 196.349 143.659 196.19 143.855 195.994C144.051 195.798 144.214 195.546 144.345 195.238L144.695 194.412L144.653 195.098L141.573 187.93H143.435L145.647 193.446H145.241L147.467 187.93H149.231L146.011 195.392C145.796 195.896 145.563 196.311 145.311 196.638C145.059 196.974 144.788 197.24 144.499 197.436C144.209 197.641 143.892 197.8 143.547 197.912C143.201 198.024 142.823 198.113 142.413 198.178ZM150.154 195V184.696H151.904V195H150.154ZM153.805 195V187.93H155.555V195H153.805ZM153.707 186.6V184.892H155.653V186.6H153.707ZM159.975 195.14C159.368 195.14 158.808 195.07 158.295 194.93C157.791 194.781 157.366 194.575 157.021 194.314L157.511 193.138C157.866 193.381 158.258 193.567 158.687 193.698C159.116 193.829 159.55 193.894 159.989 193.894C160.456 193.894 160.801 193.815 161.025 193.656C161.258 193.497 161.375 193.283 161.375 193.012C161.375 192.797 161.3 192.629 161.151 192.508C161.011 192.377 160.782 192.279 160.465 192.214L159.065 191.948C158.468 191.817 158.01 191.593 157.693 191.276C157.385 190.959 157.231 190.543 157.231 190.03C157.231 189.591 157.348 189.204 157.581 188.868C157.824 188.532 158.164 188.271 158.603 188.084C159.051 187.888 159.574 187.79 160.171 187.79C160.694 187.79 161.184 187.86 161.641 188C162.108 188.14 162.5 188.35 162.817 188.63L162.313 189.764C162.024 189.531 161.692 189.349 161.319 189.218C160.946 189.087 160.582 189.022 160.227 189.022C159.742 189.022 159.387 189.111 159.163 189.288C158.939 189.456 158.827 189.675 158.827 189.946C158.827 190.151 158.892 190.324 159.023 190.464C159.163 190.595 159.378 190.693 159.667 190.758L161.067 191.024C161.692 191.145 162.164 191.36 162.481 191.668C162.808 191.967 162.971 192.377 162.971 192.9C162.971 193.367 162.845 193.768 162.593 194.104C162.341 194.44 161.991 194.697 161.543 194.874C161.095 195.051 160.572 195.14 159.975 195.14ZM167.424 195.14C166.584 195.14 165.95 194.921 165.52 194.482C165.091 194.043 164.876 193.385 164.876 192.508V189.246H163.518V187.93H164.876V186.124L166.626 185.676V187.93H168.516V189.246H166.626V192.396C166.626 192.881 166.72 193.222 166.906 193.418C167.093 193.614 167.35 193.712 167.676 193.712C167.854 193.712 168.003 193.698 168.124 193.67C168.255 193.642 168.381 193.605 168.502 193.558V194.944C168.344 195.009 168.166 195.056 167.97 195.084C167.784 195.121 167.602 195.14 167.424 195.14Z" fill="#303030"/>
<defs>
<linearGradient id="paint0_linear_81_39387" x1="135.949" y1="83.1395" x2="134.116" y2="49.938" gradientUnits="userSpaceOnUse">
<stop offset="0.21875" stop-color="#969BFF"/>
<stop offset="1" stop-color="#656CEE"/>
</linearGradient>
</defs>
</svg>
