<svg width="243" height="241" viewBox="0 0 243 241" fill="none" xmlns="http://www.w3.org/2000/svg">
<rect width="243" height="241" rx="20" fill="url(#paint0_linear_81_38760)"/>
<path d="M87.9431 31.0254L88.5351 28.2254H86.2311V26.3854H88.9351L89.4311 24.0494H87.0791V22.2094H89.8311L90.4231 19.4574H92.3431L91.7511 22.2094H94.7911L95.3831 19.4574H97.3031L96.7271 22.2094H98.8071V24.0494H96.3271L95.8311 26.3854H97.9591V28.2254H95.4311L94.8391 31.0254H92.9031L93.5111 28.2254H90.4711L89.8791 31.0254H87.9431ZM90.8551 26.3854H93.8951L94.4071 24.0494H91.3671L90.8551 26.3854ZM104.381 31.2174C103.602 31.2174 102.946 31.0681 102.413 30.7694C101.879 30.4601 101.463 30.0601 101.165 29.5694C100.866 29.0787 100.69 28.5507 100.637 27.9854H102.541C102.626 28.4761 102.829 28.8547 103.149 29.1214C103.479 29.3881 103.895 29.5214 104.397 29.5214C105.111 29.5214 105.687 29.1961 106.125 28.5454C106.562 27.8841 106.797 26.8814 106.829 25.5374C106.573 25.9747 106.183 26.3374 105.661 26.6254C105.149 26.9134 104.583 27.0574 103.965 27.0574C103.346 27.0574 102.765 26.9081 102.221 26.6094C101.677 26.3107 101.234 25.8894 100.893 25.3454C100.551 24.8014 100.381 24.1614 100.381 23.4254C100.381 22.7534 100.546 22.1294 100.877 21.5534C101.207 20.9774 101.666 20.5134 102.253 20.1614C102.839 19.8094 103.527 19.6334 104.317 19.6334C105.159 19.6334 105.869 19.7881 106.445 20.0974C107.021 20.4067 107.479 20.8227 107.821 21.3454C108.173 21.8681 108.423 22.4494 108.573 23.0894C108.733 23.7294 108.813 24.3854 108.813 25.0574C108.813 26.3054 108.637 27.3934 108.285 28.3214C107.943 29.2387 107.437 29.9534 106.765 30.4654C106.103 30.9667 105.309 31.2174 104.381 31.2174ZM104.445 25.3294C104.839 25.3294 105.197 25.2441 105.517 25.0734C105.837 24.8921 106.087 24.6574 106.269 24.3694C106.45 24.0707 106.541 23.7401 106.541 23.3774C106.541 22.8014 106.338 22.3267 105.933 21.9534C105.538 21.5801 105.037 21.3934 104.429 21.3934C103.831 21.3934 103.335 21.5801 102.941 21.9534C102.546 22.3161 102.349 22.7801 102.349 23.3454C102.349 23.9427 102.546 24.4227 102.941 24.7854C103.335 25.1481 103.837 25.3294 104.445 25.3294ZM114.905 31.2174C114.063 31.2174 113.353 31.0627 112.777 30.7534C112.201 30.4441 111.737 30.0281 111.385 29.5054C111.033 28.9827 110.777 28.4014 110.617 27.7614C110.468 27.1214 110.393 26.4654 110.393 25.7934C110.393 24.5454 110.569 23.4627 110.921 22.5454C111.273 21.6174 111.78 20.9027 112.441 20.4014C113.103 19.8894 113.903 19.6334 114.841 19.6334C115.609 19.6334 116.26 19.7881 116.793 20.0974C117.337 20.3961 117.759 20.7907 118.057 21.2814C118.356 21.7721 118.532 22.3001 118.585 22.8654H116.681C116.585 22.3747 116.377 21.9961 116.057 21.7294C115.737 21.4627 115.327 21.3294 114.825 21.3294C114.111 21.3294 113.535 21.6601 113.097 22.3214C112.66 22.9721 112.425 23.9694 112.393 25.3134C112.649 24.8761 113.033 24.5134 113.545 24.2254C114.057 23.9374 114.628 23.7934 115.257 23.7934C115.876 23.7934 116.457 23.9427 117.001 24.2414C117.545 24.5401 117.983 24.9614 118.313 25.5054C118.655 26.0494 118.825 26.6894 118.825 27.4254C118.825 28.0974 118.66 28.7214 118.329 29.2974C118.009 29.8734 117.551 30.3374 116.953 30.6894C116.367 31.0414 115.684 31.2174 114.905 31.2174ZM114.793 29.4574C115.391 29.4574 115.881 29.2761 116.265 28.9134C116.66 28.5401 116.857 28.0707 116.857 27.5054C116.857 26.9081 116.66 26.4281 116.265 26.0654C115.871 25.7027 115.369 25.5214 114.761 25.5214C114.367 25.5214 114.009 25.6121 113.689 25.7934C113.38 25.9641 113.135 26.1987 112.953 26.4974C112.772 26.7854 112.681 27.1107 112.681 27.4734C112.681 28.0494 112.879 28.5241 113.273 28.8974C113.679 29.2707 114.185 29.4574 114.793 29.4574ZM124.35 31.2174C123.571 31.2174 122.915 31.0681 122.382 30.7694C121.848 30.4601 121.432 30.0601 121.134 29.5694C120.835 29.0787 120.659 28.5507 120.606 27.9854H122.51C122.595 28.4761 122.798 28.8547 123.118 29.1214C123.448 29.3881 123.864 29.5214 124.366 29.5214C125.08 29.5214 125.656 29.1961 126.094 28.5454C126.531 27.8841 126.766 26.8814 126.798 25.5374C126.542 25.9747 126.152 26.3374 125.63 26.6254C125.118 26.9134 124.552 27.0574 123.934 27.0574C123.315 27.0574 122.734 26.9081 122.19 26.6094C121.646 26.3107 121.203 25.8894 120.862 25.3454C120.52 24.8014 120.35 24.1614 120.35 23.4254C120.35 22.7534 120.515 22.1294 120.846 21.5534C121.176 20.9774 121.635 20.5134 122.222 20.1614C122.808 19.8094 123.496 19.6334 124.286 19.6334C125.128 19.6334 125.838 19.7881 126.414 20.0974C126.99 20.4067 127.448 20.8227 127.79 21.3454C128.142 21.8681 128.392 22.4494 128.542 23.0894C128.702 23.7294 128.782 24.3854 128.782 25.0574C128.782 26.3054 128.606 27.3934 128.253 28.3214C127.912 29.2387 127.406 29.9534 126.734 30.4654C126.072 30.9667 125.278 31.2174 124.35 31.2174ZM124.414 25.3294C124.808 25.3294 125.166 25.2441 125.486 25.0734C125.806 24.8921 126.056 24.6574 126.238 24.3694C126.419 24.0707 126.51 23.7401 126.51 23.3774C126.51 22.8014 126.307 22.3267 125.902 21.9534C125.507 21.5801 125.006 21.3934 124.398 21.3934C123.8 21.3934 123.304 21.5801 122.91 21.9534C122.515 22.3161 122.318 22.7801 122.318 23.3454C122.318 23.9427 122.515 24.4227 122.91 24.7854C123.304 25.1481 123.806 25.3294 124.414 25.3294ZM130.666 31.0254V19.8254H135.162C136.325 19.8254 137.21 20.0974 137.818 20.6414C138.437 21.1747 138.746 21.8627 138.746 22.7054C138.746 23.4094 138.554 23.9747 138.17 24.4014C137.797 24.8174 137.338 25.1001 136.794 25.2494C137.434 25.3774 137.962 25.6974 138.378 26.2094C138.794 26.7107 139.002 27.2974 139.002 27.9694C139.002 28.8547 138.682 29.5854 138.042 30.1614C137.402 30.7374 136.495 31.0254 135.322 31.0254H130.666ZM132.714 24.5294H134.858C135.434 24.5294 135.877 24.3961 136.186 24.1294C136.495 23.8627 136.65 23.4841 136.65 22.9934C136.65 22.5241 136.495 22.1561 136.186 21.8894C135.887 21.6121 135.434 21.4734 134.826 21.4734H132.714V24.5294ZM132.714 29.3614H135.002C135.61 29.3614 136.079 29.2227 136.41 28.9454C136.751 28.6574 136.922 28.2574 136.922 27.7454C136.922 27.2227 136.746 26.8121 136.394 26.5134C136.042 26.2147 135.567 26.0654 134.97 26.0654H132.714V29.3614ZM140.76 31.0254V19.8254H147.992V21.4734H142.808V24.6094H147V26.2254H142.808V31.0254H140.76ZM149.572 31.0254V19.8254H156.804V21.4734H151.62V24.6094H155.812V26.2254H151.62V31.0254H149.572Z" fill="white"/>
<path d="M86.7634 220.926L87.3554 218.126H85.0514V216.286H87.7554L88.2514 213.95H85.8994V212.11H88.6514L89.2434 209.358H91.1634L90.5714 212.11H93.6114L94.2034 209.358H96.1234L95.5474 212.11H97.6274V213.95H95.1474L94.6514 216.286H96.7794V218.126H94.2514L93.6594 220.926H91.7234L92.3314 218.126H89.2914L88.6994 220.926H86.7634ZM89.6754 216.286H92.7154L93.2274 213.95H90.1874L89.6754 216.286ZM103.585 221.118C102.742 221.118 102.033 220.963 101.457 220.654C100.881 220.344 100.417 219.928 100.065 219.406C99.7131 218.883 99.4571 218.302 99.2971 217.662C99.1477 217.022 99.0731 216.366 99.0731 215.694C99.0731 214.446 99.2491 213.363 99.6011 212.446C99.9531 211.518 100.46 210.803 101.121 210.302C101.782 209.79 102.582 209.534 103.521 209.534C104.289 209.534 104.94 209.688 105.473 209.998C106.017 210.296 106.438 210.691 106.737 211.182C107.036 211.672 107.212 212.2 107.265 212.766H105.361C105.265 212.275 105.057 211.896 104.737 211.63C104.417 211.363 104.006 211.23 103.505 211.23C102.79 211.23 102.214 211.56 101.777 212.222C101.34 212.872 101.105 213.87 101.073 215.214C101.329 214.776 101.713 214.414 102.225 214.126C102.737 213.838 103.308 213.694 103.937 213.694C104.556 213.694 105.137 213.843 105.681 214.142C106.225 214.44 106.662 214.862 106.993 215.406C107.334 215.95 107.505 216.59 107.505 217.326C107.505 217.998 107.34 218.622 107.009 219.198C106.689 219.774 106.23 220.238 105.633 220.59C105.046 220.942 104.364 221.118 103.585 221.118ZM103.473 219.358C104.07 219.358 104.561 219.176 104.945 218.814C105.34 218.44 105.537 217.971 105.537 217.406C105.537 216.808 105.34 216.328 104.945 215.966C104.55 215.603 104.049 215.422 103.441 215.422C103.046 215.422 102.689 215.512 102.369 215.694C102.06 215.864 101.814 216.099 101.633 216.398C101.452 216.686 101.361 217.011 101.361 217.374C101.361 217.95 101.558 218.424 101.953 218.798C102.358 219.171 102.865 219.358 103.473 219.358ZM113.221 221.118C112.4 221.118 111.691 220.974 111.093 220.686C110.507 220.398 110.043 220.003 109.701 219.502C109.371 218.99 109.179 218.414 109.125 217.774H111.125C111.221 218.232 111.456 218.616 111.829 218.926C112.203 219.224 112.667 219.374 113.221 219.374C113.819 219.374 114.304 219.155 114.677 218.718C115.061 218.28 115.253 217.736 115.253 217.086C115.253 216.414 115.061 215.88 114.677 215.486C114.304 215.091 113.829 214.894 113.253 214.894C112.773 214.894 112.357 215.011 112.005 215.246C111.653 215.48 111.403 215.774 111.253 216.126H109.285L110.245 209.726H116.453V211.518H111.781L111.269 214.11C111.504 213.854 111.824 213.646 112.229 213.486C112.635 213.315 113.088 213.23 113.589 213.23C114.389 213.23 115.056 213.411 115.589 213.774C116.123 214.126 116.528 214.595 116.805 215.182C117.083 215.758 117.221 216.387 117.221 217.07C117.221 217.848 117.051 218.542 116.709 219.15C116.379 219.758 115.909 220.238 115.301 220.59C114.704 220.942 114.011 221.118 113.221 221.118ZM123.335 221.118C122.492 221.118 121.783 220.963 121.207 220.654C120.631 220.344 120.167 219.928 119.815 219.406C119.463 218.883 119.207 218.302 119.047 217.662C118.898 217.022 118.823 216.366 118.823 215.694C118.823 214.446 118.999 213.363 119.351 212.446C119.703 211.518 120.21 210.803 120.871 210.302C121.532 209.79 122.332 209.534 123.271 209.534C124.039 209.534 124.69 209.688 125.223 209.998C125.767 210.296 126.188 210.691 126.487 211.182C126.786 211.672 126.962 212.2 127.015 212.766H125.111C125.015 212.275 124.807 211.896 124.487 211.63C124.167 211.363 123.756 211.23 123.255 211.23C122.54 211.23 121.964 211.56 121.527 212.222C121.09 212.872 120.855 213.87 120.823 215.214C121.079 214.776 121.463 214.414 121.975 214.126C122.487 213.838 123.058 213.694 123.687 213.694C124.306 213.694 124.887 213.843 125.431 214.142C125.975 214.44 126.412 214.862 126.743 215.406C127.084 215.95 127.255 216.59 127.255 217.326C127.255 217.998 127.09 218.622 126.759 219.198C126.439 219.774 125.98 220.238 125.383 220.59C124.796 220.942 124.114 221.118 123.335 221.118ZM123.223 219.358C123.82 219.358 124.311 219.176 124.695 218.814C125.09 218.44 125.287 217.971 125.287 217.406C125.287 216.808 125.09 216.328 124.695 215.966C124.3 215.603 123.799 215.422 123.191 215.422C122.796 215.422 122.439 215.512 122.119 215.694C121.81 215.864 121.564 216.099 121.383 216.398C121.202 216.686 121.111 217.011 121.111 217.374C121.111 217.95 121.308 218.424 121.703 218.798C122.108 219.171 122.615 219.358 123.223 219.358ZM134.34 221.118C133.209 221.118 132.238 220.878 131.428 220.398C130.617 219.907 129.993 219.23 129.556 218.366C129.118 217.491 128.9 216.483 128.9 215.342C128.9 214.2 129.118 213.192 129.556 212.318C129.993 211.443 130.617 210.76 131.428 210.27C132.238 209.779 133.209 209.534 134.34 209.534C135.684 209.534 136.782 209.87 137.636 210.542C138.5 211.203 139.038 212.136 139.252 213.342H136.996C136.857 212.734 136.558 212.259 136.1 211.918C135.652 211.566 135.054 211.39 134.308 211.39C133.273 211.39 132.462 211.742 131.876 212.446C131.289 213.15 130.996 214.115 130.996 215.342C130.996 216.568 131.289 217.534 131.876 218.238C132.462 218.931 133.273 219.278 134.308 219.278C135.054 219.278 135.652 219.118 136.1 218.798C136.558 218.467 136.857 218.014 136.996 217.438H139.252C139.038 218.59 138.5 219.491 137.636 220.142C136.782 220.792 135.684 221.118 134.34 221.118ZM141.065 220.926V209.726H148.377V211.374H143.113V214.446H147.897V216.046H143.113V219.278H148.377V220.926H141.065ZM150.315 220.926V209.726H157.627V211.374H152.363V214.446H157.147V216.046H152.363V219.278H157.627V220.926H150.315Z" fill="white"/>
<defs>
<linearGradient id="paint0_linear_81_38760" x1="142.395" y1="400.733" x2="143.592" y2="71.4714" gradientUnits="userSpaceOnUse">
<stop offset="0.21875" stop-color="#969BFF"/>
<stop offset="1" stop-color="#656CEE"/>
<stop offset="1" stop-color="#656CEE"/>
</linearGradient>
</defs>
</svg>
