<svg width="93" height="33" viewBox="0 0 93 33" fill="none" xmlns="http://www.w3.org/2000/svg">
<g clip-path="url(#clip0_12_4142)">
<path d="M6.63818 20.8827L18.8213 0L24.2001 8.84733L33.1807 9.40712C33.1807 9.40712 25.3915 10.5881 20.8117 12.247L18.7938 9.20914L15.8737 14.5271C15.8737 14.5339 8.67674 18.664 6.63818 20.8827Z" fill="#D2D6DC"/>
<path d="M7.87788 21.4767C7.87788 21.4767 5.44676 24.0435 3.02942 23.04C3.86963 24.0435 3.16716 29.1362 0.412354 32.1263L0.963315 32.6042L5.23326 27.7026L5.38478 27.8528L1.10794 32.7339L1.34899 32.9728C1.34899 32.9728 5.85309 28.713 10.2057 29.225C7.25804 22.3096 29.634 10.3356 45.1366 11.3733C45.1366 11.3733 23.2841 6.74483 7.87788 21.4767ZM5.37789 26.5011C5.35723 25.3065 7.25116 25.3065 7.23738 26.5011C7.25116 27.6958 5.35723 27.6958 5.37789 26.5011Z" fill="#D2D6DC"/>
<path d="M27.9466 15.4077C27.9466 15.4077 19.3034 18.5889 18.6216 20.002C18.6216 20.002 23.4907 18.6162 24.1725 18.6504L32.2579 32.3856L37.9259 32.3924L27.9466 15.4077Z" fill="#D2D6DC"/>
<path d="M72.0442 32.3923H68.6351V30.474C68.0291 31.3273 67.3197 31.9622 66.5071 32.3786C65.6944 32.7951 64.7647 32.9999 63.7178 32.9999C61.6104 32.9999 59.9506 32.2831 58.7454 30.8563C57.5333 29.4295 56.9272 27.4703 56.9272 24.9922C56.9272 22.637 57.5471 20.7324 58.7799 19.2851C60.0126 17.8379 61.6311 17.1143 63.6214 17.1143C64.8335 17.1143 65.8803 17.3668 66.7412 17.872C67.609 18.3772 68.2357 19.1008 68.6351 20.0429V17.6263H72.0442V32.3923ZM68.7247 24.9581C68.7247 23.4289 68.3666 22.2411 67.6503 21.3877C66.9341 20.5344 65.9286 20.1112 64.6407 20.1112C63.3528 20.1112 62.3404 20.5481 61.5966 21.4287C60.8597 22.3093 60.4878 23.5245 60.4878 25.081C60.4878 26.6511 60.8459 27.8594 61.5553 28.7127C62.2647 29.5661 63.2771 29.9893 64.5718 29.9893C65.7977 29.9893 66.7963 29.5251 67.5677 28.6035C68.339 27.6819 68.7247 26.4668 68.7247 24.9581Z" fill="white"/>
<path d="M74.6819 32.3923L86.4105 12.7316H76.6516V9.58447H92.168L80.5496 29.0745H92.3057V32.3923H74.6819Z" fill="white"/>
<path d="M52.5608 19.2853C51.3281 17.838 49.7234 17.1144 47.7468 17.1144C46.5278 17.1144 45.4879 17.367 44.6132 17.879C43.7386 18.391 43.105 19.1078 42.7055 20.043V11.7486C42.3267 11.7418 41.7069 11.7555 40.6945 11.8237C40.0678 11.8647 39.6201 11.933 39.2896 12.0081V32.3924H42.6986V30.4741C43.3047 31.3275 44.014 31.9623 44.8267 32.3788C45.6394 32.7952 46.5691 33 47.616 33C49.7234 33 51.3832 32.2832 52.5884 30.8564C53.8005 29.4297 54.4066 27.4704 54.4066 24.9923C54.4066 22.6371 53.7936 20.7325 52.5608 19.2853ZM49.7785 28.7197C49.0691 29.573 48.0705 29.9963 46.7826 29.9963C45.543 29.9963 44.5375 29.5321 43.7592 28.6105C42.981 27.6889 42.5884 26.4737 42.5884 24.965C42.5884 23.4359 42.9534 22.248 43.6766 21.3947C44.3997 20.5414 45.4052 20.1181 46.6931 20.1181C47.981 20.1181 48.9934 20.555 49.7372 21.4357C50.4741 22.3163 50.846 23.5314 50.846 25.0879C50.8391 26.6512 50.4878 27.8664 49.7785 28.7197Z" fill="white"/>
<path d="M42.6986 8.24658H39.2896V10.3082C40.3019 10.3628 41.9479 10.513 42.6986 10.5813V8.24658Z" fill="white"/>
<path d="M38.4704 12.5609L38.4633 12.4448C38.4419 12.5131 38.4704 12.5609 38.4704 12.5609Z" fill="black"/>
</g>
<defs>
<clipPath id="clip0_12_4142">
<rect width="91.8934" height="33" fill="white" transform="translate(0.412354)"/>
</clipPath>
</defs>
</svg>
