<svg width="201" height="202" viewBox="0 0 201 202" fill="none" xmlns="http://www.w3.org/2000/svg">
<rect x="0.09375" y="0.758789" width="200.4" height="200.4" rx="20" fill="#999999"/>
<path d="M65.5291 166.759L66.1211 163.959H63.8171V162.119H66.5211L67.0171 159.783H64.6651V157.943H67.4171L68.0091 155.191H69.9291L69.3371 157.943H72.3771L72.9691 155.191H74.8891L74.3131 157.943H76.3931V159.783H73.9131L73.4171 162.119H75.5451V163.959H73.0171L72.4251 166.759H70.4891L71.0971 163.959H68.0571L67.4651 166.759H65.5291ZM68.4411 162.119H71.4811L71.9931 159.783H68.9531L68.4411 162.119ZM81.9667 166.951C81.188 166.951 80.532 166.801 79.9987 166.503C79.4654 166.193 79.0494 165.793 78.7507 165.303C78.452 164.812 78.276 164.284 78.2227 163.719H80.1267C80.212 164.209 80.4147 164.588 80.7347 164.855C81.0654 165.121 81.4814 165.255 81.9827 165.255C82.6974 165.255 83.2734 164.929 83.7107 164.279C84.148 163.617 84.3827 162.615 84.4147 161.271C84.1587 161.708 83.7694 162.071 83.2467 162.359C82.7347 162.647 82.1694 162.791 81.5507 162.791C80.932 162.791 80.3507 162.641 79.8067 162.343C79.2627 162.044 78.82 161.623 78.4787 161.079C78.1374 160.535 77.9667 159.895 77.9667 159.159C77.9667 158.487 78.132 157.863 78.4627 157.287C78.7934 156.711 79.252 156.247 79.8387 155.895C80.4254 155.543 81.1134 155.367 81.9027 155.367C82.7454 155.367 83.4547 155.521 84.0307 155.831C84.6067 156.14 85.0654 156.556 85.4067 157.079C85.7587 157.601 86.0094 158.183 86.1587 158.823C86.3187 159.463 86.3987 160.119 86.3987 160.791C86.3987 162.039 86.2227 163.127 85.8707 164.055C85.5294 164.972 85.0227 165.687 84.3507 166.199C83.6894 166.7 82.8947 166.951 81.9667 166.951ZM82.0307 161.063C82.4254 161.063 82.7827 160.977 83.1027 160.807C83.4227 160.625 83.6734 160.391 83.8547 160.103C84.036 159.804 84.1267 159.473 84.1267 159.111C84.1267 158.535 83.924 158.06 83.5187 157.687C83.124 157.313 82.6227 157.127 82.0147 157.127C81.4174 157.127 80.9214 157.313 80.5267 157.687C80.132 158.049 79.9347 158.513 79.9347 159.079C79.9347 159.676 80.132 160.156 80.5267 160.519C80.9214 160.881 81.4227 161.063 82.0307 161.063ZM92.1073 166.951C91.3286 166.951 90.6726 166.801 90.1393 166.503C89.606 166.193 89.19 165.793 88.8913 165.303C88.5926 164.812 88.4166 164.284 88.3633 163.719H90.2673C90.3526 164.209 90.5553 164.588 90.8753 164.855C91.206 165.121 91.622 165.255 92.1233 165.255C92.838 165.255 93.414 164.929 93.8513 164.279C94.2886 163.617 94.5233 162.615 94.5553 161.271C94.2993 161.708 93.91 162.071 93.3873 162.359C92.8753 162.647 92.31 162.791 91.6913 162.791C91.0726 162.791 90.4913 162.641 89.9473 162.343C89.4033 162.044 88.9606 161.623 88.6193 161.079C88.278 160.535 88.1073 159.895 88.1073 159.159C88.1073 158.487 88.2726 157.863 88.6033 157.287C88.934 156.711 89.3926 156.247 89.9793 155.895C90.566 155.543 91.254 155.367 92.0433 155.367C92.886 155.367 93.5953 155.521 94.1713 155.831C94.7473 156.14 95.206 156.556 95.5473 157.079C95.8993 157.601 96.15 158.183 96.2993 158.823C96.4593 159.463 96.5393 160.119 96.5393 160.791C96.5393 162.039 96.3633 163.127 96.0113 164.055C95.67 164.972 95.1633 165.687 94.4913 166.199C93.83 166.7 93.0353 166.951 92.1073 166.951ZM92.1713 161.063C92.566 161.063 92.9233 160.977 93.2433 160.807C93.5633 160.625 93.814 160.391 93.9953 160.103C94.1766 159.804 94.2673 159.473 94.2673 159.111C94.2673 158.535 94.0646 158.06 93.6593 157.687C93.2646 157.313 92.7633 157.127 92.1553 157.127C91.558 157.127 91.062 157.313 90.6673 157.687C90.2726 158.049 90.0753 158.513 90.0753 159.079C90.0753 159.676 90.2726 160.156 90.6673 160.519C91.062 160.881 91.5633 161.063 92.1713 161.063ZM102.248 166.951C101.469 166.951 100.813 166.801 100.28 166.503C99.7466 166.193 99.3306 165.793 99.0319 165.303C98.7333 164.812 98.5573 164.284 98.5039 163.719H100.408C100.493 164.209 100.696 164.588 101.016 164.855C101.347 165.121 101.763 165.255 102.264 165.255C102.979 165.255 103.555 164.929 103.992 164.279C104.429 163.617 104.664 162.615 104.696 161.271C104.44 161.708 104.051 162.071 103.528 162.359C103.016 162.647 102.451 162.791 101.832 162.791C101.213 162.791 100.632 162.641 100.088 162.343C99.5439 162.044 99.1013 161.623 98.7599 161.079C98.4186 160.535 98.2479 159.895 98.2479 159.159C98.2479 158.487 98.4133 157.863 98.7439 157.287C99.0746 156.711 99.5333 156.247 100.12 155.895C100.707 155.543 101.395 155.367 102.184 155.367C103.027 155.367 103.736 155.521 104.312 155.831C104.888 156.14 105.347 156.556 105.688 157.079C106.04 157.601 106.291 158.183 106.44 158.823C106.6 159.463 106.68 160.119 106.68 160.791C106.68 162.039 106.504 163.127 106.152 164.055C105.811 164.972 105.304 165.687 104.632 166.199C103.971 166.7 103.176 166.951 102.248 166.951ZM102.312 161.063C102.707 161.063 103.064 160.977 103.384 160.807C103.704 160.625 103.955 160.391 104.136 160.103C104.317 159.804 104.408 159.473 104.408 159.111C104.408 158.535 104.205 158.06 103.8 157.687C103.405 157.313 102.904 157.127 102.296 157.127C101.699 157.127 101.203 157.313 100.808 157.687C100.413 158.049 100.216 158.513 100.216 159.079C100.216 159.676 100.413 160.156 100.808 160.519C101.203 160.881 101.704 161.063 102.312 161.063ZM112.389 166.951C111.61 166.951 110.954 166.801 110.421 166.503C109.887 166.193 109.471 165.793 109.173 165.303C108.874 164.812 108.698 164.284 108.645 163.719H110.549C110.634 164.209 110.837 164.588 111.157 164.855C111.487 165.121 111.903 165.255 112.405 165.255C113.119 165.255 113.695 164.929 114.133 164.279C114.57 163.617 114.805 162.615 114.837 161.271C114.581 161.708 114.191 162.071 113.669 162.359C113.157 162.647 112.591 162.791 111.973 162.791C111.354 162.791 110.773 162.641 110.229 162.343C109.685 162.044 109.242 161.623 108.901 161.079C108.559 160.535 108.389 159.895 108.389 159.159C108.389 158.487 108.554 157.863 108.885 157.287C109.215 156.711 109.674 156.247 110.261 155.895C110.847 155.543 111.535 155.367 112.325 155.367C113.167 155.367 113.877 155.521 114.453 155.831C115.029 156.14 115.487 156.556 115.829 157.079C116.181 157.601 116.431 158.183 116.581 158.823C116.741 159.463 116.821 160.119 116.821 160.791C116.821 162.039 116.645 163.127 116.293 164.055C115.951 164.972 115.445 165.687 114.773 166.199C114.111 166.7 113.317 166.951 112.389 166.951ZM112.453 161.063C112.847 161.063 113.205 160.977 113.525 160.807C113.845 160.625 114.095 160.391 114.277 160.103C114.458 159.804 114.549 159.473 114.549 159.111C114.549 158.535 114.346 158.06 113.941 157.687C113.546 157.313 113.045 157.127 112.437 157.127C111.839 157.127 111.343 157.313 110.949 157.687C110.554 158.049 110.357 158.513 110.357 159.079C110.357 159.676 110.554 160.156 110.949 160.519C111.343 160.881 111.845 161.063 112.453 161.063ZM122.529 166.951C121.751 166.951 121.095 166.801 120.561 166.503C120.028 166.193 119.612 165.793 119.313 165.303C119.015 164.812 118.839 164.284 118.785 163.719H120.689C120.775 164.209 120.977 164.588 121.297 164.855C121.628 165.121 122.044 165.255 122.545 165.255C123.26 165.255 123.836 164.929 124.273 164.279C124.711 163.617 124.945 162.615 124.977 161.271C124.721 161.708 124.332 162.071 123.809 162.359C123.297 162.647 122.732 162.791 122.113 162.791C121.495 162.791 120.913 162.641 120.369 162.343C119.825 162.044 119.383 161.623 119.041 161.079C118.7 160.535 118.529 159.895 118.529 159.159C118.529 158.487 118.695 157.863 119.025 157.287C119.356 156.711 119.815 156.247 120.401 155.895C120.988 155.543 121.676 155.367 122.465 155.367C123.308 155.367 124.017 155.521 124.593 155.831C125.169 156.14 125.628 156.556 125.969 157.079C126.321 157.601 126.572 158.183 126.721 158.823C126.881 159.463 126.961 160.119 126.961 160.791C126.961 162.039 126.785 163.127 126.433 164.055C126.092 164.972 125.585 165.687 124.913 166.199C124.252 166.7 123.457 166.951 122.529 166.951ZM122.593 161.063C122.988 161.063 123.345 160.977 123.665 160.807C123.985 160.625 124.236 160.391 124.417 160.103C124.599 159.804 124.689 159.473 124.689 159.111C124.689 158.535 124.487 158.06 124.081 157.687C123.687 157.313 123.185 157.127 122.577 157.127C121.98 157.127 121.484 157.313 121.089 157.687C120.695 158.049 120.497 158.513 120.497 159.079C120.497 159.676 120.695 160.156 121.089 160.519C121.484 160.881 121.985 161.063 122.593 161.063ZM132.67 166.951C131.891 166.951 131.235 166.801 130.702 166.503C130.168 166.193 129.752 165.793 129.454 165.303C129.155 164.812 128.979 164.284 128.926 163.719H130.83C130.915 164.209 131.118 164.588 131.438 164.855C131.768 165.121 132.184 165.255 132.686 165.255C133.4 165.255 133.976 164.929 134.414 164.279C134.851 163.617 135.086 162.615 135.118 161.271C134.862 161.708 134.472 162.071 133.95 162.359C133.438 162.647 132.872 162.791 132.254 162.791C131.635 162.791 131.054 162.641 130.51 162.343C129.966 162.044 129.523 161.623 129.182 161.079C128.84 160.535 128.67 159.895 128.67 159.159C128.67 158.487 128.835 157.863 129.166 157.287C129.496 156.711 129.955 156.247 130.542 155.895C131.128 155.543 131.816 155.367 132.606 155.367C133.448 155.367 134.158 155.521 134.734 155.831C135.31 156.14 135.768 156.556 136.11 157.079C136.462 157.601 136.712 158.183 136.862 158.823C137.022 159.463 137.102 160.119 137.102 160.791C137.102 162.039 136.926 163.127 136.574 164.055C136.232 164.972 135.726 165.687 135.054 166.199C134.392 166.7 133.598 166.951 132.67 166.951ZM132.734 161.063C133.128 161.063 133.486 160.977 133.806 160.807C134.126 160.625 134.376 160.391 134.558 160.103C134.739 159.804 134.83 159.473 134.83 159.111C134.83 158.535 134.627 158.06 134.222 157.687C133.827 157.313 133.326 157.127 132.718 157.127C132.12 157.127 131.624 157.313 131.23 157.687C130.835 158.049 130.638 158.513 130.638 159.079C130.638 159.676 130.835 160.156 131.23 160.519C131.624 160.881 132.126 161.063 132.734 161.063Z" fill="white"/>
</svg>
