<svg width="234" height="527" viewBox="0 0 234 527" fill="none" xmlns="http://www.w3.org/2000/svg">
<g style="mix-blend-mode:luminosity">
<g clip-path="url(#clip0_81_39460)">
<rect width="233.034" height="499.815" transform="translate(0.644531 27.084)" fill="white"/>
<path d="M27.5766 394.712L30.6542 397.79M30.6542 397.79L27.5766 400.867M30.6542 397.79H19.8824C19.0661 397.79 18.2833 398.114 17.7061 398.691C17.1289 399.268 16.8047 400.051 16.8047 400.867V402.406M19.8824 411.639L16.8047 408.561M16.8047 408.561L19.8824 405.484M16.8047 408.561H27.5766C28.3928 408.561 29.1756 408.237 29.7528 407.66C30.33 407.083 30.6542 406.3 30.6542 405.484V403.945" stroke="#999999" stroke-width="0.615536" stroke-linecap="round" stroke-linejoin="round"/>
<path d="M210.698 396.251H214.545M214.545 396.251V400.099M214.545 396.251L201.465 409.332M214.545 406.254V410.101M214.545 410.101H210.698M214.545 410.101L209.928 405.485M201.465 397.021L205.312 400.868" stroke="#999999" stroke-width="0.615536" stroke-linecap="round" stroke-linejoin="round"/>
<path d="M113.858 394.382H109.461V411.969H113.858V394.382Z" stroke="#999999" stroke-width="0.615536" stroke-linecap="round" stroke-linejoin="round"/>
<path d="M122.651 394.382H118.254V411.969H122.651V394.382Z" stroke="#999999" stroke-width="0.615536" stroke-linecap="round" stroke-linejoin="round"/>
<path d="M163.763 395.481V410.869M148.375 394.382L159.367 403.175L148.375 411.969V394.382Z" stroke="#999999" stroke-width="0.615536" stroke-linecap="round" stroke-linejoin="round"/>
<path d="M68.3555 410.869V395.481M83.7439 411.969L72.7522 403.175L83.7439 394.382V411.969Z" stroke="#999999" stroke-width="0.615536" stroke-linecap="round" stroke-linejoin="round"/>
<path d="M31.732 464.575L27.1155 469.192M27.1155 464.575L31.732 469.192M22.499 461.498L18.6519 464.575H15.5742V469.192H18.6519L22.499 472.269V461.498Z" stroke="#999999" stroke-width="0.615536" stroke-linecap="round" stroke-linejoin="round"/>
<path d="M214.138 461.498C215.58 462.94 216.391 464.897 216.391 466.937C216.391 468.978 215.58 470.934 214.138 472.377M211.422 464.214C212.143 464.935 212.548 465.913 212.548 466.934C212.548 467.954 212.143 468.932 211.422 469.653M207.929 461.551L204.082 464.629H201.004V469.246H204.082L207.929 472.323V461.551Z" stroke="#999999" stroke-width="0.615536" stroke-linecap="round" stroke-linejoin="round"/>
<rect opacity="0.5" x="19.6797" y="448.488" width="198.309" height="1.84661" fill="#6979F8"/>
<rect x="12.75" y="448.488" width="138.841" height="1.84661" fill="#6979F8"/>
<path fill-rule="evenodd" clip-rule="evenodd" d="M151.144 455.567C154.543 455.567 157.299 452.811 157.299 449.411C157.299 446.012 154.543 443.256 151.144 443.256C147.744 443.256 144.988 446.012 144.988 449.411C144.988 452.811 147.744 455.567 151.144 455.567Z" fill="white"/>
<path d="M151.143 454.199C153.787 454.199 155.93 452.056 155.93 449.412C155.93 446.767 153.787 444.624 151.143 444.624C148.499 444.624 146.355 446.767 146.355 449.412C146.355 452.056 148.499 454.199 151.143 454.199Z" fill="url(#paint0_linear_81_39460)"/>
<path d="M82.1256 367.433L85.1491 360.49H85.7006L88.7734 367.433H88.1332L87.2666 365.434L87.5522 365.582H83.2779L83.6127 365.434L82.7658 367.433H82.1256ZM85.415 361.229L83.7309 365.178L83.5044 365.06H87.3256L87.1582 365.178L85.4347 361.229H85.415ZM90.2584 367.433V360.49H92.9963C93.712 360.49 94.2668 360.657 94.6608 360.992C95.0547 361.327 95.2517 361.8 95.2517 362.41C95.2517 362.804 95.163 363.142 94.9858 363.425C94.8085 363.7 94.5623 363.914 94.2471 364.065C93.932 364.209 93.5676 364.282 93.1539 364.282L93.3411 364.173H93.4789C93.7481 364.173 93.9878 364.239 94.1979 364.37C94.408 364.495 94.5754 364.712 94.7002 365.02L95.6653 367.433H94.9956L94.0895 365.129C93.9648 364.794 93.7842 364.58 93.5479 364.488C93.3115 364.39 93.0095 364.341 92.6418 364.341H90.8691V367.433H90.2584ZM90.8691 363.829H92.9176C93.4756 363.829 93.8991 363.707 94.188 363.464C94.4835 363.221 94.6312 362.873 94.6312 362.42C94.6312 361.961 94.4835 361.613 94.188 361.376C93.8991 361.133 93.4756 361.012 92.9176 361.012H90.8691V363.829ZM98.8582 367.433V361.022H96.3369V360.49H101.98V361.022H99.4688V367.433H98.8582ZM103.339 367.433V360.49H103.949V367.433H103.339ZM108.276 367.512C107.718 367.512 107.225 367.44 106.799 367.295C106.372 367.151 105.991 366.941 105.656 366.665L105.912 366.163C106.149 366.346 106.378 366.497 106.602 366.616C106.831 366.734 107.081 366.822 107.35 366.882C107.619 366.934 107.925 366.96 108.266 366.96C108.877 366.96 109.336 366.842 109.645 366.606C109.953 366.363 110.108 366.044 110.108 365.651C110.108 365.309 109.999 365.05 109.783 364.872C109.573 364.689 109.202 364.544 108.67 364.439L107.665 364.232C107.028 364.101 106.552 363.891 106.237 363.602C105.929 363.313 105.774 362.919 105.774 362.42C105.774 362.013 105.879 361.659 106.089 361.357C106.3 361.055 106.592 360.821 106.966 360.657C107.34 360.493 107.774 360.411 108.266 360.411C108.758 360.411 109.205 360.487 109.605 360.638C110.013 360.782 110.36 360.999 110.649 361.288L110.403 361.78C110.095 361.491 109.77 361.284 109.428 361.16C109.087 361.028 108.699 360.963 108.266 360.963C107.695 360.963 107.242 361.094 106.907 361.357C106.572 361.613 106.405 361.961 106.405 362.4C106.405 362.755 106.51 363.031 106.72 363.228C106.936 363.425 107.284 363.572 107.764 363.671L108.778 363.878C109.454 364.016 109.95 364.219 110.265 364.488C110.58 364.751 110.738 365.129 110.738 365.621C110.738 365.995 110.636 366.327 110.433 366.616C110.236 366.898 109.953 367.118 109.586 367.276C109.218 367.433 108.781 367.512 108.276 367.512ZM113.987 367.433V361.022H111.466V360.49H117.109V361.022H114.597V367.433H113.987ZM121.285 367.433V360.49H121.778L126.426 366.714H126.21V360.49H126.771V367.433H126.288L121.64 361.209H121.847V367.433H121.285ZM128.252 367.433L131.276 360.49H131.827L134.9 367.433H134.26L133.393 365.434L133.679 365.582H129.405L129.739 365.434L128.892 367.433H128.252ZM131.542 361.229L129.858 365.178L129.631 365.06H133.452L133.285 365.178L131.561 361.229H131.542ZM136.385 367.433V360.49H136.917L139.812 367.029H139.527L142.432 360.49H142.954V367.433H142.393V361.209H142.659L139.891 367.433H139.448L136.681 361.209H136.947V367.433H136.385ZM145.089 367.433V360.49H149.403V361.012H145.68V363.651H149.186V364.173H145.68V366.911H149.403V367.433H145.089Z" fill="#151522"/>
<path d="M66.7005 350.287C65.5145 350.287 64.4681 350.133 63.5612 349.826C62.6543 349.519 61.8451 349.073 61.1335 348.487L61.6777 347.419C62.18 347.81 62.6683 348.131 63.1427 348.382C63.631 348.633 64.1612 348.822 64.7332 348.947C65.3052 349.059 65.954 349.115 66.6795 349.115C67.9771 349.115 68.9537 348.863 69.6095 348.361C70.2652 347.845 70.5931 347.168 70.5931 346.331C70.5931 345.606 70.3629 345.055 69.9025 344.678C69.456 344.287 68.6677 343.98 67.5376 343.757L65.4029 343.317C64.0495 343.038 63.038 342.592 62.3683 341.978C61.7126 341.364 61.3847 340.527 61.3847 339.467C61.3847 338.602 61.6079 337.848 62.0544 337.206C62.5009 336.565 63.1217 336.069 63.917 335.721C64.7123 335.372 65.6331 335.197 66.6795 335.197C67.7259 335.197 68.6747 335.358 69.5258 335.679C70.3908 335.986 71.1303 336.446 71.7442 337.06L71.2209 338.106C70.5652 337.492 69.8746 337.053 69.1491 336.788C68.4235 336.509 67.6004 336.369 66.6795 336.369C65.4657 336.369 64.503 336.648 63.7914 337.206C63.0799 337.751 62.7241 338.49 62.7241 339.425C62.7241 340.178 62.9473 340.764 63.3938 341.183C63.8542 341.601 64.5937 341.915 65.6122 342.125L67.7678 342.564C69.2049 342.857 70.2583 343.29 70.928 343.862C71.5977 344.42 71.9325 345.222 71.9325 346.268C71.9325 347.064 71.7162 347.768 71.2837 348.382C70.8652 348.982 70.2652 349.449 69.4839 349.784C68.7026 350.119 67.7748 350.287 66.7005 350.287ZM78.8028 350.287C77.8122 350.287 76.9542 350.07 76.2287 349.638C75.5171 349.205 74.966 348.584 74.5753 347.775C74.1847 346.966 73.9894 345.996 73.9894 344.866C73.9894 343.75 74.1847 342.787 74.5753 341.978C74.966 341.169 75.5171 340.548 76.2287 340.115C76.9542 339.669 77.8122 339.446 78.8028 339.446C79.7795 339.446 80.6236 339.669 81.3352 340.115C82.0607 340.548 82.6188 341.169 83.0094 341.978C83.414 342.787 83.6163 343.75 83.6163 344.866C83.6163 345.996 83.414 346.966 83.0094 347.775C82.6188 348.584 82.0607 349.205 81.3352 349.638C80.6236 350.07 79.7795 350.287 78.8028 350.287ZM78.8028 349.198C79.8632 349.198 80.7143 348.829 81.3561 348.089C81.9979 347.35 82.3188 346.275 82.3188 344.866C82.3188 343.457 81.9979 342.383 81.3561 341.643C80.7143 340.904 79.8632 340.534 78.8028 340.534C77.7285 340.534 76.8705 340.904 76.2287 341.643C75.6008 342.383 75.2869 343.457 75.2869 344.866C75.2869 346.275 75.6008 347.35 76.2287 348.089C76.8705 348.829 77.7285 349.198 78.8028 349.198ZM86.4107 350.119V341.978C86.4107 341.601 86.3968 341.218 86.3689 340.827C86.341 340.436 86.2991 340.039 86.2433 339.634H87.499L87.6874 342.041H87.4362C87.7432 341.204 88.2385 340.562 88.9221 340.115C89.6058 339.669 90.4011 339.446 91.308 339.446C92.5497 339.446 93.4845 339.774 94.1123 340.429C94.7541 341.085 95.075 342.111 95.075 343.506V350.119H93.7984V343.61C93.7984 342.536 93.5822 341.762 93.1496 341.287C92.7171 340.799 92.0474 340.555 91.1405 340.555C90.0802 340.555 89.2361 340.876 88.6082 341.518C87.9943 342.159 87.6874 343.024 87.6874 344.113V350.119H86.4107ZM103.03 354.786C102.151 354.786 101.328 354.668 100.561 354.43C99.8074 354.193 99.1307 353.837 98.5308 353.363L98.9912 352.379C99.4377 352.7 99.8632 352.951 100.268 353.133C100.686 353.328 101.119 353.468 101.565 353.551C102.012 353.649 102.493 353.698 103.009 353.698C104.07 353.698 104.872 353.412 105.416 352.84C105.96 352.282 106.232 351.472 106.232 350.412V347.085H106.463C106.239 347.964 105.772 348.654 105.06 349.156C104.349 349.645 103.512 349.889 102.549 349.889C101.586 349.889 100.749 349.68 100.038 349.261C99.34 348.829 98.7959 348.222 98.4052 347.44C98.0285 346.645 97.8402 345.717 97.8402 344.657C97.8402 343.597 98.0285 342.676 98.4052 341.894C98.7959 341.113 99.34 340.513 100.038 340.095C100.749 339.662 101.586 339.446 102.549 339.446C103.512 339.446 104.349 339.697 105.06 340.199C105.772 340.687 106.239 341.378 106.463 342.271L106.232 342.041L106.421 339.634H107.676C107.621 340.039 107.579 340.436 107.551 340.827C107.523 341.218 107.509 341.601 107.509 341.978V350.224C107.509 351.731 107.125 352.868 106.358 353.635C105.605 354.402 104.495 354.786 103.03 354.786ZM102.696 348.801C103.784 348.801 104.642 348.438 105.27 347.712C105.911 346.987 106.232 345.968 106.232 344.657C106.232 343.359 105.911 342.348 105.27 341.622C104.642 340.897 103.784 340.534 102.696 340.534C101.607 340.534 100.742 340.897 100.1 341.622C99.4586 342.348 99.1377 343.359 99.1377 344.657C99.1377 345.968 99.4586 346.987 100.1 347.712C100.742 348.438 101.607 348.801 102.696 348.801ZM116.5 350.119V335.365H117.546L127.424 348.591H126.964V335.365H128.157V350.119H127.132L117.253 336.893H117.693V350.119H116.5ZM135.82 350.287C134.871 350.287 134.048 350.07 133.351 349.638C132.653 349.205 132.116 348.584 131.739 347.775C131.362 346.966 131.174 345.996 131.174 344.866C131.174 343.736 131.362 342.773 131.739 341.978C132.13 341.169 132.674 340.548 133.372 340.115C134.069 339.669 134.885 339.446 135.82 339.446C136.783 339.446 137.613 339.697 138.311 340.199C139.022 340.701 139.49 341.385 139.713 342.25H139.462L139.671 339.634H140.906C140.864 340.039 140.822 340.436 140.78 340.827C140.752 341.218 140.738 341.601 140.738 341.978V350.119H139.462V347.503H139.692C139.469 348.368 139.001 349.052 138.29 349.554C137.592 350.042 136.769 350.287 135.82 350.287ZM135.988 349.198C137.062 349.198 137.913 348.829 138.541 348.089C139.169 347.35 139.483 346.275 139.483 344.866C139.483 343.457 139.169 342.383 138.541 341.643C137.913 340.904 137.062 340.534 135.988 340.534C134.913 340.534 134.055 340.904 133.413 341.643C132.786 342.383 132.472 343.457 132.472 344.866C132.472 346.275 132.786 347.35 133.413 348.089C134.055 348.829 134.913 349.198 135.988 349.198ZM144.209 350.119V341.978C144.209 341.601 144.195 341.218 144.167 340.827C144.139 340.436 144.097 340.039 144.041 339.634H145.297L145.485 342.041H145.234C145.499 341.218 145.939 340.583 146.553 340.136C147.166 339.676 147.913 339.446 148.792 339.446C149.685 339.446 150.41 339.662 150.968 340.095C151.527 340.527 151.896 341.197 152.078 342.104H151.764C152.015 341.294 152.475 340.653 153.145 340.178C153.815 339.69 154.603 339.446 155.51 339.446C156.654 339.446 157.519 339.774 158.105 340.429C158.691 341.085 158.984 342.111 158.984 343.506V350.119H157.707V343.59C157.707 342.529 157.519 341.762 157.142 341.287C156.766 340.799 156.152 340.555 155.301 340.555C154.352 340.555 153.598 340.876 153.04 341.518C152.496 342.159 152.224 343.024 152.224 344.113V350.119H150.947V343.59C150.947 342.529 150.759 341.762 150.382 341.287C150.006 340.799 149.399 340.555 148.562 340.555C147.613 340.555 146.86 340.876 146.301 341.518C145.757 342.159 145.485 343.024 145.485 344.113V350.119H144.209ZM166.898 350.287C165.307 350.287 164.045 349.812 163.11 348.863C162.189 347.915 161.728 346.596 161.728 344.908C161.728 343.792 161.931 342.829 162.335 342.02C162.754 341.211 163.333 340.583 164.072 340.136C164.812 339.676 165.67 339.446 166.647 339.446C167.581 339.446 168.37 339.648 169.011 340.053C169.653 340.443 170.149 341.008 170.497 341.748C170.846 342.473 171.021 343.338 171.021 344.343V344.929H162.649V344.008H170.225L169.87 344.28C169.87 343.094 169.597 342.166 169.053 341.497C168.509 340.813 167.7 340.471 166.626 340.471C165.482 340.471 164.589 340.869 163.947 341.664C163.305 342.445 162.984 343.485 162.984 344.782V344.929C162.984 346.324 163.326 347.385 164.01 348.11C164.707 348.836 165.677 349.198 166.919 349.198C167.56 349.198 168.16 349.101 168.718 348.905C169.277 348.71 169.814 348.375 170.33 347.901L170.853 348.843C170.407 349.303 169.828 349.659 169.116 349.91C168.405 350.161 167.665 350.287 166.898 350.287Z" fill="#151522"/>
<path d="M86.523 313.938V308.297H88.7156C89.297 308.297 89.7452 308.435 90.0599 308.713C90.38 308.99 90.54 309.38 90.54 309.881C90.54 310.372 90.38 310.759 90.0599 311.041C89.7452 311.324 89.297 311.465 88.7156 311.465H87.0192V313.938H86.523ZM87.0192 311.033H88.6836C89.1263 311.033 89.4624 310.935 89.6918 310.737C89.9212 310.534 90.0359 310.249 90.0359 309.881C90.0359 309.513 89.9212 309.227 89.6918 309.025C89.4624 308.822 89.1263 308.721 88.6836 308.721H87.0192V311.033ZM91.6727 313.938V308.297H92.1689V313.498H95.1056V313.938H91.6727ZM95.2548 313.938L97.7114 308.297H98.1595L100.656 313.938H100.136L99.4318 312.314L99.6639 312.434H96.191L96.4631 312.314L95.7749 313.938H95.2548ZM97.9275 308.897L96.5591 312.106L96.3751 312.01H99.4798L99.3438 312.106L97.9435 308.897H97.9275ZM102.481 313.938V311.313L102.601 311.689L100.305 308.297H100.881L102.818 311.217H102.673L104.61 308.297H105.162L102.866 311.689L102.978 311.313V313.938H102.481ZM105.918 313.938V308.297H106.415V313.498H109.351V313.938H105.918ZM110.224 313.938V308.297H110.72V313.938H110.224ZM113.986 314.002C113.532 314.002 113.132 313.943 112.785 313.826C112.439 313.709 112.129 313.538 111.857 313.314L112.065 312.906C112.257 313.055 112.444 313.178 112.625 313.274C112.812 313.37 113.015 313.442 113.233 313.49C113.452 313.533 113.7 313.554 113.978 313.554C114.474 313.554 114.847 313.458 115.098 313.266C115.349 313.068 115.474 312.81 115.474 312.49C115.474 312.212 115.386 312.002 115.21 311.857C115.039 311.708 114.738 311.591 114.306 311.505L113.49 311.337C112.972 311.231 112.585 311.06 112.329 310.825C112.079 310.59 111.953 310.27 111.953 309.865C111.953 309.534 112.039 309.246 112.209 309.001C112.38 308.755 112.617 308.566 112.921 308.433C113.225 308.299 113.578 308.233 113.978 308.233C114.378 308.233 114.741 308.294 115.066 308.417C115.397 308.534 115.679 308.71 115.914 308.945L115.714 309.345C115.463 309.11 115.199 308.942 114.922 308.841C114.644 308.734 114.33 308.681 113.978 308.681C113.514 308.681 113.145 308.787 112.873 309.001C112.601 309.209 112.465 309.492 112.465 309.849C112.465 310.137 112.551 310.361 112.721 310.521C112.897 310.681 113.18 310.801 113.57 310.881L114.394 311.049C114.943 311.161 115.346 311.327 115.602 311.545C115.858 311.759 115.986 312.066 115.986 312.466C115.986 312.77 115.903 313.039 115.738 313.274C115.578 313.503 115.349 313.682 115.05 313.81C114.751 313.938 114.396 314.002 113.986 314.002ZM118.376 313.938V308.729H116.327V308.297H120.912V308.729H118.872V313.938H118.376ZM123.806 313.938V308.297H124.206L127.983 313.354H127.807V308.297H128.263V313.938H127.871L124.094 308.881H124.262V313.938H123.806ZM129.216 313.938L131.673 308.297H132.121L134.618 313.938H134.097L133.393 312.314L133.625 312.434H130.152L130.425 312.314L129.736 313.938H129.216ZM131.889 308.897L130.521 312.106L130.337 312.01H133.441L133.305 312.106L131.905 308.897H131.889ZM135.574 313.938V308.297H136.006L138.359 313.61H138.127L140.487 308.297H140.911V313.938H140.455V308.881H140.671L138.423 313.938H138.063L135.814 308.881H136.03V313.938H135.574ZM142.396 313.938V308.297H145.901V308.721H142.876V310.865H145.725V311.289H142.876V313.514H145.901V313.938H142.396Z" fill="#999999"/>
<path d="M27.8711 67.1181H19.5708M19.5708 67.1181L23.7209 63.4126M19.5708 67.1181L23.7209 70.8236" stroke="#999999" stroke-width="0.615536" stroke-linecap="round" stroke-linejoin="round"/>
<path d="M202.539 67.0929V72.0171C202.539 72.3436 202.669 72.6568 202.9 72.8876C203.131 73.1185 203.444 73.2482 203.77 73.2482H211.157C211.483 73.2482 211.796 73.1185 212.027 72.8876C212.258 72.6568 212.388 72.3436 212.388 72.0171V67.0929M209.925 63.3996L207.463 60.9375M207.463 60.9375L205.001 63.3996M207.463 60.9375V68.9395" stroke="#999999" stroke-width="0.615536" stroke-linecap="round" stroke-linejoin="round"/>
<rect width="233.034" height="27.0836" transform="translate(0.644531 27.084)" fill="#999999"/>
<rect opacity="0.35" x="210.437" y="38.0612" width="12.9263" height="6.36054" rx="1.33366" stroke="#3C3C43" stroke-opacity="0.6" stroke-width="0.615536"/>
<path opacity="0.4" d="M224.285 40.0103V42.4724C224.78 42.2639 225.103 41.7788 225.103 41.2413C225.103 40.7039 224.78 40.2188 224.285 40.0103Z" fill="#3C3C43" fill-opacity="0.6"/>
<rect x="211.359" y="38.9844" width="11.0796" height="4.51393" rx="0.820714" fill="white"/>
<path fill-rule="evenodd" clip-rule="evenodd" d="M202.333 39.1581C203.702 39.1582 205.019 39.6839 206.012 40.6267C206.086 40.6995 206.206 40.6985 206.279 40.6246L206.994 39.9042C207.031 39.8667 207.052 39.816 207.051 39.7631C207.051 39.7103 207.03 39.6597 206.992 39.6227C204.387 37.1284 200.278 37.1284 197.673 39.6227C197.635 39.6597 197.614 39.7102 197.613 39.7631C197.613 39.8159 197.634 39.8667 197.671 39.9042L198.386 40.6246C198.459 40.6987 198.579 40.6996 198.653 40.6267C199.646 39.6839 200.963 39.1581 202.333 39.1581ZM202.334 41.502C203.086 41.5019 203.812 41.7813 204.369 42.2859C204.445 42.3576 204.564 42.356 204.637 42.2824L205.351 41.5621C205.388 41.5243 205.409 41.473 205.409 41.4197C205.408 41.3665 205.386 41.3157 205.348 41.2786C203.65 39.7002 201.019 39.7002 199.321 41.2786C199.283 41.3157 199.261 41.3665 199.26 41.4198C199.26 41.4731 199.281 41.5243 199.318 41.5621L200.032 42.2824C200.105 42.356 200.224 42.3576 200.3 42.2859C200.857 41.7817 201.582 41.5023 202.334 41.502ZM203.762 43.0789C203.763 43.1323 203.742 43.1838 203.703 43.2212L202.469 44.4658C202.433 44.5024 202.384 44.523 202.332 44.523C202.281 44.523 202.231 44.5024 202.195 44.4658L200.961 43.2212C200.922 43.1838 200.901 43.1323 200.903 43.0788C200.904 43.0254 200.927 42.9748 200.967 42.939C201.755 42.2729 202.909 42.2729 203.698 42.939C203.737 42.9749 203.76 43.0255 203.762 43.0789Z" fill="white"/>
<path fill-rule="evenodd" clip-rule="evenodd" d="M193.923 37.9585H193.307C192.967 37.9585 192.692 38.2341 192.692 38.574V43.9087C192.692 44.2486 192.967 44.5242 193.307 44.5242H193.923C194.263 44.5242 194.538 44.2486 194.538 43.9087V38.574C194.538 38.2341 194.263 37.9585 193.923 37.9585ZM190.434 39.3948H191.049C191.389 39.3948 191.665 39.6704 191.665 40.0104V43.9088C191.665 44.2487 191.389 44.5243 191.049 44.5243H190.434C190.094 44.5243 189.818 44.2487 189.818 43.9088V40.0104C189.818 39.6704 190.094 39.3948 190.434 39.3948ZM188.179 40.8309H187.563C187.223 40.8309 186.948 41.1065 186.948 41.4464V43.9086C186.948 44.2485 187.223 44.5241 187.563 44.5241H188.179C188.519 44.5241 188.794 44.2485 188.794 43.9086V41.4464C188.794 41.1065 188.519 40.8309 188.179 40.8309ZM185.305 42.062H184.69C184.35 42.062 184.074 42.3376 184.074 42.6775V43.9086C184.074 44.2485 184.35 44.5241 184.69 44.5241H185.305C185.645 44.5241 185.921 44.2485 185.921 43.9086V42.6775C185.921 42.3376 185.645 42.062 185.305 42.062Z" fill="white"/>
<path d="M30.3468 49.4146C29.4444 49.4146 28.6765 49.1707 28.043 48.6831C27.4096 48.1909 27.0199 47.5392 26.8741 46.728H28.6309C28.7449 47.1017 28.9545 47.3979 29.2598 47.6167C29.5697 47.8309 29.9366 47.938 30.3604 47.938C31.0805 47.938 31.6433 47.6213 32.0489 46.9878C32.4545 46.3498 32.6573 45.4657 32.6573 44.3354H32.5958H32.5616H32.5411C32.3087 44.8049 31.9692 45.1694 31.5225 45.4292C31.0759 45.6844 30.5632 45.812 29.9845 45.812C29.0457 45.812 28.2686 45.5021 27.6534 44.8823C27.0427 44.2625 26.7374 43.4787 26.7374 42.5308C26.7374 41.519 27.0792 40.6896 27.7628 40.0425C28.4509 39.3908 29.3305 39.0649 30.4014 39.0649C31.1215 39.0649 31.7595 39.2313 32.3155 39.564C32.8715 39.8966 33.3158 40.3797 33.6485 41.0132C34.1134 41.8381 34.3458 42.8771 34.3458 44.1304C34.3458 45.7892 33.9926 47.0858 33.2862 48.02C32.5798 48.9497 31.6 49.4146 30.3468 49.4146ZM29.0138 43.8706C29.3783 44.2306 29.8432 44.4106 30.4083 44.4106C30.9734 44.4106 31.4405 44.2306 31.8096 43.8706C32.1788 43.5106 32.3634 43.0549 32.3634 42.5034C32.3634 41.9474 32.1765 41.4803 31.8028 41.1021C31.4291 40.7238 30.9665 40.5347 30.4151 40.5347C29.8637 40.5347 29.4011 40.7215 29.0274 41.0952C28.6537 41.4644 28.4669 41.9246 28.4669 42.4761C28.4669 43.0412 28.6492 43.506 29.0138 43.8706ZM37.1625 48.1294C36.8434 48.1294 36.5814 48.0269 36.3763 47.8218C36.1712 47.6167 36.0687 47.3592 36.0687 47.0493C36.0687 46.7349 36.1712 46.4774 36.3763 46.2769C36.5814 46.0718 36.8434 45.9692 37.1625 45.9692C37.486 45.9692 37.7481 46.0718 37.9486 46.2769C38.1537 46.4774 38.2562 46.7349 38.2562 47.0493C38.2562 47.3592 38.1537 47.6167 37.9486 47.8218C37.7481 48.0269 37.486 48.1294 37.1625 48.1294ZM37.1625 43.0024C36.8434 43.0024 36.5814 42.9022 36.3763 42.7017C36.1712 42.4966 36.0687 42.2391 36.0687 41.9292C36.0687 41.6147 36.1712 41.3573 36.3763 41.1567C36.5814 40.9517 36.8434 40.8491 37.1625 40.8491C37.486 40.8491 37.7481 40.9517 37.9486 41.1567C38.1537 41.3573 38.2562 41.6147 38.2562 41.9292C38.2562 42.2391 38.1537 42.4966 37.9486 42.7017C37.7481 42.9022 37.486 43.0024 37.1625 43.0024ZM44.7916 49.1753V47.3364H39.9723V45.7642C40.7744 44.2876 42.1142 42.1366 43.9918 39.311H46.4801V45.8462H47.8131V47.3364H46.4801V49.1753H44.7916ZM41.6061 45.7847V45.8872H44.819V40.7466H44.7233C43.6569 42.3234 42.6178 44.0028 41.6061 45.7847ZM51.7372 49.1753V41.0884H51.621L49.1669 42.811V41.1157L51.7441 39.311H53.5009V49.1753H51.7372Z" fill="white"/>
<rect x="36.9609" y="104.641" width="161.27" height="163.378" rx="4.92429" fill="#EEEEEE"/>
<mask id="mask0_81_39460" style="mask-type:luminance" maskUnits="userSpaceOnUse" x="36" y="104" width="163" height="165">
<rect x="36.9609" y="104.641" width="161.27" height="163.378" rx="7.38643" fill="white"/>
</mask>
<g mask="url(#mask0_81_39460)">
<path d="M172.731 213.591L154.667 193.431C148.589 186.461 140.112 186.368 133.966 193.206L133.097 194.173C128.235 199.581 121.499 199.342 116.818 193.595L103.468 177.205C94.404 166.076 81.3872 165.486 71.879 175.773L36.418 213.44" stroke="#999999" stroke-width="0.615536" stroke-linecap="round" stroke-linejoin="round"/>
<path d="M196.403 213.44L157.469 172.389C146.983 161.259 131.924 160.669 120.924 170.957L108.074 182.861" stroke="#999999" stroke-width="0.615536" stroke-linecap="round" stroke-linejoin="round"/>
<path fill-rule="evenodd" clip-rule="evenodd" d="M103.863 161.215C103.863 163.542 105.751 165.429 108.077 165.429C110.405 165.429 112.291 163.542 112.291 161.215C112.291 158.888 110.405 157.001 108.077 157.001C105.751 157.001 103.863 158.888 103.863 161.215Z" stroke="#999999" stroke-width="0.615536" stroke-linecap="round" stroke-linejoin="round"/>
</g>
</g>
<path d="M25.463 10.2314V4.59006H26.5593L28.5198 8.99114H28.2637L30.2242 4.59006H31.3125V10.2314H30.1762V6.3985H30.4963L28.7439 10.2314H28.0237L26.2632 6.3985H26.5993V10.2314H25.463ZM34.897 10.3195C34.0701 10.3195 33.454 10.1141 33.0485 9.70332C32.6431 9.29255 32.4404 8.68173 32.4404 7.87087V4.59006H33.6887V7.87887C33.6887 8.33231 33.7847 8.6764 33.9768 8.91112C34.1741 9.14585 34.4809 9.26321 34.897 9.26321C35.3024 9.26321 35.6038 9.14585 35.8012 8.91112C36.0039 8.6764 36.1053 8.33231 36.1053 7.87887V4.59006H37.3376V7.87087C37.3376 8.68173 37.1322 9.29255 36.7214 9.70332C36.316 10.1141 35.7079 10.3195 34.897 10.3195ZM40.4831 10.3195C40.0297 10.3195 39.6056 10.2635 39.2108 10.1514C38.816 10.0394 38.48 9.88469 38.2026 9.68731L38.5706 8.71107C38.752 8.83377 38.9441 8.93779 39.1468 9.02315C39.3495 9.1085 39.5629 9.17519 39.7869 9.2232C40.011 9.26587 40.2457 9.28721 40.4911 9.28721C40.8752 9.28721 41.1473 9.22853 41.3073 9.11117C41.4727 8.99381 41.5554 8.84444 41.5554 8.66306C41.5554 8.49769 41.4994 8.37232 41.3873 8.28697C41.2806 8.19628 41.0833 8.11893 40.7952 8.05491L39.851 7.86286C39.3335 7.75617 38.9467 7.57479 38.6907 7.31873C38.4346 7.06267 38.3066 6.72125 38.3066 6.29448C38.3066 5.93172 38.4026 5.61698 38.5947 5.35025C38.7867 5.08351 39.0561 4.87546 39.4028 4.72609C39.7549 4.57672 40.1657 4.50204 40.6352 4.50204C41.0352 4.50204 41.4087 4.55805 41.7554 4.67008C42.1022 4.78211 42.3876 4.94215 42.6116 5.1502L42.2435 6.06242C42.0248 5.88638 41.7794 5.75568 41.5074 5.67032C41.2406 5.57964 40.9419 5.53429 40.6111 5.53429C40.2644 5.53429 39.9977 5.59564 39.8109 5.71834C39.6296 5.84103 39.5389 6.00907 39.5389 6.22246C39.5389 6.3825 39.5949 6.5132 39.7069 6.61456C39.819 6.71058 40.0163 6.78793 40.2991 6.84661L41.2273 7.03066C41.7554 7.13735 42.1475 7.31606 42.4036 7.56679C42.6596 7.81752 42.7877 8.15093 42.7877 8.56704C42.7877 8.91912 42.6917 9.22586 42.4996 9.48726C42.3129 9.74866 42.0462 9.95404 41.6994 10.1034C41.358 10.2474 40.9526 10.3195 40.4831 10.3195ZM43.7095 10.2314V4.59006H44.9578V10.2314H43.7095ZM48.8294 10.3195C48.2266 10.3195 47.7091 10.1994 47.277 9.95938C46.8449 9.71932 46.5115 9.38324 46.2768 8.95113C46.0474 8.51369 45.9327 7.9989 45.9327 7.40675C45.9327 6.81461 46.0474 6.30248 46.2768 5.87037C46.5115 5.43827 46.8449 5.10219 47.277 4.86213C47.7091 4.62207 48.2266 4.50204 48.8294 4.50204C49.2188 4.50204 49.5736 4.55805 49.8937 4.67008C50.2138 4.77677 50.4858 4.93414 50.7099 5.14219L50.3178 6.12644C50.0724 5.93439 49.8377 5.79836 49.6136 5.71834C49.3949 5.63832 49.1468 5.59831 48.8694 5.59831C48.3413 5.59831 47.9359 5.75568 47.6531 6.07042C47.3757 6.37983 47.237 6.82528 47.237 7.40675C47.237 7.98823 47.3757 8.43634 47.6531 8.75108C47.9359 9.06583 48.3413 9.2232 48.8694 9.2232C49.1468 9.2232 49.3949 9.18319 49.6136 9.10317C49.8377 9.02315 50.0724 8.88712 50.3178 8.69507L50.7099 9.67931C50.4858 9.88203 50.2138 10.0394 49.8937 10.1514C49.5736 10.2635 49.2188 10.3195 48.8294 10.3195ZM53.837 10.2314V4.59006H56.4697C57.1045 4.59006 57.5846 4.74476 57.91 5.05417C58.2408 5.35825 58.4061 5.77702 58.4061 6.31048C58.4061 6.83861 58.2408 7.26005 57.91 7.57479C57.5846 7.8842 57.1045 8.03891 56.4697 8.03891H55.0853V10.2314H53.837ZM55.0853 7.07067H56.3096C56.6084 7.07067 56.8298 7.00399 56.9738 6.87062C57.1232 6.73725 57.1978 6.55054 57.1978 6.31048C57.1978 6.07042 57.1232 5.88638 56.9738 5.75835C56.8298 5.62498 56.6084 5.5583 56.3096 5.5583H55.0853V7.07067ZM59.2368 10.2314V4.59006H60.4851V9.18319H63.0297V10.2314H59.2368ZM63.0268 10.2314L65.6195 4.59006H66.6517L69.2764 10.2314H68.0121L67.3319 8.66306L67.82 9.00714H64.4672L64.9633 8.66306L64.2831 10.2314H63.0268ZM66.1316 5.90238L65.0993 8.35098L64.8833 8.04691H67.4039L67.2199 8.35098L66.1636 5.90238H66.1316ZM70.6076 10.2314V7.55079L70.8636 8.26296L68.391 4.59006H69.8314L71.3838 7.00665H71.1277L72.6801 4.59006H74.0724L71.6078 8.26296L71.8559 7.55079V10.2314H70.6076ZM74.6859 10.2314V4.59006H78.6069V5.5583H75.8782V6.87862H78.4148V7.85486H75.8782V9.26321H78.6069V10.2314H74.6859ZM79.4761 10.2314V4.59006H82.0368C82.6716 4.59006 83.1624 4.7421 83.5091 5.04617C83.8559 5.34491 84.0293 5.76368 84.0293 6.30248C84.0293 6.65457 83.9492 6.95864 83.7892 7.2147C83.6345 7.46543 83.4104 7.66015 83.117 7.79885C82.829 7.93221 82.4822 7.9989 82.0768 7.9989L82.1728 7.82285H82.5009C82.7303 7.82285 82.933 7.8842 83.109 8.0069C83.2904 8.1296 83.4398 8.30831 83.5571 8.54303L84.3973 10.2314H83.021L82.1488 8.415C82.0848 8.26029 81.9834 8.15894 81.8447 8.11092C81.7113 8.05758 81.5566 8.0309 81.3806 8.0309H80.7244V10.2314H79.4761ZM80.7244 7.13468H81.8207C82.1461 7.13468 82.3942 7.068 82.5649 6.93464C82.7356 6.80127 82.821 6.60389 82.821 6.34249C82.821 6.08109 82.7356 5.88638 82.5649 5.75835C82.3942 5.62498 82.1461 5.5583 81.8207 5.5583H80.7244V7.13468ZM87.4 10.2314V4.59006H90.0326C90.6674 4.59006 91.1475 4.74476 91.473 5.05417C91.8037 5.35825 91.9691 5.77702 91.9691 6.31048C91.9691 6.83861 91.8037 7.26005 91.473 7.57479C91.1475 7.8842 90.6674 8.03891 90.0326 8.03891H88.6483V10.2314H87.4ZM88.6483 7.07067H89.8726C90.1713 7.07067 90.3927 7.00399 90.5367 6.87062C90.6861 6.73725 90.7608 6.55054 90.7608 6.31048C90.7608 6.07042 90.6861 5.88638 90.5367 5.75835C90.3927 5.62498 90.1713 5.5583 89.8726 5.5583H88.6483V7.07067ZM91.5417 10.2314L94.1343 4.59006H95.1665L97.7912 10.2314H96.5269L95.8467 8.66306L96.3348 9.00714H92.982L93.4781 8.66306L92.798 10.2314H91.5417ZM94.6464 5.90238L93.6142 8.35098L93.3981 8.04691H95.9187L95.7347 8.35098L94.6784 5.90238H94.6464ZM100.937 10.3195C100.292 10.3195 99.7478 10.2021 99.3051 9.96738C98.8676 9.72732 98.5369 9.39124 98.3128 8.95913C98.0888 8.52169 97.9767 8.01223 97.9767 7.43076C97.9767 6.83328 98.0968 6.31582 98.3368 5.87838C98.5822 5.44093 98.9343 5.10219 99.3931 4.86213C99.8519 4.62207 100.401 4.50204 101.041 4.50204C101.452 4.50204 101.812 4.55538 102.122 4.66208C102.436 4.76344 102.711 4.91014 102.946 5.10219L102.546 6.07042C102.375 5.94773 102.215 5.8517 102.066 5.78235C101.916 5.70767 101.762 5.65699 101.602 5.63031C101.442 5.59831 101.258 5.5823 101.049 5.5823C100.463 5.5823 100.02 5.74234 99.7212 6.06242C99.4278 6.37717 99.2811 6.83594 99.2811 7.43876C99.2811 8.03624 99.4198 8.48968 99.6972 8.79909C99.9746 9.1085 100.409 9.26321 101.001 9.26321C101.199 9.26321 101.402 9.24454 101.61 9.20719C101.818 9.16985 102.023 9.11384 102.226 9.03915L102.002 9.51927V7.9989H100.761V7.11068H103.034V9.87936C102.751 10.0181 102.423 10.1274 102.05 10.2074C101.682 10.2821 101.311 10.3195 100.937 10.3195ZM104.107 10.2314V4.59006H108.028V5.5583H105.299V6.87862H107.836V7.85486H105.299V9.26321H108.028V10.2314H104.107Z" fill="#999999"/>
<ellipse cx="8.41232" cy="7.6942" rx="7.76779" ry="7.6942" fill="url(#paint1_linear_81_39460)"/>
<path d="M8.02852 10.3035C7.64443 10.3035 7.27634 10.2474 6.92425 10.1354C6.57217 10.0181 6.27876 9.85269 6.04404 9.6393L6.33211 9.00714C6.59351 9.20986 6.86024 9.35923 7.1323 9.45525C7.40437 9.55128 7.69511 9.59929 8.00452 9.59929C8.39928 9.59929 8.69802 9.5166 8.90074 9.35123C9.10879 9.18586 9.21282 8.94846 9.21282 8.63905C9.21282 8.33498 9.10879 8.10559 8.90074 7.95088C8.69802 7.79085 8.39661 7.71083 7.99652 7.71083H7.1243V7.03866H7.9325C8.27392 7.03866 8.54599 6.95331 8.7487 6.7826C8.95142 6.60655 9.05278 6.36916 9.05278 6.07042C9.05278 5.79836 8.95942 5.5903 8.77271 5.44627C8.58599 5.2969 8.31926 5.22221 7.97251 5.22221C7.3857 5.22221 6.87091 5.4276 6.42813 5.83837L6.14806 5.20621C6.36678 4.98749 6.64418 4.81945 6.98027 4.70209C7.31635 4.57939 7.66844 4.51804 8.03653 4.51804C8.602 4.51804 9.04744 4.64874 9.37285 4.91014C9.69827 5.1662 9.86097 5.52362 9.86097 5.9824C9.86097 6.32915 9.76228 6.62523 9.5649 6.87062C9.37285 7.11601 9.10879 7.27872 8.77271 7.35874V7.27072C9.17281 7.33473 9.47955 7.49477 9.69293 7.75084C9.91165 8.00156 10.021 8.31631 10.021 8.69507C10.021 9.19652 9.8423 9.59129 9.48488 9.87936C9.1328 10.1621 8.64734 10.3035 8.02852 10.3035ZM10.9541 10.2314V9.27921H11.9064V10.2314H10.9541Z" fill="white"/>
</g>
<defs>
<linearGradient id="paint0_linear_81_39460" x1="150.987" y1="440.305" x2="141.724" y2="449.568" gradientUnits="userSpaceOnUse">
<stop stop-color="#CDD2FD"/>
<stop offset="1" stop-color="#6979F8"/>
</linearGradient>
<linearGradient id="paint1_linear_81_39460" x1="9.74819" y1="25.5877" x2="7.30433" y2="15.9584" gradientUnits="userSpaceOnUse">
<stop offset="0.21875" stop-color="#969BFF"/>
<stop offset="1" stop-color="#656CEE"/>
</linearGradient>
<clipPath id="clip0_81_39460">
<rect width="233.034" height="499.815" fill="white" transform="translate(0.644531 27.084)"/>
</clipPath>
</defs>
</svg>
