<svg width="201" height="202" viewBox="0 0 201 202" fill="none" xmlns="http://www.w3.org/2000/svg">
<rect x="0.589844" y="0.758789" width="200.4" height="200.4" rx="20" fill="#969BFF"/>
<path d="M67.033 166.759L67.625 163.959H65.321V162.119H68.025L68.521 159.783H66.169V157.943H68.921L69.513 155.191H71.433L70.841 157.943H73.881L74.473 155.191H76.393L75.817 157.943H77.897V159.783H75.417L74.921 162.119H77.049V163.959H74.521L73.929 166.759H71.993L72.601 163.959H69.561L68.969 166.759H67.033ZM69.945 162.119H72.985L73.497 159.783H70.457L69.945 162.119ZM83.4706 166.951C82.6919 166.951 82.0359 166.801 81.5026 166.503C80.9693 166.193 80.5533 165.793 80.2546 165.303C79.9559 164.812 79.7799 164.284 79.7266 163.719H81.6306C81.7159 164.209 81.9186 164.588 82.2386 164.855C82.5693 165.121 82.9853 165.255 83.4866 165.255C84.2013 165.255 84.7773 164.929 85.2146 164.279C85.6519 163.617 85.8866 162.615 85.9186 161.271C85.6626 161.708 85.2733 162.071 84.7506 162.359C84.2386 162.647 83.6733 162.791 83.0546 162.791C82.4359 162.791 81.8546 162.641 81.3106 162.343C80.7666 162.044 80.3239 161.623 79.9826 161.079C79.6413 160.535 79.4706 159.895 79.4706 159.159C79.4706 158.487 79.6359 157.863 79.9666 157.287C80.2973 156.711 80.7559 156.247 81.3426 155.895C81.9293 155.543 82.6173 155.367 83.4066 155.367C84.2493 155.367 84.9586 155.521 85.5346 155.831C86.1106 156.14 86.5693 156.556 86.9106 157.079C87.2626 157.601 87.5133 158.183 87.6626 158.823C87.8226 159.463 87.9026 160.119 87.9026 160.791C87.9026 162.039 87.7266 163.127 87.3746 164.055C87.0333 164.972 86.5266 165.687 85.8546 166.199C85.1933 166.7 84.3986 166.951 83.4706 166.951ZM83.5346 161.063C83.9293 161.063 84.2866 160.977 84.6066 160.807C84.9266 160.625 85.1773 160.391 85.3586 160.103C85.5399 159.804 85.6306 159.473 85.6306 159.111C85.6306 158.535 85.4279 158.06 85.0226 157.687C84.6279 157.313 84.1266 157.127 83.5186 157.127C82.9213 157.127 82.4253 157.313 82.0306 157.687C81.6359 158.049 81.4386 158.513 81.4386 159.079C81.4386 159.676 81.6359 160.156 82.0306 160.519C82.4253 160.881 82.9266 161.063 83.5346 161.063ZM93.9952 166.951C93.1526 166.951 92.4432 166.796 91.8672 166.487C91.2912 166.177 90.8272 165.761 90.4752 165.239C90.1232 164.716 89.8672 164.135 89.7072 163.495C89.5579 162.855 89.4832 162.199 89.4832 161.527C89.4832 160.279 89.6592 159.196 90.0112 158.279C90.3632 157.351 90.8699 156.636 91.5312 156.135C92.1926 155.623 92.9926 155.367 93.9312 155.367C94.6992 155.367 95.3499 155.521 95.8832 155.831C96.4272 156.129 96.8486 156.524 97.1472 157.015C97.4459 157.505 97.6219 158.033 97.6752 158.599H95.7712C95.6752 158.108 95.4672 157.729 95.1472 157.463C94.8272 157.196 94.4166 157.063 93.9152 157.063C93.2006 157.063 92.6246 157.393 92.1872 158.055C91.7499 158.705 91.5152 159.703 91.4832 161.047C91.7392 160.609 92.1232 160.247 92.6352 159.959C93.1472 159.671 93.7179 159.527 94.3472 159.527C94.9659 159.527 95.5472 159.676 96.0912 159.975C96.6352 160.273 97.0726 160.695 97.4032 161.239C97.7446 161.783 97.9152 162.423 97.9152 163.159C97.9152 163.831 97.7499 164.455 97.4192 165.031C97.0992 165.607 96.6406 166.071 96.0432 166.423C95.4566 166.775 94.7739 166.951 93.9952 166.951ZM93.8832 165.191C94.4806 165.191 94.9712 165.009 95.3552 164.647C95.7499 164.273 95.9472 163.804 95.9472 163.239C95.9472 162.641 95.7499 162.161 95.3552 161.799C94.9606 161.436 94.4592 161.255 93.8512 161.255C93.4566 161.255 93.0992 161.345 92.7792 161.527C92.4699 161.697 92.2246 161.932 92.0432 162.231C91.8619 162.519 91.7712 162.844 91.7712 163.207C91.7712 163.783 91.9686 164.257 92.3632 164.631C92.7686 165.004 93.2752 165.191 93.8832 165.191ZM103.439 166.951C102.661 166.951 102.005 166.801 101.471 166.503C100.938 166.193 100.522 165.793 100.223 165.303C99.9247 164.812 99.7487 164.284 99.6953 163.719H101.599C101.685 164.209 101.887 164.588 102.207 164.855C102.538 165.121 102.954 165.255 103.455 165.255C104.17 165.255 104.746 164.929 105.183 164.279C105.621 163.617 105.855 162.615 105.887 161.271C105.631 161.708 105.242 162.071 104.719 162.359C104.207 162.647 103.642 162.791 103.023 162.791C102.405 162.791 101.823 162.641 101.279 162.343C100.735 162.044 100.293 161.623 99.9513 161.079C99.61 160.535 99.4393 159.895 99.4393 159.159C99.4393 158.487 99.6047 157.863 99.9353 157.287C100.266 156.711 100.725 156.247 101.311 155.895C101.898 155.543 102.586 155.367 103.375 155.367C104.218 155.367 104.927 155.521 105.503 155.831C106.079 156.14 106.538 156.556 106.879 157.079C107.231 157.601 107.482 158.183 107.631 158.823C107.791 159.463 107.871 160.119 107.871 160.791C107.871 162.039 107.695 163.127 107.343 164.055C107.002 164.972 106.495 165.687 105.823 166.199C105.162 166.7 104.367 166.951 103.439 166.951ZM103.503 161.063C103.898 161.063 104.255 160.977 104.575 160.807C104.895 160.625 105.146 160.391 105.327 160.103C105.509 159.804 105.599 159.473 105.599 159.111C105.599 158.535 105.397 158.06 104.991 157.687C104.597 157.313 104.095 157.127 103.487 157.127C102.89 157.127 102.394 157.313 101.999 157.687C101.605 158.049 101.407 158.513 101.407 159.079C101.407 159.676 101.605 160.156 101.999 160.519C102.394 160.881 102.895 161.063 103.503 161.063ZM109.756 166.759V155.559H114.252C115.415 155.559 116.3 155.831 116.908 156.375C117.527 156.908 117.836 157.596 117.836 158.439C117.836 159.143 117.644 159.708 117.26 160.135C116.887 160.551 116.428 160.833 115.884 160.983C116.524 161.111 117.052 161.431 117.468 161.943C117.884 162.444 118.092 163.031 118.092 163.703C118.092 164.588 117.772 165.319 117.132 165.895C116.492 166.471 115.585 166.759 114.412 166.759H109.756ZM111.804 160.263H113.948C114.524 160.263 114.967 160.129 115.276 159.863C115.585 159.596 115.74 159.217 115.74 158.727C115.74 158.257 115.585 157.889 115.276 157.623C114.977 157.345 114.524 157.207 113.916 157.207H111.804V160.263ZM111.804 165.095H114.092C114.7 165.095 115.169 164.956 115.5 164.679C115.841 164.391 116.012 163.991 116.012 163.479C116.012 162.956 115.836 162.545 115.484 162.247C115.132 161.948 114.657 161.799 114.06 161.799H111.804V165.095ZM119.85 166.759V155.559H127.082V157.207H121.898V160.343H126.09V161.959H121.898V166.759H119.85ZM128.662 166.759V155.559H135.894V157.207H130.71V160.343H134.902V161.959H130.71V166.759H128.662Z" fill="white"/>
</svg>
