<svg width="202" height="202" viewBox="0 0 202 202" fill="none" xmlns="http://www.w3.org/2000/svg">
<rect x="0.601562" y="0.758789" width="200.4" height="200.4" rx="20" fill="#EDEDEF"/>
<path d="M66.3025 166.759L66.8945 163.959H64.5905V162.119H67.2945L67.7905 159.783H65.4385V157.943H68.1905L68.7825 155.191H70.7025L70.1105 157.943H73.1505L73.7425 155.191H75.6625L75.0865 157.943H77.1665V159.783H74.6865L74.1905 162.119H76.3185V163.959H73.7905L73.1985 166.759H71.2625L71.8705 163.959H68.8305L68.2385 166.759H66.3025ZM69.2145 162.119H72.2545L72.7665 159.783H69.7265L69.2145 162.119ZM78.9161 166.759V155.559H86.2281V157.207H80.9641V160.279H85.7481V161.879H80.9641V165.111H86.2281V166.759H78.9161ZM88.1661 166.759V155.559H91.9901C93.3021 155.559 94.3795 155.793 95.2221 156.263C96.0755 156.721 96.7048 157.372 97.1101 158.215C97.5261 159.047 97.7341 160.028 97.7341 161.159C97.7341 162.289 97.5261 163.276 97.1101 164.119C96.7048 164.951 96.0755 165.601 95.2221 166.071C94.3795 166.529 93.3021 166.759 91.9901 166.759H88.1661ZM90.2141 164.999H91.8941C92.8328 164.999 93.5741 164.849 94.1181 164.551C94.6621 164.241 95.0515 163.804 95.2861 163.239C95.5208 162.663 95.6381 161.969 95.6381 161.159C95.6381 160.359 95.5208 159.671 95.2861 159.095C95.0515 158.519 94.6621 158.076 94.1181 157.767C93.5741 157.457 92.8328 157.303 91.8941 157.303H90.2141V164.999ZM99.5411 166.759V155.559H106.853V157.207H101.589V160.279H106.373V161.879H101.589V165.111H106.853V166.759H99.5411ZM108.791 166.759V155.559H112.615C113.927 155.559 115.004 155.793 115.847 156.263C116.7 156.721 117.33 157.372 117.735 158.215C118.151 159.047 118.359 160.028 118.359 161.159C118.359 162.289 118.151 163.276 117.735 164.119C117.33 164.951 116.7 165.601 115.847 166.071C115.004 166.529 113.927 166.759 112.615 166.759H108.791ZM110.839 164.999H112.519C113.458 164.999 114.199 164.849 114.743 164.551C115.287 164.241 115.676 163.804 115.911 163.239C116.146 162.663 116.263 161.969 116.263 161.159C116.263 160.359 116.146 159.671 115.911 159.095C115.676 158.519 115.287 158.076 114.743 157.767C114.199 157.457 113.458 157.303 112.519 157.303H110.839V164.999ZM120.166 166.759V155.559H127.478V157.207H122.214V160.279H126.998V161.879H122.214V165.111H127.478V166.759H120.166ZM129.416 166.759V155.559H136.648V157.207H131.464V160.343H135.656V161.959H131.464V166.759H129.416Z" fill="white"/>
</svg>
