<svg width="234" height="527" viewBox="0 0 234 527" fill="none" xmlns="http://www.w3.org/2000/svg">
<g style="mix-blend-mode:luminosity">
<g clip-path="url(#clip0_81_39391)">
<rect width="233.034" height="499.815" transform="translate(0 27.084)" fill="white"/>
<rect width="233.034" height="27.0836" transform="translate(0 27.084)" fill="#999999"/>
<rect opacity="0.35" x="209.792" y="38.0612" width="12.9263" height="6.36054" rx="1.33366" stroke="#3C3C43" stroke-opacity="0.6" stroke-width="0.615536"/>
<path opacity="0.4" d="M223.641 40.0103V42.4724C224.136 42.2639 224.458 41.7788 224.458 41.2413C224.458 40.7039 224.136 40.2188 223.641 40.0103Z" fill="#3C3C43" fill-opacity="0.6"/>
<rect x="210.715" y="38.9844" width="11.0796" height="4.51393" rx="0.820714" fill="white"/>
<path fill-rule="evenodd" clip-rule="evenodd" d="M201.688 39.1581C203.058 39.1582 204.375 39.6839 205.367 40.6267C205.442 40.6995 205.561 40.6985 205.635 40.6246L206.349 39.9042C206.386 39.8667 206.407 39.816 206.407 39.7631C206.407 39.7103 206.385 39.6597 206.348 39.6227C203.743 37.1284 199.633 37.1284 197.028 39.6227C196.991 39.6597 196.969 39.7102 196.969 39.7631C196.968 39.8159 196.989 39.8667 197.026 39.9042L197.741 40.6246C197.815 40.6987 197.934 40.6996 198.009 40.6267C199.001 39.6839 200.319 39.1581 201.688 39.1581ZM201.689 41.502C202.442 41.5019 203.167 41.7813 203.725 42.2859C203.8 42.3576 203.919 42.356 203.993 42.2824L204.706 41.5621C204.744 41.5243 204.765 41.473 204.764 41.4197C204.764 41.3665 204.742 41.3157 204.703 41.2786C203.005 39.7002 200.375 39.7002 198.677 41.2786C198.638 41.3157 198.616 41.3665 198.616 41.4198C198.615 41.4731 198.636 41.5243 198.674 41.5621L199.387 42.2824C199.461 42.356 199.58 42.3576 199.655 42.2859C200.212 41.7817 200.937 41.5023 201.689 41.502ZM203.117 43.0789C203.118 43.1323 203.097 43.1838 203.059 43.2212L201.825 44.4658C201.788 44.5024 201.739 44.523 201.688 44.523C201.636 44.523 201.587 44.5024 201.551 44.4658L200.316 43.2212C200.278 43.1838 200.257 43.1323 200.258 43.0788C200.259 43.0254 200.282 42.9748 200.322 42.939C201.11 42.2729 202.265 42.2729 203.053 42.939C203.093 42.9749 203.116 43.0255 203.117 43.0789Z" fill="white"/>
<path fill-rule="evenodd" clip-rule="evenodd" d="M193.278 37.9585H192.663C192.323 37.9585 192.047 38.2341 192.047 38.574V43.9087C192.047 44.2486 192.323 44.5242 192.663 44.5242H193.278C193.618 44.5242 193.894 44.2486 193.894 43.9087V38.574C193.894 38.2341 193.618 37.9585 193.278 37.9585ZM189.789 39.3948H190.405C190.745 39.3948 191.02 39.6704 191.02 40.0104V43.9088C191.02 44.2487 190.745 44.5243 190.405 44.5243H189.789C189.449 44.5243 189.174 44.2487 189.174 43.9088V40.0104C189.174 39.6704 189.449 39.3948 189.789 39.3948ZM187.534 40.8309H186.919C186.579 40.8309 186.303 41.1065 186.303 41.4464V43.9086C186.303 44.2485 186.579 44.5241 186.919 44.5241H187.534C187.874 44.5241 188.15 44.2485 188.15 43.9086V41.4464C188.15 41.1065 187.874 40.8309 187.534 40.8309ZM184.661 42.062H184.045C183.705 42.062 183.43 42.3376 183.43 42.6775V43.9086C183.43 44.2485 183.705 44.5241 184.045 44.5241H184.661C185.001 44.5241 185.276 44.2485 185.276 43.9086V42.6775C185.276 42.3376 185.001 42.062 184.661 42.062Z" fill="white"/>
<path d="M29.7022 49.4146C28.7999 49.4146 28.032 49.1707 27.3985 48.6831C26.7651 48.1909 26.3754 47.5392 26.2296 46.728H27.9864C28.1003 47.1017 28.31 47.3979 28.6153 47.6167C28.9252 47.8309 29.2921 47.938 29.7159 47.938C30.436 47.938 30.9988 47.6213 31.4044 46.9878C31.81 46.3498 32.0128 45.4657 32.0128 44.3354H31.9513H31.9171H31.8966C31.6641 44.8049 31.3246 45.1694 30.878 45.4292C30.4314 45.6844 29.9187 45.812 29.3399 45.812C28.4011 45.812 27.6241 45.5021 27.0089 44.8823C26.3982 44.2625 26.0929 43.4787 26.0929 42.5308C26.0929 41.519 26.4346 40.6896 27.1182 40.0425C27.8064 39.3908 28.686 39.0649 29.7569 39.0649C30.477 39.0649 31.115 39.2313 31.671 39.564C32.227 39.8966 32.6713 40.3797 33.004 41.0132C33.4688 41.8381 33.7013 42.8771 33.7013 44.1304C33.7013 45.7892 33.3481 47.0858 32.6417 48.02C31.9353 48.9497 30.9555 49.4146 29.7022 49.4146ZM28.3692 43.8706C28.7338 44.2306 29.1986 44.4106 29.7638 44.4106C30.3289 44.4106 30.796 44.2306 31.1651 43.8706C31.5343 43.5106 31.7188 43.0549 31.7188 42.5034C31.7188 41.9474 31.532 41.4803 31.1583 41.1021C30.7846 40.7238 30.322 40.5347 29.7706 40.5347C29.2192 40.5347 28.7566 40.7215 28.3829 41.0952C28.0092 41.4644 27.8223 41.9246 27.8223 42.4761C27.8223 43.0412 28.0046 43.506 28.3692 43.8706ZM36.5179 48.1294C36.1989 48.1294 35.9369 48.0269 35.7318 47.8218C35.5267 47.6167 35.4242 47.3592 35.4242 47.0493C35.4242 46.7349 35.5267 46.4774 35.7318 46.2769C35.9369 46.0718 36.1989 45.9692 36.5179 45.9692C36.8415 45.9692 37.1035 46.0718 37.3041 46.2769C37.5091 46.4774 37.6117 46.7349 37.6117 47.0493C37.6117 47.3592 37.5091 47.6167 37.3041 47.8218C37.1035 48.0269 36.8415 48.1294 36.5179 48.1294ZM36.5179 43.0024C36.1989 43.0024 35.9369 42.9022 35.7318 42.7017C35.5267 42.4966 35.4242 42.2391 35.4242 41.9292C35.4242 41.6147 35.5267 41.3573 35.7318 41.1567C35.9369 40.9517 36.1989 40.8491 36.5179 40.8491C36.8415 40.8491 37.1035 40.9517 37.3041 41.1567C37.5091 41.3573 37.6117 41.6147 37.6117 41.9292C37.6117 42.2391 37.5091 42.4966 37.3041 42.7017C37.1035 42.9022 36.8415 43.0024 36.5179 43.0024ZM44.1471 49.1753V47.3364H39.3278V45.7642C40.1299 44.2876 41.4697 42.1366 43.3473 39.311H45.8356V45.8462H47.1686V47.3364H45.8356V49.1753H44.1471ZM40.9616 45.7847V45.8872H44.1745V40.7466H44.0788C43.0123 42.3234 41.9733 44.0028 40.9616 45.7847ZM51.0927 49.1753V41.0884H50.9765L48.5224 42.811V41.1157L51.0995 39.311H52.8564V49.1753H51.0927Z" fill="white"/>
<path d="M21.1071 80.4004V75.4195H19.1768V74.3251H24.3818V75.4195H22.4515V80.4004H21.1071ZM25.1137 80.4004V74.3251H26.458V80.4004H25.1137ZM29.0935 80.4004V75.4195H27.1632V74.3251H32.3681V75.4195H30.4378V80.4004H29.0935ZM33.1 80.4004V74.3251H34.4443V79.2715H37.1847V80.4004H33.1ZM38.0063 80.4004V74.3251H42.2288V75.3678H39.2903V76.7897H42.022V77.841H39.2903V79.3577H42.2288V80.4004H38.0063Z" fill="#C4C4C4"/>
<path d="M22.6411 209.76C21.9919 209.76 21.4346 209.631 20.9693 209.372C20.5039 209.114 20.1449 208.752 19.8921 208.286C19.645 207.815 19.5215 207.261 19.5215 206.623C19.5215 205.985 19.645 205.434 19.8921 204.969C20.1449 204.503 20.5039 204.141 20.9693 203.883C21.4346 203.624 21.9919 203.495 22.6411 203.495C23.0604 203.495 23.4425 203.555 23.7872 203.676C24.1319 203.791 24.4249 203.96 24.6662 204.184L24.2439 205.244C23.9796 205.037 23.7269 204.891 23.4856 204.805C23.25 204.719 22.9829 204.676 22.6841 204.676C22.1154 204.676 21.6788 204.845 21.3743 205.184C21.0755 205.517 20.9262 205.997 20.9262 206.623C20.9262 207.249 21.0755 207.732 21.3743 208.071C21.6788 208.41 22.1154 208.579 22.6841 208.579C22.9829 208.579 23.25 208.536 23.4856 208.45C23.7269 208.364 23.9796 208.217 24.2439 208.01L24.6662 209.07C24.4249 209.289 24.1319 209.458 23.7872 209.579C23.4425 209.7 23.0604 209.76 22.6411 209.76ZM24.7771 209.665L27.5692 203.59H28.6808L31.5074 209.665H30.1458L29.4133 207.976L29.939 208.347H26.3283L26.8626 207.976L26.1301 209.665H24.7771ZM28.1207 205.003L27.0091 207.64L26.7764 207.312H29.4909L29.2927 207.64L28.1552 205.003H28.1207ZM32.7542 209.665V204.684H30.8239V203.59H36.0289V204.684H34.0986V209.665H32.7542ZM36.7608 209.665V203.59H40.9833V204.632H38.0448V206.054H40.7765V207.106H38.0448V208.622H40.9833V209.665H36.7608ZM44.927 209.76C44.2318 209.76 43.6459 209.633 43.169 209.381C42.6979 209.122 42.3417 208.76 42.1005 208.295C41.8592 207.824 41.7385 207.275 41.7385 206.649C41.7385 206.005 41.8678 205.448 42.1263 204.977C42.3906 204.506 42.7697 204.141 43.2638 203.883C43.7579 203.624 44.3496 203.495 45.039 203.495C45.4814 203.495 45.8692 203.552 46.2024 203.667C46.5413 203.776 46.8372 203.934 47.09 204.141L46.6591 205.184C46.4753 205.052 46.3029 204.948 46.1421 204.874C45.9812 204.793 45.8146 204.739 45.6422 204.71C45.4699 204.676 45.2717 204.658 45.0476 204.658C44.4157 204.658 43.9389 204.831 43.6171 205.175C43.3012 205.514 43.1432 206.008 43.1432 206.658C43.1432 207.301 43.2925 207.789 43.5913 208.123C43.89 208.456 44.3582 208.622 44.9959 208.622C45.2085 208.622 45.4268 208.602 45.6509 208.562C45.8749 208.522 46.0961 208.461 46.3144 208.381L46.0731 208.898V207.261H44.7374V206.304H47.1848V209.286C46.8803 209.435 46.527 209.553 46.1248 209.639C45.7284 209.72 45.3291 209.76 44.927 209.76ZM48.1596 206.623C48.1596 205.991 48.2773 205.442 48.5129 204.977C48.7542 204.506 49.0989 204.141 49.547 203.883C49.9951 203.624 50.5265 203.495 51.1412 203.495C51.7559 203.495 52.2873 203.624 52.7355 203.883C53.1836 204.141 53.5283 204.506 53.7696 204.977C54.0166 205.442 54.1401 205.988 54.1401 206.614C54.1401 207.252 54.0166 207.807 53.7696 208.278C53.5283 208.743 53.1836 209.108 52.7355 209.372C52.2873 209.631 51.7559 209.76 51.1412 209.76C50.5265 209.76 49.9951 209.631 49.547 209.372C49.1046 209.108 48.7628 208.74 48.5215 208.269C48.2802 207.798 48.1596 207.249 48.1596 206.623ZM49.5642 206.623C49.5642 207.249 49.6935 207.74 49.952 208.097C50.2163 208.447 50.6127 208.622 51.1412 208.622C51.6583 208.622 52.0518 208.447 52.3218 208.097C52.5918 207.74 52.7268 207.249 52.7268 206.623C52.7268 205.991 52.5918 205.503 52.3218 205.158C52.0575 204.808 51.664 204.632 51.1412 204.632C50.6127 204.632 50.2163 204.808 49.952 205.158C49.6935 205.503 49.5642 205.991 49.5642 206.623ZM55.1908 209.665V203.59H57.9484C58.632 203.59 59.1606 203.753 59.534 204.081C59.9074 204.403 60.0941 204.854 60.0941 205.434C60.0941 205.813 60.008 206.14 59.8356 206.416C59.669 206.686 59.4277 206.896 59.1117 207.045C58.8015 207.189 58.4281 207.261 57.9915 207.261L58.0949 207.071H58.4482C58.6952 207.071 58.9135 207.137 59.1031 207.269C59.2984 207.402 59.4593 207.594 59.5857 207.847L60.4905 209.665H59.0083L58.069 207.709C58.0001 207.542 57.8909 207.433 57.7416 207.381C57.5979 207.324 57.4313 207.295 57.2417 207.295H56.5351V209.665H55.1908ZM56.5351 206.33H57.7157C58.0661 206.33 58.3333 206.258 58.5171 206.115C58.701 205.971 58.7929 205.758 58.7929 205.477C58.7929 205.195 58.701 204.986 58.5171 204.848C58.3333 204.704 58.0661 204.632 57.7157 204.632H56.5351V206.33ZM62.6899 209.665V206.778L62.9656 207.545L60.3028 203.59H61.854L63.5258 206.192H63.25L64.9218 203.59H66.4213L63.7671 207.545L64.0342 206.778V209.665H62.6899ZM68.4621 209.665L71.2542 203.59H72.3659L75.1924 209.665H73.8308L73.0983 207.976L73.624 208.347H70.0133L70.5476 207.976L69.8151 209.665H68.4621ZM71.8057 205.003L70.6941 207.64L70.4614 207.312H73.1759L72.9777 207.64L71.8402 205.003H71.8057Z" fill="#C4C4C4"/>
<path d="M22.6411 334.713C21.9919 334.713 21.4346 334.584 20.9693 334.326C20.5039 334.067 20.1449 333.705 19.8921 333.24C19.645 332.769 19.5215 332.214 19.5215 331.577C19.5215 330.939 19.645 330.387 19.8921 329.922C20.1449 329.457 20.5039 329.095 20.9693 328.836C21.4346 328.578 21.9919 328.449 22.6411 328.449C23.0604 328.449 23.4425 328.509 23.7872 328.629C24.1319 328.744 24.4249 328.914 24.6662 329.138L24.2439 330.198C23.9796 329.991 23.7269 329.845 23.4856 329.758C23.25 329.672 22.9829 329.629 22.6841 329.629C22.1154 329.629 21.6788 329.799 21.3743 330.138C21.0755 330.471 20.9262 330.95 20.9262 331.577C20.9262 332.203 21.0755 332.685 21.3743 333.024C21.6788 333.363 22.1154 333.533 22.6841 333.533C22.9829 333.533 23.25 333.49 23.4856 333.404C23.7269 333.317 23.9796 333.171 24.2439 332.964L24.6662 334.024C24.4249 334.242 24.1319 334.412 23.7872 334.532C23.4425 334.653 23.0604 334.713 22.6411 334.713ZM24.7771 334.619L27.5692 328.543H28.6808L31.5074 334.619H30.1458L29.4133 332.93L29.939 333.3H26.3283L26.8626 332.93L26.1301 334.619H24.7771ZM28.1207 329.957L27.0091 332.594L26.7764 332.266H29.4909L29.2927 332.594L28.1552 329.957H28.1207ZM32.7542 334.619V329.638H30.8239V328.543H36.0289V329.638H34.0986V334.619H32.7542ZM36.7608 334.619V328.543H40.9833V329.586H38.0448V331.008H40.7765V332.059H38.0448V333.576H40.9833V334.619H36.7608ZM44.927 334.713C44.2318 334.713 43.6459 334.587 43.169 334.334C42.6979 334.076 42.3417 333.714 42.1005 333.248C41.8592 332.777 41.7385 332.229 41.7385 331.603C41.7385 330.959 41.8678 330.402 42.1263 329.931C42.3906 329.46 42.7697 329.095 43.2638 328.836C43.7579 328.578 44.3496 328.449 45.039 328.449C45.4814 328.449 45.8692 328.506 46.2024 328.621C46.5413 328.73 46.8372 328.888 47.09 329.095L46.6591 330.138C46.4753 330.005 46.3029 329.902 46.1421 329.827C45.9812 329.747 45.8146 329.692 45.6422 329.664C45.4699 329.629 45.2717 329.612 45.0476 329.612C44.4157 329.612 43.9389 329.784 43.6171 330.129C43.3012 330.468 43.1432 330.962 43.1432 331.611C43.1432 332.255 43.2925 332.743 43.5913 333.076C43.89 333.409 44.3582 333.576 44.9959 333.576C45.2085 333.576 45.4268 333.556 45.6509 333.516C45.8749 333.475 46.0961 333.415 46.3144 333.335L46.0731 333.852V332.214H44.7374V331.258H47.1848V334.239C46.8803 334.389 46.527 334.507 46.1248 334.593C45.7284 334.673 45.3291 334.713 44.927 334.713ZM48.1596 331.577C48.1596 330.945 48.2773 330.396 48.5129 329.931C48.7542 329.46 49.0989 329.095 49.547 328.836C49.9951 328.578 50.5265 328.449 51.1412 328.449C51.7559 328.449 52.2873 328.578 52.7355 328.836C53.1836 329.095 53.5283 329.46 53.7696 329.931C54.0166 330.396 54.1401 330.942 54.1401 331.568C54.1401 332.206 54.0166 332.76 53.7696 333.231C53.5283 333.697 53.1836 334.061 52.7355 334.326C52.2873 334.584 51.7559 334.713 51.1412 334.713C50.5265 334.713 49.9951 334.584 49.547 334.326C49.1046 334.061 48.7628 333.694 48.5215 333.223C48.2802 332.752 48.1596 332.203 48.1596 331.577ZM49.5642 331.577C49.5642 332.203 49.6935 332.694 49.952 333.05C50.2163 333.401 50.6127 333.576 51.1412 333.576C51.6583 333.576 52.0518 333.401 52.3218 333.05C52.5918 332.694 52.7268 332.203 52.7268 331.577C52.7268 330.945 52.5918 330.456 52.3218 330.112C52.0575 329.761 51.664 329.586 51.1412 329.586C50.6127 329.586 50.2163 329.761 49.952 330.112C49.6935 330.456 49.5642 330.945 49.5642 331.577ZM55.1908 334.619V328.543H57.9484C58.632 328.543 59.1606 328.707 59.534 329.035C59.9074 329.356 60.0941 329.807 60.0941 330.387C60.0941 330.767 60.008 331.094 59.8356 331.37C59.669 331.64 59.4277 331.85 59.1117 331.999C58.8015 332.143 58.4281 332.214 57.9915 332.214L58.0949 332.025H58.4482C58.6952 332.025 58.9135 332.091 59.1031 332.223C59.2984 332.355 59.4593 332.548 59.5857 332.8L60.4905 334.619H59.0083L58.069 332.662C58.0001 332.496 57.8909 332.387 57.7416 332.335C57.5979 332.278 57.4313 332.249 57.2417 332.249H56.5351V334.619H55.1908ZM56.5351 331.284H57.7157C58.0661 331.284 58.3333 331.212 58.5171 331.068C58.701 330.925 58.7929 330.712 58.7929 330.431C58.7929 330.149 58.701 329.939 58.5171 329.801C58.3333 329.658 58.0661 329.586 57.7157 329.586H56.5351V331.284ZM62.6899 334.619V331.732L62.9656 332.499L60.3028 328.543H61.854L63.5258 331.146H63.25L64.9218 328.543H66.4213L63.7671 332.499L64.0342 331.732V334.619H62.6899ZM68.4621 334.619L71.2542 328.543H72.3659L75.1924 334.619H73.8308L73.0983 332.93L73.624 333.3H70.0133L70.5476 332.93L69.8151 334.619H68.4621ZM71.8057 329.957L70.6941 332.594L70.4614 332.266H73.1759L72.9777 332.594L71.8402 329.957H71.8057Z" fill="#C4C4C4"/>
<path d="M187.128 209.665V203.59H189.929C190.595 203.59 191.11 203.73 191.471 204.012C191.833 204.293 192.014 204.678 192.014 205.167C192.014 205.529 191.905 205.836 191.687 206.089C191.474 206.342 191.181 206.511 190.808 206.597V206.459C191.245 206.534 191.581 206.701 191.816 206.959C192.057 207.212 192.178 207.542 192.178 207.95C192.178 208.49 191.986 208.912 191.601 209.217C191.222 209.516 190.696 209.665 190.024 209.665H187.128ZM188.412 208.665H189.86C190.193 208.665 190.449 208.602 190.627 208.476C190.805 208.349 190.894 208.148 190.894 207.873C190.894 207.591 190.805 207.39 190.627 207.269C190.449 207.143 190.193 207.08 189.86 207.08H188.412V208.665ZM188.412 206.089H189.688C190.038 206.089 190.297 206.026 190.463 205.899C190.63 205.773 190.713 205.583 190.713 205.33C190.713 205.083 190.63 204.897 190.463 204.77C190.297 204.644 190.038 204.581 189.688 204.581H188.412V206.089ZM193.129 209.665V203.59H195.886C196.57 203.59 197.098 203.753 197.472 204.081C197.845 204.403 198.032 204.854 198.032 205.434C198.032 205.813 197.946 206.14 197.773 206.416C197.607 206.686 197.365 206.896 197.05 207.045C196.739 207.189 196.366 207.261 195.929 207.261L196.033 207.071H196.386C196.633 207.071 196.851 207.137 197.041 207.269C197.236 207.402 197.397 207.594 197.523 207.847L198.428 209.665H196.946L196.007 207.709C195.938 207.542 195.829 207.433 195.679 207.381C195.536 207.324 195.369 207.295 195.18 207.295H194.473V209.665H193.129ZM194.473 206.33H195.653C196.004 206.33 196.271 206.258 196.455 206.115C196.639 205.971 196.731 205.758 196.731 205.477C196.731 205.195 196.639 204.986 196.455 204.848C196.271 204.704 196.004 204.632 195.653 204.632H194.473V206.33ZM199.007 206.623C199.007 205.991 199.125 205.442 199.36 204.977C199.601 204.506 199.946 204.141 200.394 203.883C200.842 203.624 201.374 203.495 201.988 203.495C202.603 203.495 203.135 203.624 203.583 203.883C204.031 204.141 204.375 204.506 204.617 204.977C204.864 205.442 204.987 205.988 204.987 206.614C204.987 207.252 204.864 207.807 204.617 208.278C204.375 208.743 204.031 209.108 203.583 209.372C203.135 209.631 202.603 209.76 201.988 209.76C201.374 209.76 200.842 209.631 200.394 209.372C199.952 209.108 199.61 208.74 199.369 208.269C199.127 207.798 199.007 207.249 199.007 206.623ZM200.411 206.623C200.411 207.249 200.541 207.74 200.799 208.097C201.063 208.447 201.46 208.622 201.988 208.622C202.505 208.622 202.899 208.447 203.169 208.097C203.439 207.74 203.574 207.249 203.574 206.623C203.574 205.991 203.439 205.503 203.169 205.158C202.905 204.808 202.511 204.632 201.988 204.632C201.46 204.632 201.063 204.808 200.799 205.158C200.541 205.503 200.411 205.991 200.411 206.623ZM207.584 209.665L205.43 203.59H206.817L208.36 208.278H207.989L209.67 203.59H210.652L212.195 208.278H211.85L213.487 203.59H214.789L212.617 209.665H211.523L210.032 205.348H210.23L208.687 209.665H207.584ZM217.661 209.76C217.172 209.76 216.716 209.7 216.291 209.579C215.866 209.458 215.504 209.292 215.205 209.079L215.601 208.028C215.797 208.16 216.003 208.272 216.222 208.364C216.44 208.456 216.67 208.528 216.911 208.579C217.152 208.625 217.405 208.648 217.669 208.648C218.083 208.648 218.376 208.585 218.548 208.459C218.727 208.332 218.816 208.171 218.816 207.976C218.816 207.798 218.755 207.663 218.635 207.571C218.52 207.473 218.307 207.39 217.997 207.321L216.98 207.114C216.423 206.999 216.006 206.804 215.73 206.528C215.455 206.253 215.317 205.885 215.317 205.425C215.317 205.035 215.42 204.696 215.627 204.408C215.834 204.121 216.124 203.897 216.497 203.736C216.877 203.575 217.319 203.495 217.825 203.495C218.255 203.495 218.658 203.555 219.031 203.676C219.404 203.797 219.712 203.969 219.953 204.193L219.557 205.175C219.321 204.986 219.057 204.845 218.764 204.753C218.477 204.655 218.155 204.607 217.799 204.607C217.425 204.607 217.138 204.673 216.937 204.805C216.742 204.937 216.644 205.118 216.644 205.348C216.644 205.52 216.704 205.661 216.825 205.77C216.946 205.873 217.158 205.957 217.463 206.02L218.462 206.218C219.031 206.333 219.453 206.525 219.729 206.795C220.005 207.065 220.143 207.424 220.143 207.873C220.143 208.252 220.039 208.582 219.832 208.864C219.631 209.145 219.344 209.366 218.971 209.527C218.603 209.682 218.166 209.76 217.661 209.76ZM221.135 209.665V203.59H225.358V204.632H222.419V206.054H225.151V207.106H222.419V208.622H225.358V209.665H221.135Z" fill="#C4C4C4"/>
<rect x="19.2656" y="92.3306" width="173" height="88" rx="4.92429" fill="url(#paint0_linear_81_39391)"/>
<mask id="mask0_81_39391" style="mask-type:luminance" maskUnits="userSpaceOnUse" x="19" y="92" width="174" height="89">
<rect x="19.2656" y="92.3306" width="173" height="88" rx="7.38643" fill="white"/>
</mask>
<g mask="url(#mask0_81_39391)">
<path d="M163 165.569L144.53 144.956C138.316 137.83 129.648 137.735 123.364 144.726L122.475 145.715C117.504 151.245 110.617 151 105.831 145.124L92.1809 128.366C82.9134 116.987 69.6043 116.383 59.8825 126.902L23.625 165.415" stroke="white" stroke-width="0.615536" stroke-linecap="round" stroke-linejoin="round"/>
<path d="M187.203 165.415L147.395 123.442C136.673 112.062 121.276 111.459 110.029 121.977L96.8906 134.149" stroke="white" stroke-width="0.615536" stroke-linecap="round" stroke-linejoin="round"/>
<path fill-rule="evenodd" clip-rule="evenodd" d="M92.582 112.017C92.582 114.397 94.5117 116.326 96.8908 116.326C99.2704 116.326 101.2 114.397 101.2 112.017C101.2 109.638 99.2704 107.708 96.8908 107.708C94.5117 107.708 92.582 109.638 92.582 112.017Z" stroke="white" stroke-width="0.615536" stroke-linecap="round" stroke-linejoin="round"/>
</g>
<rect x="203.828" y="92.3306" width="173" height="88" rx="4.92429" fill="#EEEEEE"/>
<mask id="mask1_81_39391" style="mask-type:luminance" maskUnits="userSpaceOnUse" x="203" y="92" width="174" height="89">
<rect x="203.828" y="92.3306" width="173" height="88" rx="7.38643" fill="white"/>
</mask>
<g mask="url(#mask1_81_39391)">
<path d="M347.563 165.569L329.092 144.956C322.878 137.83 314.21 137.735 307.926 144.726L307.038 145.715C302.067 151.245 295.179 151 290.394 145.124L276.743 128.366C267.476 116.987 254.167 116.383 244.445 126.902L208.188 165.415" stroke="#999999" stroke-width="0.615536" stroke-linecap="round" stroke-linejoin="round"/>
</g>
<rect x="19.082" y="218.515" width="88.0216" height="88.0216" rx="4.92429" fill="#EEEEEE"/>
<mask id="mask2_81_39391" style="mask-type:luminance" maskUnits="userSpaceOnUse" x="19" y="218" width="89" height="89">
<rect x="19.082" y="218.515" width="88.0216" height="88.0216" rx="7.38643" fill="white"/>
</mask>
<g mask="url(#mask2_81_39391)">
<path d="M83.0155 271.694L76.3764 264.285C74.1429 261.723 71.0272 261.689 68.7685 264.202L68.449 264.557C66.6622 266.545 64.1866 266.457 62.4664 264.345L57.56 258.321C54.2288 254.231 49.4449 254.014 45.9505 257.795L32.918 271.639" stroke="#999999" stroke-width="0.615536" stroke-linecap="round" stroke-linejoin="round"/>
<path d="M91.7162 271.639L77.4075 256.551C73.5535 252.461 68.0192 252.244 63.9763 256.025L59.2539 260.4" stroke="#999999" stroke-width="0.615536" stroke-linecap="round" stroke-linejoin="round"/>
<path fill-rule="evenodd" clip-rule="evenodd" d="M57.7031 252.445C57.7031 253.3 58.3967 253.994 59.2519 253.994C60.1072 253.994 60.8006 253.3 60.8006 252.445C60.8006 251.589 60.1072 250.896 59.2519 250.896C58.3967 250.896 57.7031 251.589 57.7031 252.445Z" stroke="#999999" stroke-width="0.615536" stroke-linecap="round" stroke-linejoin="round"/>
</g>
<rect x="113.258" y="218.515" width="88.0216" height="88.0216" rx="4.92429" fill="#EEEEEE"/>
<mask id="mask3_81_39391" style="mask-type:luminance" maskUnits="userSpaceOnUse" x="113" y="218" width="89" height="89">
<rect x="113.258" y="218.515" width="88.0216" height="88.0216" rx="7.38643" fill="white"/>
</mask>
<g mask="url(#mask3_81_39391)">
<path d="M177.191 271.694L170.552 264.285C168.319 261.723 165.203 261.689 162.944 264.202L162.625 264.557C160.838 266.545 158.362 266.457 156.642 264.345L151.736 258.321C148.405 254.231 143.621 254.014 140.126 257.795L127.094 271.639" stroke="#999999" stroke-width="0.615536" stroke-linecap="round" stroke-linejoin="round"/>
<path d="M185.892 271.639L171.583 256.551C167.729 252.461 162.195 252.244 158.152 256.025L153.43 260.4" stroke="#999999" stroke-width="0.615536" stroke-linecap="round" stroke-linejoin="round"/>
<path fill-rule="evenodd" clip-rule="evenodd" d="M151.879 252.445C151.879 253.3 152.573 253.994 153.428 253.994C154.283 253.994 154.976 253.3 154.976 252.445C154.976 251.589 154.283 250.896 153.428 250.896C152.573 250.896 151.879 251.589 151.879 252.445Z" stroke="#999999" stroke-width="0.615536" stroke-linecap="round" stroke-linejoin="round"/>
</g>
<rect x="207.438" y="218.515" width="88.0216" height="88.0216" rx="4.92429" fill="#EEEEEE"/>
<mask id="mask4_81_39391" style="mask-type:luminance" maskUnits="userSpaceOnUse" x="207" y="218" width="89" height="89">
<rect x="207.438" y="218.515" width="88.0216" height="88.0216" rx="7.38643" fill="white"/>
</mask>
<g mask="url(#mask4_81_39391)">
<path d="M271.371 271.694L264.732 264.285C262.498 261.723 259.383 261.689 257.124 264.202L256.804 264.557C255.018 266.545 252.542 266.457 250.822 264.345L245.915 258.321C242.584 254.231 237.8 254.014 234.306 257.795L221.273 271.639" stroke="#999999" stroke-width="0.615536" stroke-linecap="round" stroke-linejoin="round"/>
</g>
<rect x="16.6211" y="349.009" width="46.1652" height="44.9341" rx="22.4671" fill="#EEEEEE"/>
<mask id="mask5_81_39391" style="mask-type:luminance" maskUnits="userSpaceOnUse" x="12" y="345" width="55" height="53">
<rect x="12.9258" y="345.315" width="53.5516" height="52.3205" rx="26.1603" fill="white"/>
</mask>
<g mask="url(#mask5_81_39391)">
<path d="M48.7926 375.2L45.6286 371.67C44.5642 370.449 43.0794 370.433 42.003 371.63L41.8507 371.799C40.9992 372.747 39.8194 372.705 38.9997 371.698L36.6614 368.828C35.0739 366.878 32.7941 366.775 31.1288 368.577L24.918 375.174" stroke="#999999" stroke-width="0.615536" stroke-linecap="round" stroke-linejoin="round"/>
<path d="M52.9391 375.174L46.1201 367.984C44.2834 366.035 41.646 365.932 39.7193 367.734L37.4688 369.819" stroke="#999999" stroke-width="0.615536" stroke-linecap="round" stroke-linejoin="round"/>
<path fill-rule="evenodd" clip-rule="evenodd" d="M36.7305 366.027C36.7305 366.435 37.061 366.765 37.4685 366.765C37.8762 366.765 38.2066 366.435 38.2066 366.027C38.2066 365.62 37.8762 365.289 37.4685 365.289C37.061 365.289 36.7305 365.62 36.7305 366.027Z" stroke="#999999" stroke-width="0.615536" stroke-linecap="round" stroke-linejoin="round"/>
</g>
<path d="M66.4766 368.857L69.2255 362.782H70.1562L72.9397 368.857H71.8108L71.0697 367.151L71.5178 367.453H67.8726L68.3379 367.151L67.5968 368.857H66.4766ZM69.6823 363.971L68.4672 366.85L68.2432 366.582H71.1386L70.9577 366.85L69.7167 363.971H69.6823ZM73.5171 368.857V365.617C73.5171 365.433 73.5113 365.247 73.4998 365.057C73.4941 364.868 73.4797 364.684 73.4567 364.506H74.4995L74.6201 365.695H74.4478C74.5052 365.408 74.6 365.169 74.7321 364.98C74.87 364.79 75.0366 364.649 75.2319 364.557C75.4273 364.465 75.6398 364.419 75.8696 364.419C75.973 364.419 76.0564 364.425 76.1195 364.437C76.1827 364.442 76.2459 364.457 76.3091 364.48L76.3005 365.428C76.1914 365.382 76.0966 365.353 76.0161 365.341C75.9415 365.33 75.8467 365.324 75.7318 365.324C75.4847 365.324 75.275 365.376 75.1027 365.479C74.9361 365.583 74.8097 365.726 74.7235 365.91C74.6431 366.094 74.6029 366.304 74.6029 366.539V368.857H73.5171ZM79.0142 368.944C78.4971 368.944 78.1064 368.809 77.8422 368.539C77.5779 368.269 77.4458 367.864 77.4458 367.324V365.316H76.6099V364.506H77.4458V363.394L78.523 363.118V364.506H79.6863V365.316H78.523V367.255C78.523 367.553 78.5804 367.763 78.6953 367.884C78.8102 368.004 78.9682 368.065 79.1693 368.065C79.2784 368.065 79.3703 368.056 79.445 368.039C79.5255 368.022 79.603 367.999 79.6777 367.97V368.823C79.58 368.863 79.4709 368.892 79.3502 368.909C79.2353 368.932 79.1233 368.944 79.0142 368.944ZM80.418 368.857V364.506H81.4952V368.857H80.418ZM80.3577 363.687V362.636H81.5555V363.687H80.3577ZM84.2161 368.944C83.8427 368.944 83.498 368.901 83.182 368.814C82.8718 368.722 82.6104 368.596 82.3978 368.435L82.6994 367.711C82.9177 367.861 83.159 367.976 83.4233 368.056C83.6876 368.136 83.9547 368.177 84.2247 368.177C84.512 368.177 84.7245 368.128 84.8624 368.03C85.006 367.932 85.0778 367.8 85.0778 367.634C85.0778 367.502 85.0319 367.398 84.94 367.324C84.8538 367.243 84.713 367.183 84.5177 367.143L83.656 366.979C83.2883 366.898 83.0068 366.76 82.8114 366.565C82.6219 366.37 82.5271 366.114 82.5271 365.798C82.5271 365.528 82.5989 365.29 82.7425 365.083C82.8919 364.876 83.1016 364.715 83.3716 364.6C83.6473 364.48 83.9691 364.419 84.3367 364.419C84.6585 364.419 84.9601 364.462 85.2416 364.549C85.5288 364.635 85.7701 364.764 85.9654 364.936L85.6552 365.634C85.4771 365.491 85.2732 365.379 85.0434 365.298C84.8136 365.218 84.5895 365.178 84.3712 365.178C84.0725 365.178 83.8542 365.232 83.7163 365.341C83.5784 365.445 83.5095 365.58 83.5095 365.747C83.5095 365.873 83.5497 365.979 83.6301 366.065C83.7163 366.146 83.8484 366.206 84.0265 366.246L84.8883 366.41C85.2732 366.485 85.5633 366.617 85.7586 366.806C85.9597 366.99 86.0602 367.243 86.0602 367.565C86.0602 367.852 85.9827 368.099 85.8276 368.306C85.6724 368.513 85.457 368.671 85.1813 368.78C84.9055 368.889 84.5838 368.944 84.2161 368.944ZM88.8014 368.944C88.2844 368.944 87.8937 368.809 87.6294 368.539C87.3652 368.269 87.233 367.864 87.233 367.324V365.316H86.3971V364.506H87.233V363.394L88.3102 363.118V364.506H89.4736V365.316H88.3102V367.255C88.3102 367.553 88.3677 367.763 88.4826 367.884C88.5975 368.004 88.7554 368.065 88.9565 368.065C89.0657 368.065 89.1576 368.056 89.2323 368.039C89.3127 368.022 89.3903 367.999 89.465 367.97V368.823C89.3673 368.863 89.2581 368.892 89.1375 368.909C89.0226 368.932 88.9106 368.944 88.8014 368.944ZM92.6562 368.857V362.782H93.4921L97.0166 367.341H96.7926V362.782H97.8267V368.857H96.9908L93.4749 364.299H93.6903V368.857H92.6562ZM100.756 368.944C100.376 368.944 100.043 368.855 99.756 368.676C99.4687 368.493 99.2447 368.231 99.0838 367.892C98.923 367.553 98.8425 367.148 98.8425 366.677C98.8425 366.206 98.923 365.804 99.0838 365.471C99.2447 365.132 99.4687 364.873 99.756 364.695C100.043 364.511 100.376 364.419 100.756 364.419C101.123 364.419 101.445 364.511 101.721 364.695C102.002 364.873 102.189 365.115 102.281 365.419H102.186L102.281 364.506H103.315C103.298 364.684 103.281 364.865 103.263 365.048C103.252 365.232 103.246 365.413 103.246 365.591V368.857H102.178L102.169 367.961H102.272C102.18 368.26 101.994 368.498 101.712 368.676C101.431 368.855 101.112 368.944 100.756 368.944ZM101.057 368.116C101.396 368.116 101.669 367.999 101.876 367.763C102.083 367.522 102.186 367.16 102.186 366.677C102.186 366.195 102.083 365.836 101.876 365.6C101.669 365.364 101.396 365.247 101.057 365.247C100.718 365.247 100.445 365.364 100.239 365.6C100.032 365.836 99.9283 366.195 99.9283 366.677C99.9283 367.16 100.029 367.522 100.23 367.763C100.437 367.999 100.713 368.116 101.057 368.116ZM104.419 368.857V365.591C104.419 365.413 104.413 365.232 104.402 365.048C104.39 364.865 104.373 364.684 104.35 364.506H105.393L105.479 365.367H105.376C105.496 365.069 105.68 364.836 105.927 364.669C106.18 364.503 106.479 364.419 106.823 364.419C107.168 364.419 107.452 364.503 107.676 364.669C107.906 364.83 108.067 365.083 108.159 365.428H108.021C108.142 365.117 108.34 364.873 108.616 364.695C108.892 364.511 109.208 364.419 109.564 364.419C110.052 364.419 110.417 364.563 110.658 364.85C110.899 365.138 111.02 365.586 111.02 366.195V368.857H109.943V366.238C109.943 365.893 109.885 365.646 109.771 365.497C109.656 365.341 109.472 365.264 109.219 365.264C108.92 365.264 108.685 365.37 108.512 365.583C108.34 365.79 108.254 366.071 108.254 366.427V368.857H107.177V366.238C107.177 365.893 107.119 365.646 107.004 365.497C106.889 365.341 106.706 365.264 106.453 365.264C106.154 365.264 105.919 365.37 105.746 365.583C105.58 365.79 105.496 366.071 105.496 366.427V368.857H104.419ZM114.272 368.944C113.543 368.944 112.971 368.743 112.558 368.34C112.144 367.938 111.937 367.387 111.937 366.686C111.937 366.232 112.026 365.836 112.204 365.497C112.382 365.158 112.629 364.893 112.945 364.704C113.267 364.514 113.641 364.419 114.066 364.419C114.485 364.419 114.835 364.508 115.117 364.687C115.398 364.865 115.611 365.115 115.755 365.436C115.904 365.758 115.979 366.134 115.979 366.565V366.85H112.807V366.281H115.212L115.065 366.401C115.065 365.999 114.979 365.692 114.807 365.479C114.64 365.267 114.396 365.161 114.074 365.161C113.718 365.161 113.442 365.287 113.247 365.54C113.057 365.792 112.963 366.146 112.963 366.6V366.712C112.963 367.183 113.077 367.536 113.307 367.772C113.543 368.001 113.873 368.116 114.298 368.116C114.545 368.116 114.775 368.085 114.988 368.022C115.206 367.953 115.413 367.843 115.608 367.694L115.927 368.418C115.72 368.585 115.473 368.714 115.186 368.806C114.899 368.898 114.594 368.944 114.272 368.944Z" fill="#999999"/>
<path d="M66.9875 382.093V377.753H67.4799L70.1452 381.249H69.9913V377.753H70.5883V382.093H70.1021L67.443 378.597H67.5845V382.093H66.9875ZM72.6504 382.148C72.277 382.148 71.9959 382.048 71.8071 381.847C71.6224 381.641 71.5301 381.327 71.5301 380.905V378.99H72.1518V380.892C72.1518 381.151 72.2051 381.342 72.3118 381.465C72.4185 381.588 72.5806 381.65 72.7981 381.65C73.0443 381.65 73.2434 381.568 73.3952 381.403C73.547 381.239 73.6229 381.022 73.6229 380.751V378.99H74.2446V382.093H73.6414V381.428H73.7214C73.6352 381.658 73.4978 381.836 73.309 381.964C73.1202 382.087 72.9007 382.148 72.6504 382.148ZM75.1552 382.093V379.735C75.1552 379.616 75.1491 379.495 75.1368 379.372C75.1286 379.245 75.1183 379.118 75.106 378.99H75.7092L75.7646 379.643H75.6907C75.7769 379.417 75.9082 379.243 76.0847 379.12C76.2652 378.997 76.4807 378.935 76.731 378.935C76.9854 378.935 77.1927 378.997 77.3527 379.12C77.5168 379.239 77.6297 379.423 77.6912 379.674H77.5928C77.6748 379.448 77.8143 379.27 78.0113 379.138C78.2083 379.003 78.436 378.935 78.6946 378.935C79.0393 378.935 79.2978 379.036 79.4701 379.237C79.6425 379.438 79.7287 379.75 79.7287 380.172V382.093H79.107V380.203C79.107 379.932 79.0598 379.737 78.9654 379.618C78.8751 379.495 78.7274 379.434 78.5222 379.434C78.2842 379.434 78.0954 379.516 77.9559 379.68C77.8164 379.844 77.7466 380.066 77.7466 380.345V382.093H77.1249V380.203C77.1249 379.932 77.0778 379.737 76.9834 379.618C76.8931 379.495 76.7454 379.434 76.5402 379.434C76.3022 379.434 76.1155 379.516 75.9801 379.68C75.8446 379.844 75.7769 380.066 75.7769 380.345V382.093H75.1552ZM82.2751 382.148C82.0043 382.148 81.7683 382.08 81.5672 381.945C81.3662 381.81 81.2328 381.625 81.1671 381.391H81.2349V382.093H80.6193V377.562H81.241V379.68H81.1671C81.2369 379.45 81.3703 379.27 81.5672 379.138C81.7683 379.003 82.0043 378.935 82.2751 378.935C82.55 378.935 82.7901 379.001 82.9953 379.132C83.2005 379.259 83.3585 379.444 83.4692 379.686C83.5841 379.924 83.6416 380.211 83.6416 380.548C83.6416 380.88 83.5841 381.167 83.4692 381.41C83.3585 381.648 83.1984 381.83 82.9891 381.957C82.784 382.085 82.5459 382.148 82.2751 382.148ZM82.1212 381.662C82.388 381.662 82.6034 381.57 82.7675 381.385C82.9317 381.196 83.0138 380.917 83.0138 380.548C83.0138 380.174 82.9317 379.895 82.7675 379.711C82.6034 379.522 82.388 379.428 82.1212 379.428C81.8504 379.428 81.6329 379.522 81.4688 379.711C81.3087 379.895 81.2287 380.172 81.2287 380.542C81.2287 380.911 81.3087 381.19 81.4688 381.379C81.6329 381.568 81.8504 381.662 82.1212 381.662ZM85.8044 382.148C85.3038 382.148 84.9099 382.007 84.6226 381.723C84.3354 381.44 84.1917 381.048 84.1917 380.548C84.1917 380.224 84.2533 379.94 84.3764 379.698C84.5036 379.456 84.678 379.27 84.8996 379.138C85.1253 379.003 85.3859 378.935 85.6813 378.935C85.9727 378.935 86.2168 378.997 86.4138 379.12C86.6108 379.243 86.7606 379.417 86.8632 379.643C86.9657 379.865 87.017 380.127 87.017 380.431V380.628H84.678V380.271H86.5923L86.4877 380.351C86.4877 380.043 86.4179 379.805 86.2784 379.637C86.143 379.464 85.946 379.378 85.6875 379.378C85.4002 379.378 85.1786 379.479 85.0227 379.68C84.8668 379.877 84.7888 380.15 84.7888 380.499V380.56C84.7888 380.925 84.877 381.2 85.0535 381.385C85.234 381.57 85.4885 381.662 85.8167 381.662C85.9973 381.662 86.1656 381.637 86.3215 381.588C86.4815 381.535 86.6334 381.449 86.777 381.33L86.9801 381.754C86.8365 381.881 86.6621 381.98 86.4569 382.05C86.2517 382.115 86.0342 382.148 85.8044 382.148ZM87.7181 382.093V379.76C87.7181 379.633 87.714 379.505 87.7058 379.378C87.7017 379.247 87.6935 379.118 87.6812 378.99H88.2844L88.3521 379.791H88.2536C88.2947 379.598 88.3644 379.438 88.4629 379.311C88.5614 379.183 88.6804 379.089 88.8199 379.027C88.9636 378.966 89.1133 378.935 89.2693 378.935C89.3349 378.935 89.3903 378.939 89.4355 378.947C89.4806 378.951 89.5257 378.96 89.5709 378.972L89.5647 379.526C89.495 379.497 89.4334 379.481 89.3801 379.477C89.3308 379.469 89.2693 379.464 89.1954 379.464C89.0149 379.464 88.861 379.505 88.7338 379.588C88.6065 379.666 88.5101 379.772 88.4445 379.908C88.3788 380.043 88.346 380.189 88.346 380.345V382.093H87.7181ZM93.0213 382.148C92.7135 382.148 92.4468 382.085 92.2211 381.957C91.9954 381.826 91.821 381.641 91.6979 381.403C91.5748 381.161 91.5132 380.874 91.5132 380.542C91.5132 380.209 91.5748 379.924 91.6979 379.686C91.821 379.444 91.9954 379.259 92.2211 379.132C92.4468 379.001 92.7135 378.935 93.0213 378.935C93.3291 378.935 93.5958 379.001 93.8215 379.132C94.0513 379.259 94.2278 379.444 94.3509 379.686C94.4781 379.924 94.5417 380.209 94.5417 380.542C94.5417 380.874 94.4781 381.161 94.3509 381.403C94.2278 381.641 94.0513 381.826 93.8215 381.957C93.5958 382.085 93.3291 382.148 93.0213 382.148ZM93.0213 381.662C93.2921 381.662 93.5076 381.568 93.6676 381.379C93.8277 381.19 93.9077 380.911 93.9077 380.542C93.9077 380.172 93.8277 379.895 93.6676 379.711C93.5076 379.522 93.2921 379.428 93.0213 379.428C92.7546 379.428 92.5412 379.522 92.3811 379.711C92.2211 379.895 92.1411 380.172 92.1411 380.542C92.1411 380.911 92.2191 381.19 92.375 381.379C92.535 381.568 92.7505 381.662 93.0213 381.662ZM95.423 382.093V379.471H94.8197V378.99H95.5953L95.423 379.151V378.658C95.423 378.293 95.5153 378.016 95.6999 377.827C95.8846 377.634 96.1554 377.538 96.5125 377.538C96.5986 377.538 96.6889 377.544 96.7833 377.556C96.8777 377.569 96.9556 377.589 97.0172 377.618V378.123C96.9679 378.102 96.9064 378.086 96.8325 378.073C96.7628 378.057 96.691 378.049 96.6171 378.049C96.4981 378.049 96.3955 378.073 96.3093 378.123C96.2231 378.168 96.1554 378.237 96.1062 378.332C96.0611 378.426 96.0385 378.547 96.0385 378.695V379.114L95.9462 378.99H96.8818V379.471H96.0446V382.093H95.423ZM99.0987 382.093V377.753H101.881V378.264H99.7389V379.655H101.739V380.166H99.7389V382.093H99.0987ZM103.751 382.148C103.443 382.148 103.177 382.085 102.951 381.957C102.725 381.826 102.551 381.641 102.428 381.403C102.305 381.161 102.243 380.874 102.243 380.542C102.243 380.209 102.305 379.924 102.428 379.686C102.551 379.444 102.725 379.259 102.951 379.132C103.177 379.001 103.443 378.935 103.751 378.935C104.059 378.935 104.326 379.001 104.551 379.132C104.781 379.259 104.958 379.444 105.081 379.686C105.208 379.924 105.271 380.209 105.271 380.542C105.271 380.874 105.208 381.161 105.081 381.403C104.958 381.641 104.781 381.826 104.551 381.957C104.326 382.085 104.059 382.148 103.751 382.148ZM103.751 381.662C104.022 381.662 104.237 381.568 104.397 381.379C104.557 381.19 104.637 380.911 104.637 380.542C104.637 380.172 104.557 379.895 104.397 379.711C104.237 379.522 104.022 379.428 103.751 379.428C103.484 379.428 103.271 379.522 103.111 379.711C102.951 379.895 102.871 380.172 102.871 380.542C102.871 380.911 102.949 381.19 103.105 381.379C103.265 381.568 103.48 381.662 103.751 381.662ZM105.998 382.093V377.562H106.62V382.093H105.998ZM107.531 382.093V377.562H108.153V382.093H107.531ZM110.393 382.148C110.086 382.148 109.819 382.085 109.593 381.957C109.367 381.826 109.193 381.641 109.07 381.403C108.947 381.161 108.885 380.874 108.885 380.542C108.885 380.209 108.947 379.924 109.07 379.686C109.193 379.444 109.367 379.259 109.593 379.132C109.819 379.001 110.086 378.935 110.393 378.935C110.701 378.935 110.968 379.001 111.194 379.132C111.423 379.259 111.6 379.444 111.723 379.686C111.85 379.924 111.914 380.209 111.914 380.542C111.914 380.874 111.85 381.161 111.723 381.403C111.6 381.641 111.423 381.826 111.194 381.957C110.968 382.085 110.701 382.148 110.393 382.148ZM110.393 381.662C110.664 381.662 110.88 381.568 111.04 381.379C111.2 381.19 111.28 380.911 111.28 380.542C111.28 380.172 111.2 379.895 111.04 379.711C110.88 379.522 110.664 379.428 110.393 379.428C110.127 379.428 109.913 379.522 109.753 379.711C109.593 379.895 109.513 380.172 109.513 380.542C109.513 380.911 109.591 381.19 109.747 381.379C109.907 381.568 110.123 381.662 110.393 381.662ZM113.43 382.093L112.254 378.99H112.9L113.817 381.576H113.657L114.599 378.99H115.079L116.015 381.576H115.861L116.778 378.99H117.4L116.218 382.093H115.652L114.679 379.458H114.968L114.008 382.093H113.43ZM119.352 382.148C118.852 382.148 118.458 382.007 118.171 381.723C117.883 381.44 117.74 381.048 117.74 380.548C117.74 380.224 117.801 379.94 117.924 379.698C118.052 379.456 118.226 379.27 118.448 379.138C118.673 379.003 118.934 378.935 119.229 378.935C119.521 378.935 119.765 378.997 119.962 379.12C120.159 379.243 120.308 379.417 120.411 379.643C120.514 379.865 120.565 380.127 120.565 380.431V380.628H118.226V380.271H120.14L120.036 380.351C120.036 380.043 119.966 379.805 119.826 379.637C119.691 379.464 119.494 379.378 119.235 379.378C118.948 379.378 118.727 379.479 118.571 379.68C118.415 379.877 118.337 380.15 118.337 380.499V380.56C118.337 380.925 118.425 381.2 118.601 381.385C118.782 381.57 119.036 381.662 119.365 381.662C119.545 381.662 119.713 381.637 119.869 381.588C120.029 381.535 120.181 381.449 120.325 381.33L120.528 381.754C120.384 381.881 120.21 381.98 120.005 382.05C119.8 382.115 119.582 382.148 119.352 382.148ZM121.266 382.093V379.76C121.266 379.633 121.262 379.505 121.254 379.378C121.25 379.247 121.241 379.118 121.229 378.99H121.832L121.9 379.791H121.802C121.843 379.598 121.912 379.438 122.011 379.311C122.109 379.183 122.228 379.089 122.368 379.027C122.511 378.966 122.661 378.935 122.817 378.935C122.883 378.935 122.938 378.939 122.983 378.947C123.029 378.951 123.074 378.96 123.119 378.972L123.113 379.526C123.043 379.497 122.981 379.481 122.928 379.477C122.879 379.469 122.817 379.464 122.743 379.464C122.563 379.464 122.409 379.505 122.282 379.588C122.154 379.666 122.058 379.772 121.992 379.908C121.927 380.043 121.894 380.189 121.894 380.345V382.093H121.266ZM124.633 382.148C124.375 382.148 124.137 382.115 123.919 382.05C123.702 381.984 123.521 381.892 123.378 381.773L123.569 381.348C123.72 381.463 123.889 381.549 124.073 381.607C124.258 381.664 124.447 381.693 124.64 381.693C124.865 381.693 125.036 381.654 125.15 381.576C125.265 381.494 125.323 381.383 125.323 381.243C125.323 381.137 125.286 381.05 125.212 380.985C125.142 380.919 125.025 380.87 124.861 380.837L124.27 380.72C124.008 380.663 123.809 380.564 123.673 380.425C123.538 380.285 123.47 380.107 123.47 379.889C123.47 379.704 123.519 379.54 123.618 379.397C123.72 379.253 123.864 379.14 124.049 379.058C124.237 378.976 124.457 378.935 124.707 378.935C124.937 378.935 125.15 378.968 125.347 379.034C125.544 379.099 125.709 379.194 125.84 379.317L125.643 379.729C125.516 379.622 125.372 379.54 125.212 379.483C125.052 379.421 124.89 379.391 124.726 379.391C124.496 379.391 124.326 379.434 124.215 379.52C124.104 379.606 124.049 379.719 124.049 379.858C124.049 379.965 124.082 380.053 124.147 380.123C124.217 380.189 124.326 380.24 124.473 380.277L125.064 380.394C125.343 380.451 125.553 380.546 125.692 380.677C125.832 380.808 125.901 380.985 125.901 381.206C125.901 381.399 125.848 381.568 125.741 381.711C125.635 381.855 125.487 381.964 125.298 382.037C125.109 382.111 124.888 382.148 124.633 382.148Z" fill="#C4C4C4"/>
<path d="M209.28 372.399C209.62 372.399 209.895 372.123 209.895 371.784C209.895 371.444 209.62 371.168 209.28 371.168C208.94 371.168 208.664 371.444 208.664 371.784C208.664 372.123 208.94 372.399 209.28 372.399Z" stroke="#999999" stroke-width="0.615536" stroke-linecap="round" stroke-linejoin="round"/>
<path d="M213.589 372.399C213.928 372.399 214.204 372.123 214.204 371.784C214.204 371.444 213.928 371.168 213.589 371.168C213.249 371.168 212.973 371.444 212.973 371.784C212.973 372.123 213.249 372.399 213.589 372.399Z" stroke="#999999" stroke-width="0.615536" stroke-linecap="round" stroke-linejoin="round"/>
<path d="M204.971 372.399C205.311 372.399 205.587 372.123 205.587 371.784C205.587 371.444 205.311 371.168 204.971 371.168C204.631 371.168 204.355 371.444 204.355 371.784C204.355 372.123 204.631 372.399 204.971 372.399Z" stroke="#999999" stroke-width="0.615536" stroke-linecap="round" stroke-linejoin="round"/>
<rect x="16.6211" y="410.562" width="46.1652" height="44.9341" rx="22.4671" fill="#EEEEEE"/>
<mask id="mask6_81_39391" style="mask-type:luminance" maskUnits="userSpaceOnUse" x="12" y="406" width="55" height="54">
<rect x="12.9258" y="406.87" width="53.5516" height="52.3205" rx="26.1603" fill="white"/>
</mask>
<g mask="url(#mask6_81_39391)">
<path d="M48.7926 436.754L45.6286 433.223C44.5642 432.003 43.0794 431.986 42.003 433.184L41.8507 433.353C40.9992 434.3 39.8194 434.259 38.9997 433.252L36.6614 430.381C35.0739 428.432 32.7941 428.329 31.1288 430.131L24.918 436.728" stroke="#999999" stroke-width="0.615536" stroke-linecap="round" stroke-linejoin="round"/>
<path d="M52.9391 436.728L46.1201 429.538C44.2834 427.588 41.646 427.485 39.7193 429.287L37.4688 431.372" stroke="#999999" stroke-width="0.615536" stroke-linecap="round" stroke-linejoin="round"/>
<path fill-rule="evenodd" clip-rule="evenodd" d="M36.7305 427.581C36.7305 427.989 37.061 428.319 37.4685 428.319C37.8762 428.319 38.2066 427.989 38.2066 427.581C38.2066 427.174 37.8762 426.843 37.4685 426.843C37.061 426.843 36.7305 427.174 36.7305 427.581Z" stroke="#999999" stroke-width="0.615536" stroke-linecap="round" stroke-linejoin="round"/>
</g>
<path d="M66.4766 430.411L69.2255 424.335H70.1562L72.9397 430.411H71.8108L71.0697 428.704L71.5178 429.006H67.8726L68.3379 428.704L67.5968 430.411H66.4766ZM69.6823 425.525L68.4672 428.403L68.2432 428.136H71.1386L70.9577 428.403L69.7167 425.525H69.6823ZM73.5171 430.411V427.17C73.5171 426.987 73.5113 426.8 73.4998 426.61C73.4941 426.421 73.4797 426.237 73.4567 426.059H74.4995L74.6201 427.248H74.4478C74.5052 426.961 74.6 426.722 74.7321 426.533C74.87 426.343 75.0366 426.202 75.2319 426.111C75.4273 426.019 75.6398 425.973 75.8696 425.973C75.973 425.973 76.0564 425.978 76.1195 425.99C76.1827 425.996 76.2459 426.01 76.3091 426.033L76.3005 426.981C76.1914 426.935 76.0966 426.906 76.0161 426.895C75.9415 426.883 75.8467 426.877 75.7318 426.877C75.4847 426.877 75.275 426.929 75.1027 427.033C74.9361 427.136 74.8097 427.28 74.7235 427.463C74.6431 427.647 74.6029 427.857 74.6029 428.093V430.411H73.5171ZM79.0142 430.497C78.4971 430.497 78.1064 430.362 77.8422 430.092C77.5779 429.822 77.4458 429.417 77.4458 428.877V426.869H76.6099V426.059H77.4458V424.947L78.523 424.671V426.059H79.6863V426.869H78.523V428.808C78.523 429.107 78.5804 429.316 78.6953 429.437C78.8102 429.558 78.9682 429.618 79.1693 429.618C79.2784 429.618 79.3703 429.609 79.445 429.592C79.5255 429.575 79.603 429.552 79.6777 429.523V430.376C79.58 430.416 79.4709 430.445 79.3502 430.462C79.2353 430.485 79.1233 430.497 79.0142 430.497ZM80.418 430.411V426.059H81.4952V430.411H80.418ZM80.3577 425.24V424.189H81.5555V425.24H80.3577ZM84.2161 430.497C83.8427 430.497 83.498 430.454 83.182 430.368C82.8718 430.276 82.6104 430.149 82.3978 429.988L82.6994 429.265C82.9177 429.414 83.159 429.529 83.4233 429.609C83.6876 429.69 83.9547 429.73 84.2247 429.73C84.512 429.73 84.7245 429.681 84.8624 429.583C85.006 429.486 85.0778 429.354 85.0778 429.187C85.0778 429.055 85.0319 428.951 84.94 428.877C84.8538 428.796 84.713 428.736 84.5177 428.696L83.656 428.532C83.2883 428.452 83.0068 428.314 82.8114 428.118C82.6219 427.923 82.5271 427.667 82.5271 427.351C82.5271 427.081 82.5989 426.843 82.7425 426.636C82.8919 426.429 83.1016 426.268 83.3716 426.154C83.6473 426.033 83.9691 425.973 84.3367 425.973C84.6585 425.973 84.9601 426.016 85.2416 426.102C85.5288 426.188 85.7701 426.317 85.9654 426.49L85.6552 427.188C85.4771 427.044 85.2732 426.932 85.0434 426.852C84.8136 426.771 84.5895 426.731 84.3712 426.731C84.0725 426.731 83.8542 426.786 83.7163 426.895C83.5784 426.998 83.5095 427.133 83.5095 427.3C83.5095 427.426 83.5497 427.532 83.6301 427.619C83.7163 427.699 83.8484 427.759 84.0265 427.8L84.8883 427.963C85.2732 428.038 85.5633 428.17 85.7586 428.36C85.9597 428.544 86.0602 428.796 86.0602 429.118C86.0602 429.405 85.9827 429.652 85.8276 429.859C85.6724 430.066 85.457 430.224 85.1813 430.333C84.9055 430.442 84.5838 430.497 84.2161 430.497ZM88.8014 430.497C88.2844 430.497 87.8937 430.362 87.6294 430.092C87.3652 429.822 87.233 429.417 87.233 428.877V426.869H86.3971V426.059H87.233V424.947L88.3102 424.671V426.059H89.4736V426.869H88.3102V428.808C88.3102 429.107 88.3677 429.316 88.4826 429.437C88.5975 429.558 88.7554 429.618 88.9565 429.618C89.0657 429.618 89.1576 429.609 89.2323 429.592C89.3127 429.575 89.3903 429.552 89.465 429.523V430.376C89.3673 430.416 89.2581 430.445 89.1375 430.462C89.0226 430.485 88.9106 430.497 88.8014 430.497ZM92.6562 430.411V424.335H93.4921L97.0166 428.894H96.7926V424.335H97.8267V430.411H96.9908L93.4749 425.852H93.6903V430.411H92.6562ZM100.756 430.497C100.376 430.497 100.043 430.408 99.756 430.23C99.4687 430.046 99.2447 429.784 99.0838 429.445C98.923 429.107 98.8425 428.702 98.8425 428.23C98.8425 427.759 98.923 427.357 99.0838 427.024C99.2447 426.685 99.4687 426.426 99.756 426.248C100.043 426.065 100.376 425.973 100.756 425.973C101.123 425.973 101.445 426.065 101.721 426.248C102.002 426.426 102.189 426.668 102.281 426.972H102.186L102.281 426.059H103.315C103.298 426.237 103.281 426.418 103.263 426.602C103.252 426.786 103.246 426.967 103.246 427.145V430.411H102.178L102.169 429.514H102.272C102.18 429.813 101.994 430.052 101.712 430.23C101.431 430.408 101.112 430.497 100.756 430.497ZM101.057 429.67C101.396 429.67 101.669 429.552 101.876 429.316C102.083 429.075 102.186 428.713 102.186 428.23C102.186 427.748 102.083 427.389 101.876 427.153C101.669 426.918 101.396 426.8 101.057 426.8C100.718 426.8 100.445 426.918 100.239 427.153C100.032 427.389 99.9283 427.748 99.9283 428.23C99.9283 428.713 100.029 429.075 100.23 429.316C100.437 429.552 100.713 429.67 101.057 429.67ZM104.419 430.411V427.145C104.419 426.967 104.413 426.786 104.402 426.602C104.39 426.418 104.373 426.237 104.35 426.059H105.393L105.479 426.921H105.376C105.496 426.622 105.68 426.389 105.927 426.223C106.18 426.056 106.479 425.973 106.823 425.973C107.168 425.973 107.452 426.056 107.676 426.223C107.906 426.383 108.067 426.636 108.159 426.981H108.021C108.142 426.671 108.34 426.426 108.616 426.248C108.892 426.065 109.208 425.973 109.564 425.973C110.052 425.973 110.417 426.116 110.658 426.404C110.899 426.691 111.02 427.139 111.02 427.748V430.411H109.943V427.791C109.943 427.446 109.885 427.199 109.771 427.05C109.656 426.895 109.472 426.817 109.219 426.817C108.92 426.817 108.685 426.923 108.512 427.136C108.34 427.343 108.254 427.624 108.254 427.981V430.411H107.177V427.791C107.177 427.446 107.119 427.199 107.004 427.05C106.889 426.895 106.706 426.817 106.453 426.817C106.154 426.817 105.919 426.923 105.746 427.136C105.58 427.343 105.496 427.624 105.496 427.981V430.411H104.419ZM114.272 430.497C113.543 430.497 112.971 430.296 112.558 429.894C112.144 429.491 111.937 428.94 111.937 428.239C111.937 427.785 112.026 427.389 112.204 427.05C112.382 426.711 112.629 426.447 112.945 426.257C113.267 426.067 113.641 425.973 114.066 425.973C114.485 425.973 114.835 426.062 115.117 426.24C115.398 426.418 115.611 426.668 115.755 426.989C115.904 427.311 115.979 427.688 115.979 428.118V428.403H112.807V427.834H115.212L115.065 427.955C115.065 427.553 114.979 427.245 114.807 427.033C114.64 426.82 114.396 426.714 114.074 426.714C113.718 426.714 113.442 426.84 113.247 427.093C113.057 427.346 112.963 427.699 112.963 428.153V428.265C112.963 428.736 113.077 429.089 113.307 429.325C113.543 429.555 113.873 429.67 114.298 429.67C114.545 429.67 114.775 429.638 114.988 429.575C115.206 429.506 115.413 429.397 115.608 429.247L115.927 429.971C115.72 430.138 115.473 430.267 115.186 430.359C114.899 430.451 114.594 430.497 114.272 430.497Z" fill="#999999"/>
<path d="M66.9875 443.646V439.306H67.4799L70.1452 442.802H69.9913V439.306H70.5883V443.646H70.1021L67.443 440.149H67.5845V443.646H66.9875ZM72.6504 443.701C72.277 443.701 71.9959 443.6 71.8071 443.399C71.6224 443.194 71.5301 442.88 71.5301 442.458V440.543H72.1518V442.445C72.1518 442.704 72.2051 442.895 72.3118 443.018C72.4185 443.141 72.5806 443.202 72.7981 443.202C73.0443 443.202 73.2434 443.12 73.3952 442.956C73.547 442.792 73.6229 442.574 73.6229 442.304V440.543H74.2446V443.646H73.6414V442.981H73.7214C73.6352 443.211 73.4978 443.389 73.309 443.516C73.1202 443.639 72.9007 443.701 72.6504 443.701ZM75.1552 443.646V441.288C75.1552 441.169 75.1491 441.048 75.1368 440.925C75.1286 440.798 75.1183 440.67 75.106 440.543H75.7092L75.7646 441.196H75.6907C75.7769 440.97 75.9082 440.796 76.0847 440.672C76.2652 440.549 76.4807 440.488 76.731 440.488C76.9854 440.488 77.1927 440.549 77.3527 440.672C77.5168 440.791 77.6297 440.976 77.6912 441.226H77.5928C77.6748 441.001 77.8143 440.822 78.0113 440.691C78.2083 440.556 78.436 440.488 78.6946 440.488C79.0393 440.488 79.2978 440.588 79.4701 440.789C79.6425 440.99 79.7287 441.302 79.7287 441.725V443.646H79.107V441.756C79.107 441.485 79.0598 441.29 78.9654 441.171C78.8751 441.048 78.7274 440.986 78.5222 440.986C78.2842 440.986 78.0954 441.068 77.9559 441.233C77.8164 441.397 77.7466 441.618 77.7466 441.897V443.646H77.1249V441.756C77.1249 441.485 77.0778 441.29 76.9834 441.171C76.8931 441.048 76.7454 440.986 76.5402 440.986C76.3022 440.986 76.1155 441.068 75.9801 441.233C75.8446 441.397 75.7769 441.618 75.7769 441.897V443.646H75.1552ZM82.2751 443.701C82.0043 443.701 81.7683 443.633 81.5672 443.498C81.3662 443.362 81.2328 443.178 81.1671 442.944H81.2349V443.646H80.6193V439.115H81.241V441.233H81.1671C81.2369 441.003 81.3703 440.822 81.5672 440.691C81.7683 440.556 82.0043 440.488 82.2751 440.488C82.55 440.488 82.7901 440.553 82.9953 440.685C83.2005 440.812 83.3585 440.997 83.4692 441.239C83.5841 441.477 83.6416 441.764 83.6416 442.101C83.6416 442.433 83.5841 442.72 83.4692 442.962C83.3585 443.2 83.1984 443.383 82.9891 443.51C82.784 443.637 82.5459 443.701 82.2751 443.701ZM82.1212 443.215C82.388 443.215 82.6034 443.122 82.7675 442.938C82.9317 442.749 83.0138 442.47 83.0138 442.101C83.0138 441.727 82.9317 441.448 82.7675 441.263C82.6034 441.075 82.388 440.98 82.1212 440.98C81.8504 440.98 81.6329 441.075 81.4688 441.263C81.3087 441.448 81.2287 441.725 81.2287 442.094C81.2287 442.464 81.3087 442.743 81.4688 442.931C81.6329 443.12 81.8504 443.215 82.1212 443.215ZM85.8044 443.701C85.3038 443.701 84.9099 443.559 84.6226 443.276C84.3354 442.993 84.1917 442.601 84.1917 442.101C84.1917 441.776 84.2533 441.493 84.3764 441.251C84.5036 441.009 84.678 440.822 84.8996 440.691C85.1253 440.556 85.3859 440.488 85.6813 440.488C85.9727 440.488 86.2168 440.549 86.4138 440.672C86.6108 440.796 86.7606 440.97 86.8632 441.196C86.9657 441.417 87.017 441.68 87.017 441.984V442.181H84.678V441.824H86.5923L86.4877 441.904C86.4877 441.596 86.4179 441.358 86.2784 441.19C86.143 441.017 85.946 440.931 85.6875 440.931C85.4002 440.931 85.1786 441.032 85.0227 441.233C84.8668 441.43 84.7888 441.702 84.7888 442.051V442.113C84.7888 442.478 84.877 442.753 85.0535 442.938C85.234 443.122 85.4885 443.215 85.8167 443.215C85.9973 443.215 86.1656 443.19 86.3215 443.141C86.4815 443.087 86.6334 443.001 86.777 442.882L86.9801 443.307C86.8365 443.434 86.6621 443.533 86.4569 443.602C86.2517 443.668 86.0342 443.701 85.8044 443.701ZM87.7181 443.646V441.313C87.7181 441.185 87.714 441.058 87.7058 440.931C87.7017 440.8 87.6935 440.67 87.6812 440.543H88.2844L88.3521 441.343H88.2536C88.2947 441.151 88.3644 440.99 88.4629 440.863C88.5614 440.736 88.6804 440.642 88.8199 440.58C88.9636 440.519 89.1133 440.488 89.2693 440.488C89.3349 440.488 89.3903 440.492 89.4355 440.5C89.4806 440.504 89.5257 440.512 89.5709 440.525L89.5647 441.079C89.495 441.05 89.4334 441.034 89.3801 441.029C89.3308 441.021 89.2693 441.017 89.1954 441.017C89.0149 441.017 88.861 441.058 88.7338 441.14C88.6065 441.218 88.5101 441.325 88.4445 441.46C88.3788 441.596 88.346 441.741 88.346 441.897V443.646H87.7181ZM93.0213 443.701C92.7135 443.701 92.4468 443.637 92.2211 443.51C91.9954 443.379 91.821 443.194 91.6979 442.956C91.5748 442.714 91.5132 442.427 91.5132 442.094C91.5132 441.762 91.5748 441.477 91.6979 441.239C91.821 440.997 91.9954 440.812 92.2211 440.685C92.4468 440.553 92.7135 440.488 93.0213 440.488C93.3291 440.488 93.5958 440.553 93.8215 440.685C94.0513 440.812 94.2278 440.997 94.3509 441.239C94.4781 441.477 94.5417 441.762 94.5417 442.094C94.5417 442.427 94.4781 442.714 94.3509 442.956C94.2278 443.194 94.0513 443.379 93.8215 443.51C93.5958 443.637 93.3291 443.701 93.0213 443.701ZM93.0213 443.215C93.2921 443.215 93.5076 443.12 93.6676 442.931C93.8277 442.743 93.9077 442.464 93.9077 442.094C93.9077 441.725 93.8277 441.448 93.6676 441.263C93.5076 441.075 93.2921 440.98 93.0213 440.98C92.7546 440.98 92.5412 441.075 92.3811 441.263C92.2211 441.448 92.1411 441.725 92.1411 442.094C92.1411 442.464 92.2191 442.743 92.375 442.931C92.535 443.12 92.7505 443.215 93.0213 443.215ZM95.423 443.646V441.023H94.8197V440.543H95.5953L95.423 440.703V440.211C95.423 439.846 95.5153 439.569 95.6999 439.38C95.8846 439.187 96.1554 439.091 96.5125 439.091C96.5986 439.091 96.6889 439.097 96.7833 439.109C96.8777 439.121 96.9556 439.142 97.0172 439.171V439.675C96.9679 439.655 96.9064 439.638 96.8325 439.626C96.7628 439.61 96.691 439.601 96.6171 439.601C96.4981 439.601 96.3955 439.626 96.3093 439.675C96.2231 439.72 96.1554 439.79 96.1062 439.885C96.0611 439.979 96.0385 440.1 96.0385 440.248V440.666L95.9462 440.543H96.8818V441.023H96.0446V443.646H95.423ZM99.0987 443.646V439.306H101.881V439.817H99.7389V441.208H101.739V441.719H99.7389V443.646H99.0987ZM103.751 443.701C103.443 443.701 103.177 443.637 102.951 443.51C102.725 443.379 102.551 443.194 102.428 442.956C102.305 442.714 102.243 442.427 102.243 442.094C102.243 441.762 102.305 441.477 102.428 441.239C102.551 440.997 102.725 440.812 102.951 440.685C103.177 440.553 103.443 440.488 103.751 440.488C104.059 440.488 104.326 440.553 104.551 440.685C104.781 440.812 104.958 440.997 105.081 441.239C105.208 441.477 105.271 441.762 105.271 442.094C105.271 442.427 105.208 442.714 105.081 442.956C104.958 443.194 104.781 443.379 104.551 443.51C104.326 443.637 104.059 443.701 103.751 443.701ZM103.751 443.215C104.022 443.215 104.237 443.12 104.397 442.931C104.557 442.743 104.637 442.464 104.637 442.094C104.637 441.725 104.557 441.448 104.397 441.263C104.237 441.075 104.022 440.98 103.751 440.98C103.484 440.98 103.271 441.075 103.111 441.263C102.951 441.448 102.871 441.725 102.871 442.094C102.871 442.464 102.949 442.743 103.105 442.931C103.265 443.12 103.48 443.215 103.751 443.215ZM105.998 443.646V439.115H106.62V443.646H105.998ZM107.531 443.646V439.115H108.153V443.646H107.531ZM110.393 443.701C110.086 443.701 109.819 443.637 109.593 443.51C109.367 443.379 109.193 443.194 109.07 442.956C108.947 442.714 108.885 442.427 108.885 442.094C108.885 441.762 108.947 441.477 109.07 441.239C109.193 440.997 109.367 440.812 109.593 440.685C109.819 440.553 110.086 440.488 110.393 440.488C110.701 440.488 110.968 440.553 111.194 440.685C111.423 440.812 111.6 440.997 111.723 441.239C111.85 441.477 111.914 441.762 111.914 442.094C111.914 442.427 111.85 442.714 111.723 442.956C111.6 443.194 111.423 443.379 111.194 443.51C110.968 443.637 110.701 443.701 110.393 443.701ZM110.393 443.215C110.664 443.215 110.88 443.12 111.04 442.931C111.2 442.743 111.28 442.464 111.28 442.094C111.28 441.725 111.2 441.448 111.04 441.263C110.88 441.075 110.664 440.98 110.393 440.98C110.127 440.98 109.913 441.075 109.753 441.263C109.593 441.448 109.513 441.725 109.513 442.094C109.513 442.464 109.591 442.743 109.747 442.931C109.907 443.12 110.123 443.215 110.393 443.215ZM113.43 443.646L112.254 440.543H112.9L113.817 443.128H113.657L114.599 440.543H115.079L116.015 443.128H115.861L116.778 440.543H117.4L116.218 443.646H115.652L114.679 441.011H114.968L114.008 443.646H113.43ZM119.352 443.701C118.852 443.701 118.458 443.559 118.171 443.276C117.883 442.993 117.74 442.601 117.74 442.101C117.74 441.776 117.801 441.493 117.924 441.251C118.052 441.009 118.226 440.822 118.448 440.691C118.673 440.556 118.934 440.488 119.229 440.488C119.521 440.488 119.765 440.549 119.962 440.672C120.159 440.796 120.308 440.97 120.411 441.196C120.514 441.417 120.565 441.68 120.565 441.984V442.181H118.226V441.824H120.14L120.036 441.904C120.036 441.596 119.966 441.358 119.826 441.19C119.691 441.017 119.494 440.931 119.235 440.931C118.948 440.931 118.727 441.032 118.571 441.233C118.415 441.43 118.337 441.702 118.337 442.051V442.113C118.337 442.478 118.425 442.753 118.601 442.938C118.782 443.122 119.036 443.215 119.365 443.215C119.545 443.215 119.713 443.19 119.869 443.141C120.029 443.087 120.181 443.001 120.325 442.882L120.528 443.307C120.384 443.434 120.21 443.533 120.005 443.602C119.8 443.668 119.582 443.701 119.352 443.701ZM121.266 443.646V441.313C121.266 441.185 121.262 441.058 121.254 440.931C121.25 440.8 121.241 440.67 121.229 440.543H121.832L121.9 441.343H121.802C121.843 441.151 121.912 440.99 122.011 440.863C122.109 440.736 122.228 440.642 122.368 440.58C122.511 440.519 122.661 440.488 122.817 440.488C122.883 440.488 122.938 440.492 122.983 440.5C123.029 440.504 123.074 440.512 123.119 440.525L123.113 441.079C123.043 441.05 122.981 441.034 122.928 441.029C122.879 441.021 122.817 441.017 122.743 441.017C122.563 441.017 122.409 441.058 122.282 441.14C122.154 441.218 122.058 441.325 121.992 441.46C121.927 441.596 121.894 441.741 121.894 441.897V443.646H121.266ZM124.633 443.701C124.375 443.701 124.137 443.668 123.919 443.602C123.702 443.537 123.521 443.444 123.378 443.325L123.569 442.901C123.72 443.016 123.889 443.102 124.073 443.159C124.258 443.217 124.447 443.245 124.64 443.245C124.865 443.245 125.036 443.206 125.15 443.128C125.265 443.046 125.323 442.936 125.323 442.796C125.323 442.689 125.286 442.603 125.212 442.538C125.142 442.472 125.025 442.423 124.861 442.39L124.27 442.273C124.008 442.215 123.809 442.117 123.673 441.977C123.538 441.838 123.47 441.659 123.47 441.442C123.47 441.257 123.519 441.093 123.618 440.949C123.72 440.806 123.864 440.693 124.049 440.611C124.237 440.529 124.457 440.488 124.707 440.488C124.937 440.488 125.15 440.521 125.347 440.586C125.544 440.652 125.709 440.746 125.84 440.869L125.643 441.282C125.516 441.175 125.372 441.093 125.212 441.036C125.052 440.974 124.89 440.943 124.726 440.943C124.496 440.943 124.326 440.986 124.215 441.073C124.104 441.159 124.049 441.272 124.049 441.411C124.049 441.518 124.082 441.606 124.147 441.676C124.217 441.741 124.326 441.793 124.473 441.83L125.064 441.947C125.343 442.004 125.553 442.098 125.692 442.23C125.832 442.361 125.901 442.538 125.901 442.759C125.901 442.952 125.848 443.12 125.741 443.264C125.635 443.408 125.487 443.516 125.298 443.59C125.109 443.664 124.888 443.701 124.633 443.701Z" fill="#C4C4C4"/>
<path d="M209.28 433.953C209.62 433.953 209.895 433.677 209.895 433.337C209.895 432.997 209.62 432.722 209.28 432.722C208.94 432.722 208.664 432.997 208.664 433.337C208.664 433.677 208.94 433.953 209.28 433.953Z" stroke="#999999" stroke-width="0.615536" stroke-linecap="round" stroke-linejoin="round"/>
<path d="M213.589 433.953C213.928 433.953 214.204 433.677 214.204 433.337C214.204 432.997 213.928 432.722 213.589 432.722C213.249 432.722 212.973 432.997 212.973 433.337C212.973 433.677 213.249 433.953 213.589 433.953Z" stroke="#999999" stroke-width="0.615536" stroke-linecap="round" stroke-linejoin="round"/>
<path d="M204.971 433.953C205.311 433.953 205.587 433.677 205.587 433.337C205.587 432.997 205.311 432.722 204.971 432.722C204.631 432.722 204.355 432.997 204.355 433.337C204.355 433.677 204.631 433.953 204.971 433.953Z" stroke="#999999" stroke-width="0.615536" stroke-linecap="round" stroke-linejoin="round"/>
<rect width="233.288" height="32.6234" transform="translate(0 494.275)" fill="#EDEDEF"/>
<path fill-rule="evenodd" clip-rule="evenodd" d="M201.347 509.14C200.727 509.839 199.822 510.279 198.814 510.279C196.944 510.279 195.428 508.764 195.428 506.894C195.428 505.024 196.944 503.508 198.814 503.508C200.683 503.508 202.199 505.024 202.199 506.894C202.199 507.534 202.022 508.133 201.713 508.643C202.94 509.438 203.739 510.724 203.739 512.183V514.889C203.739 515.399 203.326 515.812 202.816 515.812H194.814C194.304 515.812 193.891 515.399 193.891 514.889V512.183C193.891 511.072 194.359 510.026 195.184 509.226C195.306 509.107 195.501 509.11 195.619 509.232C195.737 509.354 195.734 509.549 195.612 509.667C194.904 510.355 194.506 511.243 194.506 512.183V514.889C194.506 515.059 194.644 515.197 194.814 515.197H202.816C202.986 515.197 203.124 515.06 203.124 514.889V512.183C203.124 510.936 202.425 509.825 201.347 509.14ZM200.787 508.838C200.285 509.348 199.586 509.664 198.814 509.664C197.284 509.664 196.044 508.424 196.044 506.894C196.044 505.364 197.284 504.124 198.814 504.124C200.343 504.124 201.584 505.364 201.584 506.894C201.584 507.424 201.435 507.92 201.176 508.341C200.475 507.999 199.67 507.806 198.815 507.806C198.645 507.806 198.507 507.943 198.507 508.113C198.507 508.283 198.645 508.421 198.815 508.421C199.527 508.421 200.197 508.572 200.787 508.838Z" fill="#999999"/>
<path fill-rule="evenodd" clip-rule="evenodd" d="M139.986 505.253L146.499 504.169V512.115C146.499 512.132 146.5 512.148 146.503 512.164C146.477 513.161 145.66 513.961 144.657 513.961C143.637 513.961 142.811 513.134 142.811 512.115C142.811 511.095 143.637 510.268 144.657 510.268C144.931 510.268 145.195 510.327 145.437 510.44C145.591 510.512 145.775 510.446 145.846 510.292C145.918 510.138 145.852 509.954 145.698 509.883C145.374 509.732 145.021 509.652 144.657 509.652C143.297 509.652 142.195 510.755 142.195 512.115C142.195 513.474 143.297 514.577 144.657 514.577C146.017 514.577 147.119 513.474 147.119 512.115C147.119 512.096 147.118 512.078 147.115 512.061V503.877C147.115 503.648 146.907 503.473 146.68 503.514L139.884 504.646C139.439 504.721 139.113 505.106 139.113 505.557V506.42L138.736 506.483C138.569 506.511 138.456 506.67 138.484 506.837C138.512 507.005 138.67 507.118 138.838 507.09L139.113 507.044V513.346C139.113 513.363 139.114 513.379 139.117 513.395C139.09 514.392 138.274 515.192 137.271 515.192C136.251 515.192 135.424 514.365 135.424 513.346C135.424 512.326 136.251 511.499 137.271 511.499C137.558 511.499 137.835 511.564 138.086 511.688C138.239 511.763 138.423 511.701 138.498 511.548C138.574 511.396 138.511 511.211 138.359 511.136C138.023 510.971 137.653 510.883 137.271 510.883C135.911 510.883 134.809 511.986 134.809 513.346C134.809 514.705 135.911 515.808 137.271 515.808C138.631 515.808 139.733 514.705 139.733 513.346C139.733 513.327 139.731 513.309 139.728 513.292V506.941L145.616 505.955C145.783 505.927 145.897 505.768 145.868 505.601C145.84 505.433 145.682 505.32 145.514 505.348L139.728 506.317V505.557C139.728 505.407 139.837 505.278 139.986 505.253ZM139.728 506.317L139.113 506.42V507.044L139.728 506.941V506.317ZM139.728 513.292C139.703 513.148 139.577 513.038 139.425 513.038C139.255 513.038 139.117 513.176 139.117 513.346C139.117 513.362 139.117 513.379 139.117 513.395C139.14 513.542 139.267 513.653 139.42 513.653C139.59 513.653 139.728 513.516 139.728 513.346V513.292ZM147.115 512.061C147.089 511.916 146.963 511.807 146.812 511.807C146.642 511.807 146.504 511.945 146.504 512.115C146.504 512.131 146.504 512.148 146.503 512.164C146.527 512.311 146.654 512.422 146.807 512.422C146.977 512.422 147.115 512.285 147.115 512.115V512.061ZM146.502 503.878C146.502 504.028 146.636 504.144 146.781 504.122L146.502 504.169V503.878Z" fill="#999999"/>
<path fill-rule="evenodd" clip-rule="evenodd" d="M85.9555 511.181C86.4849 510.396 86.7939 509.45 86.7939 508.432C86.7939 505.712 84.5895 503.507 81.8696 503.507C79.1501 503.507 76.9453 505.712 76.9453 508.432C76.9453 511.152 79.1499 513.356 81.8696 513.356C83.3482 513.356 84.6743 512.705 85.5769 511.673L88.5349 514.631C88.6627 514.759 88.6627 514.966 88.5349 515.093C88.4726 515.156 88.3901 515.189 88.3044 515.189C88.2181 515.189 88.1355 515.156 88.0733 515.093L85.7669 512.787C85.6467 512.667 85.4518 512.667 85.3316 512.787C85.2114 512.907 85.2114 513.102 85.3316 513.222L87.638 515.529C87.8169 515.707 88.0564 515.805 88.3044 515.805C88.5519 515.805 88.7914 515.707 88.9701 515.529C89.3384 515.16 89.3384 514.564 88.9701 514.196L85.9555 511.181ZM85.5109 510.737C85.9336 510.07 86.1783 509.28 86.1783 508.432C86.1783 506.052 84.2496 504.123 81.8696 504.123C79.49 504.123 77.5608 506.052 77.5608 508.432C77.5608 510.812 79.4898 512.74 81.8696 512.74C83.1783 512.74 84.3504 512.157 85.1405 511.237L84.4502 510.547C84.33 510.426 84.33 510.231 84.4502 510.111C84.5704 509.991 84.7652 509.991 84.8854 510.111L85.5109 510.737ZM83.5386 511.018C83.0454 511.337 82.4702 511.509 81.869 511.509C80.1694 511.509 78.7914 510.132 78.7914 508.432C78.7914 508.262 78.6536 508.124 78.4836 508.124C78.3136 508.124 78.1758 508.262 78.1758 508.432C78.1758 510.472 79.8295 512.125 81.869 512.125C82.5898 512.125 83.2809 511.918 83.873 511.535C84.0157 511.442 84.0565 511.252 83.9642 511.109C83.8718 510.966 83.6813 510.925 83.5386 511.018Z" fill="#999999"/>
<path fill-rule="evenodd" clip-rule="evenodd" d="M31.2301 509.85C31.4568 509.481 31.4094 509.003 31.0786 508.691L25.8605 503.759C25.504 503.423 24.9483 503.423 24.5922 503.759L19.3728 508.692C18.766 509.265 19.1722 510.286 20.0071 510.286H20.9073V514.897C20.9073 515.407 21.3207 515.82 21.8306 515.82H28.6243C29.1342 515.82 29.5476 515.407 29.5476 514.897V509.342C29.5476 508.832 29.1342 508.419 28.6243 508.419H21.8306C21.3207 508.419 20.9073 508.832 20.9073 509.342V509.671H20.0071C19.729 509.671 19.5935 509.33 19.7956 509.139L25.0147 504.207C25.1335 504.095 25.3189 504.095 25.4379 504.207L30.6562 509.139C30.7675 509.244 30.7836 509.397 30.7077 509.524C30.7071 509.525 30.7066 509.526 30.706 509.527C30.6502 509.617 30.5588 509.67 30.4454 509.67C30.2754 509.67 30.1376 509.808 30.1376 509.978C30.1376 510.148 30.2754 510.286 30.4454 510.286C30.7743 510.286 31.06 510.121 31.2264 509.856C31.2277 509.854 31.2289 509.852 31.2301 509.85ZM21.5229 514.897V510.286H25.1874C25.3574 510.286 25.4952 510.148 25.4952 509.978C25.4952 509.808 25.3574 509.671 25.1874 509.671H21.5229V509.342C21.5229 509.172 21.6606 509.034 21.8306 509.034H28.6243C28.7944 509.034 28.9321 509.172 28.9321 509.342V514.897C28.9321 515.067 28.7944 515.205 28.6243 515.205H21.8306C21.6606 515.205 21.5229 515.067 21.5229 514.897Z" fill="#999999"/>
</g>
<path d="M24.8185 10.2314V4.59006H25.9148L27.8753 8.99114H27.6192L29.5797 4.59006H30.668V10.2314H29.5317V6.3985H29.8518L28.0993 10.2314H27.3791L25.6187 6.3985H25.9548V10.2314H24.8185ZM34.2525 10.3195C33.4256 10.3195 32.8094 10.1141 32.404 9.70332C31.9986 9.29255 31.7959 8.68173 31.7959 7.87087V4.59006H33.0442V7.87887C33.0442 8.33231 33.1402 8.6764 33.3322 8.91112C33.5296 9.14585 33.8364 9.26321 34.2525 9.26321C34.6579 9.26321 34.9593 9.14585 35.1567 8.91112C35.3594 8.6764 35.4608 8.33231 35.4608 7.87887V4.59006H36.6931V7.87087C36.6931 8.68173 36.4877 9.29255 36.0769 9.70332C35.6715 10.1141 35.0633 10.3195 34.2525 10.3195ZM39.8386 10.3195C39.3851 10.3195 38.961 10.2635 38.5663 10.1514C38.1715 10.0394 37.8354 9.88469 37.558 9.68731L37.9261 8.71107C38.1075 8.83377 38.2995 8.93779 38.5023 9.02315C38.705 9.1085 38.9184 9.17519 39.1424 9.2232C39.3665 9.26587 39.6012 9.28721 39.8466 9.28721C40.2307 9.28721 40.5027 9.22853 40.6628 9.11117C40.8282 8.99381 40.9108 8.84444 40.9108 8.66306C40.9108 8.49769 40.8548 8.37232 40.7428 8.28697C40.6361 8.19628 40.4387 8.11893 40.1507 8.05491L39.2064 7.86286C38.689 7.75617 38.3022 7.57479 38.0461 7.31873C37.7901 7.06267 37.662 6.72125 37.662 6.29448C37.662 5.93172 37.7581 5.61698 37.9501 5.35025C38.1422 5.08351 38.4116 4.87546 38.7583 4.72609C39.1104 4.57672 39.5212 4.50204 39.9906 4.50204C40.3907 4.50204 40.7641 4.55805 41.1109 4.67008C41.4576 4.78211 41.7431 4.94215 41.9671 5.1502L41.599 6.06242C41.3803 5.88638 41.1349 5.75568 40.8628 5.67032C40.5961 5.57964 40.2974 5.53429 39.9666 5.53429C39.6199 5.53429 39.3531 5.59564 39.1664 5.71834C38.985 5.84103 38.8944 6.00907 38.8944 6.22246C38.8944 6.3825 38.9504 6.5132 39.0624 6.61456C39.1744 6.71058 39.3718 6.78793 39.6545 6.84661L40.5828 7.03066C41.1109 7.13735 41.503 7.31606 41.7591 7.56679C42.0151 7.81752 42.1431 8.15093 42.1431 8.56704C42.1431 8.91912 42.0471 9.22586 41.8551 9.48726C41.6684 9.74866 41.4016 9.95404 41.0549 10.1034C40.7135 10.2474 40.308 10.3195 39.8386 10.3195ZM43.065 10.2314V4.59006H44.3133V10.2314H43.065ZM48.1849 10.3195C47.5821 10.3195 47.0646 10.1994 46.6325 9.95938C46.2004 9.71932 45.867 9.38324 45.6323 8.95113C45.4029 8.51369 45.2882 7.9989 45.2882 7.40675C45.2882 6.81461 45.4029 6.30248 45.6323 5.87037C45.867 5.43827 46.2004 5.10219 46.6325 4.86213C47.0646 4.62207 47.5821 4.50204 48.1849 4.50204C48.5743 4.50204 48.9291 4.55805 49.2491 4.67008C49.5692 4.77677 49.8413 4.93414 50.0653 5.14219L49.6732 6.12644C49.4279 5.93439 49.1931 5.79836 48.9691 5.71834C48.7504 5.63832 48.5023 5.59831 48.2249 5.59831C47.6968 5.59831 47.2913 5.75568 47.0086 6.07042C46.7312 6.37983 46.5925 6.82528 46.5925 7.40675C46.5925 7.98823 46.7312 8.43634 47.0086 8.75108C47.2913 9.06583 47.6968 9.2232 48.2249 9.2232C48.5023 9.2232 48.7504 9.18319 48.9691 9.10317C49.1931 9.02315 49.4279 8.88712 49.6732 8.69507L50.0653 9.67931C49.8413 9.88203 49.5692 10.0394 49.2491 10.1514C48.9291 10.2635 48.5743 10.3195 48.1849 10.3195ZM53.1925 10.2314V4.59006H54.4408V6.85462H57.0254V4.59006H58.2817V10.2314H57.0254V7.88687H54.4408V10.2314H53.1925ZM59.2604 7.40675C59.2604 6.81994 59.3697 6.31048 59.5884 5.87838C59.8125 5.44093 60.1326 5.10219 60.5487 4.86213C60.9648 4.62207 61.4582 4.50204 62.029 4.50204C62.5998 4.50204 63.0933 4.62207 63.5094 4.86213C63.9255 5.10219 64.2456 5.44093 64.4696 5.87838C64.699 6.31048 64.8137 6.81727 64.8137 7.39875C64.8137 7.99089 64.699 8.50569 64.4696 8.94313C64.2456 9.37523 63.9255 9.71398 63.5094 9.95938C63.0933 10.1994 62.5998 10.3195 62.029 10.3195C61.4582 10.3195 60.9648 10.1994 60.5487 9.95938C60.1379 9.71398 59.8205 9.37257 59.5964 8.93513C59.3724 8.49769 59.2604 7.98823 59.2604 7.40675ZM60.5647 7.40675C60.5647 7.98823 60.6847 8.44434 60.9248 8.77509C61.1702 9.1005 61.5382 9.26321 62.029 9.26321C62.5092 9.26321 62.8746 9.1005 63.1253 8.77509C63.376 8.44434 63.5014 7.98823 63.5014 7.40675C63.5014 6.81994 63.376 6.3665 63.1253 6.04642C62.8799 5.721 62.5145 5.5583 62.029 5.5583C61.5382 5.5583 61.1702 5.721 60.9248 6.04642C60.6847 6.3665 60.5647 6.81994 60.5647 7.40675ZM65.7973 10.2314V4.59006H66.8936L68.8541 8.99114H68.598L70.5585 4.59006H71.6468V10.2314H70.5105V6.3985H70.8306L69.0781 10.2314H68.358L66.5975 6.3985H66.9336V10.2314H65.7973ZM72.8067 10.2314V4.59006H76.7276V5.5583H73.999V6.87862H76.5356V7.85486H73.999V9.26321H76.7276V10.2314H72.8067ZM79.8553 10.2314V4.59006H82.4879C83.1228 4.59006 83.6029 4.74476 83.9283 5.05417C84.259 5.35825 84.4244 5.77702 84.4244 6.31048C84.4244 6.83861 84.259 7.26005 83.9283 7.57479C83.6029 7.8842 83.1228 8.03891 82.4879 8.03891H81.1036V10.2314H79.8553ZM81.1036 7.07067H82.3279C82.6266 7.07067 82.848 7.00399 82.9921 6.87062C83.1414 6.73725 83.2161 6.55054 83.2161 6.31048C83.2161 6.07042 83.1414 5.88638 82.9921 5.75835C82.848 5.62498 82.6266 5.5583 82.3279 5.5583H81.1036V7.07067ZM83.997 10.2314L86.5896 4.59006H87.6219L90.2465 10.2314H88.9822L88.3021 8.66306L88.7902 9.00714H85.4373L85.9335 8.66306L85.2533 10.2314H83.997ZM87.1018 5.90238L86.0695 8.35098L85.8534 8.04691H88.3741L88.19 8.35098L87.1338 5.90238H87.1018ZM93.3928 10.3195C92.7473 10.3195 92.2032 10.2021 91.7604 9.96738C91.323 9.72732 90.9922 9.39124 90.7682 8.95913C90.5441 8.52169 90.4321 8.01223 90.4321 7.43076C90.4321 6.83328 90.5521 6.31582 90.7922 5.87838C91.0376 5.44093 91.3896 5.10219 91.8484 4.86213C92.3072 4.62207 92.8567 4.50204 93.4968 4.50204C93.9076 4.50204 94.2677 4.55538 94.5771 4.66208C94.8918 4.76344 95.1666 4.91014 95.4013 5.10219L95.0012 6.07042C94.8305 5.94773 94.6704 5.8517 94.5211 5.78235C94.3717 5.70767 94.217 5.65699 94.057 5.63031C93.8969 5.59831 93.7129 5.5823 93.5048 5.5823C92.918 5.5823 92.4752 5.74234 92.1765 6.06242C91.8831 6.37717 91.7364 6.83594 91.7364 7.43876C91.7364 8.03624 91.8751 8.48968 92.1525 8.79909C92.4299 9.1085 92.8647 9.26321 93.4568 9.26321C93.6542 9.26321 93.8569 9.24454 94.065 9.20719C94.273 9.16985 94.4784 9.11384 94.6811 9.03915L94.4571 9.51927V7.9989H93.2168V7.11068H95.4893V9.87936C95.2066 10.0181 94.8785 10.1274 94.5051 10.2074C94.137 10.2821 93.7662 10.3195 93.3928 10.3195ZM96.5625 10.2314V4.59006H100.483V5.5583H97.7548V6.87862H100.291V7.85486H97.7548V9.26321H100.483V10.2314H96.5625Z" fill="#999999"/>
<ellipse cx="7.76779" cy="7.6942" rx="7.76779" ry="7.6942" fill="url(#paint1_linear_81_39391)"/>
<path d="M5.99965 10.2314V9.53527H7.31198V5.29423H7.72808L6.12768 6.27047V5.47028L7.54403 4.59006H8.14418V9.53527H9.37648V10.2314H5.99965ZM10.3096 10.2314V9.27921H11.2618V10.2314H10.3096Z" fill="white"/>
</g>
<defs>
<linearGradient id="paint0_linear_81_39391" x1="120.641" y1="238.656" x2="113.13" y2="181.022" gradientUnits="userSpaceOnUse">
<stop offset="0.21875" stop-color="#969BFF"/>
<stop offset="1" stop-color="#656CEE"/>
</linearGradient>
<linearGradient id="paint1_linear_81_39391" x1="9.10365" y1="25.5877" x2="6.6598" y2="15.9584" gradientUnits="userSpaceOnUse">
<stop offset="0.21875" stop-color="#969BFF"/>
<stop offset="1" stop-color="#656CEE"/>
</linearGradient>
<clipPath id="clip0_81_39391">
<rect width="233.034" height="499.815" fill="white" transform="translate(0 27.084)"/>
</clipPath>
</defs>
</svg>
