<svg width="1002" height="949" viewBox="0 0 1002 949" fill="none" xmlns="http://www.w3.org/2000/svg">
<rect x="0.477988" y="0.477988" width="1001.04" height="948.044" fill="#F6F5FF"/>
<path d="M455 188L283.9 188C278.394 188 275.641 188 273.53 189.055C271.593 190.022 270.022 191.593 269.055 193.53C268 195.641 268 198.394 268 203.9L268 234" stroke="#C4C4C4"/>
<path fill-rule="evenodd" clip-rule="evenodd" d="M265 233L271 233L268 236L265 233Z" fill="#C4C4C4"/>
<path d="M447 188L633.1 188C638.606 188 641.359 188 643.47 189.055C645.407 190.022 646.978 191.593 647.945 193.53C649 195.641 649 198.394 649 203.9L649 234" stroke="#C4C4C4"/>
<path fill-rule="evenodd" clip-rule="evenodd" d="M652 233L646 233L649 236L652 233Z" fill="#C4C4C4"/>
<path d="M457.5 188L457.5 161.068" stroke="#C4C4C4" stroke-linecap="square"/>
<path fill-rule="evenodd" clip-rule="evenodd" d="M460 163L455 163L457.5 160L460 163Z" fill="#C4C4C4"/>
<path d="M649 344L649 278.167" stroke="#C4C4C4" stroke-linecap="square"/>
<path fill-rule="evenodd" clip-rule="evenodd" d="M651 280L646 280L648.5 277L651 280Z" fill="#C4C4C4"/>
<path d="M650 503L650 568.833" stroke="#C4C4C4" stroke-linecap="square"/>
<path fill-rule="evenodd" clip-rule="evenodd" d="M648 567L653 567L650.5 570L648 567Z" fill="#C4C4C4"/>
<path d="M428.158 141.184V154H426.484V145.198L422.686 154H421.408L417.556 145.252L417.574 154H415.9V141.184H417.394L422.056 151.768L426.664 141.184H428.158ZM436.143 148.852V154H434.271V148.816L429.177 141.184H431.301L435.225 147.232L439.131 141.184H441.255L436.143 148.852ZM459.341 141.184V154H457.667V145.198L453.869 154H452.591L448.739 145.252L448.757 154H447.083V141.184H448.577L453.239 151.768L457.847 141.184H459.341ZM467.471 154.144C465.767 154.144 464.471 153.7 463.583 152.812C462.707 151.924 462.269 150.622 462.269 148.906V141.184H464.087V149.032C464.087 150.22 464.369 151.12 464.933 151.732C465.509 152.332 466.355 152.632 467.471 152.632C468.575 152.632 469.409 152.326 469.973 151.714C470.549 151.102 470.837 150.208 470.837 149.032V141.184H472.673V148.906C472.673 150.622 472.229 151.924 471.341 152.812C470.465 153.7 469.175 154.144 467.471 154.144ZM479.771 154.144C478.775 154.144 477.863 154.012 477.035 153.748C476.219 153.484 475.511 153.088 474.911 152.56L475.577 151.192C476.201 151.696 476.849 152.062 477.521 152.29C478.193 152.518 478.949 152.632 479.789 152.632C480.749 152.632 481.493 152.452 482.021 152.092C482.549 151.732 482.813 151.222 482.813 150.562C482.813 150.01 482.567 149.596 482.075 149.32C481.583 149.032 480.803 148.768 479.735 148.528C478.715 148.312 477.881 148.066 477.233 147.79C476.585 147.502 476.075 147.124 475.703 146.656C475.331 146.176 475.145 145.564 475.145 144.82C475.145 144.076 475.343 143.422 475.739 142.858C476.135 142.282 476.693 141.838 477.413 141.526C478.145 141.202 478.985 141.04 479.933 141.04C480.833 141.04 481.673 141.178 482.453 141.454C483.245 141.73 483.905 142.12 484.433 142.624L483.767 143.992C483.179 143.5 482.573 143.14 481.949 142.912C481.325 142.672 480.659 142.552 479.951 142.552C479.027 142.552 478.301 142.75 477.773 143.146C477.245 143.53 476.981 144.058 476.981 144.73C476.981 145.306 477.209 145.744 477.665 146.044C478.133 146.344 478.877 146.614 479.897 146.854C480.965 147.094 481.829 147.346 482.489 147.61C483.149 147.874 483.677 148.234 484.073 148.69C484.469 149.146 484.667 149.734 484.667 150.454C484.667 151.198 484.469 151.846 484.073 152.398C483.677 152.95 483.107 153.382 482.363 153.694C481.631 153.994 480.767 154.144 479.771 154.144ZM486.968 141.184H488.822V154H486.968V141.184ZM497.436 154.144C496.2 154.144 495.12 153.88 494.196 153.352C493.284 152.812 492.582 152.05 492.09 151.066C491.598 150.082 491.352 148.918 491.352 147.574C491.352 146.242 491.598 145.084 492.09 144.1C492.582 143.116 493.284 142.36 494.196 141.832C495.12 141.304 496.2 141.04 497.436 141.04C498.312 141.04 499.122 141.178 499.866 141.454C500.622 141.718 501.258 142.108 501.774 142.624L501.126 143.992C500.526 143.5 499.932 143.146 499.344 142.93C498.768 142.702 498.138 142.588 497.454 142.588C496.122 142.588 495.09 143.02 494.358 143.884C493.638 144.748 493.278 145.978 493.278 147.574C493.278 149.182 493.638 150.424 494.358 151.3C495.09 152.164 496.122 152.596 497.454 152.596C498.138 152.596 498.768 152.488 499.344 152.272C499.932 152.044 500.526 151.684 501.126 151.192L501.774 152.56C501.258 153.076 500.622 153.472 499.866 153.748C499.122 154.012 498.312 154.144 497.436 154.144Z" fill="#3C3C43" fill-opacity="0.6"/>
<path d="M600 370V414.1C600 419.606 600 422.359 601.055 424.47C602.022 426.407 603.593 427.978 605.53 428.945C607.641 430 610.394 430 615.9 430H646" stroke="#C4C4C4"/>
<path fill-rule="evenodd" clip-rule="evenodd" d="M645 433V427L648 430L645 433Z" fill="#C4C4C4"/>
<path d="M600 588V632.1C600 637.606 600 640.359 601.055 642.47C602.022 644.407 603.593 645.978 605.53 646.945C607.641 648 610.394 648 615.9 648H646" stroke="#C4C4C4"/>
<path fill-rule="evenodd" clip-rule="evenodd" d="M645 651V645L648 648L645 651Z" fill="#C4C4C4"/>
<path d="M600 419V463.1C600 468.606 600 471.359 601.055 473.47C602.022 475.407 603.593 476.978 605.53 477.945C607.641 479 610.394 479 615.9 479H646" stroke="#C4C4C4"/>
<path fill-rule="evenodd" clip-rule="evenodd" d="M645 482V476L648 479L645 482Z" fill="#C4C4C4"/>
<path d="M600 637V681.1C600 686.606 600 689.359 601.055 691.47C602.022 693.407 603.593 694.978 605.53 695.945C607.641 697 610.394 697 615.9 697H646" stroke="#C4C4C4"/>
<path fill-rule="evenodd" clip-rule="evenodd" d="M645 700V694L648 697L645 700Z" fill="#C4C4C4"/>
<path d="M600 688V732.1C600 737.606 600 740.359 601.055 742.47C602.022 744.407 603.593 745.978 605.53 746.945C607.641 748 610.394 748 615.9 748H646" stroke="#C4C4C4"/>
<path fill-rule="evenodd" clip-rule="evenodd" d="M645 751V745L648 748L645 751Z" fill="#C4C4C4"/>
<rect x="148.5" y="236.5" width="238" height="49" rx="11.5" fill="white"/>
<path d="M237.658 254.184V267H235.984V258.198L232.186 267H230.908L227.056 258.252L227.074 267H225.4V254.184H226.894L231.556 264.768L236.164 254.184H237.658ZM245.643 261.852V267H243.771V261.816L238.677 254.184H240.801L244.725 260.232L248.631 254.184H250.755L245.643 261.852ZM268.841 254.184V267H267.167V258.198L263.369 267H262.091L258.239 258.252L258.257 267H256.583V254.184H258.077L262.739 264.768L267.347 254.184H268.841ZM276.971 267.144C275.267 267.144 273.971 266.7 273.083 265.812C272.207 264.924 271.769 263.622 271.769 261.906V254.184H273.587V262.032C273.587 263.22 273.869 264.12 274.433 264.732C275.009 265.332 275.855 265.632 276.971 265.632C278.075 265.632 278.909 265.326 279.473 264.714C280.049 264.102 280.337 263.208 280.337 262.032V254.184H282.173V261.906C282.173 263.622 281.729 264.924 280.841 265.812C279.965 266.7 278.675 267.144 276.971 267.144ZM289.271 267.144C288.275 267.144 287.363 267.012 286.535 266.748C285.719 266.484 285.011 266.088 284.411 265.56L285.077 264.192C285.701 264.696 286.349 265.062 287.021 265.29C287.693 265.518 288.449 265.632 289.289 265.632C290.249 265.632 290.993 265.452 291.521 265.092C292.049 264.732 292.313 264.222 292.313 263.562C292.313 263.01 292.067 262.596 291.575 262.32C291.083 262.032 290.303 261.768 289.235 261.528C288.215 261.312 287.381 261.066 286.733 260.79C286.085 260.502 285.575 260.124 285.203 259.656C284.831 259.176 284.645 258.564 284.645 257.82C284.645 257.076 284.843 256.422 285.239 255.858C285.635 255.282 286.193 254.838 286.913 254.526C287.645 254.202 288.485 254.04 289.433 254.04C290.333 254.04 291.173 254.178 291.953 254.454C292.745 254.73 293.405 255.12 293.933 255.624L293.267 256.992C292.679 256.5 292.073 256.14 291.449 255.912C290.825 255.672 290.159 255.552 289.451 255.552C288.527 255.552 287.801 255.75 287.273 256.146C286.745 256.53 286.481 257.058 286.481 257.73C286.481 258.306 286.709 258.744 287.165 259.044C287.633 259.344 288.377 259.614 289.397 259.854C290.465 260.094 291.329 260.346 291.989 260.61C292.649 260.874 293.177 261.234 293.573 261.69C293.969 262.146 294.167 262.734 294.167 263.454C294.167 264.198 293.969 264.846 293.573 265.398C293.177 265.95 292.607 266.382 291.863 266.694C291.131 266.994 290.267 267.144 289.271 267.144ZM296.468 254.184H298.322V267H296.468V254.184ZM306.936 267.144C305.7 267.144 304.62 266.88 303.696 266.352C302.784 265.812 302.082 265.05 301.59 264.066C301.098 263.082 300.852 261.918 300.852 260.574C300.852 259.242 301.098 258.084 301.59 257.1C302.082 256.116 302.784 255.36 303.696 254.832C304.62 254.304 305.7 254.04 306.936 254.04C307.812 254.04 308.622 254.178 309.366 254.454C310.122 254.718 310.758 255.108 311.274 255.624L310.626 256.992C310.026 256.5 309.432 256.146 308.844 255.93C308.268 255.702 307.638 255.588 306.954 255.588C305.622 255.588 304.59 256.02 303.858 256.884C303.138 257.748 302.778 258.978 302.778 260.574C302.778 262.182 303.138 263.424 303.858 264.3C304.59 265.164 305.622 265.596 306.954 265.596C307.638 265.596 308.268 265.488 308.844 265.272C309.432 265.044 310.026 264.684 310.626 264.192L311.274 265.56C310.758 266.076 310.122 266.472 309.366 266.748C308.622 267.012 307.812 267.144 306.936 267.144Z" fill="#3C3C43" fill-opacity="0.6"/>
<rect x="148.5" y="236.5" width="238" height="49" rx="11.5" stroke="white"/>
<rect x="528.5" y="236.5" width="238" height="49" rx="11.5" fill="white"/>
<path d="M605.441 254.184V267H603.767V258.198L599.969 267H598.691L594.839 258.252L594.857 267H593.183V254.184H594.677L599.339 264.768L603.947 254.184H605.441ZM613.426 261.852V267H611.554V261.816L606.46 254.184H608.584L612.508 260.232L616.414 254.184H618.538L613.426 261.852ZM624.348 254.184H629.676C631.02 254.184 632.064 254.514 632.808 255.174C633.564 255.822 633.942 256.71 633.942 257.838C633.942 258.966 633.558 259.86 632.79 260.52C632.034 261.168 630.996 261.492 629.676 261.492H626.202V267H624.348V254.184ZM629.46 260.016C630.348 260.016 631.014 259.83 631.458 259.458C631.914 259.086 632.142 258.546 632.142 257.838C632.142 257.142 631.914 256.608 631.458 256.236C631.014 255.864 630.348 255.678 629.46 255.678H626.202V260.016H629.46ZM636.196 254.184H638.05V265.452H644.278V267H636.196V254.184ZM654.358 263.832H647.878L646.51 267H644.62L650.326 254.184H651.892L657.616 267H655.726L654.358 263.832ZM653.728 262.356L651.118 256.254L648.508 262.356H653.728ZM662.821 261.852V267H660.949V261.816L655.855 254.184H657.979L661.903 260.232L665.809 254.184H667.933L662.821 261.852ZM668.944 254.184H670.798V265.452H677.026V267H668.944V254.184ZM678.876 254.184H680.73V267H678.876V254.184ZM687.904 267.144C686.908 267.144 685.996 267.012 685.168 266.748C684.352 266.484 683.644 266.088 683.044 265.56L683.71 264.192C684.334 264.696 684.982 265.062 685.654 265.29C686.326 265.518 687.082 265.632 687.922 265.632C688.882 265.632 689.626 265.452 690.154 265.092C690.682 264.732 690.946 264.222 690.946 263.562C690.946 263.01 690.7 262.596 690.208 262.32C689.716 262.032 688.936 261.768 687.868 261.528C686.848 261.312 686.014 261.066 685.366 260.79C684.718 260.502 684.208 260.124 683.836 259.656C683.464 259.176 683.278 258.564 683.278 257.82C683.278 257.076 683.476 256.422 683.872 255.858C684.268 255.282 684.826 254.838 685.546 254.526C686.278 254.202 687.118 254.04 688.066 254.04C688.966 254.04 689.806 254.178 690.586 254.454C691.378 254.73 692.038 255.12 692.566 255.624L691.9 256.992C691.312 256.5 690.706 256.14 690.082 255.912C689.458 255.672 688.792 255.552 688.084 255.552C687.16 255.552 686.434 255.75 685.906 256.146C685.378 256.53 685.114 257.058 685.114 257.73C685.114 258.306 685.342 258.744 685.798 259.044C686.266 259.344 687.01 259.614 688.03 259.854C689.098 260.094 689.962 260.346 690.622 260.61C691.282 260.874 691.81 261.234 692.206 261.69C692.602 262.146 692.8 262.734 692.8 263.454C692.8 264.198 692.602 264.846 692.206 265.398C691.81 265.95 691.24 266.382 690.496 266.694C689.764 266.994 688.9 267.144 687.904 267.144ZM697.897 255.732H693.559V254.184H704.107V255.732H699.769V267H697.897V255.732Z" fill="#3C3C43" fill-opacity="0.6"/>
<rect x="528.5" y="236.5" width="238" height="49" rx="11.5" stroke="white"/>
<rect x="528.5" y="339.5" width="238" height="49" rx="11.5" fill="white"/>
<path d="M550.464 370L556.116 357.31H557.718L563.46 370H561.534L559.968 366.4L560.76 366.904H553.074L553.92 366.4L552.354 370H550.464ZM556.89 359.362L554.154 365.824L553.722 365.41H560.112L559.752 365.824L556.962 359.362H556.89ZM565.138 370V357.31H569.53C570.958 357.31 572.164 357.556 573.148 358.048C574.144 358.54 574.894 359.26 575.398 360.208C575.914 361.144 576.172 362.29 576.172 363.646C576.172 364.99 575.914 366.136 575.398 367.084C574.894 368.032 574.144 368.758 573.148 369.262C572.164 369.754 570.958 370 569.53 370H565.138ZM567.01 368.434H569.422C571.054 368.434 572.266 368.038 573.058 367.246C573.862 366.454 574.264 365.254 574.264 363.646C574.264 362.038 573.862 360.844 573.058 360.064C572.266 359.272 571.054 358.876 569.422 358.876H567.01V368.434ZM578.708 370V357.31H583.1C584.528 357.31 585.734 357.556 586.718 358.048C587.714 358.54 588.464 359.26 588.968 360.208C589.484 361.144 589.742 362.29 589.742 363.646C589.742 364.99 589.484 366.136 588.968 367.084C588.464 368.032 587.714 368.758 586.718 369.262C585.734 369.754 584.528 370 583.1 370H578.708ZM580.58 368.434H582.992C584.624 368.434 585.836 368.038 586.628 367.246C587.432 366.454 587.834 365.254 587.834 363.646C587.834 362.038 587.432 360.844 586.628 360.064C585.836 359.272 584.624 358.876 582.992 358.876H580.58V368.434ZM595.763 370L601.415 357.31H603.017L608.759 370H606.833L605.267 366.4L606.059 366.904H598.373L599.219 366.4L597.653 370H595.763ZM602.189 359.362L599.453 365.824L599.021 365.41H605.411L605.051 365.824L602.261 359.362H602.189ZM615.235 370V357.31H616.675L624.469 367.534H624.019V357.31H625.765V370H624.343L616.567 359.776H616.981V370H615.235ZM628.735 370V357.31H637.051V358.804H630.553V362.8H636.637V364.312H630.553V368.488H637.051V370H628.735ZM642.774 370L638.328 357.31H640.272L643.962 368.272H643.296L647.202 357.31H648.624L652.296 368.272H651.684L655.5 357.31H657.336L652.854 370H651.252L647.688 359.56H648.066L644.358 370H642.774ZM664.173 370V357.31H669.555C670.911 357.31 671.949 357.64 672.669 358.3C673.401 358.948 673.767 359.848 673.767 361C673.767 362.152 673.401 363.058 672.669 363.718C671.949 364.378 670.911 364.708 669.555 364.708H666.045V370H664.173ZM666.045 363.214H669.357C670.209 363.214 670.851 363.022 671.283 362.638C671.715 362.254 671.931 361.708 671.931 361C671.931 360.304 671.715 359.764 671.283 359.38C670.851 358.996 670.209 358.804 669.357 358.804H666.045V363.214ZM676.02 370V357.31H677.892V368.398H684.12V370H676.02ZM684.304 370L689.956 357.31H691.558L697.3 370H695.374L693.808 366.4L694.6 366.904H686.914L687.76 366.4L686.194 370H684.304ZM690.73 359.362L687.994 365.824L687.562 365.41H693.952L693.592 365.824L690.802 359.362H690.73ZM700.914 370V364.042L701.328 365.23L695.982 357.31H698.142L702.12 363.376H701.67L705.648 357.31H707.736L702.408 365.23L702.786 364.042V370H700.914ZM709.296 370V357.31H711.168V368.398H717.396V370H709.296ZM719.227 370V357.31H721.099V370H719.227ZM728.363 370.162C727.343 370.162 726.419 370.036 725.591 369.784C724.763 369.52 724.043 369.148 723.431 368.668L724.061 367.192C724.469 367.504 724.889 367.762 725.321 367.966C725.765 368.17 726.233 368.326 726.725 368.434C727.229 368.53 727.775 368.578 728.363 368.578C729.371 368.578 730.109 368.398 730.577 368.038C731.057 367.678 731.297 367.204 731.297 366.616C731.297 366.112 731.129 365.722 730.793 365.446C730.469 365.17 729.893 364.948 729.065 364.78L727.103 364.384C725.939 364.144 725.069 363.754 724.493 363.214C723.929 362.662 723.647 361.912 723.647 360.964C723.647 360.196 723.851 359.524 724.259 358.948C724.667 358.372 725.231 357.928 725.951 357.616C726.683 357.304 727.535 357.148 728.507 357.148C729.407 357.148 730.235 357.28 730.991 357.544C731.747 357.796 732.383 358.174 732.899 358.678L732.287 360.1C731.747 359.632 731.171 359.29 730.559 359.074C729.947 358.846 729.251 358.732 728.471 358.732C727.547 358.732 726.821 358.924 726.293 359.308C725.777 359.692 725.519 360.214 725.519 360.874C725.519 361.402 725.681 361.816 726.005 362.116C726.341 362.416 726.893 362.644 727.661 362.8L729.623 363.178C730.835 363.43 731.729 363.82 732.305 364.348C732.881 364.864 733.169 365.578 733.169 366.49C733.169 367.222 732.971 367.864 732.575 368.416C732.191 368.968 731.639 369.4 730.919 369.712C730.199 370.012 729.347 370.162 728.363 370.162ZM738.248 370V358.876H733.91V357.31H744.458V358.876H740.12V370H738.248Z" fill="#3C3C43" fill-opacity="0.6"/>
<rect x="528.5" y="339.5" width="238" height="49" rx="11.5" stroke="white"/>
<rect x="528.5" y="554.5" width="238" height="49" rx="11.5" fill="white"/>
<path d="M569.479 572.184H574.807C576.151 572.184 577.195 572.514 577.939 573.174C578.695 573.822 579.073 574.71 579.073 575.838C579.073 576.966 578.689 577.86 577.921 578.52C577.165 579.168 576.127 579.492 574.807 579.492H571.333V585H569.479V572.184ZM574.591 578.016C575.479 578.016 576.145 577.83 576.589 577.458C577.045 577.086 577.273 576.546 577.273 575.838C577.273 575.142 577.045 574.608 576.589 574.236C576.145 573.864 575.479 573.678 574.591 573.678H571.333V578.016H574.591ZM581.327 572.184H583.181V583.452H589.409V585H581.327V572.184ZM599.489 581.832H593.009L591.641 585H589.751L595.457 572.184H597.023L602.747 585H600.857L599.489 581.832ZM598.859 580.356L596.249 574.254L593.639 580.356H598.859ZM607.952 579.852V585H606.08V579.816L600.986 572.184H603.11L607.034 578.232L610.94 572.184H613.064L607.952 579.852ZM614.075 572.184H615.929V583.452H622.157V585H614.075V572.184ZM624.007 572.184H625.861V585H624.007V572.184ZM633.035 585.144C632.039 585.144 631.127 585.012 630.299 584.748C629.483 584.484 628.775 584.088 628.175 583.56L628.841 582.192C629.465 582.696 630.113 583.062 630.785 583.29C631.457 583.518 632.213 583.632 633.053 583.632C634.013 583.632 634.757 583.452 635.285 583.092C635.813 582.732 636.077 582.222 636.077 581.562C636.077 581.01 635.831 580.596 635.339 580.32C634.847 580.032 634.067 579.768 632.999 579.528C631.979 579.312 631.145 579.066 630.497 578.79C629.849 578.502 629.339 578.124 628.967 577.656C628.595 577.176 628.409 576.564 628.409 575.82C628.409 575.076 628.607 574.422 629.003 573.858C629.399 573.282 629.957 572.838 630.677 572.526C631.409 572.202 632.249 572.04 633.197 572.04C634.097 572.04 634.937 572.178 635.717 572.454C636.509 572.73 637.169 573.12 637.697 573.624L637.031 574.992C636.443 574.5 635.837 574.14 635.213 573.912C634.589 573.672 633.923 573.552 633.215 573.552C632.291 573.552 631.565 573.75 631.037 574.146C630.509 574.53 630.245 575.058 630.245 575.73C630.245 576.306 630.473 576.744 630.929 577.044C631.397 577.344 632.141 577.614 633.161 577.854C634.229 578.094 635.093 578.346 635.753 578.61C636.413 578.874 636.941 579.234 637.337 579.69C637.733 580.146 637.931 580.734 637.931 581.454C637.931 582.198 637.733 582.846 637.337 583.398C636.941 583.95 636.371 584.382 635.627 584.694C634.895 584.994 634.031 585.144 633.035 585.144ZM643.028 573.732H638.69V572.184H649.238V573.732H644.9V585H643.028V573.732ZM655.753 572.184H660.235C662.311 572.184 663.919 572.742 665.059 573.858C666.199 574.974 666.769 576.546 666.769 578.574C666.769 580.614 666.199 582.198 665.059 583.326C663.919 584.442 662.311 585 660.235 585H655.753V572.184ZM660.127 583.452C663.283 583.452 664.861 581.826 664.861 578.574C664.861 575.346 663.283 573.732 660.127 573.732H657.607V583.452H660.127ZM669.306 572.184H677.622V573.696H671.142V577.728H677.262V579.24H671.142V583.488H677.622V585H669.306V572.184ZM682.895 573.732H678.557V572.184H689.105V573.732H684.767V585H682.895V573.732ZM697.716 581.832H691.236L689.868 585H687.978L693.684 572.184H695.25L700.974 585H699.084L697.716 581.832ZM697.086 580.356L694.476 574.254L691.866 580.356H697.086ZM702.634 572.184H704.488V585H702.634V572.184ZM707.468 572.184H709.322V583.452H715.55V585H707.468V572.184ZM721.312 585.144C720.316 585.144 719.404 585.012 718.576 584.748C717.76 584.484 717.052 584.088 716.452 583.56L717.118 582.192C717.742 582.696 718.39 583.062 719.062 583.29C719.734 583.518 720.49 583.632 721.33 583.632C722.29 583.632 723.034 583.452 723.562 583.092C724.09 582.732 724.354 582.222 724.354 581.562C724.354 581.01 724.108 580.596 723.616 580.32C723.124 580.032 722.344 579.768 721.276 579.528C720.256 579.312 719.422 579.066 718.774 578.79C718.126 578.502 717.616 578.124 717.244 577.656C716.872 577.176 716.686 576.564 716.686 575.82C716.686 575.076 716.884 574.422 717.28 573.858C717.676 573.282 718.234 572.838 718.954 572.526C719.686 572.202 720.526 572.04 721.474 572.04C722.374 572.04 723.214 572.178 723.994 572.454C724.786 572.73 725.446 573.12 725.974 573.624L725.308 574.992C724.72 574.5 724.114 574.14 723.49 573.912C722.866 573.672 722.2 573.552 721.492 573.552C720.568 573.552 719.842 573.75 719.314 574.146C718.786 574.53 718.522 575.058 718.522 575.73C718.522 576.306 718.75 576.744 719.206 577.044C719.674 577.344 720.418 577.614 721.438 577.854C722.506 578.094 723.37 578.346 724.03 578.61C724.69 578.874 725.218 579.234 725.614 579.69C726.01 580.146 726.208 580.734 726.208 581.454C726.208 582.198 726.01 582.846 725.614 583.398C725.218 583.95 724.648 584.382 723.904 584.694C723.172 584.994 722.308 585.144 721.312 585.144Z" fill="#3C3C43" fill-opacity="0.6"/>
<rect x="528.5" y="554.5" width="238" height="49" rx="11.5" stroke="white"/>
<path fill-rule="evenodd" clip-rule="evenodd" d="M456.418 105.835L467 104.073V116.982C467 118.639 465.657 119.982 464 119.982C462.343 119.982 461 118.639 461 116.982C461 115.325 462.343 113.982 464 113.982C464.444 113.982 464.874 114.078 465.268 114.262C465.518 114.379 465.815 114.271 465.932 114.02C466.049 113.77 465.941 113.473 465.69 113.356C465.165 113.111 464.591 112.982 464 112.982C461.791 112.982 460 114.773 460 116.982C460 119.191 461.791 120.982 464 120.982C466.209 120.982 468 119.191 468 116.982V103.6C468 103.227 467.662 102.943 467.294 103.01L456.253 104.849C455.53 104.971 455 105.596 455 106.329V107.73L454.386 107.833C454.114 107.878 453.93 108.136 453.975 108.409C454.021 108.681 454.279 108.865 454.551 108.819L455 108.744V118.982C455 120.639 453.657 121.982 452 121.982C450.343 121.982 449 120.639 449 118.982C449 117.325 450.343 115.982 452 115.982C452.467 115.982 452.917 116.088 453.325 116.289C453.572 116.412 453.872 116.31 453.994 116.062C454.117 115.815 454.015 115.515 453.767 115.393C453.223 115.124 452.621 114.982 452 114.982C449.791 114.982 448 116.773 448 118.982C448 121.191 449.791 122.982 452 122.982C454.209 122.982 456 121.191 456 118.982V108.577L465.562 106.975C465.834 106.93 466.018 106.672 465.973 106.399C465.927 106.127 465.669 105.943 465.397 105.989L456 107.563V106.329C456 106.085 456.177 105.876 456.418 105.835ZM456 107.563L455 107.73V108.744L456 108.577V107.563ZM456 118.982C456 118.706 455.776 118.482 455.5 118.482C455.224 118.482 455 118.706 455 118.982C455 119.258 455.224 119.482 455.5 119.482C455.776 119.482 456 119.258 456 118.982ZM468 116.982C468 116.706 467.776 116.482 467.5 116.482C467.224 116.482 467 116.706 467 116.982C467 117.258 467.224 117.482 467.5 117.482C467.776 117.482 468 117.258 468 116.982ZM467 104.073L467.453 103.997C467.218 104.033 467 103.845 467 103.6V104.073Z" fill="url(#paint0_linear_81_39273)"/>
<path d="M182 286V298.1C182 303.606 182 306.359 183.055 308.47C184.022 310.407 185.593 311.978 187.53 312.945C189.641 314 192.394 314 197.9 314H228" stroke="#C4C4C4"/>
<path fill-rule="evenodd" clip-rule="evenodd" d="M227 317V311L230 314L227 317Z" fill="#C4C4C4"/>
<path d="M182 301V345.1C182 350.606 182 353.359 183.055 355.47C184.022 357.407 185.593 358.978 187.53 359.945C189.641 361 192.394 361 197.9 361H228" stroke="#C4C4C4"/>
<path fill-rule="evenodd" clip-rule="evenodd" d="M227 364V358L230 361L227 364Z" fill="#C4C4C4"/>
<path d="M182 350V394.1C182 399.606 182 402.359 183.055 404.47C184.022 406.407 185.593 407.978 187.53 408.945C189.641 410 192.394 410 197.9 410H228" stroke="#C4C4C4"/>
<path fill-rule="evenodd" clip-rule="evenodd" d="M227 413V407L230 410L227 413Z" fill="#C4C4C4"/>
<path d="M246.918 316.832H240.438L239.07 320H237.18L242.886 307.184H244.452L250.176 320H248.286L246.918 316.832ZM246.288 315.356L243.678 309.254L241.068 315.356H246.288ZM251.674 306.752H253.474V320H251.674V306.752ZM256.139 306.752H257.939V320H256.139V306.752ZM269.758 320.144C268.762 320.144 267.85 320.012 267.022 319.748C266.206 319.484 265.498 319.088 264.898 318.56L265.564 317.192C266.188 317.696 266.836 318.062 267.508 318.29C268.18 318.518 268.936 318.632 269.776 318.632C270.736 318.632 271.48 318.452 272.008 318.092C272.536 317.732 272.8 317.222 272.8 316.562C272.8 316.01 272.554 315.596 272.062 315.32C271.57 315.032 270.79 314.768 269.722 314.528C268.702 314.312 267.868 314.066 267.22 313.79C266.572 313.502 266.062 313.124 265.69 312.656C265.318 312.176 265.132 311.564 265.132 310.82C265.132 310.076 265.33 309.422 265.726 308.858C266.122 308.282 266.68 307.838 267.4 307.526C268.132 307.202 268.972 307.04 269.92 307.04C270.82 307.04 271.66 307.178 272.44 307.454C273.232 307.73 273.892 308.12 274.42 308.624L273.754 309.992C273.166 309.5 272.56 309.14 271.936 308.912C271.312 308.672 270.646 308.552 269.938 308.552C269.014 308.552 268.288 308.75 267.76 309.146C267.232 309.53 266.968 310.058 266.968 310.73C266.968 311.306 267.196 311.744 267.652 312.044C268.12 312.344 268.864 312.614 269.884 312.854C270.952 313.094 271.816 313.346 272.476 313.61C273.136 313.874 273.664 314.234 274.06 314.69C274.456 315.146 274.654 315.734 274.654 316.454C274.654 317.198 274.456 317.846 274.06 318.398C273.664 318.95 273.094 319.382 272.35 319.694C271.618 319.994 270.754 320.144 269.758 320.144ZM280.699 320.126C279.811 320.126 279.031 319.934 278.359 319.55C277.687 319.166 277.165 318.62 276.793 317.912C276.433 317.204 276.253 316.376 276.253 315.428C276.253 314.48 276.433 313.652 276.793 312.944C277.165 312.224 277.687 311.672 278.359 311.288C279.031 310.904 279.811 310.712 280.699 310.712C281.575 310.712 282.349 310.904 283.021 311.288C283.693 311.672 284.209 312.224 284.569 312.944C284.941 313.652 285.127 314.48 285.127 315.428C285.127 316.376 284.941 317.204 284.569 317.912C284.209 318.62 283.693 319.166 283.021 319.55C282.349 319.934 281.575 320.126 280.699 320.126ZM280.681 318.686C281.521 318.686 282.163 318.41 282.607 317.858C283.051 317.306 283.273 316.496 283.273 315.428C283.273 314.384 283.045 313.58 282.589 313.016C282.145 312.452 281.515 312.17 280.699 312.17C279.871 312.17 279.229 312.452 278.773 313.016C278.317 313.58 278.089 314.384 278.089 315.428C278.089 316.496 278.311 317.306 278.755 317.858C279.211 318.41 279.853 318.686 280.681 318.686ZM292.076 310.712C294.248 310.712 295.334 311.924 295.334 314.348V320H293.516V314.456C293.516 313.664 293.36 313.088 293.048 312.728C292.748 312.368 292.262 312.188 291.59 312.188C290.822 312.188 290.204 312.428 289.736 312.908C289.28 313.388 289.052 314.03 289.052 314.834V320H287.252V313.484C287.252 312.536 287.204 311.684 287.108 310.928H288.8L288.962 312.494C289.25 311.918 289.664 311.48 290.204 311.18C290.756 310.868 291.38 310.712 292.076 310.712ZM306.292 310.928V319.838C306.292 321.218 305.926 322.256 305.194 322.952C304.474 323.66 303.4 324.014 301.972 324.014C300.592 324.014 299.386 323.714 298.354 323.114L298.66 321.692C299.224 321.992 299.764 322.214 300.28 322.358C300.808 322.502 301.366 322.574 301.954 322.574C303.646 322.574 304.492 321.71 304.492 319.982V318.02C304.216 318.548 303.814 318.968 303.286 319.28C302.758 319.58 302.146 319.73 301.45 319.73C300.658 319.73 299.95 319.544 299.326 319.172C298.714 318.8 298.234 318.272 297.886 317.588C297.55 316.904 297.382 316.118 297.382 315.23C297.382 314.342 297.55 313.556 297.886 312.872C298.234 312.188 298.714 311.66 299.326 311.288C299.95 310.904 300.658 310.712 301.45 310.712C302.146 310.712 302.758 310.862 303.286 311.162C303.814 311.45 304.216 311.864 304.492 312.404V310.928H306.292ZM301.864 318.272C302.68 318.272 303.322 318.002 303.79 317.462C304.258 316.922 304.492 316.178 304.492 315.23C304.492 314.282 304.258 313.538 303.79 312.998C303.334 312.446 302.692 312.17 301.864 312.17C301.048 312.17 300.4 312.446 299.92 312.998C299.452 313.538 299.218 314.282 299.218 315.23C299.218 316.166 299.452 316.91 299.92 317.462C300.4 318.002 301.048 318.272 301.864 318.272ZM312.129 320.126C310.545 320.126 309.297 319.742 308.385 318.974L308.925 317.66C309.873 318.38 310.959 318.74 312.183 318.74C312.807 318.74 313.281 318.638 313.605 318.434C313.929 318.218 314.091 317.918 314.091 317.534C314.091 317.21 313.977 316.958 313.749 316.778C313.533 316.586 313.161 316.424 312.633 316.292L311.121 315.932C310.329 315.764 309.723 315.47 309.303 315.05C308.895 314.618 308.691 314.084 308.691 313.448C308.691 312.632 309.015 311.972 309.663 311.468C310.323 310.964 311.193 310.712 312.273 310.712C312.921 310.712 313.533 310.814 314.109 311.018C314.697 311.222 315.195 311.51 315.603 311.882L315.045 313.16C314.169 312.464 313.245 312.116 312.273 312.116C311.685 312.116 311.229 312.23 310.905 312.458C310.581 312.674 310.419 312.98 310.419 313.376C310.419 313.688 310.521 313.94 310.725 314.132C310.929 314.324 311.253 314.474 311.697 314.582L313.245 314.96C314.109 315.152 314.745 315.458 315.153 315.878C315.573 316.286 315.783 316.82 315.783 317.48C315.783 318.296 315.453 318.944 314.793 319.424C314.145 319.892 313.257 320.126 312.129 320.126Z" fill="#3C3C43" fill-opacity="0.6"/>
<path d="M246.918 362.832H240.438L239.07 366H237.18L242.886 353.184H244.452L250.176 366H248.286L246.918 362.832ZM246.288 361.356L243.678 355.254L241.068 361.356H246.288ZM251.674 352.752H253.474V366H251.674V352.752ZM256.139 352.752H257.939V366H256.139V352.752ZM273.988 362.832H267.508L266.14 366H264.25L269.956 353.184H271.522L277.246 366H275.356L273.988 362.832ZM273.358 361.356L270.748 355.254L268.138 361.356H273.358ZM283.262 356.712C283.538 356.712 283.826 356.754 284.126 356.838L284.09 358.494C283.766 358.374 283.412 358.314 283.028 358.314C282.2 358.314 281.576 358.566 281.156 359.07C280.748 359.562 280.544 360.186 280.544 360.942V366H278.744V359.484C278.744 358.536 278.696 357.684 278.6 356.928H280.292L280.454 358.566C280.694 357.966 281.066 357.51 281.57 357.198C282.074 356.874 282.638 356.712 283.262 356.712ZM288.626 358.332V362.886C288.626 363.51 288.758 363.954 289.022 364.218C289.298 364.47 289.676 364.596 290.156 364.596C290.468 364.596 290.786 364.548 291.11 364.452V365.928C290.714 366.06 290.264 366.126 289.76 366.126C288.824 366.126 288.098 365.862 287.582 365.334C287.066 364.806 286.808 364.038 286.808 363.03V358.332H285.044V356.928H286.808V354.66L288.626 354.03V356.928H291.128V358.332H288.626ZM292.807 356.928H294.607V366H292.807V356.928ZM294.751 352.968V354.876H292.645V352.968H294.751ZM300.439 366.126C298.855 366.126 297.607 365.742 296.695 364.974L297.235 363.66C298.183 364.38 299.269 364.74 300.493 364.74C301.117 364.74 301.591 364.638 301.915 364.434C302.239 364.218 302.401 363.918 302.401 363.534C302.401 363.21 302.287 362.958 302.059 362.778C301.843 362.586 301.471 362.424 300.943 362.292L299.431 361.932C298.639 361.764 298.033 361.47 297.613 361.05C297.205 360.618 297.001 360.084 297.001 359.448C297.001 358.632 297.325 357.972 297.973 357.468C298.633 356.964 299.503 356.712 300.583 356.712C301.231 356.712 301.843 356.814 302.419 357.018C303.007 357.222 303.505 357.51 303.913 357.882L303.355 359.16C302.479 358.464 301.555 358.116 300.583 358.116C299.995 358.116 299.539 358.23 299.215 358.458C298.891 358.674 298.729 358.98 298.729 359.376C298.729 359.688 298.831 359.94 299.035 360.132C299.239 360.324 299.563 360.474 300.007 360.582L301.555 360.96C302.419 361.152 303.055 361.458 303.463 361.878C303.883 362.286 304.093 362.82 304.093 363.48C304.093 364.296 303.763 364.944 303.103 365.424C302.455 365.892 301.567 366.126 300.439 366.126ZM308.506 358.332V362.886C308.506 363.51 308.638 363.954 308.902 364.218C309.178 364.47 309.556 364.596 310.036 364.596C310.348 364.596 310.666 364.548 310.99 364.452V365.928C310.594 366.06 310.144 366.126 309.64 366.126C308.704 366.126 307.978 365.862 307.462 365.334C306.946 364.806 306.688 364.038 306.688 363.03V358.332H304.924V356.928H306.688V354.66L308.506 354.03V356.928H311.008V358.332H308.506ZM315.855 366.126C314.271 366.126 313.023 365.742 312.111 364.974L312.651 363.66C313.599 364.38 314.685 364.74 315.909 364.74C316.533 364.74 317.007 364.638 317.331 364.434C317.655 364.218 317.817 363.918 317.817 363.534C317.817 363.21 317.703 362.958 317.475 362.778C317.259 362.586 316.887 362.424 316.359 362.292L314.847 361.932C314.055 361.764 313.449 361.47 313.029 361.05C312.621 360.618 312.417 360.084 312.417 359.448C312.417 358.632 312.741 357.972 313.389 357.468C314.049 356.964 314.919 356.712 315.999 356.712C316.647 356.712 317.259 356.814 317.835 357.018C318.423 357.222 318.921 357.51 319.329 357.882L318.771 359.16C317.895 358.464 316.971 358.116 315.999 358.116C315.411 358.116 314.955 358.23 314.631 358.458C314.307 358.674 314.145 358.98 314.145 359.376C314.145 359.688 314.247 359.94 314.451 360.132C314.655 360.324 314.979 360.474 315.423 360.582L316.971 360.96C317.835 361.152 318.471 361.458 318.879 361.878C319.299 362.286 319.509 362.82 319.509 363.48C319.509 364.296 319.179 364.944 318.519 365.424C317.871 365.892 316.983 366.126 315.855 366.126Z" fill="#3C3C43" fill-opacity="0.6"/>
<path d="M656.494 435V422.31H661.876C663.232 422.31 664.27 422.64 664.99 423.3C665.722 423.948 666.088 424.848 666.088 426C666.088 427.152 665.722 428.058 664.99 428.718C664.27 429.378 663.232 429.708 661.876 429.708H658.366V435H656.494ZM658.366 428.214H661.678C662.53 428.214 663.172 428.022 663.604 427.638C664.036 427.254 664.252 426.708 664.252 426C664.252 425.304 664.036 424.764 663.604 424.38C663.172 423.996 662.53 423.804 661.678 423.804H658.366V428.214ZM668.18 435V421.752H669.998V435H668.18ZM676.136 435.162C675.332 435.162 674.63 434.976 674.03 434.604C673.43 434.232 672.962 433.692 672.626 432.984C672.302 432.276 672.14 431.436 672.14 430.464C672.14 429.48 672.302 428.64 672.626 427.944C672.962 427.248 673.43 426.714 674.03 426.342C674.63 425.958 675.332 425.766 676.136 425.766C676.928 425.766 677.618 425.964 678.206 426.36C678.794 426.756 679.184 427.296 679.376 427.98H679.178L679.358 425.928H681.122C681.086 426.3 681.05 426.672 681.014 427.044C680.99 427.404 680.978 427.758 680.978 428.106V435H679.16V432.984H679.358C679.166 433.656 678.77 434.19 678.17 434.586C677.582 434.97 676.904 435.162 676.136 435.162ZM676.586 433.74C677.366 433.74 677.99 433.464 678.458 432.912C678.938 432.36 679.178 431.544 679.178 430.464C679.178 429.384 678.938 428.574 678.458 428.034C677.99 427.482 677.366 427.206 676.586 427.206C675.794 427.206 675.158 427.482 674.678 428.034C674.21 428.574 673.976 429.384 673.976 430.464C673.976 431.544 674.21 432.36 674.678 432.912C675.146 433.464 675.782 433.74 676.586 433.74ZM683.273 439.086L682.841 437.61C683.405 437.49 683.873 437.346 684.245 437.178C684.629 437.01 684.947 436.788 685.199 436.512C685.451 436.248 685.667 435.906 685.847 435.486L686.297 434.424L686.261 435.162L682.319 425.928H684.263L687.323 433.488H686.837L689.897 425.928H691.769L687.611 435.648C687.347 436.248 687.065 436.752 686.765 437.16C686.465 437.568 686.141 437.898 685.793 438.15C685.445 438.402 685.061 438.6 684.641 438.744C684.221 438.888 683.765 439.002 683.273 439.086ZM693.193 435V421.752H695.011V435H693.193ZM697.676 435V425.928H699.494V435H697.676ZM697.532 424.038V422.148H699.638V424.038H697.532ZM705.272 435.162C704.516 435.162 703.82 435.066 703.184 434.874C702.548 434.682 702.02 434.412 701.6 434.064L702.158 432.822C702.602 433.158 703.094 433.41 703.634 433.578C704.174 433.746 704.726 433.83 705.29 433.83C705.95 433.83 706.448 433.716 706.784 433.488C707.12 433.248 707.288 432.924 707.288 432.516C707.288 432.204 707.18 431.952 706.964 431.76C706.76 431.568 706.418 431.424 705.938 431.328L704.21 430.986C703.442 430.818 702.86 430.53 702.464 430.122C702.068 429.714 701.87 429.192 701.87 428.556C701.87 428.016 702.014 427.536 702.302 427.116C702.602 426.696 703.022 426.366 703.562 426.126C704.114 425.886 704.756 425.766 705.488 425.766C706.16 425.766 706.784 425.862 707.36 426.054C707.936 426.246 708.416 426.522 708.8 426.882L708.224 428.088C707.852 427.776 707.432 427.536 706.964 427.368C706.496 427.188 706.022 427.098 705.542 427.098C704.87 427.098 704.372 427.224 704.048 427.476C703.724 427.728 703.562 428.058 703.562 428.466C703.562 428.778 703.658 429.036 703.85 429.24C704.054 429.432 704.372 429.582 704.804 429.69L706.532 430.032C707.348 430.2 707.96 430.476 708.368 430.86C708.776 431.244 708.98 431.76 708.98 432.408C708.98 432.972 708.824 433.464 708.512 433.884C708.2 434.304 707.768 434.622 707.216 434.838C706.664 435.054 706.016 435.162 705.272 435.162ZM714.563 435.162C713.579 435.162 712.835 434.898 712.331 434.37C711.827 433.83 711.575 433.026 711.575 431.958V427.332H709.811V425.928H711.575V423.534L713.393 423.048V425.928H715.913V427.332H713.393V431.796C713.393 432.468 713.513 432.948 713.753 433.236C713.993 433.524 714.341 433.668 714.797 433.668C715.025 433.668 715.223 433.65 715.391 433.614C715.571 433.566 715.733 433.512 715.877 433.452V434.928C715.697 435 715.487 435.054 715.247 435.09C715.007 435.138 714.779 435.162 714.563 435.162ZM720.688 435.162C719.932 435.162 719.236 435.066 718.6 434.874C717.964 434.682 717.436 434.412 717.016 434.064L717.574 432.822C718.018 433.158 718.51 433.41 719.05 433.578C719.59 433.746 720.142 433.83 720.706 433.83C721.366 433.83 721.864 433.716 722.2 433.488C722.536 433.248 722.704 432.924 722.704 432.516C722.704 432.204 722.596 431.952 722.38 431.76C722.176 431.568 721.834 431.424 721.354 431.328L719.626 430.986C718.858 430.818 718.276 430.53 717.88 430.122C717.484 429.714 717.286 429.192 717.286 428.556C717.286 428.016 717.43 427.536 717.718 427.116C718.018 426.696 718.438 426.366 718.978 426.126C719.53 425.886 720.172 425.766 720.904 425.766C721.576 425.766 722.2 425.862 722.776 426.054C723.352 426.246 723.832 426.522 724.216 426.882L723.64 428.088C723.268 427.776 722.848 427.536 722.38 427.368C721.912 427.188 721.438 427.098 720.958 427.098C720.286 427.098 719.788 427.224 719.464 427.476C719.14 427.728 718.978 428.058 718.978 428.466C718.978 428.778 719.074 429.036 719.266 429.24C719.47 429.432 719.788 429.582 720.22 429.69L721.948 430.032C722.764 430.2 723.376 430.476 723.784 430.86C724.192 431.244 724.396 431.76 724.396 432.408C724.396 432.972 724.24 433.464 723.928 433.884C723.616 434.304 723.184 434.622 722.632 434.838C722.08 435.054 721.432 435.162 720.688 435.162ZM731.5 435V422.31H732.94L740.734 432.534H740.284V422.31H742.03V435H740.608L732.832 424.776H733.246V435H731.5ZM748.312 435.162C747.508 435.162 746.806 434.976 746.206 434.604C745.606 434.232 745.138 433.692 744.802 432.984C744.478 432.276 744.316 431.436 744.316 430.464C744.316 429.48 744.478 428.64 744.802 427.944C745.138 427.248 745.606 426.714 746.206 426.342C746.806 425.958 747.508 425.766 748.312 425.766C749.104 425.766 749.794 425.964 750.382 426.36C750.97 426.756 751.36 427.296 751.552 427.98H751.354L751.534 425.928H753.298C753.262 426.3 753.226 426.672 753.19 427.044C753.166 427.404 753.154 427.758 753.154 428.106V435H751.336V432.984H751.534C751.342 433.656 750.946 434.19 750.346 434.586C749.758 434.97 749.08 435.162 748.312 435.162ZM748.762 433.74C749.542 433.74 750.166 433.464 750.634 432.912C751.114 432.36 751.354 431.544 751.354 430.464C751.354 429.384 751.114 428.574 750.634 428.034C750.166 427.482 749.542 427.206 748.762 427.206C747.97 427.206 747.334 427.482 746.854 428.034C746.386 428.574 746.152 429.384 746.152 430.464C746.152 431.544 746.386 432.36 746.854 432.912C747.322 433.464 747.958 433.74 748.762 433.74ZM755.807 435V428.106C755.807 427.758 755.789 427.404 755.753 427.044C755.729 426.672 755.699 426.3 755.663 425.928H757.427L757.589 427.836H757.373C757.625 427.176 758.009 426.666 758.525 426.306C759.053 425.946 759.683 425.766 760.415 425.766C761.159 425.766 761.765 425.946 762.233 426.306C762.713 426.654 763.043 427.194 763.223 427.926H762.935C763.175 427.266 763.583 426.744 764.159 426.36C764.735 425.964 765.401 425.766 766.157 425.766C767.165 425.766 767.921 426.06 768.425 426.648C768.929 427.236 769.181 428.148 769.181 429.384V435H767.363V429.474C767.363 428.682 767.225 428.112 766.949 427.764C766.685 427.404 766.253 427.224 765.653 427.224C764.957 427.224 764.405 427.464 763.997 427.944C763.589 428.424 763.385 429.072 763.385 429.888V435H761.567V429.474C761.567 428.682 761.429 428.112 761.153 427.764C760.889 427.404 760.457 427.224 759.857 427.224C759.161 427.224 758.615 427.464 758.219 427.944C757.823 428.424 757.625 429.072 757.625 429.888V435H755.807ZM775.979 435.162C774.515 435.162 773.363 434.748 772.523 433.92C771.683 433.092 771.263 431.946 771.263 430.482C771.263 429.534 771.443 428.706 771.803 427.998C772.175 427.29 772.685 426.744 773.333 426.36C773.993 425.964 774.755 425.766 775.619 425.766C776.471 425.766 777.185 425.946 777.761 426.306C778.337 426.666 778.775 427.176 779.075 427.836C779.375 428.484 779.525 429.252 779.525 430.14V430.716H772.685V429.672H778.283L777.977 429.906C777.977 429.006 777.773 428.31 777.365 427.818C776.969 427.314 776.393 427.062 775.637 427.062C774.797 427.062 774.149 427.356 773.693 427.944C773.237 428.52 773.009 429.318 773.009 430.338V430.518C773.009 431.586 773.267 432.39 773.783 432.93C774.311 433.47 775.055 433.74 776.015 433.74C776.543 433.74 777.035 433.668 777.491 433.524C777.959 433.368 778.403 433.116 778.823 432.768L779.417 434.01C778.997 434.382 778.487 434.67 777.887 434.874C777.287 435.066 776.651 435.162 775.979 435.162Z" fill="#3C3C43" fill-opacity="0.6"/>
<path d="M656.494 640.184H661.822C663.166 640.184 664.21 640.514 664.954 641.174C665.71 641.822 666.088 642.71 666.088 643.838C666.088 644.966 665.704 645.86 664.936 646.52C664.18 647.168 663.142 647.492 661.822 647.492H658.348V653H656.494V640.184ZM661.606 646.016C662.494 646.016 663.16 645.83 663.604 645.458C664.06 645.086 664.288 644.546 664.288 643.838C664.288 643.142 664.06 642.608 663.604 642.236C663.16 641.864 662.494 641.678 661.606 641.678H658.348V646.016H661.606ZM668.18 639.752H669.98V653H668.18V639.752ZM680.943 643.928V653H679.143V651.452C678.879 651.992 678.483 652.406 677.955 652.694C677.439 652.982 676.833 653.126 676.137 653.126C675.333 653.126 674.625 652.934 674.013 652.55C673.413 652.166 672.945 651.626 672.609 650.93C672.273 650.222 672.105 649.4 672.105 648.464C672.105 647.528 672.273 646.7 672.609 645.98C672.957 645.26 673.437 644.702 674.049 644.306C674.661 643.91 675.357 643.712 676.137 643.712C676.833 643.712 677.439 643.862 677.955 644.162C678.471 644.45 678.867 644.864 679.143 645.404V643.928H680.943ZM676.569 651.686C677.385 651.686 678.015 651.404 678.459 650.84C678.915 650.264 679.143 649.46 679.143 648.428C679.143 647.384 678.915 646.58 678.459 646.016C678.015 645.452 677.379 645.17 676.551 645.17C675.735 645.17 675.093 645.464 674.625 646.052C674.169 646.628 673.941 647.432 673.941 648.464C673.941 649.484 674.169 650.276 674.625 650.84C675.093 651.404 675.741 651.686 676.569 651.686ZM691.857 643.928L687.627 653.738C687.159 654.806 686.571 655.586 685.863 656.078C685.167 656.582 684.303 656.918 683.271 657.086L682.875 655.682C683.727 655.49 684.369 655.238 684.801 654.926C685.245 654.626 685.599 654.17 685.863 653.558L686.187 652.802L682.371 643.928H684.297L687.141 650.948L690.039 643.928H691.857ZM698.224 640.184H703.552C704.896 640.184 705.94 640.514 706.684 641.174C707.44 641.822 707.818 642.71 707.818 643.838C707.818 644.966 707.434 645.86 706.666 646.52C705.91 647.168 704.872 647.492 703.552 647.492H700.078V653H698.224V640.184ZM703.336 646.016C704.224 646.016 704.89 645.83 705.334 645.458C705.79 645.086 706.018 644.546 706.018 643.838C706.018 643.142 705.79 642.608 705.334 642.236C704.89 641.864 704.224 641.678 703.336 641.678H700.078V646.016H703.336ZM709.91 639.752H711.71V653H709.91V639.752ZM722.673 643.928V653H720.873V651.452C720.609 651.992 720.213 652.406 719.685 652.694C719.169 652.982 718.563 653.126 717.867 653.126C717.063 653.126 716.355 652.934 715.743 652.55C715.143 652.166 714.675 651.626 714.339 650.93C714.003 650.222 713.835 649.4 713.835 648.464C713.835 647.528 714.003 646.7 714.339 645.98C714.687 645.26 715.167 644.702 715.779 644.306C716.391 643.91 717.087 643.712 717.867 643.712C718.563 643.712 719.169 643.862 719.685 644.162C720.201 644.45 720.597 644.864 720.873 645.404V643.928H722.673ZM718.299 651.686C719.115 651.686 719.745 651.404 720.189 650.84C720.645 650.264 720.873 649.46 720.873 648.428C720.873 647.384 720.645 646.58 720.189 646.016C719.745 645.452 719.109 645.17 718.281 645.17C717.465 645.17 716.823 645.464 716.355 646.052C715.899 646.628 715.671 647.432 715.671 648.464C715.671 649.484 715.899 650.276 716.355 650.84C716.823 651.404 717.471 651.686 718.299 651.686ZM733.588 643.928L729.358 653.738C728.89 654.806 728.302 655.586 727.594 656.078C726.898 656.582 726.034 656.918 725.002 657.086L724.606 655.682C725.458 655.49 726.1 655.238 726.532 654.926C726.976 654.626 727.33 654.17 727.594 653.558L727.918 652.802L724.102 643.928H726.028L728.872 650.948L731.77 643.928H733.588ZM734.994 639.752H736.794V653H734.994V639.752ZM739.459 643.928H741.259V653H739.459V643.928ZM741.403 639.968V641.876H739.297V639.968H741.403ZM747.092 653.126C745.508 653.126 744.26 652.742 743.348 651.974L743.888 650.66C744.836 651.38 745.922 651.74 747.146 651.74C747.77 651.74 748.244 651.638 748.568 651.434C748.892 651.218 749.054 650.918 749.054 650.534C749.054 650.21 748.94 649.958 748.712 649.778C748.496 649.586 748.124 649.424 747.596 649.292L746.084 648.932C745.292 648.764 744.686 648.47 744.266 648.05C743.858 647.618 743.654 647.084 743.654 646.448C743.654 645.632 743.978 644.972 744.626 644.468C745.286 643.964 746.156 643.712 747.236 643.712C747.884 643.712 748.496 643.814 749.072 644.018C749.66 644.222 750.158 644.51 750.566 644.882L750.008 646.16C749.132 645.464 748.208 645.116 747.236 645.116C746.648 645.116 746.192 645.23 745.868 645.458C745.544 645.674 745.382 645.98 745.382 646.376C745.382 646.688 745.484 646.94 745.688 647.132C745.892 647.324 746.216 647.474 746.66 647.582L748.208 647.96C749.072 648.152 749.708 648.458 750.116 648.878C750.536 649.286 750.746 649.82 750.746 650.48C750.746 651.296 750.416 651.944 749.756 652.424C749.108 652.892 748.22 653.126 747.092 653.126ZM755.159 645.332V649.886C755.159 650.51 755.291 650.954 755.555 651.218C755.831 651.47 756.209 651.596 756.689 651.596C757.001 651.596 757.319 651.548 757.643 651.452V652.928C757.247 653.06 756.797 653.126 756.293 653.126C755.357 653.126 754.631 652.862 754.115 652.334C753.599 651.806 753.341 651.038 753.341 650.03V645.332H751.577V643.928H753.341V641.66L755.159 641.03V643.928H757.661V645.332H755.159ZM762.508 653.126C760.924 653.126 759.676 652.742 758.764 651.974L759.304 650.66C760.252 651.38 761.338 651.74 762.562 651.74C763.186 651.74 763.66 651.638 763.984 651.434C764.308 651.218 764.47 650.918 764.47 650.534C764.47 650.21 764.356 649.958 764.128 649.778C763.912 649.586 763.54 649.424 763.012 649.292L761.5 648.932C760.708 648.764 760.102 648.47 759.682 648.05C759.274 647.618 759.07 647.084 759.07 646.448C759.07 645.632 759.394 644.972 760.042 644.468C760.702 643.964 761.572 643.712 762.652 643.712C763.3 643.712 763.912 643.814 764.488 644.018C765.076 644.222 765.574 644.51 765.982 644.882L765.424 646.16C764.548 645.464 763.624 645.116 762.652 645.116C762.064 645.116 761.608 645.23 761.284 645.458C760.96 645.674 760.798 645.98 760.798 646.376C760.798 646.688 760.9 646.94 761.104 647.132C761.308 647.324 761.632 647.474 762.076 647.582L763.624 647.96C764.488 648.152 765.124 648.458 765.532 648.878C765.952 649.286 766.162 649.82 766.162 650.48C766.162 651.296 765.832 651.944 765.172 652.424C764.524 652.892 763.636 653.126 762.508 653.126Z" fill="#3C3C43" fill-opacity="0.6"/>
<path d="M248.772 415H246.81L245.208 410.734C245.04 410.278 244.794 409.966 244.47 409.798C244.146 409.618 243.702 409.528 243.138 409.528H240.33V415H238.494V402.184H243.768C245.172 402.184 246.246 402.496 246.99 403.12C247.746 403.744 248.124 404.638 248.124 405.802C248.124 406.642 247.902 407.356 247.458 407.944C247.014 408.532 246.384 408.946 245.568 409.186C246.312 409.318 246.852 409.846 247.188 410.77L248.772 415ZM243.552 408.034C244.488 408.034 245.184 407.854 245.64 407.494C246.096 407.122 246.324 406.57 246.324 405.838C246.324 405.106 246.096 404.566 245.64 404.218C245.196 403.858 244.5 403.678 243.552 403.678H240.33V408.034H243.552ZM258.623 410.5H252.143C252.203 412.624 253.169 413.686 255.041 413.686C256.085 413.686 257.039 413.344 257.903 412.66L258.461 413.956C258.053 414.316 257.531 414.604 256.895 414.82C256.271 415.024 255.641 415.126 255.005 415.126C253.553 415.126 252.413 414.712 251.585 413.884C250.757 413.044 250.343 411.898 250.343 410.446C250.343 409.522 250.523 408.7 250.883 407.98C251.255 407.26 251.771 406.702 252.431 406.306C253.091 405.91 253.841 405.712 254.681 405.712C255.905 405.712 256.865 406.108 257.561 406.9C258.269 407.692 258.623 408.79 258.623 410.194V410.5ZM254.717 407.062C254.033 407.062 253.475 407.266 253.043 407.674C252.611 408.082 252.335 408.664 252.215 409.42H257.021C256.949 408.652 256.715 408.07 256.319 407.674C255.923 407.266 255.389 407.062 254.717 407.062ZM264.651 415.126C263.739 415.126 262.941 414.934 262.257 414.55C261.585 414.166 261.069 413.626 260.709 412.93C260.349 412.222 260.169 411.4 260.169 410.464C260.169 409.528 260.355 408.7 260.727 407.98C261.111 407.26 261.645 406.702 262.329 406.306C263.013 405.91 263.811 405.712 264.723 405.712C265.359 405.712 265.971 405.82 266.559 406.036C267.147 406.24 267.621 406.522 267.981 406.882L267.423 408.196C266.571 407.524 265.713 407.188 264.849 407.188C263.973 407.188 263.289 407.476 262.797 408.052C262.305 408.616 262.059 409.414 262.059 410.446C262.059 411.478 262.305 412.276 262.797 412.84C263.289 413.392 263.973 413.668 264.849 413.668C265.737 413.668 266.595 413.332 267.423 412.66L267.981 413.974C267.597 414.334 267.105 414.616 266.505 414.82C265.917 415.024 265.299 415.126 264.651 415.126ZM277.431 410.5H270.951C271.011 412.624 271.977 413.686 273.849 413.686C274.893 413.686 275.847 413.344 276.711 412.66L277.269 413.956C276.861 414.316 276.339 414.604 275.703 414.82C275.079 415.024 274.449 415.126 273.813 415.126C272.361 415.126 271.221 414.712 270.393 413.884C269.565 413.044 269.151 411.898 269.151 410.446C269.151 409.522 269.331 408.7 269.691 407.98C270.063 407.26 270.579 406.702 271.239 406.306C271.899 405.91 272.649 405.712 273.489 405.712C274.713 405.712 275.673 406.108 276.369 406.9C277.077 407.692 277.431 408.79 277.431 410.194V410.5ZM273.525 407.062C272.841 407.062 272.283 407.266 271.851 407.674C271.419 408.082 271.143 408.664 271.023 409.42H275.829C275.757 408.652 275.523 408.07 275.127 407.674C274.731 407.266 274.197 407.062 273.525 407.062ZM284.342 405.712C286.514 405.712 287.6 406.924 287.6 409.348V415H285.782V409.456C285.782 408.664 285.626 408.088 285.314 407.728C285.014 407.368 284.528 407.188 283.856 407.188C283.088 407.188 282.47 407.428 282.002 407.908C281.546 408.388 281.318 409.03 281.318 409.834V415H279.518V408.484C279.518 407.536 279.47 406.684 279.374 405.928H281.066L281.228 407.494C281.516 406.918 281.93 406.48 282.47 406.18C283.022 405.868 283.646 405.712 284.342 405.712ZM292.545 407.332V411.886C292.545 412.51 292.677 412.954 292.941 413.218C293.217 413.47 293.595 413.596 294.075 413.596C294.387 413.596 294.705 413.548 295.029 413.452V414.928C294.633 415.06 294.183 415.126 293.679 415.126C292.743 415.126 292.017 414.862 291.501 414.334C290.985 413.806 290.727 413.038 290.727 412.03V407.332H288.963V405.928H290.727V403.66L292.545 403.03V405.928H295.047V407.332H292.545ZM296.727 401.752H298.527V415H296.727V401.752ZM309.435 405.928L305.205 415.738C304.737 416.806 304.149 417.586 303.441 418.078C302.745 418.582 301.881 418.918 300.849 419.086L300.453 417.682C301.305 417.49 301.947 417.238 302.379 416.926C302.823 416.626 303.177 416.17 303.441 415.558L303.765 414.802L299.949 405.928H301.875L304.719 412.948L307.617 405.928H309.435ZM315.803 402.184H321.131C322.475 402.184 323.519 402.514 324.263 403.174C325.019 403.822 325.397 404.71 325.397 405.838C325.397 406.966 325.013 407.86 324.245 408.52C323.489 409.168 322.451 409.492 321.131 409.492H317.657V415H315.803V402.184ZM320.915 408.016C321.803 408.016 322.469 407.83 322.913 407.458C323.369 407.086 323.597 406.546 323.597 405.838C323.597 405.142 323.369 404.608 322.913 404.236C322.469 403.864 321.803 403.678 320.915 403.678H317.657V408.016H320.915ZM327.488 401.752H329.288V415H327.488V401.752ZM340.251 405.928V415H338.451V413.452C338.187 413.992 337.791 414.406 337.263 414.694C336.747 414.982 336.141 415.126 335.445 415.126C334.641 415.126 333.933 414.934 333.321 414.55C332.721 414.166 332.253 413.626 331.917 412.93C331.581 412.222 331.413 411.4 331.413 410.464C331.413 409.528 331.581 408.7 331.917 407.98C332.265 407.26 332.745 406.702 333.357 406.306C333.969 405.91 334.665 405.712 335.445 405.712C336.141 405.712 336.747 405.862 337.263 406.162C337.779 406.45 338.175 406.864 338.451 407.404V405.928H340.251ZM335.877 413.686C336.693 413.686 337.323 413.404 337.767 412.84C338.223 412.264 338.451 411.46 338.451 410.428C338.451 409.384 338.223 408.58 337.767 408.016C337.323 407.452 336.687 407.17 335.859 407.17C335.043 407.17 334.401 407.464 333.933 408.052C333.477 408.628 333.249 409.432 333.249 410.464C333.249 411.484 333.477 412.276 333.933 412.84C334.401 413.404 335.049 413.686 335.877 413.686ZM351.166 405.928L346.936 415.738C346.468 416.806 345.88 417.586 345.172 418.078C344.476 418.582 343.612 418.918 342.58 419.086L342.184 417.682C343.036 417.49 343.678 417.238 344.11 416.926C344.554 416.626 344.908 416.17 345.172 415.558L345.496 414.802L341.68 405.928H343.606L346.45 412.948L349.348 405.928H351.166ZM360.189 410.5H353.709C353.769 412.624 354.735 413.686 356.607 413.686C357.651 413.686 358.605 413.344 359.469 412.66L360.027 413.956C359.619 414.316 359.097 414.604 358.461 414.82C357.837 415.024 357.207 415.126 356.571 415.126C355.119 415.126 353.979 414.712 353.151 413.884C352.323 413.044 351.909 411.898 351.909 410.446C351.909 409.522 352.089 408.7 352.449 407.98C352.821 407.26 353.337 406.702 353.997 406.306C354.657 405.91 355.407 405.712 356.247 405.712C357.471 405.712 358.431 406.108 359.127 406.9C359.835 407.692 360.189 408.79 360.189 410.194V410.5ZM356.283 407.062C355.599 407.062 355.041 407.266 354.609 407.674C354.177 408.082 353.901 408.664 353.781 409.42H358.587C358.515 408.652 358.281 408.07 357.885 407.674C357.489 407.266 356.955 407.062 356.283 407.062ZM370.573 401.752V415H368.773V413.452C368.509 413.992 368.113 414.406 367.585 414.694C367.069 414.982 366.463 415.126 365.767 415.126C364.987 415.126 364.291 414.928 363.679 414.532C363.067 414.136 362.587 413.584 362.239 412.876C361.903 412.156 361.735 411.328 361.735 410.392C361.735 409.456 361.903 408.634 362.239 407.926C362.575 407.218 363.043 406.672 363.643 406.288C364.255 405.904 364.963 405.712 365.767 405.712C366.451 405.712 367.051 405.856 367.567 406.144C368.095 406.432 368.491 406.84 368.755 407.368V401.752H370.573ZM366.181 413.686C367.009 413.686 367.645 413.404 368.089 412.84C368.545 412.264 368.773 411.46 368.773 410.428C368.773 409.396 368.545 408.598 368.089 408.034C367.645 407.458 367.015 407.17 366.199 407.17C365.371 407.17 364.723 407.452 364.255 408.016C363.799 408.58 363.571 409.372 363.571 410.392C363.571 411.424 363.799 412.234 364.255 412.822C364.723 413.398 365.365 413.686 366.181 413.686Z" fill="#3C3C43" fill-opacity="0.6"/>
<path d="M656.494 471.184H661.822C663.166 471.184 664.21 471.514 664.954 472.174C665.71 472.822 666.088 473.71 666.088 474.838C666.088 475.966 665.704 476.86 664.936 477.52C664.18 478.168 663.142 478.492 661.822 478.492H658.348V484H656.494V471.184ZM661.606 477.016C662.494 477.016 663.16 476.83 663.604 476.458C664.06 476.086 664.288 475.546 664.288 474.838C664.288 474.142 664.06 473.608 663.604 473.236C663.16 472.864 662.494 472.678 661.606 472.678H658.348V477.016H661.606ZM668.18 470.752H669.98V484H668.18V470.752ZM680.943 474.928V484H679.143V482.452C678.879 482.992 678.483 483.406 677.955 483.694C677.439 483.982 676.833 484.126 676.137 484.126C675.333 484.126 674.625 483.934 674.013 483.55C673.413 483.166 672.945 482.626 672.609 481.93C672.273 481.222 672.105 480.4 672.105 479.464C672.105 478.528 672.273 477.7 672.609 476.98C672.957 476.26 673.437 475.702 674.049 475.306C674.661 474.91 675.357 474.712 676.137 474.712C676.833 474.712 677.439 474.862 677.955 475.162C678.471 475.45 678.867 475.864 679.143 476.404V474.928H680.943ZM676.569 482.686C677.385 482.686 678.015 482.404 678.459 481.84C678.915 481.264 679.143 480.46 679.143 479.428C679.143 478.384 678.915 477.58 678.459 477.016C678.015 476.452 677.379 476.17 676.551 476.17C675.735 476.17 675.093 476.464 674.625 477.052C674.169 477.628 673.941 478.432 673.941 479.464C673.941 480.484 674.169 481.276 674.625 481.84C675.093 482.404 675.741 482.686 676.569 482.686ZM691.857 474.928L687.627 484.738C687.159 485.806 686.571 486.586 685.863 487.078C685.167 487.582 684.303 487.918 683.271 488.086L682.875 486.682C683.727 486.49 684.369 486.238 684.801 485.926C685.245 485.626 685.599 485.17 685.863 484.558L686.187 483.802L682.371 474.928H684.297L687.141 481.948L690.039 474.928H691.857ZM693.264 470.752H695.064V484H693.264V470.752ZM697.728 474.928H699.528V484H697.728V474.928ZM699.672 470.968V472.876H697.566V470.968H699.672ZM705.361 484.126C703.777 484.126 702.529 483.742 701.617 482.974L702.157 481.66C703.105 482.38 704.191 482.74 705.415 482.74C706.039 482.74 706.513 482.638 706.837 482.434C707.161 482.218 707.323 481.918 707.323 481.534C707.323 481.21 707.209 480.958 706.981 480.778C706.765 480.586 706.393 480.424 705.865 480.292L704.353 479.932C703.561 479.764 702.955 479.47 702.535 479.05C702.127 478.618 701.923 478.084 701.923 477.448C701.923 476.632 702.247 475.972 702.895 475.468C703.555 474.964 704.425 474.712 705.505 474.712C706.153 474.712 706.765 474.814 707.341 475.018C707.929 475.222 708.427 475.51 708.835 475.882L708.277 477.16C707.401 476.464 706.477 476.116 705.505 476.116C704.917 476.116 704.461 476.23 704.137 476.458C703.813 476.674 703.651 476.98 703.651 477.376C703.651 477.688 703.753 477.94 703.957 478.132C704.161 478.324 704.485 478.474 704.929 478.582L706.477 478.96C707.341 479.152 707.977 479.458 708.385 479.878C708.805 480.286 709.015 480.82 709.015 481.48C709.015 482.296 708.685 482.944 708.025 483.424C707.377 483.892 706.489 484.126 705.361 484.126ZM713.428 476.332V480.886C713.428 481.51 713.56 481.954 713.824 482.218C714.1 482.47 714.478 482.596 714.958 482.596C715.27 482.596 715.588 482.548 715.912 482.452V483.928C715.516 484.06 715.066 484.126 714.562 484.126C713.626 484.126 712.9 483.862 712.384 483.334C711.868 482.806 711.61 482.038 711.61 481.03V476.332H709.846V474.928H711.61V472.66L713.428 472.03V474.928H715.93V476.332H713.428ZM722.57 471.184H727.052C729.128 471.184 730.736 471.742 731.876 472.858C733.016 473.974 733.586 475.546 733.586 477.574C733.586 479.614 733.016 481.198 731.876 482.326C730.736 483.442 729.128 484 727.052 484H722.57V471.184ZM726.944 482.452C730.1 482.452 731.678 480.826 731.678 477.574C731.678 474.346 730.1 472.732 726.944 472.732H724.424V482.452H726.944ZM743.701 479.5H737.221C737.281 481.624 738.247 482.686 740.119 482.686C741.163 482.686 742.117 482.344 742.981 481.66L743.539 482.956C743.131 483.316 742.609 483.604 741.973 483.82C741.349 484.024 740.719 484.126 740.083 484.126C738.631 484.126 737.491 483.712 736.663 482.884C735.835 482.044 735.421 480.898 735.421 479.446C735.421 478.522 735.601 477.7 735.961 476.98C736.333 476.26 736.849 475.702 737.509 475.306C738.169 474.91 738.919 474.712 739.759 474.712C740.983 474.712 741.943 475.108 742.639 475.9C743.347 476.692 743.701 477.79 743.701 479.194V479.5ZM739.795 476.062C739.111 476.062 738.553 476.266 738.121 476.674C737.689 477.082 737.413 477.664 737.293 478.42H742.099C742.027 477.652 741.793 477.07 741.397 476.674C741.001 476.266 740.467 476.062 739.795 476.062ZM748.955 484.126C747.371 484.126 746.123 483.742 745.211 482.974L745.751 481.66C746.699 482.38 747.785 482.74 749.009 482.74C749.633 482.74 750.107 482.638 750.431 482.434C750.755 482.218 750.917 481.918 750.917 481.534C750.917 481.21 750.803 480.958 750.575 480.778C750.359 480.586 749.987 480.424 749.459 480.292L747.947 479.932C747.155 479.764 746.549 479.47 746.129 479.05C745.721 478.618 745.517 478.084 745.517 477.448C745.517 476.632 745.841 475.972 746.489 475.468C747.149 474.964 748.019 474.712 749.099 474.712C749.747 474.712 750.359 474.814 750.935 475.018C751.523 475.222 752.021 475.51 752.429 475.882L751.871 477.16C750.995 476.464 750.071 476.116 749.099 476.116C748.511 476.116 748.055 476.23 747.731 476.458C747.407 476.674 747.245 476.98 747.245 477.376C747.245 477.688 747.347 477.94 747.551 478.132C747.755 478.324 748.079 478.474 748.523 478.582L750.071 478.96C750.935 479.152 751.571 479.458 751.979 479.878C752.399 480.286 752.609 480.82 752.609 481.48C752.609 482.296 752.279 482.944 751.619 483.424C750.971 483.892 750.083 484.126 748.955 484.126ZM758.694 484.126C757.782 484.126 756.984 483.934 756.3 483.55C755.628 483.166 755.112 482.626 754.752 481.93C754.392 481.222 754.212 480.4 754.212 479.464C754.212 478.528 754.398 477.7 754.77 476.98C755.154 476.26 755.688 475.702 756.372 475.306C757.056 474.91 757.854 474.712 758.766 474.712C759.402 474.712 760.014 474.82 760.602 475.036C761.19 475.24 761.664 475.522 762.024 475.882L761.466 477.196C760.614 476.524 759.756 476.188 758.892 476.188C758.016 476.188 757.332 476.476 756.84 477.052C756.348 477.616 756.102 478.414 756.102 479.446C756.102 480.478 756.348 481.276 756.84 481.84C757.332 482.392 758.016 482.668 758.892 482.668C759.78 482.668 760.638 482.332 761.466 481.66L762.024 482.974C761.64 483.334 761.148 483.616 760.548 483.82C759.96 484.024 759.342 484.126 758.694 484.126ZM768.252 474.712C768.528 474.712 768.816 474.754 769.116 474.838L769.08 476.494C768.756 476.374 768.402 476.314 768.018 476.314C767.19 476.314 766.566 476.566 766.146 477.07C765.738 477.562 765.534 478.186 765.534 478.942V484H763.734V477.484C763.734 476.536 763.686 475.684 763.59 474.928H765.282L765.444 476.566C765.684 475.966 766.056 475.51 766.56 475.198C767.064 474.874 767.628 474.712 768.252 474.712ZM770.502 474.928H772.302V484H770.502V474.928ZM772.446 470.968V472.876H770.34V470.968H772.446ZM779.773 474.712C780.553 474.712 781.249 474.91 781.861 475.306C782.473 475.702 782.947 476.26 783.283 476.98C783.631 477.7 783.805 478.528 783.805 479.464C783.805 480.4 783.637 481.222 783.301 481.93C782.965 482.626 782.491 483.166 781.879 483.55C781.267 483.934 780.565 484.126 779.773 484.126C779.077 484.126 778.465 483.982 777.937 483.694C777.421 483.394 777.031 482.968 776.767 482.416V487.888H774.967V477.484C774.967 476.536 774.919 475.684 774.823 474.928H776.515L776.695 476.602C776.935 476.002 777.325 475.54 777.865 475.216C778.405 474.88 779.041 474.712 779.773 474.712ZM779.359 482.686C780.175 482.686 780.811 482.404 781.267 481.84C781.723 481.276 781.951 480.484 781.951 479.464C781.951 478.432 781.723 477.628 781.267 477.052C780.811 476.464 780.175 476.17 779.359 476.17C778.519 476.17 777.877 476.452 777.433 477.016C776.989 477.58 776.767 478.384 776.767 479.428C776.767 480.472 776.989 481.276 777.433 481.84C777.889 482.404 778.531 482.686 779.359 482.686ZM788.258 476.332V480.886C788.258 481.51 788.39 481.954 788.654 482.218C788.93 482.47 789.308 482.596 789.788 482.596C790.1 482.596 790.418 482.548 790.742 482.452V483.928C790.346 484.06 789.896 484.126 789.392 484.126C788.456 484.126 787.73 483.862 787.214 483.334C786.698 482.806 786.44 482.038 786.44 481.03V476.332H784.676V474.928H786.44V472.66L788.258 472.03V474.928H790.76V476.332H788.258ZM792.439 474.928H794.239V484H792.439V474.928ZM794.383 470.968V472.876H792.277V470.968H794.383ZM800.81 484.126C799.922 484.126 799.142 483.934 798.47 483.55C797.798 483.166 797.276 482.62 796.904 481.912C796.544 481.204 796.364 480.376 796.364 479.428C796.364 478.48 796.544 477.652 796.904 476.944C797.276 476.224 797.798 475.672 798.47 475.288C799.142 474.904 799.922 474.712 800.81 474.712C801.686 474.712 802.46 474.904 803.132 475.288C803.804 475.672 804.32 476.224 804.68 476.944C805.052 477.652 805.238 478.48 805.238 479.428C805.238 480.376 805.052 481.204 804.68 481.912C804.32 482.62 803.804 483.166 803.132 483.55C802.46 483.934 801.686 484.126 800.81 484.126ZM800.792 482.686C801.632 482.686 802.274 482.41 802.718 481.858C803.162 481.306 803.384 480.496 803.384 479.428C803.384 478.384 803.156 477.58 802.7 477.016C802.256 476.452 801.626 476.17 800.81 476.17C799.982 476.17 799.34 476.452 798.884 477.016C798.428 477.58 798.2 478.384 798.2 479.428C798.2 480.496 798.422 481.306 798.866 481.858C799.322 482.41 799.964 482.686 800.792 482.686ZM812.187 474.712C814.359 474.712 815.445 475.924 815.445 478.348V484H813.627V478.456C813.627 477.664 813.471 477.088 813.159 476.728C812.859 476.368 812.373 476.188 811.701 476.188C810.933 476.188 810.315 476.428 809.847 476.908C809.391 477.388 809.163 478.03 809.163 478.834V484H807.363V477.484C807.363 476.536 807.315 475.684 807.219 474.928H808.911L809.073 476.494C809.361 475.918 809.775 475.48 810.315 475.18C810.867 474.868 811.491 474.712 812.187 474.712Z" fill="#3C3C43" fill-opacity="0.6"/>
<path d="M656.494 689.184H660.976C663.052 689.184 664.66 689.742 665.8 690.858C666.94 691.974 667.51 693.546 667.51 695.574C667.51 697.614 666.94 699.198 665.8 700.326C664.66 701.442 663.052 702 660.976 702H656.494V689.184ZM660.868 700.452C664.024 700.452 665.602 698.826 665.602 695.574C665.602 692.346 664.024 690.732 660.868 690.732H658.348V700.452H660.868ZM673.791 702.126C672.903 702.126 672.123 701.934 671.451 701.55C670.779 701.166 670.257 700.62 669.885 699.912C669.525 699.204 669.345 698.376 669.345 697.428C669.345 696.48 669.525 695.652 669.885 694.944C670.257 694.224 670.779 693.672 671.451 693.288C672.123 692.904 672.903 692.712 673.791 692.712C674.667 692.712 675.441 692.904 676.113 693.288C676.785 693.672 677.301 694.224 677.661 694.944C678.033 695.652 678.219 696.48 678.219 697.428C678.219 698.376 678.033 699.204 677.661 699.912C677.301 700.62 676.785 701.166 676.113 701.55C675.441 701.934 674.667 702.126 673.791 702.126ZM673.773 700.686C674.613 700.686 675.255 700.41 675.699 699.858C676.143 699.306 676.365 698.496 676.365 697.428C676.365 696.384 676.137 695.58 675.681 695.016C675.237 694.452 674.607 694.17 673.791 694.17C672.963 694.17 672.321 694.452 671.865 695.016C671.409 695.58 671.181 696.384 671.181 697.428C671.181 698.496 671.403 699.306 671.847 699.858C672.303 700.41 672.945 700.686 673.773 700.686ZM694.297 692.928L690.841 702H689.185L686.755 695.43L684.343 702H682.687L679.231 692.928H681.121L683.587 699.858L686.089 692.928H687.529L690.031 699.858L692.515 692.928H694.297ZM700.812 692.712C702.984 692.712 704.07 693.924 704.07 696.348V702H702.252V696.456C702.252 695.664 702.096 695.088 701.784 694.728C701.484 694.368 700.998 694.188 700.326 694.188C699.558 694.188 698.94 694.428 698.472 694.908C698.016 695.388 697.788 696.03 697.788 696.834V702H695.988V695.484C695.988 694.536 695.94 693.684 695.844 692.928H697.536L697.698 694.494C697.986 693.918 698.4 693.48 698.94 693.18C699.492 692.868 700.116 692.712 700.812 692.712ZM706.658 688.752H708.458V702H706.658V688.752ZM715.029 702.126C714.141 702.126 713.361 701.934 712.689 701.55C712.017 701.166 711.495 700.62 711.123 699.912C710.763 699.204 710.583 698.376 710.583 697.428C710.583 696.48 710.763 695.652 711.123 694.944C711.495 694.224 712.017 693.672 712.689 693.288C713.361 692.904 714.141 692.712 715.029 692.712C715.905 692.712 716.679 692.904 717.351 693.288C718.023 693.672 718.539 694.224 718.899 694.944C719.271 695.652 719.457 696.48 719.457 697.428C719.457 698.376 719.271 699.204 718.899 699.912C718.539 700.62 718.023 701.166 717.351 701.55C716.679 701.934 715.905 702.126 715.029 702.126ZM715.011 700.686C715.851 700.686 716.493 700.41 716.937 699.858C717.381 699.306 717.603 698.496 717.603 697.428C717.603 696.384 717.375 695.58 716.919 695.016C716.475 694.452 715.845 694.17 715.029 694.17C714.201 694.17 713.559 694.452 713.103 695.016C712.647 695.58 712.419 696.384 712.419 697.428C712.419 698.496 712.641 699.306 713.085 699.858C713.541 700.41 714.183 700.686 715.011 700.686ZM729.88 692.928V702H728.08V700.452C727.816 700.992 727.42 701.406 726.892 701.694C726.376 701.982 725.77 702.126 725.074 702.126C724.27 702.126 723.562 701.934 722.95 701.55C722.35 701.166 721.882 700.626 721.546 699.93C721.21 699.222 721.042 698.4 721.042 697.464C721.042 696.528 721.21 695.7 721.546 694.98C721.894 694.26 722.374 693.702 722.986 693.306C723.598 692.91 724.294 692.712 725.074 692.712C725.77 692.712 726.376 692.862 726.892 693.162C727.408 693.45 727.804 693.864 728.08 694.404V692.928H729.88ZM725.506 700.686C726.322 700.686 726.952 700.404 727.396 699.84C727.852 699.264 728.08 698.46 728.08 697.428C728.08 696.384 727.852 695.58 727.396 695.016C726.952 694.452 726.316 694.17 725.488 694.17C724.672 694.17 724.03 694.464 723.562 695.052C723.106 695.628 722.878 696.432 722.878 697.464C722.878 698.484 723.106 699.276 723.562 699.84C724.03 700.404 724.678 700.686 725.506 700.686ZM740.849 688.752V702H739.049V700.452C738.785 700.992 738.389 701.406 737.861 701.694C737.345 701.982 736.739 702.126 736.043 702.126C735.263 702.126 734.567 701.928 733.955 701.532C733.343 701.136 732.863 700.584 732.515 699.876C732.179 699.156 732.011 698.328 732.011 697.392C732.011 696.456 732.179 695.634 732.515 694.926C732.851 694.218 733.319 693.672 733.919 693.288C734.531 692.904 735.239 692.712 736.043 692.712C736.727 692.712 737.327 692.856 737.843 693.144C738.371 693.432 738.767 693.84 739.031 694.368V688.752H740.849ZM736.457 700.686C737.285 700.686 737.921 700.404 738.365 699.84C738.821 699.264 739.049 698.46 739.049 697.428C739.049 696.396 738.821 695.598 738.365 695.034C737.921 694.458 737.291 694.17 736.475 694.17C735.647 694.17 734.999 694.452 734.531 695.016C734.075 695.58 733.847 696.372 733.847 697.392C733.847 698.424 734.075 699.234 734.531 699.822C734.999 700.398 735.641 700.686 736.457 700.686ZM748.48 689.184H753.808C755.152 689.184 756.196 689.514 756.94 690.174C757.696 690.822 758.074 691.71 758.074 692.838C758.074 693.966 757.69 694.86 756.922 695.52C756.166 696.168 755.128 696.492 753.808 696.492H750.334V702H748.48V689.184ZM753.592 695.016C754.48 695.016 755.146 694.83 755.59 694.458C756.046 694.086 756.274 693.546 756.274 692.838C756.274 692.142 756.046 691.608 755.59 691.236C755.146 690.864 754.48 690.678 753.592 690.678H750.334V695.016H753.592ZM760.166 688.752H761.966V702H760.166V688.752ZM772.929 692.928V702H771.129V700.452C770.865 700.992 770.469 701.406 769.941 701.694C769.425 701.982 768.819 702.126 768.123 702.126C767.319 702.126 766.611 701.934 765.999 701.55C765.399 701.166 764.931 700.626 764.595 699.93C764.259 699.222 764.091 698.4 764.091 697.464C764.091 696.528 764.259 695.7 764.595 694.98C764.943 694.26 765.423 693.702 766.035 693.306C766.647 692.91 767.343 692.712 768.123 692.712C768.819 692.712 769.425 692.862 769.941 693.162C770.457 693.45 770.853 693.864 771.129 694.404V692.928H772.929ZM768.555 700.686C769.371 700.686 770.001 700.404 770.445 699.84C770.901 699.264 771.129 698.46 771.129 697.428C771.129 696.384 770.901 695.58 770.445 695.016C770.001 694.452 769.365 694.17 768.537 694.17C767.721 694.17 767.079 694.464 766.611 695.052C766.155 695.628 765.927 696.432 765.927 697.464C765.927 698.484 766.155 699.276 766.611 699.84C767.079 700.404 767.727 700.686 768.555 700.686ZM783.844 692.928L779.614 702.738C779.146 703.806 778.558 704.586 777.85 705.078C777.154 705.582 776.29 705.918 775.258 706.086L774.862 704.682C775.714 704.49 776.356 704.238 776.788 703.926C777.232 703.626 777.586 703.17 777.85 702.558L778.174 701.802L774.358 692.928H776.284L779.128 699.948L782.026 692.928H783.844ZM785.25 688.752H787.05V702H785.25V688.752ZM789.715 692.928H791.515V702H789.715V692.928ZM791.659 688.968V690.876H789.553V688.968H791.659ZM797.348 702.126C795.764 702.126 794.516 701.742 793.604 700.974L794.144 699.66C795.092 700.38 796.178 700.74 797.402 700.74C798.026 700.74 798.5 700.638 798.824 700.434C799.148 700.218 799.31 699.918 799.31 699.534C799.31 699.21 799.196 698.958 798.968 698.778C798.752 698.586 798.38 698.424 797.852 698.292L796.34 697.932C795.548 697.764 794.942 697.47 794.522 697.05C794.114 696.618 793.91 696.084 793.91 695.448C793.91 694.632 794.234 693.972 794.882 693.468C795.542 692.964 796.412 692.712 797.492 692.712C798.14 692.712 798.752 692.814 799.328 693.018C799.916 693.222 800.414 693.51 800.822 693.882L800.264 695.16C799.388 694.464 798.464 694.116 797.492 694.116C796.904 694.116 796.448 694.23 796.124 694.458C795.8 694.674 795.638 694.98 795.638 695.376C795.638 695.688 795.74 695.94 795.944 696.132C796.148 696.324 796.472 696.474 796.916 696.582L798.464 696.96C799.328 697.152 799.964 697.458 800.372 697.878C800.792 698.286 801.002 698.82 801.002 699.48C801.002 700.296 800.672 700.944 800.012 701.424C799.364 701.892 798.476 702.126 797.348 702.126ZM805.415 694.332V698.886C805.415 699.51 805.547 699.954 805.811 700.218C806.087 700.47 806.465 700.596 806.945 700.596C807.257 700.596 807.575 700.548 807.899 700.452V701.928C807.503 702.06 807.053 702.126 806.549 702.126C805.613 702.126 804.887 701.862 804.371 701.334C803.855 700.806 803.597 700.038 803.597 699.03V694.332H801.833V692.928H803.597V690.66L805.415 690.03V692.928H807.917V694.332H805.415Z" fill="#3C3C43" fill-opacity="0.6"/>
<path d="M656.494 740.184H664.81V741.696H658.33V745.728H664.45V747.24H658.33V751.488H664.81V753H656.494V740.184ZM675.265 739.752V753H673.465V751.452C673.201 751.992 672.805 752.406 672.277 752.694C671.761 752.982 671.155 753.126 670.459 753.126C669.679 753.126 668.983 752.928 668.371 752.532C667.759 752.136 667.279 751.584 666.931 750.876C666.595 750.156 666.427 749.328 666.427 748.392C666.427 747.456 666.595 746.634 666.931 745.926C667.267 745.218 667.735 744.672 668.335 744.288C668.947 743.904 669.655 743.712 670.459 743.712C671.143 743.712 671.743 743.856 672.259 744.144C672.787 744.432 673.183 744.84 673.447 745.368V739.752H675.265ZM670.873 751.686C671.701 751.686 672.337 751.404 672.781 750.84C673.237 750.264 673.465 749.46 673.465 748.428C673.465 747.396 673.237 746.598 672.781 746.034C672.337 745.458 671.707 745.17 670.891 745.17C670.063 745.17 669.415 745.452 668.947 746.016C668.491 746.58 668.263 747.372 668.263 748.392C668.263 749.424 668.491 750.234 668.947 750.822C669.415 751.398 670.057 751.686 670.873 751.686ZM677.936 743.928H679.736V753H677.936V743.928ZM679.88 739.968V741.876H677.774V739.968H679.88ZM684.758 745.332V749.886C684.758 750.51 684.89 750.954 685.154 751.218C685.43 751.47 685.808 751.596 686.288 751.596C686.6 751.596 686.918 751.548 687.242 751.452V752.928C686.846 753.06 686.396 753.126 685.892 753.126C684.956 753.126 684.23 752.862 683.714 752.334C683.198 751.806 682.94 751.038 682.94 750.03V745.332H681.176V743.928H682.94V741.66L684.758 741.03V743.928H687.26V745.332H684.758ZM693.9 740.184H699.228C700.572 740.184 701.616 740.514 702.36 741.174C703.116 741.822 703.494 742.71 703.494 743.838C703.494 744.966 703.11 745.86 702.342 746.52C701.586 747.168 700.548 747.492 699.228 747.492H695.754V753H693.9V740.184ZM699.012 746.016C699.9 746.016 700.566 745.83 701.01 745.458C701.466 745.086 701.694 744.546 701.694 743.838C701.694 743.142 701.466 742.608 701.01 742.236C700.566 741.864 699.9 741.678 699.012 741.678H695.754V746.016H699.012ZM705.586 739.752H707.386V753H705.586V739.752ZM718.349 743.928V753H716.549V751.452C716.285 751.992 715.889 752.406 715.361 752.694C714.845 752.982 714.239 753.126 713.543 753.126C712.739 753.126 712.031 752.934 711.419 752.55C710.819 752.166 710.351 751.626 710.015 750.93C709.679 750.222 709.511 749.4 709.511 748.464C709.511 747.528 709.679 746.7 710.015 745.98C710.363 745.26 710.843 744.702 711.455 744.306C712.067 743.91 712.763 743.712 713.543 743.712C714.239 743.712 714.845 743.862 715.361 744.162C715.877 744.45 716.273 744.864 716.549 745.404V743.928H718.349ZM713.975 751.686C714.791 751.686 715.421 751.404 715.865 750.84C716.321 750.264 716.549 749.46 716.549 748.428C716.549 747.384 716.321 746.58 715.865 746.016C715.421 745.452 714.785 745.17 713.957 745.17C713.141 745.17 712.499 745.464 712.031 746.052C711.575 746.628 711.347 747.432 711.347 748.464C711.347 749.484 711.575 750.276 712.031 750.84C712.499 751.404 713.147 751.686 713.975 751.686ZM729.264 743.928L725.034 753.738C724.566 754.806 723.978 755.586 723.27 756.078C722.574 756.582 721.71 756.918 720.678 757.086L720.281 755.682C721.134 755.49 721.776 755.238 722.208 754.926C722.652 754.626 723.006 754.17 723.27 753.558L723.594 752.802L719.778 743.928H721.704L724.548 750.948L727.446 743.928H729.264ZM730.67 739.752H732.47V753H730.67V739.752ZM735.135 743.928H736.935V753H735.135V743.928ZM737.079 739.968V741.876H734.973V739.968H737.079ZM742.768 753.126C741.184 753.126 739.936 752.742 739.024 751.974L739.564 750.66C740.512 751.38 741.598 751.74 742.822 751.74C743.446 751.74 743.92 751.638 744.244 751.434C744.568 751.218 744.73 750.918 744.73 750.534C744.73 750.21 744.616 749.958 744.388 749.778C744.172 749.586 743.8 749.424 743.272 749.292L741.76 748.932C740.968 748.764 740.362 748.47 739.942 748.05C739.534 747.618 739.33 747.084 739.33 746.448C739.33 745.632 739.654 744.972 740.302 744.468C740.962 743.964 741.832 743.712 742.912 743.712C743.56 743.712 744.172 743.814 744.748 744.018C745.336 744.222 745.834 744.51 746.242 744.882L745.684 746.16C744.808 745.464 743.884 745.116 742.912 745.116C742.324 745.116 741.868 745.23 741.544 745.458C741.22 745.674 741.058 745.98 741.058 746.376C741.058 746.688 741.16 746.94 741.364 747.132C741.568 747.324 741.892 747.474 742.336 747.582L743.884 747.96C744.748 748.152 745.384 748.458 745.792 748.878C746.212 749.286 746.422 749.82 746.422 750.48C746.422 751.296 746.092 751.944 745.432 752.424C744.784 752.892 743.896 753.126 742.768 753.126ZM750.835 745.332V749.886C750.835 750.51 750.967 750.954 751.231 751.218C751.507 751.47 751.885 751.596 752.365 751.596C752.677 751.596 752.995 751.548 753.319 751.452V752.928C752.923 753.06 752.473 753.126 751.969 753.126C751.033 753.126 750.307 752.862 749.791 752.334C749.275 751.806 749.017 751.038 749.017 750.03V745.332H747.253V743.928H749.017V741.66L750.835 741.03V743.928H753.337V745.332H750.835Z" fill="#3C3C43" fill-opacity="0.6"/>
<path d="M656.278 791.42H661.516V792.896H656.278V791.42ZM668.124 797.144C667.128 797.144 666.216 797.012 665.388 796.748C664.572 796.484 663.864 796.088 663.264 795.56L663.93 794.192C664.554 794.696 665.202 795.062 665.874 795.29C666.546 795.518 667.302 795.632 668.142 795.632C669.102 795.632 669.846 795.452 670.374 795.092C670.902 794.732 671.166 794.222 671.166 793.562C671.166 793.01 670.92 792.596 670.428 792.32C669.936 792.032 669.156 791.768 668.088 791.528C667.068 791.312 666.234 791.066 665.586 790.79C664.938 790.502 664.428 790.124 664.056 789.656C663.684 789.176 663.498 788.564 663.498 787.82C663.498 787.076 663.696 786.422 664.092 785.858C664.488 785.282 665.046 784.838 665.766 784.526C666.498 784.202 667.338 784.04 668.286 784.04C669.186 784.04 670.026 784.178 670.806 784.454C671.598 784.73 672.258 785.12 672.786 785.624L672.12 786.992C671.532 786.5 670.926 786.14 670.302 785.912C669.678 785.672 669.012 785.552 668.304 785.552C667.38 785.552 666.654 785.75 666.126 786.146C665.598 786.53 665.334 787.058 665.334 787.73C665.334 788.306 665.562 788.744 666.018 789.044C666.486 789.344 667.23 789.614 668.25 789.854C669.318 790.094 670.182 790.346 670.842 790.61C671.502 790.874 672.03 791.234 672.426 791.69C672.822 792.146 673.02 792.734 673.02 793.454C673.02 794.198 672.822 794.846 672.426 795.398C672.03 795.95 671.46 796.382 670.716 796.694C669.984 796.994 669.12 797.144 668.124 797.144ZM679.982 787.712C682.154 787.712 683.24 788.924 683.24 791.348V797H681.422V791.456C681.422 790.664 681.266 790.088 680.954 789.728C680.654 789.368 680.168 789.188 679.496 789.188C678.728 789.188 678.11 789.428 677.642 789.908C677.186 790.388 676.958 791.03 676.958 791.834V797H675.158V783.752H676.958V789.332C677.258 788.804 677.672 788.402 678.2 788.126C678.728 787.85 679.322 787.712 679.982 787.712ZM694.126 787.928V797H692.326V795.452C692.062 795.992 691.666 796.406 691.138 796.694C690.622 796.982 690.016 797.126 689.32 797.126C688.516 797.126 687.808 796.934 687.196 796.55C686.596 796.166 686.128 795.626 685.792 794.93C685.456 794.222 685.288 793.4 685.288 792.464C685.288 791.528 685.456 790.7 685.792 789.98C686.14 789.26 686.62 788.702 687.232 788.306C687.844 787.91 688.54 787.712 689.32 787.712C690.016 787.712 690.622 787.862 691.138 788.162C691.654 788.45 692.05 788.864 692.326 789.404V787.928H694.126ZM689.752 795.686C690.568 795.686 691.198 795.404 691.642 794.84C692.098 794.264 692.326 793.46 692.326 792.428C692.326 791.384 692.098 790.58 691.642 790.016C691.198 789.452 690.562 789.17 689.734 789.17C688.918 789.17 688.276 789.464 687.808 790.052C687.352 790.628 687.124 791.432 687.124 792.464C687.124 793.484 687.352 794.276 687.808 794.84C688.276 795.404 688.924 795.686 689.752 795.686ZM701.315 787.712C701.591 787.712 701.879 787.754 702.179 787.838L702.143 789.494C701.819 789.374 701.465 789.314 701.081 789.314C700.253 789.314 699.629 789.566 699.209 790.07C698.801 790.562 698.597 791.186 698.597 791.942V797H696.797V790.484C696.797 789.536 696.749 788.684 696.653 787.928H698.345L698.507 789.566C698.747 788.966 699.119 788.51 699.623 788.198C700.127 787.874 700.691 787.712 701.315 787.712ZM711.129 792.5H704.649C704.709 794.624 705.675 795.686 707.547 795.686C708.591 795.686 709.545 795.344 710.409 794.66L710.967 795.956C710.559 796.316 710.037 796.604 709.401 796.82C708.777 797.024 708.147 797.126 707.511 797.126C706.059 797.126 704.919 796.712 704.091 795.884C703.263 795.044 702.849 793.898 702.849 792.446C702.849 791.522 703.029 790.7 703.389 789.98C703.761 789.26 704.277 788.702 704.937 788.306C705.597 787.91 706.347 787.712 707.187 787.712C708.411 787.712 709.371 788.108 710.067 788.9C710.775 789.692 711.129 790.79 711.129 792.194V792.5ZM707.223 789.062C706.539 789.062 705.981 789.266 705.549 789.674C705.117 790.082 704.841 790.664 704.721 791.42H709.527C709.455 790.652 709.221 790.07 708.825 789.674C708.429 789.266 707.895 789.062 707.223 789.062ZM718.176 784.184H723.504C724.848 784.184 725.892 784.514 726.636 785.174C727.392 785.822 727.77 786.71 727.77 787.838C727.77 788.966 727.386 789.86 726.618 790.52C725.862 791.168 724.824 791.492 723.504 791.492H720.03V797H718.176V784.184ZM723.288 790.016C724.176 790.016 724.842 789.83 725.286 789.458C725.742 789.086 725.97 788.546 725.97 787.838C725.97 787.142 725.742 786.608 725.286 786.236C724.842 785.864 724.176 785.678 723.288 785.678H720.03V790.016H723.288ZM729.861 783.752H731.661V797H729.861V783.752ZM742.624 787.928V797H740.824V795.452C740.56 795.992 740.164 796.406 739.636 796.694C739.12 796.982 738.514 797.126 737.818 797.126C737.014 797.126 736.306 796.934 735.694 796.55C735.094 796.166 734.626 795.626 734.29 794.93C733.954 794.222 733.786 793.4 733.786 792.464C733.786 791.528 733.954 790.7 734.29 789.98C734.638 789.26 735.118 788.702 735.73 788.306C736.342 787.91 737.038 787.712 737.818 787.712C738.514 787.712 739.12 787.862 739.636 788.162C740.152 788.45 740.548 788.864 740.824 789.404V787.928H742.624ZM738.25 795.686C739.066 795.686 739.696 795.404 740.14 794.84C740.596 794.264 740.824 793.46 740.824 792.428C740.824 791.384 740.596 790.58 740.14 790.016C739.696 789.452 739.06 789.17 738.232 789.17C737.416 789.17 736.774 789.464 736.306 790.052C735.85 790.628 735.622 791.432 735.622 792.464C735.622 793.484 735.85 794.276 736.306 794.84C736.774 795.404 737.422 795.686 738.25 795.686ZM753.539 787.928L749.309 797.738C748.841 798.806 748.253 799.586 747.545 800.078C746.849 800.582 745.985 800.918 744.953 801.086L744.557 799.682C745.409 799.49 746.051 799.238 746.483 798.926C746.927 798.626 747.281 798.17 747.545 797.558L747.869 796.802L744.053 787.928H745.979L748.823 794.948L751.721 787.928H753.539ZM754.945 783.752H756.745V797H754.945V783.752ZM759.41 787.928H761.21V797H759.41V787.928ZM761.354 783.968V785.876H759.248V783.968H761.354ZM767.043 797.126C765.459 797.126 764.211 796.742 763.299 795.974L763.839 794.66C764.787 795.38 765.873 795.74 767.097 795.74C767.721 795.74 768.195 795.638 768.519 795.434C768.843 795.218 769.005 794.918 769.005 794.534C769.005 794.21 768.891 793.958 768.663 793.778C768.447 793.586 768.075 793.424 767.547 793.292L766.035 792.932C765.243 792.764 764.637 792.47 764.217 792.05C763.809 791.618 763.605 791.084 763.605 790.448C763.605 789.632 763.929 788.972 764.577 788.468C765.237 787.964 766.107 787.712 767.187 787.712C767.835 787.712 768.447 787.814 769.023 788.018C769.611 788.222 770.109 788.51 770.517 788.882L769.959 790.16C769.083 789.464 768.159 789.116 767.187 789.116C766.599 789.116 766.143 789.23 765.819 789.458C765.495 789.674 765.333 789.98 765.333 790.376C765.333 790.688 765.435 790.94 765.639 791.132C765.843 791.324 766.167 791.474 766.611 791.582L768.159 791.96C769.023 792.152 769.659 792.458 770.067 792.878C770.487 793.286 770.697 793.82 770.697 794.48C770.697 795.296 770.367 795.944 769.707 796.424C769.059 796.892 768.171 797.126 767.043 797.126ZM775.11 789.332V793.886C775.11 794.51 775.242 794.954 775.506 795.218C775.782 795.47 776.16 795.596 776.64 795.596C776.952 795.596 777.27 795.548 777.594 795.452V796.928C777.198 797.06 776.748 797.126 776.244 797.126C775.308 797.126 774.582 796.862 774.066 796.334C773.55 795.806 773.292 795.038 773.292 794.03V789.332H771.528V787.928H773.292V785.66L775.11 785.03V787.928H777.612V789.332H775.11ZM782.459 797.126C780.875 797.126 779.627 796.742 778.715 795.974L779.255 794.66C780.203 795.38 781.289 795.74 782.513 795.74C783.137 795.74 783.611 795.638 783.935 795.434C784.259 795.218 784.421 794.918 784.421 794.534C784.421 794.21 784.307 793.958 784.079 793.778C783.863 793.586 783.491 793.424 782.963 793.292L781.451 792.932C780.659 792.764 780.053 792.47 779.633 792.05C779.225 791.618 779.021 791.084 779.021 790.448C779.021 789.632 779.345 788.972 779.993 788.468C780.653 787.964 781.523 787.712 782.603 787.712C783.251 787.712 783.863 787.814 784.439 788.018C785.027 788.222 785.525 788.51 785.933 788.882L785.375 790.16C784.499 789.464 783.575 789.116 782.603 789.116C782.015 789.116 781.559 789.23 781.235 789.458C780.911 789.674 780.749 789.98 780.749 790.376C780.749 790.688 780.851 790.94 781.055 791.132C781.259 791.324 781.583 791.474 782.027 791.582L783.575 791.96C784.439 792.152 785.075 792.458 785.483 792.878C785.903 793.286 786.113 793.82 786.113 794.48C786.113 795.296 785.783 795.944 785.123 796.424C784.475 796.892 783.587 797.126 782.459 797.126Z" fill="#3C3C43" fill-opacity="0.6"/>
<path d="M656.278 824.42H661.516V825.896H656.278V824.42ZM674.559 830H672.597L670.995 825.734C670.827 825.278 670.581 824.966 670.257 824.798C669.933 824.618 669.489 824.528 668.925 824.528H666.117V830H664.281V817.184H669.555C670.959 817.184 672.033 817.496 672.777 818.12C673.533 818.744 673.911 819.638 673.911 820.802C673.911 821.642 673.689 822.356 673.245 822.944C672.801 823.532 672.171 823.946 671.355 824.186C672.099 824.318 672.639 824.846 672.975 825.77L674.559 830ZM669.339 823.034C670.275 823.034 670.971 822.854 671.427 822.494C671.883 822.122 672.111 821.57 672.111 820.838C672.111 820.106 671.883 819.566 671.427 819.218C670.983 818.858 670.287 818.678 669.339 818.678H666.117V823.034H669.339ZM684.41 825.5H677.93C677.99 827.624 678.956 828.686 680.828 828.686C681.872 828.686 682.826 828.344 683.69 827.66L684.248 828.956C683.84 829.316 683.318 829.604 682.682 829.82C682.058 830.024 681.428 830.126 680.792 830.126C679.34 830.126 678.2 829.712 677.372 828.884C676.544 828.044 676.13 826.898 676.13 825.446C676.13 824.522 676.31 823.7 676.67 822.98C677.042 822.26 677.558 821.702 678.218 821.306C678.878 820.91 679.628 820.712 680.468 820.712C681.692 820.712 682.652 821.108 683.348 821.9C684.056 822.692 684.41 823.79 684.41 825.194V825.5ZM680.504 822.062C679.82 822.062 679.262 822.266 678.83 822.674C678.398 823.082 678.122 823.664 678.002 824.42H682.808C682.736 823.652 682.502 823.07 682.106 822.674C681.71 822.266 681.176 822.062 680.504 822.062ZM696.846 820.712C698.862 820.712 699.87 821.924 699.87 824.348V830H698.052V824.438C698.052 823.658 697.914 823.088 697.638 822.728C697.374 822.368 696.942 822.188 696.342 822.188C695.646 822.188 695.094 822.428 694.686 822.908C694.29 823.388 694.092 824.042 694.092 824.87V830H692.274V824.438C692.274 823.658 692.136 823.088 691.86 822.728C691.596 822.368 691.164 822.188 690.564 822.188C689.868 822.188 689.316 822.428 688.908 822.908C688.5 823.388 688.296 824.042 688.296 824.87V830H686.496V823.484C686.496 822.536 686.448 821.684 686.352 820.928H688.044L688.206 822.44C688.47 821.888 688.848 821.462 689.34 821.162C689.832 820.862 690.408 820.712 691.068 820.712C692.472 820.712 693.39 821.294 693.822 822.458C694.098 821.918 694.5 821.492 695.028 821.18C695.568 820.868 696.174 820.712 696.846 820.712ZM706.381 830.126C705.493 830.126 704.713 829.934 704.041 829.55C703.369 829.166 702.847 828.62 702.475 827.912C702.115 827.204 701.935 826.376 701.935 825.428C701.935 824.48 702.115 823.652 702.475 822.944C702.847 822.224 703.369 821.672 704.041 821.288C704.713 820.904 705.493 820.712 706.381 820.712C707.257 820.712 708.031 820.904 708.703 821.288C709.375 821.672 709.891 822.224 710.251 822.944C710.623 823.652 710.809 824.48 710.809 825.428C710.809 826.376 710.623 827.204 710.251 827.912C709.891 828.62 709.375 829.166 708.703 829.55C708.031 829.934 707.257 830.126 706.381 830.126ZM706.363 828.686C707.203 828.686 707.845 828.41 708.289 827.858C708.733 827.306 708.955 826.496 708.955 825.428C708.955 824.384 708.727 823.58 708.271 823.016C707.827 822.452 707.197 822.17 706.381 822.17C705.553 822.17 704.911 822.452 704.455 823.016C703.999 823.58 703.771 824.384 703.771 825.428C703.771 826.496 703.993 827.306 704.437 827.858C704.893 828.41 705.535 828.686 706.363 828.686ZM721.055 820.946L717.113 830H715.475L711.569 820.946H713.495L716.339 827.948L719.237 820.946H721.055ZM730.078 825.5H723.598C723.658 827.624 724.624 828.686 726.496 828.686C727.54 828.686 728.494 828.344 729.358 827.66L729.916 828.956C729.508 829.316 728.986 829.604 728.35 829.82C727.726 830.024 727.096 830.126 726.46 830.126C725.008 830.126 723.868 829.712 723.04 828.884C722.212 828.044 721.798 826.898 721.798 825.446C721.798 824.522 721.978 823.7 722.338 822.98C722.71 822.26 723.226 821.702 723.886 821.306C724.546 820.91 725.296 820.712 726.136 820.712C727.36 820.712 728.32 821.108 729.016 821.9C729.724 822.692 730.078 823.79 730.078 825.194V825.5ZM726.172 822.062C725.488 822.062 724.93 822.266 724.498 822.674C724.066 823.082 723.79 823.664 723.67 824.42H728.476C728.404 823.652 728.17 823.07 727.774 822.674C727.378 822.266 726.844 822.062 726.172 822.062ZM737.125 817.184H742.453C743.797 817.184 744.841 817.514 745.585 818.174C746.341 818.822 746.719 819.71 746.719 820.838C746.719 821.966 746.335 822.86 745.567 823.52C744.811 824.168 743.773 824.492 742.453 824.492H738.979V830H737.125V817.184ZM742.237 823.016C743.125 823.016 743.791 822.83 744.235 822.458C744.691 822.086 744.919 821.546 744.919 820.838C744.919 820.142 744.691 819.608 744.235 819.236C743.791 818.864 743.125 818.678 742.237 818.678H738.979V823.016H742.237ZM748.811 816.752H750.611V830H748.811V816.752ZM761.573 820.928V830H759.773V828.452C759.509 828.992 759.113 829.406 758.585 829.694C758.069 829.982 757.463 830.126 756.767 830.126C755.963 830.126 755.255 829.934 754.643 829.55C754.043 829.166 753.575 828.626 753.239 827.93C752.903 827.222 752.735 826.4 752.735 825.464C752.735 824.528 752.903 823.7 753.239 822.98C753.587 822.26 754.067 821.702 754.679 821.306C755.291 820.91 755.987 820.712 756.767 820.712C757.463 820.712 758.069 820.862 758.585 821.162C759.101 821.45 759.497 821.864 759.773 822.404V820.928H761.573ZM757.199 828.686C758.015 828.686 758.645 828.404 759.089 827.84C759.545 827.264 759.773 826.46 759.773 825.428C759.773 824.384 759.545 823.58 759.089 823.016C758.645 822.452 758.009 822.17 757.181 822.17C756.365 822.17 755.723 822.464 755.255 823.052C754.799 823.628 754.571 824.432 754.571 825.464C754.571 826.484 754.799 827.276 755.255 827.84C755.723 828.404 756.371 828.686 757.199 828.686ZM772.488 820.928L768.258 830.738C767.79 831.806 767.202 832.586 766.494 833.078C765.798 833.582 764.934 833.918 763.902 834.086L763.506 832.682C764.358 832.49 765 832.238 765.432 831.926C765.876 831.626 766.23 831.17 766.494 830.558L766.818 829.802L763.002 820.928H764.928L767.772 827.948L770.67 820.928H772.488ZM773.895 816.752H775.695V830H773.895V816.752ZM778.359 820.928H780.159V830H778.359V820.928ZM780.303 816.968V818.876H778.197V816.968H780.303ZM785.992 830.126C784.408 830.126 783.16 829.742 782.248 828.974L782.788 827.66C783.736 828.38 784.822 828.74 786.046 828.74C786.67 828.74 787.144 828.638 787.468 828.434C787.792 828.218 787.954 827.918 787.954 827.534C787.954 827.21 787.84 826.958 787.612 826.778C787.396 826.586 787.024 826.424 786.496 826.292L784.984 825.932C784.192 825.764 783.586 825.47 783.166 825.05C782.758 824.618 782.554 824.084 782.554 823.448C782.554 822.632 782.878 821.972 783.526 821.468C784.186 820.964 785.056 820.712 786.136 820.712C786.784 820.712 787.396 820.814 787.972 821.018C788.56 821.222 789.058 821.51 789.466 821.882L788.908 823.16C788.032 822.464 787.108 822.116 786.136 822.116C785.548 822.116 785.092 822.23 784.768 822.458C784.444 822.674 784.282 822.98 784.282 823.376C784.282 823.688 784.384 823.94 784.588 824.132C784.792 824.324 785.116 824.474 785.56 824.582L787.108 824.96C787.972 825.152 788.608 825.458 789.016 825.878C789.436 826.286 789.646 826.82 789.646 827.48C789.646 828.296 789.316 828.944 788.656 829.424C788.008 829.892 787.12 830.126 785.992 830.126ZM794.059 822.332V826.886C794.059 827.51 794.191 827.954 794.455 828.218C794.731 828.47 795.109 828.596 795.589 828.596C795.901 828.596 796.219 828.548 796.543 828.452V829.928C796.147 830.06 795.697 830.126 795.193 830.126C794.257 830.126 793.531 829.862 793.015 829.334C792.499 828.806 792.241 828.038 792.241 827.03V822.332H790.477V820.928H792.241V818.66L794.059 818.03V820.928H796.561V822.332H794.059Z" fill="#3C3C43" fill-opacity="0.6"/>
<rect x="0.477988" y="0.477988" width="1001.04" height="948.044" stroke="white" stroke-width="0.955976"/>
<defs>
<linearGradient id="paint0_linear_81_39273" x1="459.72" y1="136.226" x2="456.522" y2="123.735" gradientUnits="userSpaceOnUse">
<stop offset="0.21875" stop-color="#969BFF"/>
<stop offset="1" stop-color="#656CEE"/>
</linearGradient>
</defs>
</svg>
