<svg width="91" height="33" viewBox="0 0 91 33" fill="none" xmlns="http://www.w3.org/2000/svg">
<g clip-path="url(#clip0_1_7934)">
<path d="M6.16528 20.8827L18.23 0L23.5564 8.84733L32.4498 9.40712C32.4498 9.40712 24.7363 10.5881 20.201 12.247L18.2027 9.20914L15.311 14.5271C15.311 14.5339 8.18402 18.664 6.16528 20.8827Z" fill="#0E9F6E"/>
<path d="M7.39294 21.4762C7.39294 21.4762 4.98546 24.0431 2.59162 23.0395C3.42367 24.0431 2.72802 29.1357 0 32.1258L0.545604 32.6037L4.77404 27.7021L4.92408 27.8523L0.688826 32.7334L0.927528 32.9723C0.927528 32.9723 5.38784 28.7125 9.69812 29.2245C6.77914 22.3091 28.9375 10.3352 44.2894 11.3728C44.2894 11.3728 22.6494 6.74434 7.39294 21.4762ZM4.91726 26.5006C4.8968 25.306 6.77232 25.306 6.75868 26.5006C6.77232 27.6953 4.8968 27.6953 4.91726 26.5006Z" fill="#0E9F6E"/>
<path d="M27.2666 15.4072C27.2666 15.4072 18.7074 18.5884 18.0322 20.0016C18.0322 20.0016 22.854 18.6157 23.5292 18.6499L31.5359 32.3851L37.1488 32.3919L27.2666 15.4072Z" fill="#0E9F6E"/>
<path d="M70.9353 32.3923H67.5594V30.474C66.9592 31.3273 66.2568 31.9622 65.452 32.3786C64.6472 32.7951 63.7265 32.9999 62.6899 32.9999C60.603 32.9999 58.9593 32.2831 57.7658 30.8563C56.5655 29.4295 55.9653 27.4703 55.9653 24.9922C55.9653 22.637 56.5791 20.7324 57.7999 19.2851C59.0207 17.8379 60.6234 17.1143 62.5944 17.1143C63.7947 17.1143 64.8314 17.3668 65.6839 17.872C66.5432 18.3772 67.1638 19.1008 67.5594 20.0429V17.6263H70.9353V32.3923ZM67.6481 24.9581C67.6481 23.4289 67.2934 22.2411 66.5841 21.3877C65.8749 20.5344 64.8791 20.1112 63.6038 20.1112C62.3284 20.1112 61.3259 20.5481 60.5893 21.4287C59.8596 22.3093 59.4913 23.5245 59.4913 25.081C59.4913 26.6511 59.8459 27.8594 60.5484 28.7127C61.2509 29.5661 62.2534 29.9893 63.5356 29.9893C64.7495 29.9893 65.7385 29.5251 66.5023 28.6035C67.2661 27.6819 67.6481 26.4668 67.6481 24.9581Z" fill="white"/>
<path d="M73.5474 32.3928L85.1619 12.732H75.4979V9.58496H90.8635L79.3581 29.075H90.9999V32.3928H73.5474Z" fill="white"/>
<path d="M51.6415 19.2853C50.4207 17.838 48.8317 17.1144 46.8743 17.1144C45.6672 17.1144 44.6373 17.367 43.7712 17.879C42.905 18.391 42.2776 19.1078 41.882 20.043V11.7486C41.5069 11.7418 40.8931 11.7555 39.8906 11.8237C39.2699 11.8647 38.8266 11.933 38.4993 12.0081V32.3924H41.8752V30.4741C42.4754 31.3275 43.1778 31.9623 43.9826 32.3788C44.7874 32.7952 45.7081 33 46.7447 33C48.8317 33 50.4753 32.2832 51.6688 30.8564C52.8691 29.4297 53.4693 27.4704 53.4693 24.9923C53.4693 22.6371 52.8623 20.7325 51.6415 19.2853ZM48.8862 28.7197C48.1838 29.573 47.1948 29.9963 45.9195 29.9963C44.6919 29.9963 43.6962 29.5321 42.9255 28.6105C42.1548 27.6889 41.7661 26.4737 41.7661 24.965C41.7661 23.4359 42.1275 22.248 42.8436 21.3947C43.5598 20.5414 44.5555 20.1181 45.8308 20.1181C47.1062 20.1181 48.1087 20.555 48.8453 21.4357C49.575 22.3163 49.9433 23.5314 49.9433 25.0879C49.9365 26.6512 49.5887 27.8664 48.8862 28.7197Z" fill="white"/>
<path d="M41.8752 8.24707H38.4993V10.3087C39.5018 10.3633 41.1318 10.5135 41.8752 10.5818V8.24707Z" fill="white"/>
<path d="M37.6882 12.5614L37.681 12.4453C37.6597 12.5136 37.6882 12.5614 37.6882 12.5614Z" fill="black"/>
</g>
<defs>
<clipPath id="clip0_1_7934">
<rect width="91" height="33" fill="white"/>
</clipPath>
</defs>
</svg>
