<svg width="1002" height="723" viewBox="0 0 1002 723" fill="none" xmlns="http://www.w3.org/2000/svg">
<rect x="0.477988" y="0.477988" width="1001.04" height="722.044" fill="#F6F5FF"/>
<g clip-path="url(#clip0_81_38776)" filter="url(#filter0_d_81_38776)">
<path d="M482 189H310.9C305.394 189 302.641 189 300.53 190.055C298.593 191.023 297.022 192.593 296.055 194.53C295 196.641 295 199.394 295 204.9V235" stroke="#C4C4C4"/>
<path fill-rule="evenodd" clip-rule="evenodd" d="M292 234H298L295 237L292 234Z" fill="#C4C4C4"/>
<path d="M474 189H660.1C665.606 189 668.359 189 670.47 190.055C672.407 191.023 673.978 192.593 674.945 194.53C676 196.641 676 199.394 676 204.9V235" stroke="#C4C4C4"/>
<path fill-rule="evenodd" clip-rule="evenodd" d="M679 234H673L676 237L679 234Z" fill="#C4C4C4"/>
<path d="M295 435H660.1C665.606 435 668.359 435 670.47 433.945C672.407 432.978 673.978 431.407 674.945 429.47C676 427.359 676 424.606 676 419.1V388" stroke="#C4C4C4"/>
<path fill-rule="evenodd" clip-rule="evenodd" d="M679 389H673L676 386L679 389Z" fill="#C4C4C4"/>
<path d="M295 476H775.1C780.606 476 783.359 476 785.47 477.055C787.407 478.022 788.977 479.593 789.945 481.53C791 483.641 791 486.394 791 491.9V538" stroke="#C4C4C4"/>
<path fill-rule="evenodd" clip-rule="evenodd" d="M794 537H788L791 540L794 537Z" fill="#C4C4C4"/>
<path d="M484.5 189V162.068" stroke="#C4C4C4" stroke-linecap="square"/>
<path fill-rule="evenodd" clip-rule="evenodd" d="M487 164H482L484.5 161L487 164Z" fill="#C4C4C4"/>
<path d="M676 345V279.167" stroke="#C4C4C4" stroke-linecap="square"/>
<path fill-rule="evenodd" clip-rule="evenodd" d="M678 281H673L675.5 278L678 281Z" fill="#C4C4C4"/>
<path d="M295 284V541.348" stroke="#C4C4C4" stroke-linecap="square"/>
<path fill-rule="evenodd" clip-rule="evenodd" d="M293 540H298L295.5 543L293 540Z" fill="#C4C4C4"/>
<path d="M457 476V541.833" stroke="#C4C4C4" stroke-linecap="square"/>
<path fill-rule="evenodd" clip-rule="evenodd" d="M455 540H460L457.5 543L455 540Z" fill="#C4C4C4"/>
<path d="M619 476V541.833" stroke="#C4C4C4" stroke-linecap="square"/>
<path fill-rule="evenodd" clip-rule="evenodd" d="M617 540H622L619.5 543L617 540Z" fill="#C4C4C4"/>
<path d="M402 237.5H187C180.649 237.5 175.5 242.649 175.5 249V275C175.5 281.351 180.649 286.5 187 286.5H402C408.351 286.5 413.5 281.351 413.5 275V249C413.5 242.649 408.351 237.5 402 237.5Z" fill="white"/>
<path d="M267.141 268.144C266.145 268.144 265.233 268.012 264.405 267.748C263.589 267.484 262.881 267.088 262.281 266.56L262.947 265.192C263.571 265.696 264.219 266.062 264.891 266.29C265.563 266.518 266.319 266.632 267.159 266.632C268.119 266.632 268.863 266.452 269.391 266.092C269.919 265.732 270.183 265.222 270.183 264.562C270.183 264.01 269.937 263.596 269.445 263.32C268.953 263.032 268.173 262.768 267.105 262.528C266.085 262.312 265.251 262.066 264.603 261.79C263.955 261.502 263.445 261.124 263.073 260.656C262.701 260.176 262.515 259.564 262.515 258.82C262.515 258.076 262.713 257.422 263.109 256.858C263.505 256.282 264.063 255.838 264.783 255.526C265.515 255.202 266.355 255.04 267.303 255.04C268.203 255.04 269.043 255.178 269.823 255.454C270.615 255.73 271.275 256.12 271.803 256.624L271.137 257.992C270.549 257.5 269.943 257.14 269.319 256.912C268.695 256.672 268.029 256.552 267.321 256.552C266.397 256.552 265.671 256.75 265.143 257.146C264.615 257.53 264.351 258.058 264.351 258.73C264.351 259.306 264.579 259.744 265.035 260.044C265.503 260.344 266.247 260.614 267.267 260.854C268.335 261.094 269.199 261.346 269.859 261.61C270.519 261.874 271.047 262.234 271.443 262.69C271.839 263.146 272.037 263.734 272.037 264.454C272.037 265.198 271.839 265.846 271.443 266.398C271.047 266.95 270.477 267.382 269.733 267.694C269.001 267.994 268.137 268.144 267.141 268.144ZM274.338 255.184H276.192V268H274.338V255.184ZM289.558 261.196V267.244C289.018 267.52 288.334 267.742 287.506 267.91C286.69 268.066 285.856 268.144 285.004 268.144C283.708 268.144 282.586 267.886 281.638 267.37C280.69 266.842 279.964 266.086 279.46 265.102C278.968 264.118 278.722 262.942 278.722 261.574C278.722 260.23 278.968 259.066 279.46 258.082C279.964 257.098 280.678 256.348 281.602 255.832C282.538 255.304 283.636 255.04 284.896 255.04C285.796 255.04 286.624 255.178 287.38 255.454C288.148 255.718 288.802 256.102 289.342 256.606L288.676 257.992C288.064 257.488 287.464 257.128 286.876 256.912C286.288 256.696 285.634 256.588 284.914 256.588C283.522 256.588 282.46 257.014 281.728 257.866C281.008 258.718 280.648 259.954 280.648 261.574C280.648 263.242 281.02 264.508 281.764 265.372C282.508 266.224 283.606 266.65 285.058 266.65C286.03 266.65 286.966 266.506 287.866 266.218V262.618H284.878V261.196H289.558ZM302.92 255.184V268H301.498L294.154 258.316V268H292.408V255.184H293.812L301.174 264.886V255.184H302.92ZM310.707 255.184H312.561V268H310.707V255.184ZM326.053 255.184V268H324.631L317.287 258.316V268H315.541V255.184H316.945L324.307 264.886V255.184H326.053Z" fill="#3C3C43" fill-opacity="0.6"/>
<path d="M402 237.5H187C180.649 237.5 175.5 242.649 175.5 249V275C175.5 281.351 180.649 286.5 187 286.5H402C408.351 286.5 413.5 281.351 413.5 275V249C413.5 242.649 408.351 237.5 402 237.5Z" stroke="white"/>
<path d="M551 114.5H418C411.649 114.5 406.5 119.649 406.5 126V152C406.5 158.351 411.649 163.5 418 163.5H551C557.351 163.5 562.5 158.351 562.5 152V126C562.5 119.649 557.351 114.5 551 114.5Z" fill="url(#paint0_linear_81_38776)"/>
<path d="M461.633 145.144C460.637 145.144 459.725 145.012 458.897 144.748C458.081 144.484 457.373 144.088 456.773 143.56L457.439 142.192C458.063 142.696 458.711 143.062 459.383 143.29C460.055 143.518 460.811 143.632 461.651 143.632C462.611 143.632 463.355 143.452 463.883 143.092C464.411 142.732 464.675 142.222 464.675 141.562C464.675 141.01 464.429 140.596 463.937 140.32C463.445 140.032 462.665 139.768 461.597 139.528C460.577 139.312 459.743 139.066 459.095 138.79C458.447 138.502 457.937 138.124 457.565 137.656C457.193 137.176 457.007 136.564 457.007 135.82C457.007 135.076 457.205 134.422 457.601 133.858C457.997 133.282 458.555 132.838 459.275 132.526C460.007 132.202 460.847 132.04 461.795 132.04C462.695 132.04 463.535 132.178 464.315 132.454C465.107 132.73 465.767 133.12 466.295 133.624L465.629 134.992C465.041 134.5 464.435 134.14 463.811 133.912C463.187 133.672 462.521 133.552 461.813 133.552C460.889 133.552 460.163 133.75 459.635 134.146C459.107 134.53 458.843 135.058 458.843 135.73C458.843 136.306 459.071 136.744 459.527 137.044C459.995 137.344 460.739 137.614 461.759 137.854C462.827 138.094 463.691 138.346 464.351 138.61C465.011 138.874 465.539 139.234 465.935 139.69C466.331 140.146 466.529 140.734 466.529 141.454C466.529 142.198 466.331 142.846 465.935 143.398C465.539 143.95 464.969 144.382 464.225 144.694C463.493 144.994 462.629 145.144 461.633 145.144ZM471.626 133.732H467.288V132.184H477.836V133.732H473.498V145H471.626V133.732ZM486.447 141.832H479.967L478.599 145H476.709L482.415 132.184H483.981L489.705 145H487.815L486.447 141.832ZM485.817 140.356L483.207 134.254L480.597 140.356H485.817ZM501.643 145H499.681L498.079 140.734C497.911 140.278 497.665 139.966 497.341 139.798C497.017 139.618 496.573 139.528 496.009 139.528H493.201V145H491.365V132.184H496.639C498.043 132.184 499.117 132.496 499.861 133.12C500.617 133.744 500.995 134.638 500.995 135.802C500.995 136.642 500.773 137.356 500.329 137.944C499.885 138.532 499.255 138.946 498.439 139.186C499.183 139.318 499.723 139.846 500.059 140.77L501.643 145ZM496.423 138.034C497.359 138.034 498.055 137.854 498.511 137.494C498.967 137.122 499.195 136.57 499.195 135.838C499.195 135.106 498.967 134.566 498.511 134.218C498.067 133.858 497.371 133.678 496.423 133.678H493.201V138.034H496.423ZM506.624 133.732H502.286V132.184H512.834V133.732H508.496V145H506.624V133.732Z" fill="white"/>
<path d="M551 114.5H418C411.649 114.5 406.5 119.649 406.5 126V152C406.5 158.351 411.649 163.5 418 163.5H551C557.351 163.5 562.5 158.351 562.5 152V126C562.5 119.649 557.351 114.5 551 114.5Z" stroke="white"/>
<path d="M782 237.5H567C560.649 237.5 555.5 242.649 555.5 249V275C555.5 281.351 560.649 286.5 567 286.5H782C788.351 286.5 793.5 281.351 793.5 275V249C793.5 242.649 788.351 237.5 782 237.5Z" fill="white"/>
<path d="M643.766 268.144C642.77 268.144 641.858 268.012 641.03 267.748C640.214 267.484 639.506 267.088 638.906 266.56L639.572 265.192C640.196 265.696 640.844 266.062 641.516 266.29C642.188 266.518 642.944 266.632 643.784 266.632C644.744 266.632 645.488 266.452 646.016 266.092C646.544 265.732 646.808 265.222 646.808 264.562C646.808 264.01 646.562 263.596 646.07 263.32C645.578 263.032 644.798 262.768 643.73 262.528C642.71 262.312 641.876 262.066 641.228 261.79C640.58 261.502 640.07 261.124 639.698 260.656C639.326 260.176 639.14 259.564 639.14 258.82C639.14 258.076 639.338 257.422 639.734 256.858C640.13 256.282 640.688 255.838 641.408 255.526C642.14 255.202 642.98 255.04 643.928 255.04C644.828 255.04 645.668 255.178 646.448 255.454C647.24 255.73 647.9 256.12 648.428 256.624L647.762 257.992C647.174 257.5 646.568 257.14 645.944 256.912C645.32 256.672 644.654 256.552 643.946 256.552C643.022 256.552 642.296 256.75 641.768 257.146C641.24 257.53 640.976 258.058 640.976 258.73C640.976 259.306 641.204 259.744 641.66 260.044C642.128 260.344 642.872 260.614 643.892 260.854C644.96 261.094 645.824 261.346 646.484 261.61C647.144 261.874 647.672 262.234 648.068 262.69C648.464 263.146 648.662 263.734 648.662 264.454C648.662 265.198 648.464 265.846 648.068 266.398C647.672 266.95 647.102 267.382 646.358 267.694C645.626 267.994 644.762 268.144 643.766 268.144ZM650.963 255.184H652.817V268H650.963V255.184ZM666.183 261.196V267.244C665.643 267.52 664.959 267.742 664.131 267.91C663.315 268.066 662.481 268.144 661.629 268.144C660.333 268.144 659.211 267.886 658.263 267.37C657.315 266.842 656.589 266.086 656.085 265.102C655.593 264.118 655.347 262.942 655.347 261.574C655.347 260.23 655.593 259.066 656.085 258.082C656.589 257.098 657.303 256.348 658.227 255.832C659.163 255.304 660.261 255.04 661.521 255.04C662.421 255.04 663.249 255.178 664.005 255.454C664.773 255.718 665.427 256.102 665.967 256.606L665.301 257.992C664.689 257.488 664.089 257.128 663.501 256.912C662.913 256.696 662.259 256.588 661.539 256.588C660.147 256.588 659.085 257.014 658.353 257.866C657.633 258.718 657.273 259.954 657.273 261.574C657.273 263.242 657.645 264.508 658.389 265.372C659.133 266.224 660.231 266.65 661.683 266.65C662.655 266.65 663.591 266.506 664.491 266.218V262.618H661.503V261.196H666.183ZM679.545 255.184V268H678.123L670.779 258.316V268H669.033V255.184H670.437L677.799 264.886V255.184H679.545ZM692.462 268.144C690.758 268.144 689.462 267.7 688.574 266.812C687.698 265.924 687.26 264.622 687.26 262.906V255.184H689.078V263.032C689.078 264.22 689.36 265.12 689.924 265.732C690.5 266.332 691.346 266.632 692.462 266.632C693.566 266.632 694.4 266.326 694.964 265.714C695.54 265.102 695.828 264.208 695.828 263.032V255.184H697.664V262.906C697.664 264.622 697.22 265.924 696.332 266.812C695.456 267.7 694.166 268.144 692.462 268.144ZM700.568 255.184H705.896C707.24 255.184 708.284 255.514 709.028 256.174C709.784 256.822 710.162 257.71 710.162 258.838C710.162 259.966 709.778 260.86 709.01 261.52C708.254 262.168 707.216 262.492 705.896 262.492H702.422V268H700.568V255.184ZM705.68 261.016C706.568 261.016 707.234 260.83 707.678 260.458C708.134 260.086 708.362 259.546 708.362 258.838C708.362 258.142 708.134 257.608 707.678 257.236C707.234 256.864 706.568 256.678 705.68 256.678H702.422V261.016H705.68Z" fill="#3C3C43" fill-opacity="0.6"/>
<path d="M782 237.5H567C560.649 237.5 555.5 242.649 555.5 249V275C555.5 281.351 560.649 286.5 567 286.5H782C788.351 286.5 793.5 281.351 793.5 275V249C793.5 242.649 788.351 237.5 782 237.5Z" stroke="white"/>
<path d="M782 340.5H567C560.649 340.5 555.5 345.649 555.5 352V378C555.5 384.351 560.649 389.5 567 389.5H782C788.351 389.5 793.5 384.351 793.5 378V352C793.5 345.649 788.351 340.5 782 340.5Z" fill="white"/>
<path d="M619.204 371.144C617.992 371.144 616.936 370.88 616.036 370.352C615.148 369.812 614.458 369.05 613.966 368.066C613.486 367.082 613.246 365.924 613.246 364.592C613.246 363.248 613.486 362.084 613.966 361.1C614.446 360.116 615.136 359.36 616.036 358.832C616.936 358.304 617.992 358.04 619.204 358.04C620.428 358.04 621.484 358.304 622.372 358.832C623.272 359.36 623.962 360.116 624.442 361.1C624.922 362.084 625.162 363.242 625.162 364.574C625.162 365.918 624.922 367.082 624.442 368.066C623.962 369.05 623.272 369.812 622.372 370.352C621.472 370.88 620.416 371.144 619.204 371.144ZM619.204 369.632C620.488 369.632 621.484 369.194 622.192 368.318C622.912 367.442 623.272 366.194 623.272 364.574C623.272 362.966 622.912 361.73 622.192 360.866C621.484 359.99 620.488 359.552 619.204 359.552C617.92 359.552 616.924 359.99 616.216 360.866C615.508 361.73 615.154 362.966 615.154 364.574C615.154 366.194 615.508 367.442 616.216 368.318C616.936 369.194 617.932 369.632 619.204 369.632ZM638.235 358.184V371H636.813L629.469 361.316V371H627.723V358.184H629.127L636.489 367.886V358.184H638.235ZM648.765 364.394C649.509 364.598 650.085 364.97 650.493 365.51C650.901 366.05 651.105 366.716 651.105 367.508C651.105 368.612 650.721 369.47 649.953 370.082C649.197 370.694 648.135 371 646.767 371H641.223V358.184H646.587C647.907 358.184 648.933 358.478 649.665 359.066C650.409 359.654 650.781 360.476 650.781 361.532C650.781 362.216 650.601 362.81 650.241 363.314C649.893 363.806 649.401 364.166 648.765 364.394ZM643.059 363.746H646.299C648.087 363.746 648.981 363.056 648.981 361.676C648.981 360.344 648.087 359.678 646.299 359.678H643.059V363.746ZM646.587 369.506C647.523 369.506 648.207 369.338 648.639 369.002C649.071 368.654 649.287 368.12 649.287 367.4C649.287 366.668 649.065 366.128 648.621 365.78C648.189 365.42 647.511 365.24 646.587 365.24H643.059V369.506H646.587ZM659.054 371.144C657.842 371.144 656.786 370.88 655.886 370.352C654.998 369.812 654.308 369.05 653.816 368.066C653.336 367.082 653.096 365.924 653.096 364.592C653.096 363.248 653.336 362.084 653.816 361.1C654.296 360.116 654.986 359.36 655.886 358.832C656.786 358.304 657.842 358.04 659.054 358.04C660.278 358.04 661.334 358.304 662.222 358.832C663.122 359.36 663.812 360.116 664.292 361.1C664.772 362.084 665.012 363.242 665.012 364.574C665.012 365.918 664.772 367.082 664.292 368.066C663.812 369.05 663.122 369.812 662.222 370.352C661.322 370.88 660.266 371.144 659.054 371.144ZM659.054 369.632C660.338 369.632 661.334 369.194 662.042 368.318C662.762 367.442 663.122 366.194 663.122 364.574C663.122 362.966 662.762 361.73 662.042 360.866C661.334 359.99 660.338 359.552 659.054 359.552C657.77 359.552 656.774 359.99 656.066 360.866C655.358 361.73 655.004 362.966 655.004 364.574C655.004 366.194 655.358 367.442 656.066 368.318C656.786 369.194 657.782 369.632 659.054 369.632ZM675.698 367.832H669.218L667.85 371H665.96L671.666 358.184H673.232L678.956 371H677.066L675.698 367.832ZM675.068 366.356L672.458 360.254L669.848 366.356H675.068ZM690.894 371H688.932L687.33 366.734C687.162 366.278 686.916 365.966 686.592 365.798C686.268 365.618 685.824 365.528 685.26 365.528H682.452V371H680.616V358.184H685.89C687.294 358.184 688.368 358.496 689.112 359.12C689.868 359.744 690.246 360.638 690.246 361.802C690.246 362.642 690.024 363.356 689.58 363.944C689.136 364.532 688.506 364.946 687.69 365.186C688.434 365.318 688.974 365.846 689.31 366.77L690.894 371ZM685.674 364.034C686.61 364.034 687.306 363.854 687.762 363.494C688.218 363.122 688.446 362.57 688.446 361.838C688.446 361.106 688.218 360.566 687.762 360.218C687.318 359.858 686.622 359.678 685.674 359.678H682.452V364.034H685.674ZM693.167 358.184H697.649C699.725 358.184 701.333 358.742 702.473 359.858C703.613 360.974 704.183 362.546 704.183 364.574C704.183 366.614 703.613 368.198 702.473 369.326C701.333 370.442 699.725 371 697.649 371H693.167V358.184ZM697.541 369.452C700.697 369.452 702.275 367.826 702.275 364.574C702.275 361.346 700.697 359.732 697.541 359.732H695.021V369.452H697.541ZM706.72 358.184H708.574V371H706.72V358.184ZM722.066 358.184V371H720.644L713.3 361.316V371H711.554V358.184H712.958L720.32 367.886V358.184H722.066ZM735.44 364.196V370.244C734.9 370.52 734.216 370.742 733.388 370.91C732.572 371.066 731.738 371.144 730.886 371.144C729.59 371.144 728.468 370.886 727.52 370.37C726.572 369.842 725.846 369.086 725.342 368.102C724.85 367.118 724.604 365.942 724.604 364.574C724.604 363.23 724.85 362.066 725.342 361.082C725.846 360.098 726.56 359.348 727.484 358.832C728.42 358.304 729.518 358.04 730.778 358.04C731.678 358.04 732.506 358.178 733.262 358.454C734.03 358.718 734.684 359.102 735.224 359.606L734.558 360.992C733.946 360.488 733.346 360.128 732.758 359.912C732.17 359.696 731.516 359.588 730.796 359.588C729.404 359.588 728.342 360.014 727.61 360.866C726.89 361.718 726.53 362.954 726.53 364.574C726.53 366.242 726.902 367.508 727.646 368.372C728.39 369.224 729.488 369.65 730.94 369.65C731.912 369.65 732.848 369.506 733.748 369.218V365.618H730.76V364.196H735.44Z" fill="#3C3C43" fill-opacity="0.6"/>
<path d="M782 340.5H567C560.649 340.5 555.5 345.649 555.5 352V378C555.5 384.351 560.649 389.5 567 389.5H782C788.351 389.5 793.5 384.351 793.5 378V352C793.5 345.649 788.351 340.5 782 340.5Z" stroke="white"/>
<path d="M284.219 596.608V608H282.571V602.896H276.187V608H274.555V596.608H276.187V601.536H282.571V596.608H284.219ZM290.195 608.112C289.406 608.112 288.712 607.941 288.115 607.6C287.518 607.259 287.054 606.773 286.723 606.144C286.403 605.515 286.243 604.779 286.243 603.936C286.243 603.093 286.403 602.357 286.723 601.728C287.054 601.088 287.518 600.597 288.115 600.256C288.712 599.915 289.406 599.744 290.195 599.744C290.974 599.744 291.662 599.915 292.259 600.256C292.856 600.597 293.315 601.088 293.635 601.728C293.966 602.357 294.131 603.093 294.131 603.936C294.131 604.779 293.966 605.515 293.635 606.144C293.315 606.773 292.856 607.259 292.259 607.6C291.662 607.941 290.974 608.112 290.195 608.112ZM290.179 606.832C290.926 606.832 291.496 606.587 291.891 606.096C292.286 605.605 292.483 604.885 292.483 603.936C292.483 603.008 292.28 602.293 291.875 601.792C291.48 601.291 290.92 601.04 290.195 601.04C289.459 601.04 288.888 601.291 288.483 601.792C288.078 602.293 287.875 603.008 287.875 603.936C287.875 604.885 288.072 605.605 288.467 606.096C288.872 606.587 289.443 606.832 290.179 606.832ZM305.22 599.744C307.012 599.744 307.908 600.821 307.908 602.976V608H306.292V603.056C306.292 602.363 306.169 601.856 305.924 601.536C305.689 601.216 305.305 601.056 304.772 601.056C304.153 601.056 303.663 601.269 303.3 601.696C302.948 602.123 302.772 602.704 302.772 603.44V608H301.156V603.056C301.156 602.363 301.033 601.856 300.788 601.536C300.553 601.216 300.169 601.056 299.636 601.056C299.017 601.056 298.527 601.269 298.164 601.696C297.801 602.123 297.62 602.704 297.62 603.44V608H296.02V602.208C296.02 601.365 295.977 600.608 295.892 599.936H297.396L297.54 601.28C297.775 600.789 298.111 600.411 298.548 600.144C298.985 599.877 299.497 599.744 300.084 599.744C301.332 599.744 302.148 600.261 302.532 601.296C302.777 600.816 303.135 600.437 303.604 600.16C304.084 599.883 304.623 599.744 305.22 599.744ZM317.103 604H311.343C311.396 605.888 312.255 606.832 313.919 606.832C314.847 606.832 315.695 606.528 316.463 605.92L316.959 607.072C316.596 607.392 316.132 607.648 315.567 607.84C315.012 608.021 314.452 608.112 313.887 608.112C312.596 608.112 311.583 607.744 310.847 607.008C310.111 606.261 309.743 605.243 309.743 603.952C309.743 603.131 309.903 602.4 310.223 601.76C310.554 601.12 311.012 600.624 311.599 600.272C312.186 599.92 312.852 599.744 313.599 599.744C314.687 599.744 315.54 600.096 316.159 600.8C316.788 601.504 317.103 602.48 317.103 603.728V604ZM313.631 600.944C313.023 600.944 312.527 601.125 312.143 601.488C311.759 601.851 311.514 602.368 311.407 603.04H315.679C315.615 602.357 315.407 601.84 315.055 601.488C314.703 601.125 314.228 600.944 313.631 600.944Z" fill="url(#paint1_linear_81_38776)"/>
<path fill-rule="evenodd" clip-rule="evenodd" d="M304.736 577.304C305.104 576.705 305.027 575.929 304.49 575.423L296.012 567.41C295.433 566.863 294.531 566.863 293.952 567.41L285.473 575.423C284.487 576.355 285.147 578.014 286.503 578.014H287.963V585.503C287.963 586.332 288.635 587.003 289.463 587.003H300.5C301.329 587.003 302 586.332 302 585.503V576.479C302 575.649 301.329 574.979 300.5 574.979H289.463C288.635 574.979 287.963 575.649 287.963 576.479V577.014H286.503C286.051 577.014 285.831 576.459 286.159 576.149L294.638 568.136C294.831 567.954 295.133 567.954 295.326 568.136L303.804 576.149C303.983 576.318 304.01 576.565 303.89 576.77C303.888 576.773 303.886 576.776 303.884 576.779C303.794 576.926 303.645 577.012 303.461 577.012C303.185 577.012 302.961 577.236 302.961 577.512C302.961 577.789 303.185 578.012 303.461 578.012C303.992 578.012 304.454 577.749 304.725 577.321C304.729 577.316 304.732 577.31 304.736 577.304ZM288.963 585.503V578.014H294.919C295.195 578.014 295.419 577.79 295.419 577.514C295.419 577.238 295.195 577.014 294.919 577.014H288.963V576.479C288.963 576.203 289.187 575.979 289.463 575.979H300.5C300.777 575.979 301 576.203 301 576.479V585.503C301 585.78 300.777 586.003 300.5 586.003H289.463C289.187 586.003 288.963 585.78 288.963 585.503Z" fill="url(#paint2_linear_81_38776)"/>
<path d="M426.641 596.608H430.625C432.47 596.608 433.899 597.104 434.913 598.096C435.926 599.088 436.433 600.485 436.433 602.288C436.433 604.101 435.926 605.509 434.913 606.512C433.899 607.504 432.47 608 430.625 608H426.641V596.608ZM430.529 606.624C433.334 606.624 434.737 605.179 434.737 602.288C434.737 599.419 433.334 597.984 430.529 597.984H428.289V606.624H430.529ZM438.543 599.936H440.143V608H438.543V599.936ZM440.271 596.416V598.112H438.399V596.416H440.271ZM445.328 608.112C443.92 608.112 442.811 607.771 442 607.088L442.48 605.92C443.323 606.56 444.288 606.88 445.376 606.88C445.931 606.88 446.352 606.789 446.64 606.608C446.928 606.416 447.072 606.149 447.072 605.808C447.072 605.52 446.971 605.296 446.768 605.136C446.576 604.965 446.245 604.821 445.776 604.704L444.432 604.384C443.728 604.235 443.189 603.973 442.816 603.6C442.453 603.216 442.272 602.741 442.272 602.176C442.272 601.451 442.56 600.864 443.136 600.416C443.723 599.968 444.496 599.744 445.456 599.744C446.032 599.744 446.576 599.835 447.088 600.016C447.611 600.197 448.053 600.453 448.416 600.784L447.92 601.92C447.141 601.301 446.32 600.992 445.456 600.992C444.933 600.992 444.528 601.093 444.24 601.296C443.952 601.488 443.808 601.76 443.808 602.112C443.808 602.389 443.899 602.613 444.08 602.784C444.261 602.955 444.549 603.088 444.944 603.184L446.32 603.52C447.088 603.691 447.653 603.963 448.016 604.336C448.389 604.699 448.576 605.173 448.576 605.76C448.576 606.485 448.283 607.061 447.696 607.488C447.12 607.904 446.331 608.112 445.328 608.112ZM453.985 608.112C453.174 608.112 452.465 607.941 451.857 607.6C451.26 607.259 450.801 606.779 450.481 606.16C450.161 605.531 450.001 604.8 450.001 603.968C450.001 603.136 450.166 602.4 450.497 601.76C450.838 601.12 451.313 600.624 451.921 600.272C452.529 599.92 453.238 599.744 454.049 599.744C454.614 599.744 455.158 599.84 455.681 600.032C456.204 600.213 456.625 600.464 456.945 600.784L456.449 601.952C455.692 601.355 454.929 601.056 454.161 601.056C453.382 601.056 452.774 601.312 452.337 601.824C451.9 602.325 451.681 603.035 451.681 603.952C451.681 604.869 451.9 605.579 452.337 606.08C452.774 606.571 453.382 606.816 454.161 606.816C454.95 606.816 455.713 606.517 456.449 605.92L456.945 607.088C456.604 607.408 456.166 607.659 455.633 607.84C455.11 608.021 454.561 608.112 453.985 608.112ZM461.937 608.112C461.148 608.112 460.455 607.941 459.857 607.6C459.26 607.259 458.796 606.773 458.465 606.144C458.145 605.515 457.985 604.779 457.985 603.936C457.985 603.093 458.145 602.357 458.465 601.728C458.796 601.088 459.26 600.597 459.857 600.256C460.455 599.915 461.148 599.744 461.937 599.744C462.716 599.744 463.404 599.915 464.001 600.256C464.599 600.597 465.057 601.088 465.377 601.728C465.708 602.357 465.873 603.093 465.873 603.936C465.873 604.779 465.708 605.515 465.377 606.144C465.057 606.773 464.599 607.259 464.001 607.6C463.404 607.941 462.716 608.112 461.937 608.112ZM461.921 606.832C462.668 606.832 463.239 606.587 463.633 606.096C464.028 605.605 464.225 604.885 464.225 603.936C464.225 603.008 464.023 602.293 463.617 601.792C463.223 601.291 462.663 601.04 461.937 601.04C461.201 601.04 460.631 601.291 460.225 601.792C459.82 602.293 459.617 603.008 459.617 603.936C459.617 604.885 459.815 605.605 460.209 606.096C460.615 606.587 461.185 606.832 461.921 606.832ZM474.981 599.952L471.477 608H470.021L466.549 599.952H468.261L470.789 606.176L473.365 599.952H474.981ZM483.002 604H477.242C477.295 605.888 478.154 606.832 479.818 606.832C480.746 606.832 481.594 606.528 482.362 605.92L482.858 607.072C482.495 607.392 482.031 607.648 481.466 607.84C480.911 608.021 480.351 608.112 479.786 608.112C478.495 608.112 477.482 607.744 476.746 607.008C476.01 606.261 475.642 605.243 475.642 603.952C475.642 603.131 475.802 602.4 476.122 601.76C476.452 601.12 476.911 600.624 477.498 600.272C478.084 599.92 478.751 599.744 479.498 599.744C480.586 599.744 481.439 600.096 482.058 600.8C482.687 601.504 483.002 602.48 483.002 603.728V604ZM479.53 600.944C478.922 600.944 478.426 601.125 478.042 601.488C477.658 601.851 477.412 602.368 477.306 603.04H481.578C481.514 602.357 481.306 601.84 480.954 601.488C480.602 601.125 480.127 600.944 479.53 600.944ZM488.872 599.744C489.117 599.744 489.373 599.781 489.64 599.856L489.608 601.328C489.32 601.221 489.005 601.168 488.664 601.168C487.928 601.168 487.373 601.392 487 601.84C486.637 602.277 486.456 602.832 486.456 603.504V608H484.856V602.208C484.856 601.365 484.813 600.608 484.728 599.936H486.232L486.376 601.392C486.589 600.859 486.92 600.453 487.368 600.176C487.816 599.888 488.317 599.744 488.872 599.744Z" fill="url(#paint3_linear_81_38776)"/>
<path fill-rule="evenodd" clip-rule="evenodd" d="M461.638 579.466C462.498 578.191 463 576.654 463 575C463 570.581 459.419 567 455 567C450.582 567 447 570.582 447 575C447 579.419 450.581 583 455 583C457.402 583 459.557 581.941 461.023 580.265L465.83 585.071C466.037 585.279 466.037 585.615 465.83 585.822C465.728 585.923 465.594 585.978 465.455 585.978C465.315 585.978 465.181 585.923 465.08 585.822L461.333 582.075C461.137 581.88 460.821 581.88 460.626 582.075C460.43 582.271 460.43 582.587 460.626 582.782L464.373 586.529C464.663 586.82 465.052 586.978 465.455 586.978C465.857 586.978 466.246 586.82 466.537 586.529C467.135 585.931 467.135 584.963 466.537 584.364L461.638 579.466ZM460.916 578.744C461.602 577.661 462 576.377 462 575C462 571.133 458.866 568 455 568C451.134 568 448 571.134 448 575C448 578.866 451.134 582 455 582C457.126 582 459.031 581.052 460.314 579.556L459.194 578.435C458.998 578.24 458.998 577.924 459.194 577.728C459.389 577.533 459.705 577.533 459.901 577.728L460.916 578.744ZM457.712 579.201C456.911 579.72 455.976 580 455 580C452.238 580 450 577.761 450 575C450 574.724 449.776 574.5 449.5 574.5C449.223 574.5 449 574.724 449 575C449 578.314 451.686 581 455 581C456.171 581 457.293 580.663 458.255 580.041C458.487 579.89 458.553 579.581 458.403 579.349C458.253 579.117 457.944 579.051 457.712 579.201Z" fill="url(#paint4_linear_81_38776)"/>
<path d="M596.591 596.608V608H595.103V600.176L591.727 608H590.591L587.167 600.224L587.183 608H585.695V596.608H587.023L591.167 606.016L595.263 596.608H596.591ZM606.441 599.936L602.681 608.656C602.265 609.605 601.742 610.299 601.113 610.736C600.494 611.184 599.726 611.483 598.809 611.632L598.457 610.384C599.214 610.213 599.785 609.989 600.169 609.712C600.563 609.445 600.878 609.04 601.113 608.496L601.401 607.824L598.009 599.936H599.721L602.249 606.176L604.825 599.936H606.441ZM623.012 596.608V608H621.524V600.176L618.148 608H617.012L613.588 600.224L613.604 608H612.116V596.608H613.444L617.588 606.016L621.684 596.608H623.012ZM632.543 599.936V608H630.975V606.656C630.719 607.125 630.367 607.488 629.919 607.744C629.471 607.989 628.964 608.112 628.399 608.112C626.457 608.112 625.487 607.035 625.487 604.88V599.936H627.087V604.864C627.087 605.525 627.22 606.016 627.487 606.336C627.764 606.645 628.18 606.8 628.735 606.8C629.396 606.8 629.924 606.587 630.319 606.16C630.724 605.733 630.927 605.168 630.927 604.464V599.936H632.543ZM637.726 608.112C636.318 608.112 635.208 607.771 634.398 607.088L634.878 605.92C635.72 606.56 636.686 606.88 637.774 606.88C638.328 606.88 638.75 606.789 639.038 606.608C639.326 606.416 639.47 606.149 639.47 605.808C639.47 605.52 639.368 605.296 639.166 605.136C638.974 604.965 638.643 604.821 638.174 604.704L636.83 604.384C636.126 604.235 635.587 603.973 635.214 603.6C634.851 603.216 634.67 602.741 634.67 602.176C634.67 601.451 634.958 600.864 635.534 600.416C636.12 599.968 636.894 599.744 637.854 599.744C638.43 599.744 638.974 599.835 639.486 600.016C640.008 600.197 640.451 600.453 640.814 600.784L640.318 601.92C639.539 601.301 638.718 600.992 637.854 600.992C637.331 600.992 636.926 601.093 636.638 601.296C636.35 601.488 636.206 601.76 636.206 602.112C636.206 602.389 636.296 602.613 636.478 602.784C636.659 602.955 636.947 603.088 637.342 603.184L638.718 603.52C639.486 603.691 640.051 603.963 640.414 604.336C640.787 604.699 640.974 605.173 640.974 605.76C640.974 606.485 640.68 607.061 640.094 607.488C639.518 607.904 638.728 608.112 637.726 608.112ZM642.878 599.936H644.478V608H642.878V599.936ZM644.606 596.416V598.112H642.734V596.416H644.606ZM650.351 608.112C649.54 608.112 648.831 607.941 648.223 607.6C647.626 607.259 647.167 606.779 646.847 606.16C646.527 605.531 646.367 604.8 646.367 603.968C646.367 603.136 646.532 602.4 646.863 601.76C647.204 601.12 647.679 600.624 648.287 600.272C648.895 599.92 649.604 599.744 650.415 599.744C650.98 599.744 651.524 599.84 652.047 600.032C652.57 600.213 652.991 600.464 653.311 600.784L652.815 601.952C652.058 601.355 651.295 601.056 650.527 601.056C649.748 601.056 649.14 601.312 648.703 601.824C648.266 602.325 648.047 603.035 648.047 603.952C648.047 604.869 648.266 605.579 648.703 606.08C649.14 606.571 649.748 606.816 650.527 606.816C651.316 606.816 652.079 606.517 652.815 605.92L653.311 607.088C652.97 607.408 652.532 607.659 651.999 607.84C651.476 608.021 650.927 608.112 650.351 608.112Z" fill="url(#paint5_linear_81_38776)"/>
<path fill-rule="evenodd" clip-rule="evenodd" d="M617.418 569.835L628 568.073V580.982C628 582.639 626.657 583.982 625 583.982C623.343 583.982 622 582.639 622 580.982C622 579.325 623.343 577.982 625 577.982C625.444 577.982 625.874 578.078 626.268 578.262C626.518 578.379 626.815 578.271 626.932 578.02C627.049 577.77 626.941 577.473 626.69 577.356C626.165 577.111 625.591 576.982 625 576.982C622.791 576.982 621 578.773 621 580.982C621 583.191 622.791 584.982 625 584.982C627.209 584.982 629 583.191 629 580.982V567.6C629 567.227 628.662 566.943 628.294 567.01L617.253 568.849C616.53 568.97 616 569.596 616 570.329V571.73L615.386 571.833C615.114 571.878 614.93 572.136 614.975 572.408C615.021 572.681 615.279 572.865 615.551 572.819L616 572.744V582.982C616 584.639 614.657 585.982 613 585.982C611.343 585.982 610 584.639 610 582.982C610 581.325 611.343 579.982 613 579.982C613.467 579.982 613.917 580.088 614.325 580.289C614.572 580.411 614.872 580.31 614.994 580.062C615.117 579.815 615.015 579.515 614.767 579.393C614.223 579.124 613.621 578.982 613 578.982C610.791 578.982 609 580.773 609 582.982C609 585.191 610.791 586.982 613 586.982C615.209 586.982 617 585.191 617 582.982V572.576L626.562 570.975C626.834 570.929 627.018 570.672 626.973 570.399C626.927 570.127 626.669 569.943 626.397 569.989L617 571.562V570.329C617 570.085 617.177 569.876 617.418 569.835ZM617 571.562L616 571.73V572.744L617 572.576V571.562ZM617 582.982C617 582.706 616.776 582.482 616.5 582.482C616.224 582.482 616 582.706 616 582.982C616 583.258 616.224 583.482 616.5 583.482C616.776 583.482 617 583.258 617 582.982ZM629 580.982C629 580.706 628.776 580.482 628.5 580.482C628.224 580.482 628 580.706 628 580.982C628 581.258 628.224 581.482 628.5 581.482C628.776 581.482 629 581.258 629 580.982ZM628 568.073L628.453 567.997C628.218 568.032 628 567.844 628 567.6V568.073Z" fill="url(#paint6_linear_81_38776)"/>
<path d="M768.438 596.608H773.173C774.368 596.608 775.296 596.901 775.957 597.488C776.629 598.064 776.966 598.853 776.966 599.856C776.966 600.859 776.624 601.653 775.941 602.24C775.269 602.816 774.347 603.104 773.173 603.104H770.086V608H768.438V596.608ZM772.982 601.792C773.772 601.792 774.364 601.627 774.758 601.296C775.164 600.965 775.365 600.485 775.365 599.856C775.365 599.237 775.164 598.763 774.758 598.432C774.364 598.101 773.772 597.936 772.982 597.936H770.086V601.792H772.982ZM782.685 599.744C782.931 599.744 783.187 599.781 783.453 599.856L783.42 601.328C783.132 601.221 782.819 601.168 782.477 601.168C781.741 601.168 781.186 601.392 780.812 601.84C780.451 602.277 780.268 602.832 780.268 603.504V608H778.669V602.208C778.669 601.365 778.626 600.608 778.54 599.936H780.044L780.188 601.392C780.402 600.859 780.732 600.453 781.18 600.176C781.628 599.888 782.131 599.744 782.685 599.744ZM788 608.112C787.21 608.112 786.517 607.941 785.92 607.6C785.322 607.259 784.859 606.773 784.529 606.144C784.209 605.515 784.048 604.779 784.048 603.936C784.048 603.093 784.209 602.357 784.529 601.728C784.859 601.088 785.322 600.597 785.92 600.256C786.517 599.915 787.21 599.744 788 599.744C788.778 599.744 789.467 599.915 790.065 600.256C790.662 600.597 791.12 601.088 791.44 601.728C791.77 602.357 791.936 603.093 791.936 603.936C791.936 604.779 791.77 605.515 791.44 606.144C791.12 606.773 790.662 607.259 790.065 607.6C789.467 607.941 788.778 608.112 788 608.112ZM787.984 606.832C788.73 606.832 789.301 606.587 789.696 606.096C790.09 605.605 790.289 604.885 790.289 603.936C790.289 603.008 790.085 602.293 789.68 601.792C789.285 601.291 788.725 601.04 788 601.04C787.264 601.04 786.694 601.291 786.289 601.792C785.883 602.293 785.68 603.008 785.68 603.936C785.68 604.885 785.877 605.605 786.272 606.096C786.677 606.587 787.248 606.832 787.984 606.832ZM797.201 597.52C796.316 597.52 795.873 598.027 795.873 599.04V599.936H797.761V601.184H795.873V608H794.258V601.184H792.706V599.936H794.258V598.912C794.258 598.016 794.482 597.333 794.93 596.864C795.389 596.395 796.028 596.16 796.849 596.16C797.276 596.16 797.666 596.213 798.018 596.32V597.648C797.73 597.563 797.457 597.52 797.201 597.52ZM799.404 599.936H801.003V608H799.404V599.936ZM801.131 596.416V598.112H799.259V596.416H801.131ZM803.372 596.224H804.972V608H803.372V596.224ZM814.22 604H808.461C808.515 605.888 809.372 606.832 811.036 606.832C811.965 606.832 812.813 606.528 813.581 605.92L814.076 607.072C813.714 607.392 813.251 607.648 812.685 607.84C812.131 608.021 811.571 608.112 811.005 608.112C809.715 608.112 808.7 607.744 807.964 607.008C807.228 606.261 806.86 605.243 806.86 603.952C806.86 603.131 807.021 602.4 807.341 601.76C807.672 601.12 808.13 600.624 808.716 600.272C809.303 599.92 809.97 599.744 810.716 599.744C811.804 599.744 812.658 600.096 813.276 600.8C813.906 601.504 814.22 602.48 814.22 603.728V604ZM810.748 600.944C810.14 600.944 809.644 601.125 809.26 601.488C808.876 601.851 808.631 602.368 808.524 603.04H812.797C812.733 602.357 812.524 601.84 812.172 601.488C811.82 601.125 811.346 600.944 810.748 600.944Z" fill="url(#paint7_linear_81_38776)"/>
<path fill-rule="evenodd" clip-rule="evenodd" d="M795.115 576.149C794.107 577.285 792.637 578 791 578C787.963 578 785.5 575.538 785.5 572.5C785.5 569.463 787.963 567 791 567C794.037 567 796.5 569.463 796.5 572.5C796.5 573.54 796.211 574.513 795.709 575.343C797.701 576.634 799 578.724 799 581.093V585.489C799 586.318 798.329 586.989 797.5 586.989H784.5C783.671 586.989 783 586.318 783 585.489V581.093C783 579.288 783.76 577.589 785.101 576.288C785.299 576.096 785.615 576.101 785.808 576.299C786 576.497 785.995 576.814 785.797 577.006C784.645 578.123 784 579.566 784 581.093V585.489C784 585.766 784.223 585.989 784.5 585.989H797.5C797.777 585.989 798 585.766 798 585.489V581.093C798 579.067 796.866 577.263 795.115 576.149ZM794.205 575.659C793.389 576.487 792.254 577 791 577C788.515 577 786.5 574.985 786.5 572.5C786.5 570.015 788.515 568 791 568C793.485 568 795.5 570.015 795.5 572.5C795.5 573.362 795.258 574.167 794.838 574.851C793.697 574.296 792.389 573.981 791 573.981C790.724 573.981 790.5 574.205 790.5 574.481C790.5 574.757 790.724 574.981 791 574.981C792.157 574.981 793.246 575.226 794.205 575.659Z" fill="url(#paint8_linear_81_38776)"/>
</g>
<rect x="0.477988" y="0.477988" width="1001.04" height="722.044" stroke="white" stroke-width="0.955976"/>
<defs>
<filter id="filter0_d_81_38776" x="160" y="99" width="683" height="526" filterUnits="userSpaceOnUse" color-interpolation-filters="sRGB">
<feFlood flood-opacity="0" result="BackgroundImageFix"/>
<feColorMatrix in="SourceAlpha" type="matrix" values="0 0 0 0 0 0 0 0 0 0 0 0 0 0 0 0 0 0 127 0" result="hardAlpha"/>
<feOffset/>
<feGaussianBlur stdDeviation="7.5"/>
<feColorMatrix type="matrix" values="0 0 0 0 0.439216 0 0 0 0 0.407843 0 0 0 0 0.356863 0 0 0 0.23 0"/>
<feBlend mode="normal" in2="BackgroundImageFix" result="effect1_dropShadow_81_38776"/>
<feBlend mode="normal" in="SourceGraphic" in2="effect1_dropShadow_81_38776" result="shape"/>
</filter>
<linearGradient id="paint0_linear_81_38776" x1="498" y1="197.139" x2="495.3" y2="164.057" gradientUnits="userSpaceOnUse">
<stop offset="0.21875" stop-color="#969BFF"/>
<stop offset="1" stop-color="#656CEE"/>
</linearGradient>
<linearGradient id="paint1_linear_81_38776" x1="299.369" y1="614.291" x2="298.912" y2="606.993" gradientUnits="userSpaceOnUse">
<stop offset="0.21875" stop-color="#969BFF"/>
<stop offset="1" stop-color="#656CEE"/>
</linearGradient>
<linearGradient id="paint2_linear_81_38776" x1="296.698" y1="600.261" x2="293.489" y2="587.762" gradientUnits="userSpaceOnUse">
<stop offset="0.21875" stop-color="#969BFF"/>
<stop offset="1" stop-color="#656CEE"/>
</linearGradient>
<linearGradient id="paint3_linear_81_38776" x1="463.089" y1="614.291" x2="462.772" y2="606.978" gradientUnits="userSpaceOnUse">
<stop offset="0.21875" stop-color="#969BFF"/>
<stop offset="1" stop-color="#656CEE"/>
</linearGradient>
<linearGradient id="paint4_linear_81_38776" x1="458.711" y1="600.219" x2="455.513" y2="587.732" gradientUnits="userSpaceOnUse">
<stop offset="0.21875" stop-color="#969BFF"/>
<stop offset="1" stop-color="#656CEE"/>
</linearGradient>
<linearGradient id="paint5_linear_81_38776" x1="625.018" y1="614.291" x2="624.724" y2="606.976" gradientUnits="userSpaceOnUse">
<stop offset="0.21875" stop-color="#969BFF"/>
<stop offset="1" stop-color="#656CEE"/>
</linearGradient>
<linearGradient id="paint6_linear_81_38776" x1="620.72" y1="600.226" x2="617.522" y2="587.735" gradientUnits="userSpaceOnUse">
<stop offset="0.21875" stop-color="#969BFF"/>
<stop offset="1" stop-color="#656CEE"/>
</linearGradient>
<linearGradient id="paint7_linear_81_38776" x1="795.127" y1="614.291" x2="794.699" y2="606.989" gradientUnits="userSpaceOnUse">
<stop offset="0.21875" stop-color="#969BFF"/>
<stop offset="1" stop-color="#656CEE"/>
</linearGradient>
<linearGradient id="paint8_linear_81_38776" x1="792.375" y1="600.238" x2="788.51" y2="588.162" gradientUnits="userSpaceOnUse">
<stop offset="0.21875" stop-color="#969BFF"/>
<stop offset="1" stop-color="#656CEE"/>
</linearGradient>
<clipPath id="clip0_81_38776">
<rect width="653" height="496" fill="white" transform="translate(175 114)"/>
</clipPath>
</defs>
</svg>
